<?xml version="1.0" encoding="UTF-8" standalone="no"?>
<!-- Created with Inkscape (http://www.inkscape.org/) -->

<svg
   width="11.25in"
   height="23.5in"
   viewBox="0 0 285.75 596.90002"
   version="1.1"
   id="svg5"
   inkscape:version="1.1 (c68e22c387, 2021-05-23)"
   sodipodi:docname="Do not touch side panel.svg"
   xmlns:inkscape="http://www.inkscape.org/namespaces/inkscape"
   xmlns:sodipodi="http://sodipodi.sourceforge.net/DTD/sodipodi-0.dtd"
   xmlns="http://www.w3.org/2000/svg"
   xmlns:svg="http://www.w3.org/2000/svg">
  <sodipodi:namedview
     id="namedview7"
     pagecolor="#ffffff"
     bordercolor="#666666"
     borderopacity="1.0"
     inkscape:pageshadow="2"
     inkscape:pageopacity="0.0"
     inkscape:pagecheckerboard="0"
     inkscape:document-units="mm"
     showgrid="true"
     units="in"
     showguides="true"
     inkscape:guide-bbox="true"
     inkscape:zoom="0.67081229"
     inkscape:cx="103.60573"
     inkscape:cy="1858.1949"
     inkscape:window-width="1920"
     inkscape:window-height="1017"
     inkscape:window-x="1929"
     inkscape:window-y="1078"
     inkscape:window-maximized="1"
     inkscape:current-layer="layer1">
    <inkscape:grid
       type="xygrid"
       id="grid22101" />
  </sodipodi:namedview>
  <defs
     id="defs2">
    <rect
       x="-1.49073"
       y="110.31402"
       width="1079.2885"
       height="177.39687"
       id="rect2805" />
  </defs>
  <g
     inkscape:label="Layer 1"
     inkscape:groupmode="layer"
     id="layer1">
    <path
       id="path23246"
       style="fill:none;stroke:#ff0000"
       d="m 143.875,552.70386 a 1,1 0 0 1 -1,1 1,1 0 0 1 -1,-1 1,1 0 0 1 1,-1 1,1 0 0 1 1,1 z" />
    <g
       transform="scale(0.26458333)"
       id="text2803"
       style="font-size:192px;line-height:1.25;font-family:'Seven Segment';-inkscape-font-specification:'Seven Segment';text-align:center;text-anchor:middle;white-space:pre;shape-inside:url(#rect2805)" />
    <g
       aria-label="Do Not

Touch!"
       id="text17023"
       style="font-size:50.8px;line-height:1.25;font-family:'Seven Segment';-inkscape-font-specification:'Seven Segment';text-align:center;text-anchor:middle;stroke-width:0.264583">
      <path
         d="M 72.466899,71.690205 V 57.129854 l 1.612304,-1.612305 1.612305,1.612305 v 11.310937 z m 0,-19.397265 V 37.707784 l 3.224609,3.249414 V 52.29294 l -1.612305,1.612305 z m 0.818554,20.191015 3.22461,-3.224609 H 87.821 l 1.612305,1.612305 -1.612305,1.612304 z m 0,-35.545116 H 87.821 L 89.433305,38.551143 87.821,40.163448 H 76.510063 Z M 88.639555,68.440791 V 57.129854 l 1.612304,-1.612305 1.612305,1.612305 v 11.310937 l -1.612305,1.612305 z m 0,-16.147851 V 40.957198 l 1.612304,-1.612305 1.612305,1.612305 V 52.29294 l -1.612305,1.612305 z"
         id="path23330" />
      <path
         d="M 97.966117,68.440791 V 57.129854 l 1.612304,-1.612305 1.612309,1.612305 v 11.310937 l -1.612309,1.612305 z m 0,-16.172656 V 40.957198 l 1.612304,-1.612305 1.612309,1.612305 v 11.310937 l -1.612309,1.63711 z m 2.430863,18.603516 1.6123,-1.612305 h 11.31094 l 1.6123,1.612305 -1.6123,1.612304 h -11.31094 z m 0,-32.320508 1.6123,-1.637109 h 11.31094 l 1.6123,1.637109 -1.6123,1.612305 h -11.31094 z m 13.74179,29.889648 V 57.129854 l 1.61231,-1.612305 1.6123,1.612305 v 11.310937 l -1.6123,1.612305 z m 0,-16.172656 V 40.957198 l 1.61231,-1.612305 1.6123,1.612305 v 11.310937 l -1.6123,1.63711 z"
         id="path23332" />
      <path
         d="M 138.69541,70.871651 V 57.129854 l 1.61231,-1.612305 1.6123,1.612305 v 13.741797 l -1.6123,1.612304 z m 0,-18.578711 V 40.957198 l 1.61231,-1.612305 1.6123,1.612305 V 52.29294 l -1.6123,1.612305 z m 2.43086,-13.741797 1.61231,-1.612304 h 11.31094 l 1.6123,1.612304 -1.6123,1.612305 h -11.31094 z m 13.7418,32.320508 V 57.129854 l 1.6123,-1.612305 1.61231,1.612305 v 13.741797 l -1.61231,1.612304 z m 0,-18.578711 V 40.957198 l 1.6123,-1.612305 1.61231,1.612305 V 52.29294 l -1.61231,1.612305 z"
         id="path23334" />
      <path
         d="M 164.19463,68.440791 V 57.129854 l 1.6123,-1.612305 1.61231,1.612305 v 11.310937 l -1.61231,1.612305 z m 0,-16.172656 V 40.957198 l 1.6123,-1.612305 1.61231,1.612305 v 11.310937 l -1.61231,1.63711 z m 2.43086,18.603516 1.6123,-1.612305 h 11.31094 l 1.6123,1.612305 -1.6123,1.612304 h -11.31094 z m 0,-32.320508 1.6123,-1.637109 h 11.31094 l 1.6123,1.637109 -1.6123,1.612305 h -11.31094 z m 13.74179,29.889648 V 57.129854 l 1.61231,-1.612305 1.6123,1.612305 v 11.310937 l -1.6123,1.612305 z m 0,-16.172656 V 40.957198 l 1.61231,-1.612305 1.6123,1.612305 v 11.310937 l -1.6123,1.63711 z"
         id="path23336" />
      <path
         d="m 189.69385,38.551143 1.6123,-1.637109 h 7.73907 l 1.6123,1.637109 -1.6123,1.612305 h -7.73907 z m 10.16992,32.320508 V 57.129854 l 1.63711,-1.612305 1.61231,1.612305 v 13.741797 l -1.61231,1.612304 z m 0,-18.603516 V 40.957198 l 1.63711,-1.612305 1.61231,1.612305 v 11.310937 l -1.61231,1.63711 z m 2.45567,-13.716992 1.6123,-1.637109 h 7.73906 l 1.61231,1.637109 -1.61231,1.612305 h -7.73906 z"
         id="path23338" />
      <path
         d="m 76.621684,165.55114 1.612304,-1.63711 h 7.739063 l 1.612304,1.63711 -1.612304,1.61231 h -7.739063 z m 10.169921,32.32051 v -13.7418 l 1.63711,-1.6123 1.612304,1.6123 v 13.7418 l -1.612304,1.6123 z m 0,-18.60352 V 167.9572 l 1.63711,-1.61231 1.612304,1.61231 v 11.31093 l -1.612304,1.63711 z m 2.455664,-13.71699 1.612305,-1.63711 h 7.739063 l 1.612303,1.63711 -1.612303,1.61231 h -7.739063 z"
         id="path23340" />
      <path
         d="m 106.3377,195.44079 v -11.31094 l 1.6123,-1.6123 1.61231,1.6123 v 11.31094 l -1.61231,1.6123 z m 0,-16.17266 V 167.9572 l 1.6123,-1.61231 1.61231,1.61231 v 11.31093 l -1.61231,1.63711 z m 2.43086,18.60352 1.6123,-1.61231 h 11.31094 l 1.6123,1.61231 -1.6123,1.6123 h -11.31094 z m 0,-32.32051 1.6123,-1.63711 h 11.31094 l 1.6123,1.63711 -1.6123,1.61231 h -11.31094 z m 13.74179,29.88965 v -11.31094 l 1.61231,-1.6123 1.6123,1.6123 v 11.31094 l -1.6123,1.6123 z m 0,-16.17266 V 167.9572 l 1.61231,-1.61231 1.6123,1.61231 v 11.31093 l -1.6123,1.63711 z"
         id="path23342" />
      <path
         d="m 131.83692,195.44079 v -11.31094 l 1.6123,-1.6123 1.61231,1.6123 v 11.31094 l -1.61231,1.6123 z m 0,-16.17266 v -13.71699 l 1.6123,-1.63711 1.61231,1.63711 v 13.71699 l -1.61231,1.63711 z m 2.43086,18.60352 1.6123,-1.61231 h 11.31094 l 1.6123,1.61231 -1.6123,1.6123 h -11.31094 z m 13.74179,-2.43086 v -11.31094 l 1.61231,-1.6123 1.6123,1.6123 v 11.31094 l -1.6123,1.6123 z m 0,-16.17266 v -13.71699 l 1.61231,-1.63711 1.6123,1.63711 v 13.71699 l -1.6123,1.63711 z"
         id="path23344" />
      <path
         d="m 157.33613,195.44079 v -11.31094 l 1.61231,-1.6123 1.6123,1.6123 v 11.31094 l -1.6123,1.6123 z m 0,-16.17266 V 167.9572 l 1.61231,-1.61231 1.6123,1.61231 v 11.31093 l -1.6123,1.63711 z m 2.43086,18.60352 1.6123,-1.61231 h 11.31094 l 1.61231,1.61231 -1.61231,1.6123 h -11.31094 z m 0,-32.32051 1.6123,-1.63711 h 11.31094 l 1.61231,1.63711 -1.61231,1.61231 h -11.31094 z"
         id="path23346" />
      <path
         d="m 180.4293,197.87165 v -13.7418 l 1.61231,-1.6123 1.6123,1.6123 v 13.7418 l -1.6123,1.6123 z m 0,-18.57871 v -13.7418 l 1.61231,-1.6123 1.6123,1.6123 v 13.7418 l -1.6123,1.6123 z m 2.43086,2.40605 1.6123,-1.6123 h 11.31094 l 1.61231,1.6123 -1.61231,1.61231 h -11.31094 z m 13.7418,16.17266 v -13.7418 l 1.6123,-1.6123 1.61231,1.6123 v 13.7418 l -1.61231,1.6123 z m 0,-18.57871 v -13.7418 l 1.6123,-1.6123 1.61231,1.6123 v 13.7418 l -1.61231,1.6123 z"
         id="path23348" />
      <path
         d="m 205.92852,197.87165 v -1.66192 l 1.61231,-1.6371 1.6123,1.6371 v 1.66192 l -1.6123,1.6123 z m 0,-6.22598 v -26.09453 l 1.61231,-1.63711 1.6123,1.63711 v 26.09453 l -1.6123,1.61231 z"
         id="path23350" />
    </g>
    <path
       id="path22229"
       style="fill:none;stroke:#ff0000"
       d="m 154.875,116.59985 a 12,12 0 0 1 -12,12 12,12 0 0 1 -12,-12 12,12 0 0 1 12,-12 12,12 0 0 1 12,12 z" />
  </g>
</svg>
