<?xml version="1.0" encoding="UTF-8" standalone="no"?>
<!-- Created with Inkscape (http://www.inkscape.org/) -->

<svg
   xmlns:dc="http://purl.org/dc/elements/1.1/"
   xmlns:cc="http://creativecommons.org/ns#"
   xmlns:rdf="http://www.w3.org/1999/02/22-rdf-syntax-ns#"
   xmlns:svg="http://www.w3.org/2000/svg"
   xmlns="http://www.w3.org/2000/svg"
   xmlns:sodipodi="http://sodipodi.sourceforge.net/DTD/sodipodi-0.dtd"
   xmlns:inkscape="http://www.inkscape.org/namespaces/inkscape"
   width="101.81863mm"
   height="102.25247mm"
   viewBox="0 0 101.81863 102.25247"
   version="1.1"
   id="svg5081"
   inkscape:version="0.92.4 (5da689c313, 2019-01-14)"
   sodipodi:docname="wheel_with_numbers.svg">
  <defs
     id="defs5075" />
  <sodipodi:namedview
     id="base"
     pagecolor="#ffffff"
     bordercolor="#666666"
     borderopacity="1.0"
     inkscape:pageopacity="0.0"
     inkscape:pageshadow="2"
     inkscape:zoom="1.4"
     inkscape:cx="6.4486505"
     inkscape:cy="201.17002"
     inkscape:document-units="mm"
     inkscape:current-layer="layer1"
     showgrid="false"
     fit-margin-top="0"
     fit-margin-left="0"
     fit-margin-right="0"
     fit-margin-bottom="0"
     inkscape:window-width="1920"
     inkscape:window-height="1017"
     inkscape:window-x="-8"
     inkscape:window-y="1085"
     inkscape:window-maximized="1" />
  <metadata
     id="metadata5078">
    <rdf:RDF>
      <cc:Work
         rdf:about="">
        <dc:format>image/svg+xml</dc:format>
        <dc:type
           rdf:resource="http://purl.org/dc/dcmitype/StillImage" />
        <dc:title></dc:title>
      </cc:Work>
    </rdf:RDF>
  </metadata>
  <g
     inkscape:label="Layer 1"
     inkscape:groupmode="layer"
     id="layer1"
     transform="translate(-49.223028,-61.291656)">
    <path
       style="opacity:0.98000004;fill:none;fill-opacity:1;stroke:#ff0000;stroke-width:1;stroke-miterlimit:4;stroke-dasharray:none;stroke-opacity:1"
       d="m 150.54166,111.79166 a 50,50 0 0 1 -50,50 50,50 0 0 1 -50.000004,-50 50,50 0 0 1 50.000004,-50.000004 50,50 0 0 1 50,50.000004 z"
       id="path5626"
       inkscape:connector-curvature="0" />
    <path
       style="fill:none;stroke:#0000ff;stroke-width:0.99999994;stroke-linecap:butt;stroke-linejoin:miter;stroke-miterlimit:4;stroke-dasharray:none;stroke-opacity:1"
       d="m 100.1235,61.36503 c 0,101.6791 -0.188987,101.6791 -0.188987,101.6791"
       id="path5628"
       inkscape:connector-curvature="0" />
    <path
       style="fill:none;stroke:#0000ff;stroke-width:0.99999988;stroke-linecap:butt;stroke-linejoin:miter;stroke-miterlimit:4;stroke-dasharray:none;stroke-opacity:1"
       d="m 150.84043,112.43228 c -101.117402,0 -101.117402,-0.18899 -101.117402,-0.18899"
       id="path5628-2"
       inkscape:connector-curvature="0" />
    <path
       style="fill:none;stroke:#0000ff;stroke-width:1;stroke-linecap:butt;stroke-linejoin:miter;stroke-miterlimit:4;stroke-dasharray:none;stroke-opacity:1"
       d="M 142.24561,70.313955 C 56.407454,156.15211 56.273818,156.01847 56.273818,156.01847"
       id="path5628-2-2"
       inkscape:connector-curvature="0" />
    <path
       style="fill:none;stroke:#0000ff;stroke-width:1;stroke-linecap:butt;stroke-linejoin:miter;stroke-miterlimit:4;stroke-dasharray:none;stroke-opacity:1"
       d="M 144.86564,157.20231 C 59.027492,71.364157 59.161132,71.230521 59.161132,71.230521"
       id="path5628-2-2-0"
       inkscape:connector-curvature="0" />
    <g
       aria-label="Bankrupt"
       transform="rotate(145.92049)"
       style="font-style:normal;font-variant:normal;font-weight:normal;font-stretch:normal;font-size:35.27777481px;line-height:94;font-family:'Californian FB';-inkscape-font-specification:'Californian FB';letter-spacing:0px;word-spacing:0px;fill:#000000;fill-opacity:1;stroke:none;stroke-width:0.26458332"
       id="text5677">
      <path
         d="m -63.593214,-151.9518 q 0,0.75723 -0.545014,1.23472 -0.607715,0.53054 -1.668805,0.53054 -0.115755,0 -0.747585,-0.0289 -0.631831,-0.0289 -0.930865,-0.0289 h -0.742763 q -0.03858,0 -0.03858,-0.0386 v -0.16881 q 0,-0.0482 0.03858,-0.0482 h 0.670416 q 0.120578,0 0.120578,-0.16881 0,-0.0579 -0.01929,-1.45176 -0.01929,-1.39389 -0.01929,-1.53376 v -1.94372 q -0.04341,-0.89711 -0.188102,-0.89711 h -0.733117 q -0.03858,0 -0.03858,-0.053 v -0.15434 q 0,-0.0434 0.04823,-0.0434 h 1.442117 q 0.06752,0 0.516075,-0.0145 0.453375,-0.0145 0.530545,-0.0145 0.467844,0 0.467844,0 0.226687,0.01 0.622184,0.11093 0.371381,0.1447 0.627007,0.44856 0.299035,0.35691 0.299035,0.87298 0,0.38585 -0.135048,0.66077 -0.05788,0.11576 -0.260449,0.37621 -0.265273,0.34726 -0.73794,0.60289 -0.09646,0.053 -0.0096,0.082 0.535368,0.16399 0.964627,0.54984 0.467844,0.41479 0.467844,1.11897 z m -1.027328,-3.00482 q 0,-0.627 -0.438905,-1.07556 -0.438905,-0.45337 -1.172021,-0.45337 -0.327974,0 -0.424436,0.0289 -0.07235,0.0193 -0.08199,0.0965 -0.0096,0.0916 -0.0096,2.49838 0,0.0916 0.05306,0.0916 -0.01447,0 0.192925,-0.005 0.212218,-0.005 0.419613,-0.005 0.09164,0 0.371381,0.0241 0.332796,0.0338 0.347266,0.0338 0.03858,0.005 0.120578,-0.0386 0.279742,-0.14469 0.443728,-0.46302 0.178456,-0.34727 0.178456,-0.73312 z m 0.207395,3.13022 q 0,-0.67042 -0.443728,-1.11415 -0.622185,-0.62218 -1.663982,-0.62218 -0.125401,0 -0.183279,0.0289 -0.03376,0.01 -0.03376,0.0965 v 2.11736 q 0.02412,0.74276 0.159164,0.80064 0.260449,0.10611 0.771701,0.10611 0.631831,0 0.979096,-0.31351 0.41479,-0.38103 0.41479,-1.09967 z"
         style="font-size:9.87777805px;stroke-width:0.26458332"
         id="path6467"
         inkscape:connector-curvature="0" />
      <path
         d="m -58.93889,-150.56274 q 0,0.0241 -0.01929,0.0627 -0.274918,0.27492 -0.395497,0.35209 -0.04341,0.0338 -0.08682,0.0338 -0.284565,0 -0.564307,-0.26527 -0.260449,-0.24598 -0.385851,-0.58843 -0.02894,-0.0868 -0.07717,-0.0193 -0.05305,0.082 -0.270095,0.27974 -0.217041,0.19775 -0.303858,0.24598 -0.472667,0.27492 -0.858517,0.27492 -0.366559,0 -0.545015,-0.1254 -0.274918,-0.20257 -0.274918,-0.60289 0,-0.47267 0.299034,-0.89228 0.212218,-0.29903 0.660769,-0.50161 0.487137,-0.22186 1.302247,-0.3762 0.04341,-0.01 0.04823,-0.10611 0.03376,-0.73794 0,-0.99839 -0.02894,-0.25562 -0.221864,-0.38103 -0.192926,-0.1254 -0.545014,-0.1254 -0.496783,0 -0.694532,0.12058 -0.115755,0.082 -0.09646,0.16881 v 0.13505 q 0,0.21222 -0.110932,0.3762 -0.173633,0.2701 -0.405144,0.2701 -0.168809,0 -0.168809,-0.22187 0,-0.1881 0.217041,-0.46784 0.217041,-0.27974 0.47749,-0.43891 0.467844,-0.28456 1.282954,-0.28456 0.54019,0 0.781347,0.22669 0.178456,0.16398 0.178456,0.68971 0,0.38102 -0.04823,1.1479 -0.04341,0.76688 -0.04341,0.86817 0,0.47749 0.245979,0.7717 0.178456,0.20739 0.554661,0.3135 0.06752,0.0289 0.06752,0.0579 z m -1.490349,-1.80385 q 0,-0.0916 -0.07717,-0.0916 -0.376204,0 -0.839225,0.20739 -0.781348,0.35209 -0.781348,0.95016 0,0.36656 0.178456,0.5016 0.149517,0.12058 0.472667,0.12058 0.434082,0 0.858518,-0.3762 0.115755,-0.10129 0.130225,-0.24598 0.05788,-0.57395 0.05788,-1.06591 z"
         style="font-size:9.87777805px;stroke-width:0.26458332"
         id="path6469"
         inkscape:connector-curvature="0" />
      <path
         d="m -53.609327,-150.30229 q 0,0.0579 -0.03858,0.0579 h -2.035363 q -0.04823,0 -0.04823,-0.0386 v -0.16881 q 0,-0.0482 0.04823,-0.0482 h 0.516076 q 0.0627,0 0.08682,-0.082 0.06752,-0.50643 0.06752,-2.24276 0,-0.81029 -0.250803,-1.04662 -0.24598,-0.23634 -0.757232,-0.23634 -0.6463,0 -1.065913,0.28939 -0.06752,0.0434 -0.06752,0.1254 -0.02894,0.2074 -0.02894,2.18488 0,1.00804 0.149517,1.00804 h 0.660769 q 0.04823,0 0.04823,0.0482 v 0.16881 q 0,0.0386 -0.04823,0.0386 h -2.165587 q -0.02412,0 -0.03858,-0.01 -0.0096,-0.01 -0.0096,-0.0482 v -0.15917 q 0,-0.0386 0.04823,-0.0386 h 0.612538 q 0.07235,0 0.07235,-0.0916 0,-0.0289 0.01447,-1.53858 0.01447,-1.51446 0.01447,-1.59163 0,-0.71865 -0.149517,-0.71865 h -0.5836 q -0.05788,0 -0.05788,-0.0627 v -0.1447 q 0,-0.0434 0.03859,-0.0434 h 0.622184 q 0.05306,0 0.250803,-0.01 0.202572,-0.01 0.212218,-0.01 0.04823,-0.005 0.149517,-0.0241 0.101286,-0.0241 0.139871,-0.0241 0.06752,0 0.06752,0.11093 0,0.0241 -0.0096,0.25081 -0.0096,0.22668 -0.0096,0.26045 0,0.14951 0.05788,0.0916 0.414789,-0.33762 0.80064,-0.50643 0.366558,-0.15917 0.704178,-0.15917 0.516075,0 0.858518,0.33762 0.366558,0.35691 0.366558,1.33119 0,0.32315 -0.03376,1.09485 -0.02894,0.76688 -0.02894,0.75241 0,0.70417 0.101286,0.70417 h 0.660769 q 0.05788,0 0.05788,0.0289 z"
         style="font-size:9.87777805px;stroke-width:0.26458332"
         id="path6471"
         inkscape:connector-curvature="0" />
      <path
         d="m -48.24118,-150.30229 q 0,0.0579 -0.02894,0.0579 h -1.249192 q -0.04823,0 -0.106109,-0.0579 -0.02894,-0.0193 -0.395497,-0.47749 -0.366558,-0.4582 -0.405143,-0.51126 -0.07235,-0.1061 -0.699355,-0.85851 -0.08199,-0.0965 -0.120578,-0.0627 -0.236333,0.15916 -0.573953,0.3762 -0.05788,0.0386 -0.05788,0.14952 0,1.19613 0.168809,1.19613 h 0.728293 q 0.0627,0 0.0627,0.0386 v 0.14952 q 0,0.0579 -0.04341,0.0579 h -2.358512 q -0.05788,0 -0.05788,-0.0482 v -0.14951 q 0,-0.0579 0.04823,-0.0579 h 0.670416 q 0.07235,0 0.07235,-0.0724 v -5.28615 q 0,-1.19614 -0.188102,-1.19614 h -0.5836 q -0.05788,0 -0.05788,-0.0386 v -0.15434 q 0,-0.053 0.05788,-0.053 h 0.385851 q 0.361735,0 0.689708,-0.0965 0.0627,-0.0193 0.207395,-0.082 0.09646,-0.0482 0.159163,-0.0482 0.07717,0 0.07717,0.15917 0,0.0145 -0.01929,2.55143 -0.01929,2.53697 -0.01929,2.57556 0,0.13987 0.06752,0.10128 0.294212,-0.16881 0.89228,-0.66077 0.675239,-0.5643 1.094852,-1.03697 0.226687,-0.26045 0.226687,-0.44855 0,-0.15434 -0.197749,-0.15434 h -0.501606 q -0.03859,0 -0.03859,-0.0531 v -0.14469 q 0,-0.053 0.03859,-0.053 h 0.800641 q 0.226687,0 0.414789,-0.01 0.0627,0 0.163987,-0.0145 0.08682,-0.0145 0.120578,-0.0145 0.07717,0 0.07717,0.11093 0,0.0868 -0.09646,0.2074 -0.197749,0.28456 -0.723471,0.81028 -0.0627,0.0627 -1.085205,0.90675 -0.04823,0.0531 0.01929,0.11093 0.04341,0.0338 0.414789,0.46303 0.371382,0.42443 0.409967,0.47749 0.04341,0.0531 0.728293,0.84404 0.255626,0.29904 0.395497,0.29904 h 0.361735 q 0.05305,0 0.05305,0.0482 z"
         style="font-size:9.87777805px;stroke-width:0.26458332"
         id="path6473"
         inkscape:connector-curvature="0" />
      <path
         d="m -44.676884,-154.2235 q -0.05305,0.3135 -0.149517,0.60289 -0.02412,0.0772 -0.06752,0.0772 -0.05305,0 -0.08682,-0.0482 -0.125402,-0.17846 -0.221864,-0.24598 -0.188102,-0.14952 -0.482314,-0.14952 -0.545014,0 -0.819932,0.23634 -0.04823,0.0434 -0.04823,0.13022 0,0.0289 -0.0048,1.11414 -0.0048,1.08521 -0.0048,1.14791 0,0.85852 0.159163,0.85852 h 0.945335 q 0.0627,0 0.0627,0.0675 v 0.13987 q 0,0.0482 -0.04341,0.0482 h -2.469444 q -0.06752,0 -0.06752,-0.0482 v -0.13987 q 0,-0.0675 0.05788,-0.0675 h 0.5836 q 0.09164,0 0.09164,-0.0916 v -3.1688 q 0,-0.66077 -0.159163,-0.66077 h -0.5933 q -0.04823,0 -0.04823,-0.0531 v -0.15434 q 0,-0.0531 0.04823,-0.0531 h 0.66077 q 0.347265,0 0.443728,-0.0289 0.265272,-0.0772 0.289388,-0.0772 0.06752,0 0.06752,0.13023 0,0.0338 -0.0096,0.28939 -0.0096,0.2508 -0.0096,0.27974 0,0.13987 0.05788,0.082 0.221864,-0.19293 0.506429,-0.42444 0.352089,-0.26044 0.689708,-0.26044 0.390674,0 0.602892,0.32797 0.04341,0.0675 0.01929,0.13987 z"
         style="font-size:9.87777805px;stroke-width:0.26458332"
         id="path6475"
         inkscape:connector-curvature="0" />
      <path
         d="m -39.742818,-150.44216 q 0,0.0434 -0.04341,0.0675 -0.120579,0.0482 -0.303858,0.13022 -0.04823,0.0289 -0.149517,0.0965 -0.02894,0.0338 -0.08682,0.0338 0.0096,0 -0.130225,-0.0724 -0.255626,-0.15916 -0.414789,-0.71864 -0.02412,-0.082 -0.09646,-0.0193 -0.159163,0.13023 -0.89228,0.55949 -0.299034,0.17845 -0.998388,0.17845 -0.395497,0 -0.641477,-0.34244 -0.226688,-0.32315 -0.226688,-0.75241 v -1.90514 q 0,-1.21543 -0.197748,-1.21543 h -0.573953 q -0.06752,0 -0.06752,-0.0482 v -0.15916 q 0,-0.0482 0.03859,-0.0482 h 0.593246 q 0.02411,0 0.236333,-0.0145 0.217041,-0.0193 0.26045,-0.0193 0.352088,-0.0386 0.313503,-0.0386 0.08199,0 0.08199,0.13022 0,0.01 -0.01447,1.47588 -0.0096,1.46141 -0.0096,1.58681 0,0.45338 0.202571,0.62701 0.173633,0.15434 0.588423,0.15434 0.414789,0 1.307069,-0.39549 0.04823,0 0.04823,-0.082 0,0 0,-2.47909 0,-0.67041 -0.197748,-0.67041 h -0.573953 q -0.05788,0 -0.05788,-0.0482 v -0.15916 q 0,-0.0482 0.03859,-0.0482 h 0.622185 q 0.294211,0 0.501606,-0.0338 0.279741,-0.0386 0.289388,-0.0386 0.06752,0 0.06752,0.13987 0,0.0193 -0.0096,1.51929 -0.0096,1.49517 -0.0096,1.57234 0,0.68006 0.443728,0.95981 0.0627,0.0338 0.0627,0.0772 z"
         style="font-size:9.87777805px;stroke-width:0.26458332"
         id="path6477"
         inkscape:connector-curvature="0" />
      <path
         d="m -34.340908,-152.43894 q 0,1.00803 -0.63183,1.63022 -0.294212,0.29421 -0.5836,0.41479 -0.414789,0.17845 -1.085205,0.17845 -0.482313,0 -1.104497,-0.32315 -0.101286,-0.053 -0.101286,0.0386 v 1.33118 q 0,0.32315 0.04823,0.6656 0.0627,0.50643 0.192925,0.50643 h 0.954981 q 0.03859,0 0.03859,0.0434 v 0.15434 q 0,0.0627 -0.02894,0.0627 h -2.594846 q -0.0627,0 -0.0627,-0.0434 v -0.16399 q 0,-0.053 0.0627,-0.053 h 0.651123 q 0.07717,0 0.07717,-0.0772 0,-0.0386 0.0096,-2.6479 0.0096,-2.60931 0.0096,-2.70095 0,-0.99839 -0.15434,-0.99839 h -0.602892 q -0.0627,0 -0.0627,-0.0531 v -0.15434 q 0,-0.0531 0.03859,-0.0531 h 0.467844 q 0.424436,0 0.66077,-0.0289 0.03858,-0.005 0.15434,-0.0289 0.09646,-0.0193 0.120578,-0.0193 0.05306,0 0.05306,0.12058 0,0.0289 -0.01929,0.29903 -0.01447,0.26528 -0.01447,0.31351 0,0.13987 0.01929,0.13987 0.01929,0 0.04341,-0.0241 0.323149,-0.30385 0.80064,-0.5836 0.38585,-0.22668 0.848871,-0.22668 0.66077,0 1.172022,0.52572 0.622184,0.63183 0.622184,1.75562 z m -0.622184,0.20739 q 0,-0.34244 -0.163987,-0.74758 -0.15434,-0.39068 -0.356912,-0.59325 -0.453374,-0.45337 -1.167198,-0.45337 -0.540191,0 -0.771701,0.11575 -0.154341,0.082 -0.390674,0.25563 -0.03376,0.0386 -0.03376,0.12058 v 2.6479 q 0,0.10611 0.04341,0.13987 0.530545,0.26527 1.321539,0.26527 0.819932,0 1.268484,-0.67524 0.250803,-0.37138 0.250803,-1.07556 z"
         style="font-size:9.87777805px;stroke-width:0.26458332"
         id="path6479"
         inkscape:connector-curvature="0" />
      <path
         d="m -30.694617,-150.82801 q 0,0.0723 -0.03858,0.11093 -0.197748,0.15916 -0.516075,0.30386 -0.545014,0.25562 -1.012858,0.25562 -1.008035,0 -1.008035,-1.02733 0,-0.0627 0.01929,-1.07073 0.01929,-1.00804 0.01929,-1.06109 0,-0.0627 -0.0096,-0.41479 -0.0096,-0.35691 -0.0096,-0.37621 0,-0.10128 -0.09164,-0.14469 -0.07235,-0.0386 -0.376205,-0.16881 -0.0627,-0.0289 -0.05788,-0.11093 0,-0.0627 0.07235,-0.11576 0.482313,-0.40996 1.027327,-0.86334 0.07235,-0.0482 0.125402,-0.0482 0.07717,0 0.04823,0.13987 -0.05788,0.31351 -0.05788,0.64148 0,0.15916 0.04823,0.15916 0.04341,0 0.834402,-0.0241 0.790994,-0.0289 0.815109,-0.0289 0.101286,0 0.07235,0.10128 0,0.0965 -0.07235,0.27492 -0.02411,0.0724 -0.08682,0.0724 -0.04341,0 -0.790994,-0.005 -0.742763,-0.005 -0.771701,-0.005 -0.05788,0 -0.05788,0.0482 v 2.67684 q 0,0.41962 0.120578,0.61254 0.130225,0.21704 0.728294,0.21704 0.327973,0 0.771701,-0.14951 0.192925,-0.0868 0.207395,-0.0868 0.04823,0 0.04823,0.0868 z"
         style="font-size:9.87777805px;stroke-width:0.26458332"
         id="path6481"
         inkscape:connector-curvature="0" />
    </g>
    <g
       aria-label="5000"
       transform="rotate(-24.084017)"
       style="font-style:normal;font-variant:normal;font-weight:normal;font-stretch:normal;font-size:35.27777481px;line-height:94;font-family:'Californian FB';-inkscape-font-specification:'Californian FB';letter-spacing:0px;word-spacing:0px;fill:#000000;fill-opacity:1;stroke:none;stroke-width:0.26458332"
       id="text5677-8">
      <path
         d="m 6.8792456,137.44816 q 0,0.12403 -0.142627,0.40308 -0.1364258,0.27905 -0.291455,0.42168 -0.10542,0.0992 -0.2046387,0.0992 -0.2232422,0.0186 -0.4030762,0.0186 -0.8743652,0 -1.7735351,-0.21084 -0.6077148,-0.14263 -0.8185547,-0.24805 -0.086816,-0.031 -0.1240234,0.0372 -0.099219,0.17984 -0.3844727,1.66192 -0.018603,0.0992 -0.0062,0.12402 0.012402,0.0372 0.086816,0.0248 0.6573242,-0.0868 1.0541992,-0.0868 0.7255371,0 1.302246,0.28525 0.5146973,0.24185 0.8433594,0.57051 0.7999512,0.79995 0.7999512,2.1332 0,1.17822 -0.8247559,2.05879 -0.3410644,0.35347 -0.9053711,0.65733 -0.6387207,0.34106 -1.6495117,0.34106 -1.0231933,0 -1.624707,-0.41548 -0.1426269,-0.0992 -0.1426269,-0.16743 0,-0.19224 0.1054199,-0.19224 0,0 0.1736328,0.093 0.4030762,0.26665 1.370459,0.26665 1.1844238,0 1.9099609,-0.72554 0.2418457,-0.24804 0.4526855,-0.73794 0.2046387,-0.47128 0.2046387,-1.0666 0,-1.0666 -0.8619629,-1.79214 -0.3224609,-0.26665 -0.7255371,-0.41547 -0.5457031,-0.20464 -1.1534179,-0.20464 -0.062012,0 -0.3348633,0.0124 -0.2728516,0.0124 -0.3162598,0.0124 -0.1736328,0 -0.1736328,-0.16123 0,-0.19223 0.5829102,-2.82153 0.037207,-0.16123 0.2418457,-0.14263 1.9533691,0.17984 3.0819823,0.17984 0.2790528,0 0.4092774,-0.0372 0.2108398,-0.062 0.1674316,-0.062 0.074414,0 0.074414,0.0868 z"
         style="font-size:12.69999981px;stroke-width:0.26458332"
         id="path6484"
         inkscape:connector-curvature="0" />
      <path
         d="m 13.526902,141.44792 q 0,0.83096 -0.07442,1.27124 -0.08682,0.50229 -0.37207,1.17822 -0.434082,1.048 -1.103808,1.46348 -0.390674,0.24184 -0.539502,0.29145 -0.21084,0.0744 -0.63252,0.0744 -0.607715,0 -0.9487792,-0.13643 -0.086816,-0.0372 -0.6387207,-0.42168 -0.4278808,-0.29765 -0.8371581,-1.20303 -0.4030762,-0.90537 -0.4030762,-2.27583 0,-1.97197 0.7255371,-3.24941 0.3348633,-0.59531 0.9239746,-0.88677 0.5953125,-0.29765 1.1782225,-0.29765 1.066602,0 1.934766,1.079 0.787549,0.98599 0.787549,3.11299 z m -0.762745,0.66352 q 0,-1.54409 -0.341064,-2.50527 -0.37207,-1.0418 -0.775147,-1.43247 -0.483691,-0.47129 -1.358056,-0.47129 -0.5581056,0 -0.8805665,0.39067 -0.359668,0.44029 -0.4960938,1.19683 -0.1240234,0.71314 -0.1240234,1.38286 0,0.5271 0.093018,1.35186 0.1054199,0.87436 0.2232422,1.26504 0.4836914,1.5813 1.0169915,1.83554 0.539502,0.24805 1.00459,0.24805 0.613916,0 0.973584,-0.39687 0.663525,-0.71314 0.663525,-2.86495 z"
         style="font-size:12.69999981px;stroke-width:0.26458332"
         id="path6486"
         inkscape:connector-curvature="0" />
      <path
         d="m 20.02573,141.44792 q 0,0.83096 -0.07441,1.27124 -0.08682,0.50229 -0.37207,1.17822 -0.434082,1.048 -1.103809,1.46348 -0.390674,0.24184 -0.539502,0.29145 -0.21084,0.0744 -0.632519,0.0744 -0.607715,0 -0.94878,-0.13643 -0.08682,-0.0372 -0.63872,-0.42168 -0.427881,-0.29765 -0.837159,-1.20303 -0.403076,-0.90537 -0.403076,-2.27583 0,-1.97197 0.725537,-3.24941 0.334864,-0.59531 0.923975,-0.88677 0.595312,-0.29765 1.178223,-0.29765 1.066601,0 1.934765,1.079 0.787549,0.98599 0.787549,3.11299 z m -0.762744,0.66352 q 0,-1.54409 -0.341065,-2.50527 -0.37207,-1.0418 -0.775146,-1.43247 -0.483692,-0.47129 -1.358057,-0.47129 -0.558105,0 -0.880566,0.39067 -0.359668,0.44029 -0.496094,1.19683 -0.124023,0.71314 -0.124023,1.38286 0,0.5271 0.09302,1.35186 0.10542,0.87436 0.223242,1.26504 0.483692,1.5813 1.016993,1.83554 0.539502,0.24805 1.004589,0.24805 0.613916,0 0.973584,-0.39687 0.663526,-0.71314 0.663526,-2.86495 z"
         style="font-size:12.69999981px;stroke-width:0.26458332"
         id="path6488"
         inkscape:connector-curvature="0" />
      <path
         d="m 26.524557,141.44792 q 0,0.83096 -0.07441,1.27124 -0.08682,0.50229 -0.37207,1.17822 -0.434082,1.048 -1.103809,1.46348 -0.390674,0.24184 -0.539502,0.29145 -0.21084,0.0744 -0.632519,0.0744 -0.607715,0 -0.94878,-0.13643 -0.08682,-0.0372 -0.63872,-0.42168 -0.427881,-0.29765 -0.837159,-1.20303 -0.403076,-0.90537 -0.403076,-2.27583 0,-1.97197 0.725537,-3.24941 0.334864,-0.59531 0.923975,-0.88677 0.595312,-0.29765 1.178223,-0.29765 1.066601,0 1.934765,1.079 0.787549,0.98599 0.787549,3.11299 z m -0.762744,0.66352 q 0,-1.54409 -0.341065,-2.50527 -0.37207,-1.0418 -0.775146,-1.43247 -0.483692,-0.47129 -1.358057,-0.47129 -0.558105,0 -0.880566,0.39067 -0.359668,0.44029 -0.496094,1.19683 -0.124023,0.71314 -0.124023,1.38286 0,0.5271 0.09302,1.35186 0.10542,0.87436 0.223242,1.26504 0.483692,1.5813 1.016993,1.83554 0.539502,0.24805 1.004589,0.24805 0.613916,0 0.973584,-0.39687 0.663526,-0.71314 0.663526,-2.86495 z"
         style="font-size:12.69999981px;stroke-width:0.26458332"
         id="path6490"
         inkscape:connector-curvature="0" />
    </g>
    <g
       aria-label="250"
       transform="matrix(-0.57248982,-0.81527845,0.82779408,-0.56790062,0,0)"
       style="font-style:normal;font-variant:normal;font-weight:normal;font-stretch:normal;font-size:35.0434227px;line-height:94;font-family:'Californian FB';-inkscape-font-specification:'Californian FB';letter-spacing:0px;word-spacing:0px;fill:#000000;fill-opacity:1;stroke:none;stroke-width:0.26458332"
       id="text5677-8-4">
      <path
         d="m -186.04072,14.360293 q 0,0.03101 -0.0744,0.204639 -0.10542,0.241846 -0.24185,0.545703 -0.0496,0.07441 -0.10542,0.07441 h -4.68188 q -0.10542,0 -0.10542,-0.192236 0,-0.124024 0.21704,-0.266651 1.6061,-1.066601 2.55488,-2.294433 0.65733,-0.861963 0.90537,-1.519287 0.23565,-0.613916 0.23565,-1.4014651 0,-0.8495606 -0.42168,-1.3208496 -0.48369,-0.5519043 -1.51929,-0.5519043 -1.22783,0 -1.76733,0.7007324 -0.0496,0.062012 -0.11162,0.037207 -0.10542,-0.049609 -0.10542,-0.099219 0,-0.1922363 0.33486,-0.5333008 0.29766,-0.3038574 0.59531,-0.471289 0.72554,-0.4154785 1.67432,-0.4154785 0.97978,0 1.5751,0.5953124 0.5705,0.5705078 0.5705,1.5875 0,0.6821289 -0.27905,1.3704595 -0.5333,1.308447 -1.35806,2.207617 -0.91777,1.00459 -1.85415,1.705322 -0.062,0.04341 -0.062,0.08061 0,0.06821 0.14883,0.06821 h 1.52549 q 1.37046,0 2.05879,-0.148828 0.16743,-0.03721 0.20464,-0.03721 0.0868,0 0.0868,0.07441 z"
         style="font-size:12.69999981px;stroke-width:0.26458332"
         id="path6493"
         inkscape:connector-curvature="0" />
      <path
         d="m -179.98217,6.9808988 q 0,0.1240234 -0.14263,0.4030762 -0.13642,0.2790527 -0.29145,0.4216796 -0.10542,0.099219 -0.20464,0.099219 -0.22324,0.018604 -0.40308,0.018604 -0.87436,0 -1.77353,-0.2108398 -0.60772,-0.142627 -0.81856,-0.2480469 -0.0868,-0.031006 -0.12402,0.037207 -0.0992,0.179834 -0.38447,1.6619141 -0.0186,0.099219 -0.006,0.1240234 0.0124,0.037207 0.0868,0.024805 0.65732,-0.086816 1.0542,-0.086816 0.72554,0 1.30225,0.2852539 0.51469,0.2418457 0.84336,0.5705077 0.79995,0.799951 0.79995,2.133203 0,1.178222 -0.82476,2.058789 -0.34106,0.353467 -0.90537,0.657324 -0.63872,0.341064 -1.64951,0.341064 -1.0232,0 -1.62471,-0.415478 -0.14263,-0.09922 -0.14263,-0.167432 0,-0.192236 0.10542,-0.192236 0,0 0.17364,0.09302 0.40307,0.26665 1.37046,0.26665 1.18442,0 1.90996,-0.725537 0.24184,-0.248047 0.45268,-0.73794 0.20464,-0.471289 0.20464,-1.066601 0,-1.066602 -0.86196,-1.792139 -0.32246,-0.26665 -0.72554,-0.415478 -0.5457,-0.2046386 -1.15342,-0.2046386 -0.062,0 -0.33486,0.012402 -0.27285,0.012402 -0.31626,0.012402 -0.17363,0 -0.17363,-0.1612304 0,-0.1922364 0.58291,-2.8215332 0.0372,-0.1612305 0.24184,-0.1426269 1.95337,0.1798339 3.08199,0.1798339 0.27905,0 0.40927,-0.037207 0.21084,-0.062012 0.16743,-0.062012 0.0744,0 0.0744,0.086816 z"
         style="font-size:12.69999981px;stroke-width:0.26458332"
         id="path6495"
         inkscape:connector-curvature="0" />
      <path
         d="m -173.33452,10.980655 q 0,0.830957 -0.0744,1.27124 -0.0868,0.502295 -0.37207,1.178222 -0.43408,1.047998 -1.10381,1.463477 -0.39067,0.241846 -0.5395,0.291455 -0.21084,0.07441 -0.63252,0.07441 -0.60772,0 -0.94878,-0.136426 -0.0868,-0.03721 -0.63872,-0.421679 -0.42788,-0.297657 -0.83716,-1.203028 -0.40307,-0.905371 -0.40307,-2.27583 0,-1.9719723 0.72553,-3.2494137 0.33487,-0.5953125 0.92398,-0.8867676 0.59531,-0.2976562 1.17822,-0.2976562 1.0666,0 1.93476,1.0790039 0.78755,0.9859863 0.78755,3.1129886 z m -0.76274,0.663525 q 0,-1.544092 -0.34106,-2.5052734 -0.37208,-1.0417969 -0.77515,-1.4324707 -0.48369,-0.4712891 -1.35806,-0.4712891 -0.5581,0 -0.88056,0.3906739 -0.35967,0.4402832 -0.4961,1.1968261 -0.12402,0.7131348 -0.12402,1.3828612 0,0.5271 0.093,1.351856 0.10542,0.874365 0.22324,1.265039 0.48369,1.581298 1.01699,1.835546 0.5395,0.248047 1.00459,0.248047 0.61392,0 0.97358,-0.396875 0.66353,-0.713134 0.66353,-2.864941 z"
         style="font-size:12.69999981px;stroke-width:0.26458332"
         id="path6497"
         inkscape:connector-curvature="0" />
    </g>
    <g
       aria-label="50"
       transform="matrix(0.4249382,0.9010278,-0.91257649,0.41828017,0,0)"
       style="font-style:normal;font-variant:normal;font-weight:normal;font-stretch:normal;font-size:35.0434227px;line-height:94;font-family:'Californian FB';-inkscape-font-specification:'Californian FB';letter-spacing:0px;word-spacing:0px;fill:#000000;fill-opacity:1;stroke:none;stroke-width:0.26458332"
       id="text5677-8-4-0">
      <path
         d="m 108.52091,-48.549415 q 0,0.124024 -0.14263,0.403076 -0.13642,0.279053 -0.29145,0.42168 -0.10542,0.09922 -0.20464,0.09922 -0.22324,0.0186 -0.40308,0.0186 -0.87436,0 -1.77353,-0.210839 -0.60772,-0.142627 -0.81856,-0.248047 -0.0868,-0.03101 -0.12402,0.03721 -0.0992,0.179834 -0.38447,1.661914 -0.0186,0.09922 -0.006,0.124023 0.0124,0.03721 0.0868,0.02481 0.65733,-0.08682 1.0542,-0.08682 0.72554,0 1.30225,0.285254 0.5147,0.241846 0.84336,0.570508 0.79995,0.799951 0.79995,2.133203 0,1.178223 -0.82476,2.058789 -0.34106,0.353467 -0.90537,0.657325 -0.63872,0.341064 -1.64951,0.341064 -1.02319,0 -1.62471,-0.415479 -0.14262,-0.09922 -0.14262,-0.167431 0,-0.192237 0.10542,-0.192237 0,0 0.17363,0.09302 0.40308,0.26665 1.37046,0.26665 1.18442,0 1.90996,-0.725537 0.24184,-0.248047 0.45268,-0.737939 0.20464,-0.471289 0.20464,-1.066602 0,-1.066601 -0.86196,-1.792138 -0.32246,-0.266651 -0.72554,-0.415479 -0.5457,-0.204638 -1.15341,-0.204638 -0.062,0 -0.33487,0.0124 -0.27285,0.0124 -0.31626,0.0124 -0.17363,0 -0.17363,-0.16123 0,-0.192237 0.58291,-2.821533 0.0372,-0.161231 0.24185,-0.142627 1.95336,0.179834 3.08198,0.179834 0.27905,0 0.40927,-0.03721 0.21084,-0.06201 0.16744,-0.06201 0.0744,0 0.0744,0.08682 z"
         style="font-size:12.69999981px;stroke-width:0.26458332"
         id="path6500"
         inkscape:connector-curvature="0" />
      <path
         d="m 115.16857,-44.549659 q 0,0.830957 -0.0744,1.27124 -0.0868,0.502295 -0.37207,1.178223 -0.43408,1.047998 -1.10381,1.463476 -0.39067,0.241846 -0.5395,0.291456 -0.21084,0.07441 -0.63252,0.07441 -0.60771,0 -0.94878,-0.136426 -0.0868,-0.03721 -0.63872,-0.42168 -0.42788,-0.297656 -0.83716,-1.203027 -0.40307,-0.905371 -0.40307,-2.27583 0,-1.971973 0.72553,-3.249414 0.33487,-0.595313 0.92398,-0.886768 0.59531,-0.297656 1.17822,-0.297656 1.0666,0 1.93477,1.079004 0.78755,0.985986 0.78755,3.112988 z m -0.76275,0.663525 q 0,-1.544091 -0.34106,-2.505273 -0.37207,-1.041797 -0.77515,-1.432471 -0.48369,-0.471289 -1.35806,-0.471289 -0.5581,0 -0.88056,0.390674 -0.35967,0.440283 -0.4961,1.196826 -0.12402,0.713135 -0.12402,1.382862 0,0.527099 0.093,1.351855 0.10542,0.874365 0.22324,1.265039 0.48369,1.581299 1.01699,1.835547 0.53951,0.248047 1.00459,0.248047 0.61392,0 0.97359,-0.396875 0.66352,-0.713135 0.66352,-2.864942 z"
         style="font-size:12.69999981px;stroke-width:0.26458332"
         id="path6502"
         inkscape:connector-curvature="0" />
    </g>
    <g
       aria-label="125"
       transform="matrix(-0.47570018,0.8752902,-0.87674453,-0.48895106,0,0)"
       inkscape:transform-center-x="-1.3238475"
       inkscape:transform-center-y="3.4104064"
       style="font-style:normal;font-variant:normal;font-weight:normal;font-stretch:normal;font-size:35.0434227px;line-height:94;font-family:'Californian FB';-inkscape-font-specification:'Californian FB';letter-spacing:0px;word-spacing:0px;fill:#000000;fill-opacity:1;stroke:none;stroke-width:0.26458332"
       id="text5677-8-4-3">
      <path
         d="m 8.8562225,-133.59077 q 0,0.062 -0.049609,0.062 h -3.392041 q -0.062012,0 -0.062012,-0.0744 v -0.20464 q 0,-0.0744 0.062012,-0.0744 h 1.1286133 q 0.1302246,0 0.1302246,-0.33486 0,-0.0682 0.012402,-2.80913 0.012402,-2.74712 0.012402,-2.82774 0,-0.88677 -0.037207,-1.14101 -0.062012,-0.42168 -0.6759278,-0.42168 h -0.471289 q -0.074414,0 -0.074414,-0.0744 v -0.19223 q 0,-0.0744 0.074414,-0.0744 H 6.177316 q 0.7751464,0 1.0914062,-0.062 0.3162598,-0.0682 0.3038574,-0.0682 0.093018,0 0.093018,0.13022 0,-0.0124 -0.055811,3.00757 -0.049609,3.01377 -0.049609,3.25562 0,1.6123 0.2666504,1.6123 h 0.9673828 q 0.062012,0 0.062012,0.062 z"
         style="font-size:12.69999981px;stroke-width:0.26458332"
         id="path6505"
         inkscape:connector-curvature="0" />
      <path
         d="m 14.989182,-134.35352 q 0,0.031 -0.07442,0.20464 -0.105419,0.24185 -0.241845,0.5457 -0.04961,0.0744 -0.10542,0.0744 H 9.8856172 q -0.10542,0 -0.10542,-0.19224 0,-0.12402 0.217041,-0.26665 1.6061038,-1.0666 2.5548828,-2.29443 0.657324,-0.86197 0.905371,-1.51929 0.235645,-0.61392 0.235645,-1.40146 0,-0.84957 -0.42168,-1.32085 -0.483691,-0.55191 -1.519287,-0.55191 -1.227832,0 -1.7673341,0.70073 -0.049609,0.062 -0.1116211,0.0372 -0.1054199,-0.0496 -0.1054199,-0.0992 0,-0.19223 0.3348631,-0.5333 0.297656,-0.30386 0.595313,-0.47129 0.725537,-0.41548 1.674316,-0.41548 0.979785,0 1.575098,0.59532 0.570507,0.5705 0.570507,1.5875 0,0.68212 -0.279052,1.37045 -0.533301,1.30845 -1.358057,2.20762 -0.917773,1.00459 -1.85415,1.70532 -0.06201,0.0434 -0.06201,0.0806 0,0.0682 0.148828,0.0682 h 1.525488 q 1.370459,0 2.058789,-0.14883 0.167432,-0.0372 0.204639,-0.0372 0.08682,0 0.08682,0.0744 z"
         style="font-size:12.69999981px;stroke-width:0.26458332"
         id="path6507"
         inkscape:connector-curvature="0" />
      <path
         d="m 21.047726,-141.73291 q 0,0.12402 -0.142627,0.40307 -0.136426,0.27906 -0.291455,0.42168 -0.10542,0.0992 -0.204639,0.0992 -0.223242,0.0186 -0.403076,0.0186 -0.874365,0 -1.773535,-0.21084 -0.607715,-0.14263 -0.818555,-0.24805 -0.08682,-0.031 -0.124023,0.0372 -0.09922,0.17983 -0.384473,1.66191 -0.0186,0.0992 -0.0062,0.12402 0.0124,0.0372 0.08682,0.0248 0.657325,-0.0868 1.0542,-0.0868 0.725537,0 1.302246,0.28526 0.514697,0.24184 0.843359,0.5705 0.799951,0.79995 0.799951,2.13321 0,1.17822 -0.824756,2.05878 -0.341064,0.35347 -0.905371,0.65733 -0.63872,0.34106 -1.649511,0.34106 -1.023194,0 -1.624707,-0.41547 -0.142627,-0.0992 -0.142627,-0.16744 0,-0.19223 0.10542,-0.19223 0,0 0.173632,0.093 0.403077,0.26666 1.370459,0.26666 1.184424,0 1.909961,-0.72554 0.241846,-0.24805 0.452686,-0.73794 0.204638,-0.47129 0.204638,-1.0666 0,-1.0666 -0.861962,-1.79214 -0.322461,-0.26665 -0.725537,-0.41548 -0.545704,-0.20464 -1.153418,-0.20464 -0.06201,0 -0.334864,0.0124 -0.272851,0.0124 -0.316259,0.0124 -0.173633,0 -0.173633,-0.16123 0,-0.19224 0.58291,-2.82154 0.03721,-0.16123 0.241846,-0.14262 1.953369,0.17983 3.081982,0.17983 0.279053,0 0.409277,-0.0372 0.21084,-0.062 0.167432,-0.062 0.07441,0 0.07441,0.0868 z"
         style="font-size:12.69999981px;stroke-width:0.26458332"
         id="path6509"
         inkscape:connector-curvature="0" />
    </g>
    <g
       aria-label="1000"
       transform="matrix(-0.9255675,-0.36844051,0.38142508,-0.92858441,0,0)"
       inkscape:transform-center-x="3.2248837"
       inkscape:transform-center-y="1.7175312"
       style="font-style:normal;font-variant:normal;font-weight:normal;font-stretch:normal;font-size:35.0434227px;line-height:94;font-family:'Californian FB';-inkscape-font-specification:'Californian FB';letter-spacing:0px;word-spacing:0px;fill:#000000;fill-opacity:1;stroke:none;stroke-width:0.26458332"
       id="text5677-8-4-3-6">
      <path
         d="m -179.24516,-64.007072 q 0,0.06201 -0.0496,0.06201 h -3.39204 q -0.062,0 -0.062,-0.07441 v -0.204638 q 0,-0.07442 0.062,-0.07442 h 1.12862 q 0.13022,0 0.13022,-0.334863 0,-0.06821 0.0124,-2.809131 0.0124,-2.747119 0.0124,-2.827734 0,-0.886768 -0.0372,-1.141016 -0.062,-0.421679 -0.67593,-0.421679 h -0.47129 q -0.0744,0 -0.0744,-0.07441 V -72.0996 q 0,-0.07441 0.0744,-0.07441 h 0.66353 q 0.77514,0 1.0914,-0.06201 0.31626,-0.06821 0.30386,-0.06821 0.093,0 0.093,0.130224 0,-0.0124 -0.0558,3.007569 -0.0496,3.013769 -0.0496,3.255615 0,1.612304 0.26665,1.612304 h 0.96738 q 0.062,0 0.062,0.06201 z"
         style="font-size:12.69999981px;stroke-width:0.26458332"
         id="path6512"
         inkscape:connector-curvature="0" />
      <path
         d="m -172.88275,-68.149455 q 0,0.830957 -0.0744,1.27124 -0.0868,0.502295 -0.37207,1.178223 -0.43408,1.047998 -1.10381,1.463476 -0.39067,0.241846 -0.5395,0.291455 -0.21084,0.07441 -0.63252,0.07441 -0.60771,0 -0.94878,-0.136425 -0.0868,-0.03721 -0.63872,-0.42168 -0.42788,-0.297656 -0.83716,-1.203027 -0.40307,-0.905372 -0.40307,-2.27583 0,-1.971973 0.72553,-3.249415 0.33487,-0.595312 0.92398,-0.886767 0.59531,-0.297656 1.17822,-0.297656 1.0666,0 1.93477,1.079004 0.78755,0.985986 0.78755,3.112988 z m -0.76275,0.663525 q 0,-1.544092 -0.34106,-2.505273 -0.37207,-1.041797 -0.77515,-1.432471 -0.48369,-0.471289 -1.35806,-0.471289 -0.5581,0 -0.88056,0.390674 -0.35967,0.440283 -0.4961,1.196826 -0.12402,0.713135 -0.12402,1.382861 0,0.5271 0.093,1.351856 0.10542,0.874365 0.22324,1.265039 0.48369,1.581299 1.01699,1.835547 0.5395,0.248047 1.00459,0.248047 0.61392,0 0.97359,-0.396875 0.66352,-0.713135 0.66352,-2.864942 z"
         style="font-size:12.69999981px;stroke-width:0.26458332"
         id="path6514"
         inkscape:connector-curvature="0" />
      <path
         d="m -166.38393,-68.149455 q 0,0.830957 -0.0744,1.27124 -0.0868,0.502295 -0.37207,1.178223 -0.43408,1.047998 -1.10381,1.463476 -0.39067,0.241846 -0.5395,0.291455 -0.21084,0.07441 -0.63252,0.07441 -0.60772,0 -0.94878,-0.136425 -0.0868,-0.03721 -0.63872,-0.42168 -0.42788,-0.297656 -0.83716,-1.203027 -0.40307,-0.905372 -0.40307,-2.27583 0,-1.971973 0.72553,-3.249415 0.33487,-0.595312 0.92398,-0.886767 0.59531,-0.297656 1.17822,-0.297656 1.0666,0 1.93477,1.079004 0.78754,0.985986 0.78754,3.112988 z m -0.76274,0.663525 q 0,-1.544092 -0.34106,-2.505273 -0.37207,-1.041797 -0.77515,-1.432471 -0.48369,-0.471289 -1.35806,-0.471289 -0.5581,0 -0.88056,0.390674 -0.35967,0.440283 -0.4961,1.196826 -0.12402,0.713135 -0.12402,1.382861 0,0.5271 0.093,1.351856 0.10542,0.874365 0.22324,1.265039 0.48369,1.581299 1.01699,1.835547 0.5395,0.248047 1.00459,0.248047 0.61392,0 0.97358,-0.396875 0.66353,-0.713135 0.66353,-2.864942 z"
         style="font-size:12.69999981px;stroke-width:0.26458332"
         id="path6516"
         inkscape:connector-curvature="0" />
      <path
         d="m -159.8851,-68.149455 q 0,0.830957 -0.0744,1.27124 -0.0868,0.502295 -0.37207,1.178223 -0.43409,1.047998 -1.10381,1.463476 -0.39068,0.241846 -0.5395,0.291455 -0.21084,0.07441 -0.63252,0.07441 -0.60772,0 -0.94878,-0.136425 -0.0868,-0.03721 -0.63872,-0.42168 -0.42788,-0.297656 -0.83716,-1.203027 -0.40308,-0.905372 -0.40308,-2.27583 0,-1.971973 0.72554,-3.249415 0.33486,-0.595312 0.92397,-0.886767 0.59532,-0.297656 1.17823,-0.297656 1.0666,0 1.93476,1.079004 0.78755,0.985986 0.78755,3.112988 z m -0.76274,0.663525 q 0,-1.544092 -0.34107,-2.505273 -0.37207,-1.041797 -0.77514,-1.432471 -0.4837,-0.471289 -1.35806,-0.471289 -0.55811,0 -0.88057,0.390674 -0.35967,0.440283 -0.49609,1.196826 -0.12402,0.713135 -0.12402,1.382861 0,0.5271 0.093,1.351856 0.10542,0.874365 0.22325,1.265039 0.48369,1.581299 1.01699,1.835547 0.5395,0.248047 1.00459,0.248047 0.61391,0 0.97358,-0.396875 0.66353,-0.713135 0.66353,-2.864942 z"
         style="font-size:12.69999981px;stroke-width:0.26458332"
         id="path6518"
         inkscape:connector-curvature="0" />
    </g>
    <g
       aria-label="500"
       transform="matrix(0.49733517,-0.86318092,0.86430507,0.51061813,0,0)"
       inkscape:transform-center-x="1.2475675"
       inkscape:transform-center-y="-3.4531123"
       style="font-style:normal;font-variant:normal;font-weight:normal;font-stretch:normal;font-size:35.0434227px;line-height:94;font-family:'Californian FB';-inkscape-font-specification:'Californian FB';letter-spacing:0px;word-spacing:0px;fill:#000000;fill-opacity:1;stroke:none;stroke-width:0.26458332"
       id="text5677-8-4-3-2">
      <path
         d="m -83.013803,140.75212 q 0,0.12402 -0.142627,0.40307 -0.136426,0.27906 -0.291455,0.42168 -0.10542,0.0992 -0.204639,0.0992 -0.223242,0.0186 -0.403076,0.0186 -0.874365,0 -1.773535,-0.21084 -0.607715,-0.14263 -0.818555,-0.24805 -0.08682,-0.031 -0.124023,0.0372 -0.09922,0.17983 -0.384473,1.66191 -0.0186,0.0992 -0.0062,0.12402 0.0124,0.0372 0.08682,0.0248 0.657325,-0.0868 1.0542,-0.0868 0.725537,0 1.302246,0.28526 0.514697,0.24184 0.843359,0.5705 0.799951,0.79996 0.799951,2.13321 0,1.17822 -0.824756,2.05879 -0.341064,0.35346 -0.905371,0.65732 -0.638721,0.34106 -1.649512,0.34106 -1.023193,0 -1.624707,-0.41547 -0.142626,-0.0992 -0.142626,-0.16744 0,-0.19223 0.105419,-0.19223 0,0 0.173633,0.093 0.403076,0.26665 1.370459,0.26665 1.184424,0 1.909961,-0.72554 0.241846,-0.24805 0.452686,-0.73794 0.204638,-0.47129 0.204638,-1.0666 0,-1.0666 -0.861963,-1.79214 -0.32246,-0.26665 -0.725537,-0.41548 -0.545703,-0.20464 -1.153418,-0.20464 -0.06201,0 -0.334863,0.0124 -0.272851,0.0124 -0.31626,0.0124 -0.173632,0 -0.173632,-0.16123 0,-0.19224 0.58291,-2.82154 0.03721,-0.16123 0.241845,-0.14262 1.95337,0.17983 3.081983,0.17983 0.279053,0 0.409277,-0.0372 0.21084,-0.062 0.167432,-0.062 0.07441,0 0.07441,0.0868 z"
         style="font-size:12.69999981px;stroke-width:0.26458332"
         id="path6521"
         inkscape:connector-curvature="0" />
      <path
         d="m -76.366147,144.75187 q 0,0.83096 -0.07441,1.27124 -0.08682,0.5023 -0.372071,1.17823 -0.434082,1.04799 -1.103808,1.46347 -0.390674,0.24185 -0.539502,0.29146 -0.21084,0.0744 -0.63252,0.0744 -0.607714,0 -0.948779,-0.13642 -0.08682,-0.0372 -0.638721,-0.42168 -0.42788,-0.29766 -0.837158,-1.20303 -0.403076,-0.90537 -0.403076,-2.27583 0,-1.97197 0.725537,-3.24941 0.334863,-0.59532 0.923975,-0.88677 0.595312,-0.29766 1.178222,-0.29766 1.066602,0 1.934766,1.07901 0.787549,0.98598 0.787549,3.11298 z m -0.762744,0.66353 q 0,-1.54409 -0.341065,-2.50527 -0.37207,-1.0418 -0.775146,-1.43247 -0.483692,-0.47129 -1.358057,-0.47129 -0.558105,0 -0.880566,0.39067 -0.359668,0.44028 -0.496094,1.19683 -0.124023,0.71313 -0.124023,1.38286 0,0.5271 0.09302,1.35185 0.10542,0.87437 0.223242,1.26504 0.483692,1.5813 1.016992,1.83555 0.539502,0.24805 1.00459,0.24805 0.613916,0 0.973584,-0.39688 0.663526,-0.71313 0.663526,-2.86494 z"
         style="font-size:12.69999981px;stroke-width:0.26458332"
         id="path6523"
         inkscape:connector-curvature="0" />
      <path
         d="m -69.867319,144.75187 q 0,0.83096 -0.07441,1.27124 -0.08682,0.5023 -0.37207,1.17823 -0.434082,1.04799 -1.103809,1.46347 -0.390674,0.24185 -0.539502,0.29146 -0.21084,0.0744 -0.632519,0.0744 -0.607715,0 -0.94878,-0.13642 -0.08682,-0.0372 -0.63872,-0.42168 -0.427881,-0.29766 -0.837158,-1.20303 -0.403077,-0.90537 -0.403077,-2.27583 0,-1.97197 0.725538,-3.24941 0.334863,-0.59532 0.923974,-0.88677 0.595313,-0.29766 1.178223,-0.29766 1.066601,0 1.934765,1.07901 0.787549,0.98598 0.787549,3.11298 z m -0.762744,0.66353 q 0,-1.54409 -0.341064,-2.50527 -0.372071,-1.0418 -0.775147,-1.43247 -0.483691,-0.47129 -1.358056,-0.47129 -0.558106,0 -0.880567,0.39067 -0.359668,0.44028 -0.496094,1.19683 -0.124023,0.71313 -0.124023,1.38286 0,0.5271 0.09302,1.35185 0.105419,0.87437 0.223242,1.26504 0.483691,1.5813 1.016992,1.83555 0.539502,0.24805 1.00459,0.24805 0.613916,0 0.973584,-0.39688 0.663525,-0.71313 0.663525,-2.86494 z"
         style="font-size:12.69999981px;stroke-width:0.26458332"
         id="path6525"
         inkscape:connector-curvature="0" />
    </g>
    <g
       aria-label="100"
       transform="matrix(0.91606107,0.39147882,-0.4045348,0.91875228,0,0)"
       inkscape:transform-center-x="-3.2843175"
       inkscape:transform-center-y="-1.6492764"
       style="font-style:normal;font-variant:normal;font-weight:normal;font-stretch:normal;font-size:35.0434227px;line-height:94;font-family:'Californian FB';-inkscape-font-specification:'Californian FB';letter-spacing:0px;word-spacing:0px;fill:#000000;fill-opacity:1;stroke:none;stroke-width:0.26458332"
       id="text5677-8-4-3-2-1">
      <path
         d="m 98.77249,69.322479 q 0,0.06201 -0.04961,0.06201 h -3.39204 q -0.06201,0 -0.06201,-0.07441 V 69.10544 q 0,-0.07441 0.06201,-0.07441 h 1.128613 q 0.130224,0 0.130224,-0.334863 0,-0.06821 0.0124,-2.809131 0.0124,-2.747119 0.0124,-2.827734 0,-0.886768 -0.03721,-1.141016 -0.06201,-0.42168 -0.675928,-0.42168 H 95.43005 q -0.07441,0 -0.07441,-0.07441 V 61.22995 q 0,-0.07441 0.07441,-0.07441 h 0.663526 q 0.775146,0 1.091406,-0.06201 0.31626,-0.06821 0.303857,-0.06821 0.09302,0 0.09302,0.130225 0,-0.0124 -0.05581,3.007568 -0.04961,3.01377 -0.04961,3.255616 0,1.612304 0.26665,1.612304 h 0.967383 q 0.06201,0 0.06201,0.06201 z"
         style="font-size:12.69999981px;stroke-width:0.26458332"
         id="path6528"
         inkscape:connector-curvature="0" />
      <path
         d="m 105.13489,65.180096 q 0,0.830958 -0.0744,1.271241 -0.0868,0.502295 -0.37207,1.178222 -0.43408,1.047998 -1.10381,1.463477 -0.39067,0.241846 -0.5395,0.291455 -0.21084,0.07441 -0.63252,0.07441 -0.60772,0 -0.94878,-0.136426 -0.0868,-0.03721 -0.63872,-0.421679 -0.42788,-0.297657 -0.83716,-1.203028 -0.403076,-0.905371 -0.403076,-2.27583 0,-1.971972 0.725536,-3.249414 0.33486,-0.595312 0.92398,-0.886767 0.59531,-0.297657 1.17822,-0.297657 1.0666,0 1.93476,1.079004 0.78755,0.985987 0.78755,3.112988 z m -0.76274,0.663526 q 0,-1.544092 -0.34107,-2.505274 -0.37207,-1.041796 -0.77514,-1.43247 -0.48369,-0.471289 -1.35806,-0.471289 -0.5581,0 -0.88057,0.390674 -0.35966,0.440283 -0.49609,1.196826 -0.12402,0.713134 -0.12402,1.382861 0,0.5271 0.093,1.351855 0.10542,0.874366 0.22325,1.26504 0.48369,1.581298 1.01699,1.835546 0.5395,0.248047 1.00459,0.248047 0.61391,0 0.97358,-0.396875 0.66353,-0.713135 0.66353,-2.864941 z"
         style="font-size:12.69999981px;stroke-width:0.26458332"
         id="path6530"
         inkscape:connector-curvature="0" />
      <path
         d="m 111.63372,65.180096 q 0,0.830958 -0.0744,1.271241 -0.0868,0.502295 -0.37207,1.178222 -0.43409,1.047998 -1.10381,1.463477 -0.39068,0.241846 -0.5395,0.291455 -0.21084,0.07441 -0.63252,0.07441 -0.60772,0 -0.94878,-0.136426 -0.0868,-0.03721 -0.63872,-0.421679 -0.42788,-0.297657 -0.83716,-1.203028 -0.40308,-0.905371 -0.40308,-2.27583 0,-1.971972 0.72554,-3.249414 0.33486,-0.595312 0.92397,-0.886767 0.59532,-0.297657 1.17823,-0.297657 1.0666,0 1.93476,1.079004 0.78755,0.985987 0.78755,3.112988 z m -0.76274,0.663526 q 0,-1.544092 -0.34107,-2.505274 -0.37207,-1.041796 -0.77514,-1.43247 -0.4837,-0.471289 -1.35806,-0.471289 -0.55811,0 -0.88057,0.390674 -0.35967,0.440283 -0.49609,1.196826 -0.12402,0.713134 -0.12402,1.382861 0,0.5271 0.093,1.351855 0.10542,0.874366 0.22325,1.26504 0.48369,1.581298 1.01699,1.835546 0.5395,0.248047 1.00459,0.248047 0.61391,0 0.97358,-0.396875 0.66353,-0.713135 0.66353,-2.864941 z"
         style="font-size:12.69999981px;stroke-width:0.26458332"
         id="path6532"
         inkscape:connector-curvature="0" />
    </g>
    <path
       inkscape:connector-curvature="0"
       style="fill:none;fill-rule:evenodd;stroke:#ff0000;stroke-width:1;stroke-miterlimit:4;stroke-dasharray:none;stroke-opacity:1"
       d="m 98.673501,109.9988 h 2.899999 v 4.8 h -2.899999 z"
       id="rect5072"
       inkscape:transform-center-x="21.166667"
       inkscape:transform-center-y="-14.363092" />
  </g>
</svg>
