<?xml version='1.0' encoding='us-ascii'?>
<svg height="191.10mm" viewBox="0.0 0.0 1262.45 191.10" width="1262.45mm" xmlns="http://www.w3.org/2000/svg" xmlns:cc="http://creativecommons.org/ns#" xmlns:dc="http://purl.org/dc/elements/1.1/" xmlns:inkscape="http://www.inkscape.org/namespaces/inkscape" xmlns:rdf="http://www.w3.org/1999/02/22-rdf-syntax-ns#" xmlns:svg="http://www.w3.org/2000/svg" xmlns:xlink="http://www.w3.org/1999/xlink">
<!--
Console - Console with slanted panel

Created with Boxes.py (https://festi.info/boxes.py)
Creation date: 2021-07-04 14:18:39
Command line (remove spaces between dashes): boxes Console - -FingerJoint_angle=90.0 - -FingerJoint_style=rectangular - -FingerJoint_surroundingspaces=0.5 - -FingerJoint_edge_width=1.0 - -FingerJoint_finger=2.5 - -FingerJoint_play=0.0 - -FingerJoint_space=2.5 - -FingerJoint_width=1.0 - -Stackable_angle=60 - -Stackable_height=2.0 - -Stackable_holedistance=1.0 - -Stackable_width=4.0 - -x=150 - -y=250 - -h=100 - -outside=0 - -front_height=30 - -angle=45 - -thickness=4.8 - -format=svg - -tabs=0.0 - -debug=0 - -labels=0 - -labels=1 - -reference=100 - -burn=0.1
Url: http://www.festi.info/Console?FingerJoint_angle=90.0&FingerJoint_style=rectangular&FingerJoint_surroundingspaces=0.5&FingerJoint_edge_width=1.0&FingerJoint_finger=2.5&FingerJoint_play=0.0&FingerJoint_space=2.5&FingerJoint_width=1.0&Stackable_angle=60&Stackable_height=2.0&Stackable_holedistance=1.0&Stackable_width=4.0&x=150&y=250&h=100&outside=0&front_height=30&angle=45&thickness=4.8&format=svg&tabs=0.0&debug=0&labels=0&labels=1&reference=100&burn=0.1&render=1
SettingsUrl: http://www.festi.info/Console?FingerJoint_angle=90.0&FingerJoint_style=rectangular&FingerJoint_surroundingspaces=0.5&FingerJoint_edge_width=1.0&FingerJoint_finger=2.5&FingerJoint_play=0.0&FingerJoint_space=2.5&FingerJoint_width=1.0&Stackable_angle=60&Stackable_height=2.0&Stackable_holedistance=1.0&Stackable_width=4.0&x=150&y=250&h=100&outside=0&front_height=30&angle=45&thickness=4.8&format=svg&tabs=0.0&debug=0&labels=0&labels=1&reference=100&burn=0.1
-->
<title>Console</title>
<metadata>
<rdf:RDF><cc:Work>
<dc:title>Box - Console</dc:title>
<dc:date>2021-07-04 14:18:39</dc:date>
<dc:source>http://www.festi.info/Console?FingerJoint_angle=90.0&amp;FingerJoint_style=rectangular&amp;FingerJoint_surroundingspaces=0.5&amp;FingerJoint_edge_width=1.0&amp;FingerJoint_finger=2.5&amp;FingerJoint_play=0.0&amp;FingerJoint_space=2.5&amp;FingerJoint_width=1.0&amp;Stackable_angle=60&amp;Stackable_height=2.0&amp;Stackable_holedistance=1.0&amp;Stackable_width=4.0&amp;x=150&amp;y=250&amp;h=100&amp;outside=0&amp;front_height=30&amp;angle=45&amp;thickness=4.8&amp;format=svg&amp;tabs=0.0&amp;debug=0&amp;labels=0&amp;labels=1&amp;reference=100&amp;burn=0.1&amp;render=1</dc:source>
<dc:description>Console with slanted panel

Created with Boxes.py (https://festi.info/boxes.py)
Command line: boxes Console --FingerJoint_angle=90.0 --FingerJoint_style=rectangular --FingerJoint_surroundingspaces=0.5 --FingerJoint_edge_width=1.0 --FingerJoint_finger=2.5 --FingerJoint_play=0.0 --FingerJoint_space=2.5 --FingerJoint_width=1.0 --Stackable_angle=60 --Stackable_height=2.0 --Stackable_holedistance=1.0 --Stackable_width=4.0 --x=150 --y=250 --h=100 --outside=0 --front_height=30 --angle=45 --thickness=4.8 --format=svg --tabs=0.0 --debug=0 --labels=0 --labels=1 --reference=100 --burn=0.1
Url: http://www.festi.info/Console?FingerJoint_angle=90.0&amp;FingerJoint_style=rectangular&amp;FingerJoint_surroundingspaces=0.5&amp;FingerJoint_edge_width=1.0&amp;FingerJoint_finger=2.5&amp;FingerJoint_play=0.0&amp;FingerJoint_space=2.5&amp;FingerJoint_width=1.0&amp;Stackable_angle=60&amp;Stackable_height=2.0&amp;Stackable_holedistance=1.0&amp;Stackable_width=4.0&amp;x=150&amp;y=250&amp;h=100&amp;outside=0&amp;front_height=30&amp;angle=45&amp;thickness=4.8&amp;format=svg&amp;tabs=0.0&amp;debug=0&amp;labels=0&amp;labels=1&amp;reference=100&amp;burn=0.1&amp;render=1
SettingsUrl: http://www.festi.info/Console?FingerJoint_angle=90.0&amp;FingerJoint_style=rectangular&amp;FingerJoint_surroundingspaces=0.5&amp;FingerJoint_edge_width=1.0&amp;FingerJoint_finger=2.5&amp;FingerJoint_play=0.0&amp;FingerJoint_space=2.5&amp;FingerJoint_width=1.0&amp;Stackable_angle=60&amp;Stackable_height=2.0&amp;Stackable_holedistance=1.0&amp;Stackable_width=4.0&amp;x=150&amp;y=250&amp;h=100&amp;outside=0&amp;front_height=30&amp;angle=45&amp;thickness=4.8&amp;format=svg&amp;tabs=0.0&amp;debug=0&amp;labels=0&amp;labels=1&amp;reference=100&amp;burn=0.1
</dc:description>
</cc:Work></rdf:RDF></metadata>
<g id="p-0" style="fill:none;stroke-linecap:round;stroke-linejoin:round;">
  <path d="M 10.100 181.100 H 110.100 V 171.100 H 10.100 V 181.100 Z" stroke="rgb(0,0,0)" stroke-width="0.20" />
  <text alignment-baseline="hanging" font-size="10px" style="font-family: sans-serif ; font-weight: normal; font-style: normal; fill: rgb(0,0,0)" text-anchor="middle" transform="matrix( 1.000 0.000 0.000 1.000 60.100 171.100 )">100mm</text><text alignment-baseline="hanging" font-size="4px" style="font-family: sans-serif ; font-weight: normal; font-style: normal; fill: rgb(255,0,0)" text-anchor="middle" transform="matrix( 1.000 0.000 0.000 1.000 15.100 174.100 )" />
</g>
<g id="p-1" style="fill:none;stroke-linecap:round;stroke-linejoin:round;">
  <text alignment-baseline="hanging" font-size="4px" style="font-family: sans-serif ; font-weight: normal; font-style: normal; fill: rgb(255,0,0)" text-anchor="middle" transform="matrix( 1.000 0.000 0.000 1.000 139.900 111.700 )" /><path d="M 14.900 163.700 H 25.800 C 25.900 163.700 25.800 163.600 25.800 163.700 V 168.400 C 25.800 168.455 25.845 168.500 25.900 168.500 H 37.900 C 37.955 168.500 38.000 168.455 38.000 168.400 V 163.700 C 38.000 163.600 37.900 163.700 38.000 163.700 H 49.800 C 49.900 163.700 49.800 163.600 49.800 163.700 V 168.400 C 49.800 168.455 49.845 168.500 49.900 168.500 H 61.900 C 61.955 168.500 62.000 168.455 62.000 168.400 V 163.700 C 62.000 163.600 61.900 163.700 62.000 163.700 H 73.800 C 73.900 163.700 73.800 163.600 73.800 163.700 V 168.400 C 73.800 168.455 73.845 168.500 73.900 168.500 H 85.900 C 85.955 168.500 86.000 168.455 86.000 168.400 V 163.700 C 86.000 163.600 85.900 163.700 86.000 163.700 H 97.800 C 97.900 163.700 97.800 163.600 97.800 163.700 V 168.400 C 97.800 168.455 97.845 168.500 97.900 168.500 H 109.900 C 109.955 168.500 110.000 168.455 110.000 168.400 V 163.700 C 110.000 163.600 109.900 163.700 110.000 163.700 H 121.800 C 121.900 163.700 121.800 163.600 121.800 163.700 V 168.400 C 121.800 168.455 121.845 168.500 121.900 168.500 H 133.900 C 133.955 168.500 134.000 168.455 134.000 168.400 V 163.700 C 134.000 163.600 133.900 163.700 134.000 163.700 H 145.800 C 145.900 163.700 145.800 163.600 145.800 163.700 V 168.400 C 145.800 168.455 145.845 168.500 145.900 168.500 H 157.900 C 157.955 168.500 158.000 168.455 158.000 168.400 V 163.700 C 158.000 163.600 157.900 163.700 158.000 163.700 H 169.800 C 169.900 163.700 169.800 163.600 169.800 163.700 V 168.400 C 169.800 168.455 169.845 168.500 169.900 168.500 H 181.900 C 181.955 168.500 182.000 168.455 182.000 168.400 V 163.700 C 182.000 163.600 181.900 163.700 182.000 163.700 H 193.800 C 193.900 163.700 193.800 163.600 193.800 163.700 V 168.400 C 193.800 168.455 193.845 168.500 193.900 168.500 H 205.900 C 205.955 168.500 206.000 168.455 206.000 168.400 V 163.700 C 206.000 163.600 205.900 163.700 206.000 163.700 H 217.800 C 217.900 163.700 217.800 163.600 217.800 163.700 V 168.400 C 217.800 168.455 217.845 168.500 217.900 168.500 H 229.900 C 229.955 168.500 230.000 168.455 230.000 168.400 V 163.700 C 230.000 163.600 229.900 163.700 230.000 163.700 H 241.800 C 241.900 163.700 241.800 163.600 241.800 163.700 V 168.400 C 241.800 168.455 241.845 168.500 241.900 168.500 H 253.900 C 253.955 168.500 254.000 168.455 254.000 168.400 V 163.700 C 254.000 163.600 253.900 163.700 254.000 163.700 H 264.900 C 264.955 163.700 265.000 163.655 265.000 163.600 V 154.700 C 265.000 154.600 264.900 154.700 265.000 154.700 H 269.700 C 269.755 154.700 269.800 154.655 269.800 154.600 V 142.600 C 269.800 142.545 269.755 142.500 269.700 142.500 H 265.000 C 264.900 142.500 265.000 142.600 265.000 142.500 V 133.600 C 265.000 133.573 264.989 133.548 264.971 133.529 L 259.740 128.298 C 259.669 128.228 259.669 128.369 259.740 128.298 L 263.063 124.975 C 263.102 124.936 263.102 124.873 263.063 124.834 L 254.578 116.348 C 254.539 116.309 254.476 116.309 254.437 116.348 L 251.113 119.672 C 251.042 119.742 251.184 119.742 251.113 119.672 L 242.769 111.328 C 242.699 111.257 242.699 111.399 242.769 111.328 L 246.093 108.005 C 246.132 107.965 246.132 107.902 246.093 107.863 L 237.607 99.378 C 237.568 99.339 237.505 99.339 237.466 99.378 L 234.143 102.701 C 234.072 102.772 234.213 102.772 234.143 102.701 L 225.799 94.357 C 225.728 94.287 225.728 94.428 225.799 94.357 L 229.122 91.034 C 229.161 90.995 229.161 90.932 229.122 90.893 L 220.637 82.407 C 220.598 82.368 220.535 82.368 220.495 82.407 L 217.172 85.731 C 217.101 85.801 217.243 85.801 217.172 85.731 L 208.828 77.387 C 208.758 77.316 208.758 77.458 208.828 77.387 L 212.152 74.063 C 212.191 74.024 212.191 73.961 212.152 73.922 L 203.666 65.437 C 203.627 65.398 203.564 65.398 203.525 65.437 L 200.202 68.760 C 200.131 68.831 200.272 68.831 200.202 68.760 L 194.971 63.529 C 194.952 63.511 194.927 63.500 194.900 63.500 H 183.000 C 182.900 63.500 183.000 63.600 183.000 63.500 V 58.800 C 183.000 58.745 182.955 58.700 182.900 58.700 H 170.900 C 170.845 58.700 170.800 58.745 170.800 58.800 V 63.500 C 170.800 63.600 170.900 63.500 170.800 63.500 H 159.000 C 158.900 63.500 159.000 63.600 159.000 63.500 V 58.800 C 159.000 58.745 158.955 58.700 158.900 58.700 H 146.900 C 146.845 58.700 146.800 58.745 146.800 58.800 V 63.500 C 146.800 63.600 146.900 63.500 146.800 63.500 H 135.000 C 134.900 63.500 135.000 63.600 135.000 63.500 V 58.800 C 135.000 58.745 134.955 58.700 134.900 58.700 H 122.900 C 122.845 58.700 122.800 58.745 122.800 58.800 V 63.500 C 122.800 63.600 122.900 63.500 122.800 63.500 H 111.000 C 110.900 63.500 111.000 63.600 111.000 63.500 V 58.800 C 111.000 58.745 110.955 58.700 110.900 58.700 H 98.900 C 98.845 58.700 98.800 58.745 98.800 58.800 V 63.500 C 98.800 63.600 98.900 63.500 98.800 63.500 H 87.000 C 86.900 63.500 87.000 63.600 87.000 63.500 V 58.800 C 87.000 58.745 86.955 58.700 86.900 58.700 H 74.900 C 74.845 58.700 74.800 58.745 74.800 58.800 V 63.500 C 74.800 63.600 74.900 63.500 74.800 63.500 H 63.000 C 62.900 63.500 63.000 63.600 63.000 63.500 V 58.800 C 63.000 58.745 62.955 58.700 62.900 58.700 H 50.900 C 50.845 58.700 50.800 58.745 50.800 58.800 V 63.500 C 50.800 63.600 50.900 63.500 50.800 63.500 H 39.000 C 38.900 63.500 39.000 63.600 39.000 63.500 V 58.800 C 39.000 58.745 38.955 58.700 38.900 58.700 H 26.900 C 26.845 58.700 26.800 58.745 26.800 58.800 V 63.500 C 26.800 63.600 26.900 63.500 26.800 63.500 H 14.900 C 14.845 63.500 14.800 63.545 14.800 63.600 V 71.500 C 14.800 71.600 14.900 71.500 14.800 71.500 H 10.100 C 10.045 71.500 10.000 71.545 10.000 71.600 V 83.600 C 10.000 83.655 10.045 83.700 10.100 83.700 H 14.800 C 14.900 83.700 14.800 83.600 14.800 83.700 V 95.500 C 14.800 95.600 14.900 95.500 14.800 95.500 H 10.100 C 10.045 95.500 10.000 95.545 10.000 95.600 V 107.600 C 10.000 107.655 10.045 107.700 10.100 107.700 H 14.800 C 14.900 107.700 14.800 107.600 14.800 107.700 V 119.500 C 14.800 119.600 14.900 119.500 14.800 119.500 H 10.100 C 10.045 119.500 10.000 119.545 10.000 119.600 V 131.600 C 10.000 131.655 10.045 131.700 10.100 131.700 H 14.800 C 14.900 131.700 14.800 131.600 14.800 131.700 V 143.500 C 14.800 143.600 14.900 143.500 14.800 143.500 H 10.100 C 10.045 143.500 10.000 143.545 10.000 143.600 V 155.600 C 10.000 155.655 10.045 155.700 10.100 155.700 H 14.800 C 14.900 155.700 14.800 155.600 14.800 155.700 V 163.600 C 14.800 163.655 14.845 163.700 14.900 163.700" stroke="rgb(0,0,0)" stroke-width="0.20" />
</g>
<g id="p-2" style="fill:none;stroke-linecap:round;stroke-linejoin:round;">
  <text alignment-baseline="hanging" font-size="4px" style="font-family: sans-serif ; font-weight: normal; font-style: normal; fill: rgb(255,0,0)" text-anchor="middle" transform="matrix( 1.000 0.000 0.000 1.000 402.100 111.700 )" /><path d="M 277.100 163.700 H 288.000 C 288.100 163.700 288.000 163.600 288.000 163.700 V 168.400 C 288.000 168.455 288.045 168.500 288.100 168.500 H 300.100 C 300.155 168.500 300.200 168.455 300.200 168.400 V 163.700 C 300.200 163.600 300.100 163.700 300.200 163.700 H 312.000 C 312.100 163.700 312.000 163.600 312.000 163.700 V 168.400 C 312.000 168.455 312.045 168.500 312.100 168.500 H 324.100 C 324.155 168.500 324.200 168.455 324.200 168.400 V 163.700 C 324.200 163.600 324.100 163.700 324.200 163.700 H 336.000 C 336.100 163.700 336.000 163.600 336.000 163.700 V 168.400 C 336.000 168.455 336.045 168.500 336.100 168.500 H 348.100 C 348.155 168.500 348.200 168.455 348.200 168.400 V 163.700 C 348.200 163.600 348.100 163.700 348.200 163.700 H 360.000 C 360.100 163.700 360.000 163.600 360.000 163.700 V 168.400 C 360.000 168.455 360.045 168.500 360.100 168.500 H 372.100 C 372.155 168.500 372.200 168.455 372.200 168.400 V 163.700 C 372.200 163.600 372.100 163.700 372.200 163.700 H 384.000 C 384.100 163.700 384.000 163.600 384.000 163.700 V 168.400 C 384.000 168.455 384.045 168.500 384.100 168.500 H 396.100 C 396.155 168.500 396.200 168.455 396.200 168.400 V 163.700 C 396.200 163.600 396.100 163.700 396.200 163.700 H 408.000 C 408.100 163.700 408.000 163.600 408.000 163.700 V 168.400 C 408.000 168.455 408.045 168.500 408.100 168.500 H 420.100 C 420.155 168.500 420.200 168.455 420.200 168.400 V 163.700 C 420.200 163.600 420.100 163.700 420.200 163.700 H 432.000 C 432.100 163.700 432.000 163.600 432.000 163.700 V 168.400 C 432.000 168.455 432.045 168.500 432.100 168.500 H 444.100 C 444.155 168.500 444.200 168.455 444.200 168.400 V 163.700 C 444.200 163.600 444.100 163.700 444.200 163.700 H 456.000 C 456.100 163.700 456.000 163.600 456.000 163.700 V 168.400 C 456.000 168.455 456.045 168.500 456.100 168.500 H 468.100 C 468.155 168.500 468.200 168.455 468.200 168.400 V 163.700 C 468.200 163.600 468.100 163.700 468.200 163.700 H 480.000 C 480.100 163.700 480.000 163.600 480.000 163.700 V 168.400 C 480.000 168.455 480.045 168.500 480.100 168.500 H 492.100 C 492.155 168.500 492.200 168.455 492.200 168.400 V 163.700 C 492.200 163.600 492.100 163.700 492.200 163.700 H 504.000 C 504.100 163.700 504.000 163.600 504.000 163.700 V 168.400 C 504.000 168.455 504.045 168.500 504.100 168.500 H 516.100 C 516.155 168.500 516.200 168.455 516.200 168.400 V 163.700 C 516.200 163.600 516.100 163.700 516.200 163.700 H 527.100 C 527.155 163.700 527.200 163.655 527.200 163.600 V 154.700 C 527.200 154.600 527.100 154.700 527.200 154.700 H 531.900 C 531.955 154.700 532.000 154.655 532.000 154.600 V 142.600 C 532.000 142.545 531.955 142.500 531.900 142.500 H 527.200 C 527.100 142.500 527.200 142.600 527.200 142.500 V 133.600 C 527.200 133.573 527.189 133.548 527.171 133.529 L 521.940 128.298 C 521.869 128.228 521.869 128.369 521.940 128.298 L 525.263 124.975 C 525.302 124.936 525.302 124.873 525.263 124.834 L 516.778 116.348 C 516.739 116.309 516.676 116.309 516.637 116.348 L 513.313 119.672 C 513.242 119.742 513.384 119.742 513.313 119.672 L 504.969 111.328 C 504.899 111.257 504.899 111.399 504.969 111.328 L 508.293 108.005 C 508.332 107.965 508.332 107.902 508.293 107.863 L 499.807 99.378 C 499.768 99.339 499.705 99.339 499.666 99.378 L 496.343 102.701 C 496.272 102.772 496.413 102.772 496.343 102.701 L 487.999 94.357 C 487.928 94.287 487.928 94.428 487.999 94.357 L 491.322 91.034 C 491.361 90.995 491.361 90.932 491.322 90.893 L 482.837 82.407 C 482.798 82.368 482.735 82.368 482.695 82.407 L 479.372 85.731 C 479.301 85.801 479.443 85.801 479.372 85.731 L 471.028 77.387 C 470.958 77.316 470.958 77.458 471.028 77.387 L 474.352 74.063 C 474.391 74.024 474.391 73.961 474.352 73.922 L 465.866 65.437 C 465.827 65.398 465.764 65.398 465.725 65.437 L 462.402 68.760 C 462.331 68.831 462.472 68.831 462.402 68.760 L 457.171 63.529 C 457.152 63.511 457.127 63.500 457.100 63.500 H 445.200 C 445.100 63.500 445.200 63.600 445.200 63.500 V 58.800 C 445.200 58.745 445.155 58.700 445.100 58.700 H 433.100 C 433.045 58.700 433.000 58.745 433.000 58.800 V 63.500 C 433.000 63.600 433.100 63.500 433.000 63.500 H 421.200 C 421.100 63.500 421.200 63.600 421.200 63.500 V 58.800 C 421.200 58.745 421.155 58.700 421.100 58.700 H 409.100 C 409.045 58.700 409.000 58.745 409.000 58.800 V 63.500 C 409.000 63.600 409.100 63.500 409.000 63.500 H 397.200 C 397.100 63.500 397.200 63.600 397.200 63.500 V 58.800 C 397.200 58.745 397.155 58.700 397.100 58.700 H 385.100 C 385.045 58.700 385.000 58.745 385.000 58.800 V 63.500 C 385.000 63.600 385.100 63.500 385.000 63.500 H 373.200 C 373.100 63.500 373.200 63.600 373.200 63.500 V 58.800 C 373.200 58.745 373.155 58.700 373.100 58.700 H 361.100 C 361.045 58.700 361.000 58.745 361.000 58.800 V 63.500 C 361.000 63.600 361.100 63.500 361.000 63.500 H 349.200 C 349.100 63.500 349.200 63.600 349.200 63.500 V 58.800 C 349.200 58.745 349.155 58.700 349.100 58.700 H 337.100 C 337.045 58.700 337.000 58.745 337.000 58.800 V 63.500 C 337.000 63.600 337.100 63.500 337.000 63.500 H 325.200 C 325.100 63.500 325.200 63.600 325.200 63.500 V 58.800 C 325.200 58.745 325.155 58.700 325.100 58.700 H 313.100 C 313.045 58.700 313.000 58.745 313.000 58.800 V 63.500 C 313.000 63.600 313.100 63.500 313.000 63.500 H 301.200 C 301.100 63.500 301.200 63.600 301.200 63.500 V 58.800 C 301.200 58.745 301.155 58.700 301.100 58.700 H 289.100 C 289.045 58.700 289.000 58.745 289.000 58.800 V 63.500 C 289.000 63.600 289.100 63.500 289.000 63.500 H 277.100 C 277.045 63.500 277.000 63.545 277.000 63.600 V 71.500 C 277.000 71.600 277.100 71.500 277.000 71.500 H 272.300 C 272.245 71.500 272.200 71.545 272.200 71.600 V 83.600 C 272.200 83.655 272.245 83.700 272.300 83.700 H 277.000 C 277.100 83.700 277.000 83.600 277.000 83.700 V 95.500 C 277.000 95.600 277.100 95.500 277.000 95.500 H 272.300 C 272.245 95.500 272.200 95.545 272.200 95.600 V 107.600 C 272.200 107.655 272.245 107.700 272.300 107.700 H 277.000 C 277.100 107.700 277.000 107.600 277.000 107.700 V 119.500 C 277.000 119.600 277.100 119.500 277.000 119.500 H 272.300 C 272.245 119.500 272.200 119.545 272.200 119.600 V 131.600 C 272.200 131.655 272.245 131.700 272.300 131.700 H 277.000 C 277.100 131.700 277.000 131.600 277.000 131.700 V 143.500 C 277.000 143.600 277.100 143.500 277.000 143.500 H 272.300 C 272.245 143.500 272.200 143.545 272.200 143.600 V 155.600 C 272.200 155.655 272.245 155.700 272.300 155.700 H 277.000 C 277.100 155.700 277.000 155.600 277.000 155.700 V 163.600 C 277.000 163.655 277.045 163.700 277.100 163.700" stroke="rgb(0,0,0)" stroke-width="0.20" />
</g>
<g id="p-3" style="fill:none;stroke-linecap:round;stroke-linejoin:round;">
  <path d="M 540.600 169.800 H 551.600 C 551.655 169.800 551.700 169.755 551.700 169.700 V 165.000 C 551.700 164.900 551.600 165.000 551.700 165.000 H 563.500 C 563.600 165.000 563.500 164.900 563.500 165.000 V 169.700 C 563.500 169.755 563.545 169.800 563.600 169.800 H 575.600 C 575.655 169.800 575.700 169.755 575.700 169.700 V 165.000 C 575.700 164.900 575.600 165.000 575.700 165.000 H 587.500 C 587.600 165.000 587.500 164.900 587.500 165.000 V 169.700 C 587.500 169.755 587.545 169.800 587.600 169.800 H 599.600 C 599.655 169.800 599.700 169.755 599.700 169.700 V 165.000 C 599.700 164.900 599.600 165.000 599.700 165.000 H 611.500 C 611.600 165.000 611.500 164.900 611.500 165.000 V 169.700 C 611.500 169.755 611.545 169.800 611.600 169.800 H 623.600 C 623.655 169.800 623.700 169.755 623.700 169.700 V 165.000 C 623.700 164.900 623.600 165.000 623.700 165.000 H 635.500 C 635.600 165.000 635.500 164.900 635.500 165.000 V 169.700 C 635.500 169.755 635.545 169.800 635.600 169.800 H 647.600 C 647.655 169.800 647.700 169.755 647.700 169.700 V 165.000 C 647.700 164.900 647.600 165.000 647.700 165.000 H 659.500 C 659.600 165.000 659.500 164.900 659.500 165.000 V 169.700 C 659.500 169.755 659.545 169.800 659.600 169.800 H 671.600 C 671.655 169.800 671.700 169.755 671.700 169.700 V 165.000 C 671.700 164.900 671.600 165.000 671.700 165.000 H 683.500 C 683.600 165.000 683.500 164.900 683.500 165.000 V 169.700 C 683.500 169.755 683.545 169.800 683.600 169.800 H 695.600 C 695.655 169.800 695.700 169.755 695.700 169.700 V 165.000 C 695.700 164.900 695.600 165.000 695.700 165.000 H 707.500 C 707.600 165.000 707.500 164.900 707.500 165.000 V 169.700 C 707.500 169.755 707.545 169.800 707.600 169.800 H 719.600 C 719.655 169.800 719.700 169.755 719.700 169.700 V 165.000 C 719.700 164.900 719.600 165.000 719.700 165.000 H 731.500 C 731.600 165.000 731.500 164.900 731.500 165.000 V 169.700 C 731.500 169.755 731.545 169.800 731.600 169.800 H 743.600 C 743.655 169.800 743.700 169.755 743.700 169.700 V 165.000 C 743.700 164.900 743.600 165.000 743.700 165.000 H 755.500 C 755.600 165.000 755.500 164.900 755.500 165.000 V 169.700 C 755.500 169.755 755.545 169.800 755.600 169.800 H 767.600 C 767.655 169.800 767.700 169.755 767.700 169.700 V 165.000 C 767.700 164.900 767.600 165.000 767.700 165.000 H 779.500 C 779.600 165.000 779.500 164.900 779.500 165.000 V 169.700 C 779.500 169.755 779.545 169.800 779.600 169.800 H 790.600 H 795.400 C 795.455 169.800 795.500 169.755 795.500 169.700 V 164.900 V 155.900 C 795.500 155.845 795.455 155.800 795.400 155.800 H 790.700 C 790.600 155.800 790.700 155.900 790.700 155.800 V 144.000 C 790.700 143.900 790.600 144.000 790.700 144.000 H 795.400 C 795.455 144.000 795.500 143.955 795.500 143.900 V 131.900 C 795.500 131.845 795.455 131.800 795.400 131.800 H 790.700 C 790.600 131.800 790.700 131.900 790.700 131.800 V 120.000 C 790.700 119.900 790.600 120.000 790.700 120.000 H 795.400 C 795.455 120.000 795.500 119.955 795.500 119.900 V 107.900 C 795.500 107.845 795.455 107.800 795.400 107.800 H 790.700 C 790.600 107.800 790.700 107.900 790.700 107.800 V 96.000 C 790.700 95.900 790.600 96.000 790.700 96.000 H 795.400 C 795.455 96.000 795.500 95.955 795.500 95.900 V 83.900 C 795.500 83.845 795.455 83.800 795.400 83.800 H 790.700 C 790.600 83.800 790.700 83.900 790.700 83.800 V 72.000 C 790.700 71.900 790.600 72.000 790.700 72.000 H 795.400 C 795.455 72.000 795.500 71.955 795.500 71.900 V 59.900 C 795.500 59.845 795.455 59.800 795.400 59.800 H 790.700 C 790.600 59.800 790.700 59.900 790.700 59.800 V 48.000 C 790.700 47.900 790.600 48.000 790.700 48.000 H 795.400 C 795.455 48.000 795.500 47.955 795.500 47.900 V 35.900 C 795.500 35.845 795.455 35.800 795.400 35.800 H 790.700 C 790.600 35.800 790.700 35.900 790.700 35.800 V 24.000 C 790.700 23.900 790.600 24.000 790.700 24.000 H 795.400 C 795.455 24.000 795.500 23.955 795.500 23.900 V 14.900 V 10.100 C 795.500 10.045 795.455 10.000 795.400 10.000 H 790.600 H 779.600 C 779.545 10.000 779.500 10.045 779.500 10.100 V 14.800 C 779.500 14.900 779.600 14.800 779.500 14.800 H 767.700 C 767.600 14.800 767.700 14.900 767.700 14.800 V 10.100 C 767.700 10.045 767.655 10.000 767.600 10.000 H 755.600 C 755.545 10.000 755.500 10.045 755.500 10.100 V 14.800 C 755.500 14.900 755.600 14.800 755.500 14.800 H 743.700 C 743.600 14.800 743.700 14.900 743.700 14.800 V 10.100 C 743.700 10.045 743.655 10.000 743.600 10.000 H 731.600 C 731.545 10.000 731.500 10.045 731.500 10.100 V 14.800 C 731.500 14.900 731.600 14.800 731.500 14.800 H 719.700 C 719.600 14.800 719.700 14.900 719.700 14.800 V 10.100 C 719.700 10.045 719.655 10.000 719.600 10.000 H 707.600 C 707.545 10.000 707.500 10.045 707.500 10.100 V 14.800 C 707.500 14.900 707.600 14.800 707.500 14.800 H 695.700 C 695.600 14.800 695.700 14.900 695.700 14.800 V 10.100 C 695.700 10.045 695.655 10.000 695.600 10.000 H 683.600 C 683.545 10.000 683.500 10.045 683.500 10.100 V 14.800 C 683.500 14.900 683.600 14.800 683.500 14.800 H 671.700 C 671.600 14.800 671.700 14.900 671.700 14.800 V 10.100 C 671.700 10.045 671.655 10.000 671.600 10.000 H 659.600 C 659.545 10.000 659.500 10.045 659.500 10.100 V 14.800 C 659.500 14.900 659.600 14.800 659.500 14.800 H 647.700 C 647.600 14.800 647.700 14.900 647.700 14.800 V 10.100 C 647.700 10.045 647.655 10.000 647.600 10.000 H 635.600 C 635.545 10.000 635.500 10.045 635.500 10.100 V 14.800 C 635.500 14.900 635.600 14.800 635.500 14.800 H 623.700 C 623.600 14.800 623.700 14.900 623.700 14.800 V 10.100 C 623.700 10.045 623.655 10.000 623.600 10.000 H 611.600 C 611.545 10.000 611.500 10.045 611.500 10.100 V 14.800 C 611.500 14.900 611.600 14.800 611.500 14.800 H 599.700 C 599.600 14.800 599.700 14.900 599.700 14.800 V 10.100 C 599.700 10.045 599.655 10.000 599.600 10.000 H 587.600 C 587.545 10.000 587.500 10.045 587.500 10.100 V 14.800 C 587.500 14.900 587.600 14.800 587.500 14.800 H 575.700 C 575.600 14.800 575.700 14.900 575.700 14.800 V 10.100 C 575.700 10.045 575.655 10.000 575.600 10.000 H 563.600 C 563.545 10.000 563.500 10.045 563.500 10.100 V 14.800 C 563.500 14.900 563.600 14.800 563.500 14.800 H 551.700 C 551.600 14.800 551.700 14.900 551.700 14.800 V 10.100 C 551.700 10.045 551.655 10.000 551.600 10.000 H 540.600 H 535.800 C 535.745 10.000 535.700 10.045 535.700 10.100 V 14.900 V 23.900 C 535.700 23.955 535.745 24.000 535.800 24.000 H 540.500 C 540.600 24.000 540.500 23.900 540.500 24.000 V 35.800 C 540.500 35.900 540.600 35.800 540.500 35.800 H 535.800 C 535.745 35.800 535.700 35.845 535.700 35.900 V 47.900 C 535.700 47.955 535.745 48.000 535.800 48.000 H 540.500 C 540.600 48.000 540.500 47.900 540.500 48.000 V 59.800 C 540.500 59.900 540.600 59.800 540.500 59.800 H 535.800 C 535.745 59.800 535.700 59.845 535.700 59.900 V 71.900 C 535.700 71.955 535.745 72.000 535.800 72.000 H 540.500 C 540.600 72.000 540.500 71.900 540.500 72.000 V 83.800 C 540.500 83.900 540.600 83.800 540.500 83.800 H 535.800 C 535.745 83.800 535.700 83.845 535.700 83.900 V 95.900 C 535.700 95.955 535.745 96.000 535.800 96.000 H 540.500 C 540.600 96.000 540.500 95.900 540.500 96.000 V 107.800 C 540.500 107.900 540.600 107.800 540.500 107.800 H 535.800 C 535.745 107.800 535.700 107.845 535.700 107.900 V 119.900 C 535.700 119.955 535.745 120.000 535.800 120.000 H 540.500 C 540.600 120.000 540.500 119.900 540.500 120.000 V 131.800 C 540.500 131.900 540.600 131.800 540.500 131.800 H 535.800 C 535.745 131.800 535.700 131.845 535.700 131.900 V 143.900 C 535.700 143.955 535.745 144.000 535.800 144.000 H 540.500 C 540.600 144.000 540.500 143.900 540.500 144.000 V 155.800 C 540.500 155.900 540.600 155.800 540.500 155.800 H 535.800 C 535.745 155.800 535.700 155.845 535.700 155.900 V 164.900 V 169.700 C 535.700 169.755 535.745 169.800 535.800 169.800 H 540.600 Z" stroke="rgb(0,0,0)" stroke-width="0.20" />
  <path d="M 805.400 169.800 H 814.400 C 814.455 169.800 814.500 169.755 814.500 169.700 V 165.000 C 814.500 164.900 814.400 165.000 814.500 165.000 H 826.300 C 826.400 165.000 826.300 164.900 826.300 165.000 V 169.700 C 826.300 169.755 826.345 169.800 826.400 169.800 H 835.400 H 833.994 C 834.049 169.800 834.094 169.755 834.094 169.700 V 164.900 V 156.000 C 834.094 155.900 833.994 156.000 834.094 156.000 H 837.388 C 837.443 156.000 837.488 155.955 837.488 155.900 V 143.900 C 837.488 143.845 837.443 143.800 837.388 143.800 H 834.094 C 833.994 143.800 834.094 143.900 834.094 143.800 V 132.000 C 834.094 131.900 833.994 132.000 834.094 132.000 H 837.388 C 837.443 132.000 837.488 131.955 837.488 131.900 V 119.900 C 837.488 119.845 837.443 119.800 837.388 119.800 H 834.094 C 833.994 119.800 834.094 119.900 834.094 119.800 V 108.000 C 834.094 107.900 833.994 108.000 834.094 108.000 H 837.388 C 837.443 108.000 837.488 107.955 837.488 107.900 V 95.900 C 837.488 95.845 837.443 95.800 837.388 95.800 H 834.094 C 833.994 95.800 834.094 95.900 834.094 95.800 V 84.000 C 834.094 83.900 833.994 84.000 834.094 84.000 H 837.388 C 837.443 84.000 837.488 83.955 837.488 83.900 V 71.900 C 837.488 71.845 837.443 71.800 837.388 71.800 H 834.094 C 833.994 71.800 834.094 71.900 834.094 71.800 V 60.000 C 834.094 59.900 833.994 60.000 834.094 60.000 H 837.388 C 837.443 60.000 837.488 59.955 837.488 59.900 V 47.900 C 837.488 47.845 837.443 47.800 837.388 47.800 H 834.094 C 833.994 47.800 834.094 47.900 834.094 47.800 V 36.000 C 834.094 35.900 833.994 36.000 834.094 36.000 H 837.388 C 837.443 36.000 837.488 35.955 837.488 35.900 V 23.900 C 837.488 23.845 837.443 23.800 837.388 23.800 H 834.094 C 833.994 23.800 834.094 23.900 834.094 23.800 V 14.900 V 10.100 C 834.094 10.045 834.049 10.000 833.994 10.000 H 835.400 H 826.400 C 826.345 10.000 826.300 10.045 826.300 10.100 V 14.800 C 826.300 14.900 826.400 14.800 826.300 14.800 H 814.500 C 814.400 14.800 814.500 14.900 814.500 14.800 V 10.100 C 814.500 10.045 814.455 10.000 814.400 10.000 H 805.400 C 805.345 10.000 805.300 10.045 805.300 10.100 V 14.900 V 23.800 C 805.300 23.900 805.400 23.800 805.300 23.800 H 800.600 C 800.545 23.800 800.500 23.845 800.500 23.900 V 35.900 C 800.500 35.955 800.545 36.000 800.600 36.000 H 805.300 C 805.400 36.000 805.300 35.900 805.300 36.000 V 47.800 C 805.300 47.900 805.400 47.800 805.300 47.800 H 800.600 C 800.545 47.800 800.500 47.845 800.500 47.900 V 59.900 C 800.500 59.955 800.545 60.000 800.600 60.000 H 805.300 C 805.400 60.000 805.300 59.900 805.300 60.000 V 71.800 C 805.300 71.900 805.400 71.800 805.300 71.800 H 800.600 C 800.545 71.800 800.500 71.845 800.500 71.900 V 83.900 C 800.500 83.955 800.545 84.000 800.600 84.000 H 805.300 C 805.400 84.000 805.300 83.900 805.300 84.000 V 95.800 C 805.300 95.900 805.400 95.800 805.300 95.800 H 800.600 C 800.545 95.800 800.500 95.845 800.500 95.900 V 107.900 C 800.500 107.955 800.545 108.000 800.600 108.000 H 805.300 C 805.400 108.000 805.300 107.900 805.300 108.000 V 119.800 C 805.300 119.900 805.400 119.800 805.300 119.800 H 800.600 C 800.545 119.800 800.500 119.845 800.500 119.900 V 131.900 C 800.500 131.955 800.545 132.000 800.600 132.000 H 805.300 C 805.400 132.000 805.300 131.900 805.300 132.000 V 143.800 C 805.300 143.900 805.400 143.800 805.300 143.800 H 800.600 C 800.545 143.800 800.500 143.845 800.500 143.900 V 155.900 C 800.500 155.955 800.545 156.000 800.600 156.000 H 805.300 C 805.400 156.000 805.300 155.900 805.300 156.000 V 164.900 V 169.700 C 805.300 169.755 805.345 169.800 805.400 169.800 Z" stroke="rgb(0,0,0)" stroke-width="0.20" />
  <path d="M 847.388 169.800 H 854.886 C 854.941 169.800 854.986 169.755 854.986 169.700 V 165.000 C 854.986 164.900 854.886 165.000 854.986 165.000 H 866.786 C 866.886 165.000 866.786 164.900 866.786 165.000 V 169.700 C 866.786 169.755 866.830 169.800 866.886 169.800 H 878.886 C 878.941 169.800 878.986 169.755 878.986 169.700 V 165.000 C 878.986 164.900 878.886 165.000 878.986 165.000 H 890.786 C 890.886 165.000 890.786 164.900 890.786 165.000 V 169.700 C 890.786 169.755 890.830 169.800 890.886 169.800 H 902.886 C 902.941 169.800 902.986 169.755 902.986 169.700 V 165.000 C 902.986 164.900 902.886 165.000 902.986 165.000 H 914.786 C 914.886 165.000 914.786 164.900 914.786 165.000 V 169.700 C 914.786 169.755 914.830 169.800 914.886 169.800 H 926.886 C 926.941 169.800 926.986 169.755 926.986 169.700 V 165.000 C 926.986 164.900 926.886 165.000 926.986 165.000 H 938.786 C 938.886 165.000 938.786 164.900 938.786 165.000 V 169.700 C 938.786 169.755 938.830 169.800 938.886 169.800 H 946.383 H 948.371 C 948.427 169.800 948.471 169.755 948.471 169.700 V 164.900 V 155.900 C 948.471 155.845 948.427 155.800 948.371 155.800 H 945.077 C 944.977 155.800 945.077 155.900 945.077 155.800 V 144.000 C 945.077 143.900 944.977 144.000 945.077 144.000 H 948.371 C 948.427 144.000 948.471 143.955 948.471 143.900 V 131.900 C 948.471 131.845 948.427 131.800 948.371 131.800 H 945.077 C 944.977 131.800 945.077 131.900 945.077 131.800 V 120.000 C 945.077 119.900 944.977 120.000 945.077 120.000 H 948.371 C 948.427 120.000 948.471 119.955 948.471 119.900 V 107.900 C 948.471 107.845 948.427 107.800 948.371 107.800 H 945.077 C 944.977 107.800 945.077 107.900 945.077 107.800 V 96.000 C 945.077 95.900 944.977 96.000 945.077 96.000 H 948.371 C 948.427 96.000 948.471 95.955 948.471 95.900 V 83.900 C 948.471 83.845 948.427 83.800 948.371 83.800 H 945.077 C 944.977 83.800 945.077 83.900 945.077 83.800 V 72.000 C 945.077 71.900 944.977 72.000 945.077 72.000 H 948.371 C 948.427 72.000 948.471 71.955 948.471 71.900 V 59.900 C 948.471 59.845 948.427 59.800 948.371 59.800 H 945.077 C 944.977 59.800 945.077 59.900 945.077 59.800 V 48.000 C 945.077 47.900 944.977 48.000 945.077 48.000 H 948.371 C 948.427 48.000 948.471 47.955 948.471 47.900 V 35.900 C 948.471 35.845 948.427 35.800 948.371 35.800 H 945.077 C 944.977 35.800 945.077 35.900 945.077 35.800 V 24.000 C 945.077 23.900 944.977 24.000 945.077 24.000 H 948.371 C 948.427 24.000 948.471 23.955 948.471 23.900 V 14.900 V 10.100 C 948.471 10.045 948.427 10.000 948.371 10.000 H 946.383 H 938.886 C 938.830 10.000 938.786 10.045 938.786 10.100 V 14.800 C 938.786 14.900 938.886 14.800 938.786 14.800 H 926.986 C 926.886 14.800 926.986 14.900 926.986 14.800 V 10.100 C 926.986 10.045 926.941 10.000 926.886 10.000 H 914.886 C 914.830 10.000 914.786 10.045 914.786 10.100 V 14.800 C 914.786 14.900 914.886 14.800 914.786 14.800 H 902.986 C 902.886 14.800 902.986 14.900 902.986 14.800 V 10.100 C 902.986 10.045 902.941 10.000 902.886 10.000 H 890.886 C 890.830 10.000 890.786 10.045 890.786 10.100 V 14.800 C 890.786 14.900 890.886 14.800 890.786 14.800 H 878.986 C 878.886 14.800 878.986 14.900 878.986 14.800 V 10.100 C 878.986 10.045 878.941 10.000 878.886 10.000 H 866.886 C 866.830 10.000 866.786 10.045 866.786 10.100 V 14.800 C 866.786 14.900 866.886 14.800 866.786 14.800 H 854.986 C 854.886 14.800 854.986 14.900 854.986 14.800 V 10.100 C 854.986 10.045 854.941 10.000 854.886 10.000 H 847.388 H 845.400 C 845.345 10.000 845.300 10.045 845.300 10.100 V 14.900 V 23.900 C 845.300 23.955 845.345 24.000 845.400 24.000 H 848.694 C 848.794 24.000 848.694 23.900 848.694 24.000 V 35.800 C 848.694 35.900 848.794 35.800 848.694 35.800 H 845.400 C 845.345 35.800 845.300 35.845 845.300 35.900 V 47.900 C 845.300 47.955 845.345 48.000 845.400 48.000 H 848.694 C 848.794 48.000 848.694 47.900 848.694 48.000 V 59.800 C 848.694 59.900 848.794 59.800 848.694 59.800 H 845.400 C 845.345 59.800 845.300 59.845 845.300 59.900 V 71.900 C 845.300 71.955 845.345 72.000 845.400 72.000 H 848.694 C 848.794 72.000 848.694 71.900 848.694 72.000 V 83.800 C 848.694 83.900 848.794 83.800 848.694 83.800 H 845.400 C 845.345 83.800 845.300 83.845 845.300 83.900 V 95.900 C 845.300 95.955 845.345 96.000 845.400 96.000 H 848.694 C 848.794 96.000 848.694 95.900 848.694 96.000 V 107.800 C 848.694 107.900 848.794 107.800 848.694 107.800 H 845.400 C 845.345 107.800 845.300 107.845 845.300 107.900 V 119.900 C 845.300 119.955 845.345 120.000 845.400 120.000 H 848.694 C 848.794 120.000 848.694 119.900 848.694 120.000 V 131.800 C 848.694 131.900 848.794 131.800 848.694 131.800 H 845.400 C 845.345 131.800 845.300 131.845 845.300 131.900 V 143.900 C 845.300 143.955 845.345 144.000 845.400 144.000 H 848.694 C 848.794 144.000 848.694 143.900 848.694 144.000 V 155.800 C 848.694 155.900 848.794 155.800 848.694 155.800 H 845.400 C 845.345 155.800 845.300 155.845 845.300 155.900 V 164.900 V 169.700 C 845.300 169.755 845.345 169.800 845.400 169.800 H 847.388 Z" stroke="rgb(0,0,0)" stroke-width="0.20" />
  <path d="M 955.560 169.800 H 967.560 C 967.615 169.800 967.660 169.755 967.660 169.700 V 165.000 C 967.660 164.900 967.560 165.000 967.660 165.000 H 979.460 C 979.560 165.000 979.460 164.900 979.460 165.000 V 169.700 C 979.460 169.755 979.504 169.800 979.560 169.800 H 991.560 C 991.615 169.800 991.660 169.755 991.660 169.700 V 165.000 C 991.660 164.900 991.560 165.000 991.660 165.000 H 1003.460 C 1003.560 165.000 1003.460 164.900 1003.460 165.000 V 169.700 C 1003.460 169.755 1003.504 169.800 1003.560 169.800 H 1015.560 C 1015.615 169.800 1015.660 169.755 1015.660 169.700 V 165.000 C 1015.660 164.900 1015.560 165.000 1015.660 165.000 H 1027.460 C 1027.560 165.000 1027.460 164.900 1027.460 165.000 V 169.700 C 1027.460 169.755 1027.504 169.800 1027.560 169.800 H 1039.560 C 1039.615 169.800 1039.660 169.755 1039.660 169.700 V 165.000 C 1039.660 164.900 1039.560 165.000 1039.660 165.000 H 1051.460 C 1051.560 165.000 1051.460 164.900 1051.460 165.000 V 169.700 C 1051.460 169.755 1051.504 169.800 1051.560 169.800 H 1063.560 C 1063.615 169.800 1063.660 169.755 1063.660 169.700 V 165.000 C 1063.660 164.900 1063.560 165.000 1063.660 165.000 H 1075.460 C 1075.560 165.000 1075.460 164.900 1075.460 165.000 V 169.700 C 1075.460 169.755 1075.504 169.800 1075.560 169.800 H 1087.560 C 1087.615 169.800 1087.660 169.755 1087.660 169.700 V 165.000 C 1087.660 164.900 1087.560 165.000 1087.660 165.000 H 1099.460 C 1099.560 165.000 1099.460 164.900 1099.460 165.000 V 169.700 C 1099.460 169.755 1099.504 169.800 1099.560 169.800 H 1111.560 C 1111.615 169.800 1111.660 169.755 1111.660 169.700 V 165.000 C 1111.660 164.900 1111.560 165.000 1111.660 165.000 H 1123.460 C 1123.560 165.000 1123.460 164.900 1123.460 165.000 V 169.700 C 1123.460 169.755 1123.504 169.800 1123.560 169.800 H 1135.560 C 1135.615 169.800 1135.660 169.755 1135.660 169.700 V 164.900 V 156.000 C 1135.660 155.900 1135.560 156.000 1135.660 156.000 H 1140.360 C 1140.415 156.000 1140.460 155.955 1140.460 155.900 V 143.900 C 1140.460 143.845 1140.415 143.800 1140.360 143.800 H 1135.660 C 1135.560 143.800 1135.660 143.900 1135.660 143.800 V 132.000 C 1135.660 131.900 1135.560 132.000 1135.660 132.000 H 1140.360 C 1140.415 132.000 1140.460 131.955 1140.460 131.900 V 119.900 C 1140.460 119.845 1140.415 119.800 1140.360 119.800 H 1135.660 C 1135.560 119.800 1135.660 119.900 1135.660 119.800 V 108.000 C 1135.660 107.900 1135.560 108.000 1135.660 108.000 H 1140.360 C 1140.415 108.000 1140.460 107.955 1140.460 107.900 V 95.900 C 1140.460 95.845 1140.415 95.800 1140.360 95.800 H 1135.660 C 1135.560 95.800 1135.660 95.900 1135.660 95.800 V 84.000 C 1135.660 83.900 1135.560 84.000 1135.660 84.000 H 1140.360 C 1140.415 84.000 1140.460 83.955 1140.460 83.900 V 71.900 C 1140.460 71.845 1140.415 71.800 1140.360 71.800 H 1135.660 C 1135.560 71.800 1135.660 71.900 1135.660 71.800 V 60.000 C 1135.660 59.900 1135.560 60.000 1135.660 60.000 H 1140.360 C 1140.415 60.000 1140.460 59.955 1140.460 59.900 V 47.900 C 1140.460 47.845 1140.415 47.800 1140.360 47.800 H 1135.660 C 1135.560 47.800 1135.660 47.900 1135.660 47.800 V 36.000 C 1135.660 35.900 1135.560 36.000 1135.660 36.000 H 1140.360 C 1140.415 36.000 1140.460 35.955 1140.460 35.900 V 23.900 C 1140.460 23.845 1140.415 23.800 1140.360 23.800 H 1135.660 C 1135.560 23.800 1135.660 23.900 1135.660 23.800 V 14.900 V 10.100 C 1135.660 10.045 1135.615 10.000 1135.560 10.000 H 1123.560 C 1123.504 10.000 1123.460 10.045 1123.460 10.100 V 14.800 C 1123.460 14.900 1123.560 14.800 1123.460 14.800 H 1111.660 C 1111.560 14.800 1111.660 14.900 1111.660 14.800 V 10.100 C 1111.660 10.045 1111.615 10.000 1111.560 10.000 H 1099.560 C 1099.504 10.000 1099.460 10.045 1099.460 10.100 V 14.800 C 1099.460 14.900 1099.560 14.800 1099.460 14.800 H 1087.660 C 1087.560 14.800 1087.660 14.900 1087.660 14.800 V 10.100 C 1087.660 10.045 1087.615 10.000 1087.560 10.000 H 1075.560 C 1075.504 10.000 1075.460 10.045 1075.460 10.100 V 14.800 C 1075.460 14.900 1075.560 14.800 1075.460 14.800 H 1063.660 C 1063.560 14.800 1063.660 14.900 1063.660 14.800 V 10.100 C 1063.660 10.045 1063.615 10.000 1063.560 10.000 H 1051.560 C 1051.504 10.000 1051.460 10.045 1051.460 10.100 V 14.800 C 1051.460 14.900 1051.560 14.800 1051.460 14.800 H 1039.660 C 1039.560 14.800 1039.660 14.900 1039.660 14.800 V 10.100 C 1039.660 10.045 1039.615 10.000 1039.560 10.000 H 1027.560 C 1027.504 10.000 1027.460 10.045 1027.460 10.100 V 14.800 C 1027.460 14.900 1027.560 14.800 1027.460 14.800 H 1015.660 C 1015.560 14.800 1015.660 14.900 1015.660 14.800 V 10.100 C 1015.660 10.045 1015.615 10.000 1015.560 10.000 H 1003.560 C 1003.504 10.000 1003.460 10.045 1003.460 10.100 V 14.800 C 1003.460 14.900 1003.560 14.800 1003.460 14.800 H 991.660 C 991.560 14.800 991.660 14.900 991.660 14.800 V 10.100 C 991.660 10.045 991.615 10.000 991.560 10.000 H 979.560 C 979.504 10.000 979.460 10.045 979.460 10.100 V 14.800 C 979.460 14.900 979.560 14.800 979.460 14.800 H 967.660 C 967.560 14.800 967.660 14.900 967.660 14.800 V 10.100 C 967.660 10.045 967.615 10.000 967.560 10.000 H 955.560 H 956.966 C 956.910 10.000 956.866 10.045 956.866 10.100 V 14.900 V 23.800 C 956.866 23.900 956.966 23.800 956.866 23.800 H 953.571 C 953.516 23.800 953.471 23.845 953.471 23.900 V 35.900 C 953.471 35.955 953.516 36.000 953.571 36.000 H 956.866 C 956.966 36.000 956.866 35.900 956.866 36.000 V 47.800 C 956.866 47.900 956.966 47.800 956.866 47.800 H 953.571 C 953.516 47.800 953.471 47.845 953.471 47.900 V 59.900 C 953.471 59.955 953.516 60.000 953.571 60.000 H 956.866 C 956.966 60.000 956.866 59.900 956.866 60.000 V 71.800 C 956.866 71.900 956.966 71.800 956.866 71.800 H 953.571 C 953.516 71.800 953.471 71.845 953.471 71.900 V 83.900 C 953.471 83.955 953.516 84.000 953.571 84.000 H 956.866 C 956.966 84.000 956.866 83.900 956.866 84.000 V 95.800 C 956.866 95.900 956.966 95.800 956.866 95.800 H 953.571 C 953.516 95.800 953.471 95.845 953.471 95.900 V 107.900 C 953.471 107.955 953.516 108.000 953.571 108.000 H 956.866 C 956.966 108.000 956.866 107.900 956.866 108.000 V 119.800 C 956.866 119.900 956.966 119.800 956.866 119.800 H 953.571 C 953.516 119.800 953.471 119.845 953.471 119.900 V 131.900 C 953.471 131.955 953.516 132.000 953.571 132.000 H 956.866 C 956.966 132.000 956.866 131.900 956.866 132.000 V 143.800 C 956.866 143.900 956.966 143.800 956.866 143.800 H 953.571 C 953.516 143.800 953.471 143.845 953.471 143.900 V 155.900 C 953.471 155.955 953.516 156.000 953.571 156.000 H 956.866 C 956.966 156.000 956.866 155.900 956.866 156.000 V 164.900 V 169.700 C 956.866 169.755 956.910 169.800 956.966 169.800 H 955.560 Z" stroke="rgb(0,0,0)" stroke-width="0.20" />
  <path d="M 1147.548 169.800 H 1155.548 C 1155.603 169.800 1155.648 169.755 1155.648 169.700 V 165.000 C 1155.648 164.900 1155.548 165.000 1155.648 165.000 H 1167.448 C 1167.548 165.000 1167.448 164.900 1167.448 165.000 V 169.700 C 1167.448 169.755 1167.493 169.800 1167.548 169.800 H 1179.548 C 1179.603 169.800 1179.648 169.755 1179.648 169.700 V 165.000 C 1179.648 164.900 1179.548 165.000 1179.648 165.000 H 1191.448 C 1191.548 165.000 1191.448 164.900 1191.448 165.000 V 169.700 C 1191.448 169.755 1191.493 169.800 1191.548 169.800 H 1203.548 C 1203.603 169.800 1203.648 169.755 1203.648 169.700 V 165.000 C 1203.648 164.900 1203.548 165.000 1203.648 165.000 H 1215.448 C 1215.548 165.000 1215.448 164.900 1215.448 165.000 V 169.700 C 1215.448 169.755 1215.493 169.800 1215.548 169.800 H 1227.548 C 1227.603 169.800 1227.648 169.755 1227.648 169.700 V 165.000 C 1227.648 164.900 1227.548 165.000 1227.648 165.000 H 1239.448 C 1239.548 165.000 1239.448 164.900 1239.448 165.000 V 169.700 C 1239.448 169.755 1239.493 169.800 1239.548 169.800 H 1247.548 C 1247.603 169.800 1247.648 169.755 1247.648 169.700 V 164.900 V 156.000 C 1247.648 155.900 1247.548 156.000 1247.648 156.000 H 1252.348 C 1252.403 156.000 1252.448 155.955 1252.448 155.900 V 143.900 C 1252.448 143.845 1252.403 143.800 1252.348 143.800 H 1247.648 C 1247.548 143.800 1247.648 143.900 1247.648 143.800 V 132.000 C 1247.648 131.900 1247.548 132.000 1247.648 132.000 H 1252.348 C 1252.403 132.000 1252.448 131.955 1252.448 131.900 V 119.900 C 1252.448 119.845 1252.403 119.800 1252.348 119.800 H 1247.648 C 1247.548 119.800 1247.648 119.900 1247.648 119.800 V 108.000 C 1247.648 107.900 1247.548 108.000 1247.648 108.000 H 1252.348 C 1252.403 108.000 1252.448 107.955 1252.448 107.900 V 95.900 C 1252.448 95.845 1252.403 95.800 1252.348 95.800 H 1247.648 C 1247.548 95.800 1247.648 95.900 1247.648 95.800 V 84.000 C 1247.648 83.900 1247.548 84.000 1247.648 84.000 H 1252.348 C 1252.403 84.000 1252.448 83.955 1252.448 83.900 V 71.900 C 1252.448 71.845 1252.403 71.800 1252.348 71.800 H 1247.648 C 1247.548 71.800 1247.648 71.900 1247.648 71.800 V 60.000 C 1247.648 59.900 1247.548 60.000 1247.648 60.000 H 1252.348 C 1252.403 60.000 1252.448 59.955 1252.448 59.900 V 47.900 C 1252.448 47.845 1252.403 47.800 1252.348 47.800 H 1247.648 C 1247.548 47.800 1247.648 47.900 1247.648 47.800 V 36.000 C 1247.648 35.900 1247.548 36.000 1247.648 36.000 H 1252.348 C 1252.403 36.000 1252.448 35.955 1252.448 35.900 V 23.900 C 1252.448 23.845 1252.403 23.800 1252.348 23.800 H 1247.648 C 1247.548 23.800 1247.648 23.900 1247.648 23.800 V 14.900 V 10.100 C 1247.648 10.045 1247.603 10.000 1247.548 10.000 H 1239.548 C 1239.493 10.000 1239.448 10.045 1239.448 10.100 V 14.800 C 1239.448 14.900 1239.548 14.800 1239.448 14.800 H 1227.648 C 1227.548 14.800 1227.648 14.900 1227.648 14.800 V 10.100 C 1227.648 10.045 1227.603 10.000 1227.548 10.000 H 1215.548 C 1215.493 10.000 1215.448 10.045 1215.448 10.100 V 14.800 C 1215.448 14.900 1215.548 14.800 1215.448 14.800 H 1203.648 C 1203.548 14.800 1203.648 14.900 1203.648 14.800 V 10.100 C 1203.648 10.045 1203.603 10.000 1203.548 10.000 H 1191.548 C 1191.493 10.000 1191.448 10.045 1191.448 10.100 V 14.800 C 1191.448 14.900 1191.548 14.800 1191.448 14.800 H 1179.648 C 1179.548 14.800 1179.648 14.900 1179.648 14.800 V 10.100 C 1179.648 10.045 1179.603 10.000 1179.548 10.000 H 1167.548 C 1167.493 10.000 1167.448 10.045 1167.448 10.100 V 14.800 C 1167.448 14.900 1167.548 14.800 1167.448 14.800 H 1155.648 C 1155.548 14.800 1155.648 14.900 1155.648 14.800 V 10.100 C 1155.648 10.045 1155.603 10.000 1155.548 10.000 H 1147.548 H 1142.748 C 1142.693 10.000 1142.648 10.045 1142.648 10.100 V 14.900 V 23.900 C 1142.648 23.955 1142.693 24.000 1142.748 24.000 H 1147.448 C 1147.548 24.000 1147.448 23.900 1147.448 24.000 V 35.800 C 1147.448 35.900 1147.548 35.800 1147.448 35.800 H 1142.748 C 1142.693 35.800 1142.648 35.845 1142.648 35.900 V 47.900 C 1142.648 47.955 1142.693 48.000 1142.748 48.000 H 1147.448 C 1147.548 48.000 1147.448 47.900 1147.448 48.000 V 59.800 C 1147.448 59.900 1147.548 59.800 1147.448 59.800 H 1142.748 C 1142.693 59.800 1142.648 59.845 1142.648 59.900 V 71.900 C 1142.648 71.955 1142.693 72.000 1142.748 72.000 H 1147.448 C 1147.548 72.000 1147.448 71.900 1147.448 72.000 V 83.800 C 1147.448 83.900 1147.548 83.800 1147.448 83.800 H 1142.748 C 1142.693 83.800 1142.648 83.845 1142.648 83.900 V 95.900 C 1142.648 95.955 1142.693 96.000 1142.748 96.000 H 1147.448 C 1147.548 96.000 1147.448 95.900 1147.448 96.000 V 107.800 C 1147.448 107.900 1147.548 107.800 1147.448 107.800 H 1142.748 C 1142.693 107.800 1142.648 107.845 1142.648 107.900 V 119.900 C 1142.648 119.955 1142.693 120.000 1142.748 120.000 H 1147.448 C 1147.548 120.000 1147.448 119.900 1147.448 120.000 V 131.800 C 1147.448 131.900 1147.548 131.800 1147.448 131.800 H 1142.748 C 1142.693 131.800 1142.648 131.845 1142.648 131.900 V 143.900 C 1142.648 143.955 1142.693 144.000 1142.748 144.000 H 1147.448 C 1147.548 144.000 1147.448 143.900 1147.448 144.000 V 155.800 C 1147.448 155.900 1147.548 155.800 1147.448 155.800 H 1142.748 C 1142.693 155.800 1142.648 155.845 1142.648 155.900 V 164.900 V 169.700 C 1142.648 169.755 1142.693 169.800 1142.748 169.800 H 1147.548 Z" stroke="rgb(0,0,0)" stroke-width="0.20" />
</g>
</svg>