<?xml version="1.0" encoding="UTF-8" standalone="no"?>
<svg
   height="288.86783mm"
   viewBox="0 0 537.09279 288.86783"
   width="537.09277mm"
   version="1.1"
   id="svg34"
   sodipodi:docname="console_part_1_with_trackball.svg"
   inkscape:version="1.1 (c68e22c387, 2021-05-23)"
   xmlns:inkscape="http://www.inkscape.org/namespaces/inkscape"
   xmlns:sodipodi="http://sodipodi.sourceforge.net/DTD/sodipodi-0.dtd"
   xmlns="http://www.w3.org/2000/svg"
   xmlns:svg="http://www.w3.org/2000/svg"
   xmlns:rdf="http://www.w3.org/1999/02/22-rdf-syntax-ns#"
   xmlns:cc="http://creativecommons.org/ns#"
   xmlns:dc="http://purl.org/dc/elements/1.1/">
  <path
     id="path147"
     style="fill:none;stroke:#ff0000"
     d="m 459.7937,204.28543 a 28.75,28.75 0 0 1 -28.75,28.75 28.75,28.75 0 0 1 -28.75,-28.75 28.75,28.75 0 0 1 28.75,-28.75 28.75,28.75 0 0 1 28.75,28.75 z" />
  <defs
     id="defs38" />
  <sodipodi:namedview
     id="namedview36"
     pagecolor="#ffffff"
     bordercolor="#666666"
     borderopacity="1.0"
     inkscape:pageshadow="2"
     inkscape:pageopacity="0.0"
     inkscape:pagecheckerboard="0"
     inkscape:document-units="mm"
     showgrid="false"
     height="1200mm"
     fit-margin-top="0"
     fit-margin-left="0"
     fit-margin-right="0"
     fit-margin-bottom="0"
     inkscape:zoom="0.23095635"
     inkscape:cx="1101.9398"
     inkscape:cy="487.10503"
     inkscape:window-width="1920"
     inkscape:window-height="1017"
     inkscape:window-x="1929"
     inkscape:window-y="1078"
     inkscape:window-maximized="1"
     inkscape:current-layer="svg34" />
  <!--
Console - Console with slanted panel

Created with Boxes.py (https://festi.info/boxes.py)
Creation date: 2021-07-04 14:18:39
Command line (remove spaces between dashes): boxes Console - -FingerJoint_angle=90.0 - -FingerJoint_style=rectangular - -FingerJoint_surroundingspaces=0.5 - -FingerJoint_edge_width=1.0 - -FingerJoint_finger=2.5 - -FingerJoint_play=0.0 - -FingerJoint_space=2.5 - -FingerJoint_width=1.0 - -Stackable_angle=60 - -Stackable_height=2.0 - -Stackable_holedistance=1.0 - -Stackable_width=4.0 - -x=150 - -y=250 - -h=100 - -outside=0 - -front_height=30 - -angle=45 - -thickness=4.8 - -format=svg - -tabs=0.0 - -debug=0 - -labels=0 - -labels=1 - -reference=100 - -burn=0.1
Url: http://www.festi.info/Console?FingerJoint_angle=90.0&FingerJoint_style=rectangular&FingerJoint_surroundingspaces=0.5&FingerJoint_edge_width=1.0&FingerJoint_finger=2.5&FingerJoint_play=0.0&FingerJoint_space=2.5&FingerJoint_width=1.0&Stackable_angle=60&Stackable_height=2.0&Stackable_holedistance=1.0&Stackable_width=4.0&x=150&y=250&h=100&outside=0&front_height=30&angle=45&thickness=4.8&format=svg&tabs=0.0&debug=0&labels=0&labels=1&reference=100&burn=0.1&render=1
SettingsUrl: http://www.festi.info/Console?FingerJoint_angle=90.0&FingerJoint_style=rectangular&FingerJoint_surroundingspaces=0.5&FingerJoint_edge_width=1.0&FingerJoint_finger=2.5&FingerJoint_play=0.0&FingerJoint_space=2.5&FingerJoint_width=1.0&Stackable_angle=60&Stackable_height=2.0&Stackable_holedistance=1.0&Stackable_width=4.0&x=150&y=250&h=100&outside=0&front_height=30&angle=45&thickness=4.8&format=svg&tabs=0.0&debug=0&labels=0&labels=1&reference=100&burn=0.1
-->
  <title
     id="title2">Console</title>
  <metadata
     id="metadata4">
    <rdf:RDF>
      <cc:Work>
        <dc:title>Console</dc:title>
        <dc:date>2021-07-04 14:18:39</dc:date>
        <dc:source>http://www.festi.info/Console?FingerJoint_angle=90.0&amp;FingerJoint_style=rectangular&amp;FingerJoint_surroundingspaces=0.5&amp;FingerJoint_edge_width=1.0&amp;FingerJoint_finger=2.5&amp;FingerJoint_play=0.0&amp;FingerJoint_space=2.5&amp;FingerJoint_width=1.0&amp;Stackable_angle=60&amp;Stackable_height=2.0&amp;Stackable_holedistance=1.0&amp;Stackable_width=4.0&amp;x=150&amp;y=250&amp;h=100&amp;outside=0&amp;front_height=30&amp;angle=45&amp;thickness=4.8&amp;format=svg&amp;tabs=0.0&amp;debug=0&amp;labels=0&amp;labels=1&amp;reference=100&amp;burn=0.1&amp;render=1</dc:source>
        <dc:description>Console with slanted panel

Created with Boxes.py (https://festi.info/boxes.py)
Command line: boxes Console --FingerJoint_angle=90.0 --FingerJoint_style=rectangular --FingerJoint_surroundingspaces=0.5 --FingerJoint_edge_width=1.0 --FingerJoint_finger=2.5 --FingerJoint_play=0.0 --FingerJoint_space=2.5 --FingerJoint_width=1.0 --Stackable_angle=60 --Stackable_height=2.0 --Stackable_holedistance=1.0 --Stackable_width=4.0 --x=150 --y=250 --h=100 --outside=0 --front_height=30 --angle=45 --thickness=4.8 --format=svg --tabs=0.0 --debug=0 --labels=0 --labels=1 --reference=100 --burn=0.1
Url: http://www.festi.info/Console?FingerJoint_angle=90.0&amp;FingerJoint_style=rectangular&amp;FingerJoint_surroundingspaces=0.5&amp;FingerJoint_edge_width=1.0&amp;FingerJoint_finger=2.5&amp;FingerJoint_play=0.0&amp;FingerJoint_space=2.5&amp;FingerJoint_width=1.0&amp;Stackable_angle=60&amp;Stackable_height=2.0&amp;Stackable_holedistance=1.0&amp;Stackable_width=4.0&amp;x=150&amp;y=250&amp;h=100&amp;outside=0&amp;front_height=30&amp;angle=45&amp;thickness=4.8&amp;format=svg&amp;tabs=0.0&amp;debug=0&amp;labels=0&amp;labels=1&amp;reference=100&amp;burn=0.1&amp;render=1
SettingsUrl: http://www.festi.info/Console?FingerJoint_angle=90.0&amp;FingerJoint_style=rectangular&amp;FingerJoint_surroundingspaces=0.5&amp;FingerJoint_edge_width=1.0&amp;FingerJoint_finger=2.5&amp;FingerJoint_play=0.0&amp;FingerJoint_space=2.5&amp;FingerJoint_width=1.0&amp;Stackable_angle=60&amp;Stackable_height=2.0&amp;Stackable_holedistance=1.0&amp;Stackable_width=4.0&amp;x=150&amp;y=250&amp;h=100&amp;outside=0&amp;front_height=30&amp;angle=45&amp;thickness=4.8&amp;format=svg&amp;tabs=0.0&amp;debug=0&amp;labels=0&amp;labels=1&amp;reference=100&amp;burn=0.1
</dc:description>
      </cc:Work>
    </rdf:RDF>
  </metadata>
  <g
     id="p-1"
     style="fill:none;stroke-linecap:round;stroke-linejoin:round"
     transform="translate(-9.9,-58.6)">
    <g
       transform="translate(139.9,111.7)"
       id="text13"
       style="font-size:4px;text-anchor:middle;fill:#ff0000" />
    <path
       d="m 14.9,163.7 h 10.9 c 0.1,0 0,-0.1 0,0 v 4.7 c 0,0.055 0.045,0.1 0.1,0.1 h 12 c 0.055,0 0.1,-0.045 0.1,-0.1 v -4.7 c 0,-0.1 -0.1,0 0,0 h 11.8 c 0.1,0 0,-0.1 0,0 v 4.7 c 0,0.055 0.045,0.1 0.1,0.1 h 12 c 0.055,0 0.1,-0.045 0.1,-0.1 v -4.7 c 0,-0.1 -0.1,0 0,0 h 11.8 c 0.1,0 0,-0.1 0,0 v 4.7 c 0,0.055 0.045,0.1 0.1,0.1 h 12 c 0.055,0 0.1,-0.045 0.1,-0.1 v -4.7 c 0,-0.1 -0.1,0 0,0 h 11.8 c 0.1,0 0,-0.1 0,0 v 4.7 c 0,0.055 0.045,0.1 0.1,0.1 h 12 c 0.055,0 0.1,-0.045 0.1,-0.1 v -4.7 c 0,-0.1 -0.1,0 0,0 h 11.8 c 0.1,0 0,-0.1 0,0 v 4.7 c 0,0.055 0.045,0.1 0.1,0.1 h 12 c 0.055,0 0.1,-0.045 0.1,-0.1 v -4.7 c 0,-0.1 -0.1,0 0,0 h 11.8 c 0.1,0 0,-0.1 0,0 v 4.7 c 0,0.055 0.045,0.1 0.1,0.1 h 12 c 0.055,0 0.1,-0.045 0.1,-0.1 v -4.7 c 0,-0.1 -0.1,0 0,0 h 11.8 c 0.1,0 0,-0.1 0,0 v 4.7 c 0,0.055 0.045,0.1 0.1,0.1 h 12 c 0.055,0 0.1,-0.045 0.1,-0.1 v -4.7 c 0,-0.1 -0.1,0 0,0 h 11.8 c 0.1,0 0,-0.1 0,0 v 4.7 c 0,0.055 0.045,0.1 0.1,0.1 h 12 c 0.055,0 0.1,-0.045 0.1,-0.1 v -4.7 c 0,-0.1 -0.1,0 0,0 h 11.8 c 0.1,0 0,-0.1 0,0 v 4.7 c 0,0.055 0.045,0.1 0.1,0.1 h 12 c 0.055,0 0.1,-0.045 0.1,-0.1 v -4.7 c 0,-0.1 -0.1,0 0,0 h 11.8 c 0.1,0 0,-0.1 0,0 v 4.7 c 0,0.055 0.045,0.1 0.1,0.1 h 12 c 0.055,0 0.1,-0.045 0.1,-0.1 v -4.7 c 0,-0.1 -0.1,0 0,0 h 10.9 c 0.055,0 0.1,-0.045 0.1,-0.1 v -8.9 c 0,-0.1 -0.1,0 0,0 h 4.7 c 0.055,0 0.1,-0.045 0.1,-0.1 v -12 c 0,-0.055 -0.045,-0.1 -0.1,-0.1 H 265 c -0.1,0 0,0.1 0,0 v -8.9 c 0,-0.027 -0.011,-0.052 -0.029,-0.071 l -5.231,-5.231 c -0.071,-0.07 -0.071,0.071 0,0 l 3.323,-3.323 c 0.039,-0.039 0.039,-0.102 0,-0.141 l -8.485,-8.486 c -0.039,-0.039 -0.102,-0.039 -0.141,0 l -3.324,3.324 c -0.071,0.07 0.071,0.07 0,0 l -8.344,-8.344 c -0.07,-0.071 -0.07,0.071 0,0 l 3.324,-3.323 c 0.039,-0.04 0.039,-0.103 0,-0.142 l -8.486,-8.485 c -0.039,-0.039 -0.102,-0.039 -0.141,0 l -3.323,3.323 c -0.071,0.071 0.07,0.071 0,0 l -8.344,-8.344 c -0.071,-0.07 -0.071,0.071 0,0 l 3.323,-3.323 c 0.039,-0.039 0.039,-0.102 0,-0.141 l -8.485,-8.486 c -0.039,-0.039 -0.102,-0.039 -0.142,0 l -3.323,3.324 c -0.071,0.07 0.071,0.07 0,0 l -8.344,-8.344 c -0.07,-0.071 -0.07,0.071 0,0 l 3.324,-3.324 c 0.039,-0.039 0.039,-0.102 0,-0.141 l -8.486,-8.485 c -0.039,-0.039 -0.102,-0.039 -0.141,0 l -3.323,3.323 c -0.071,0.071 0.07,0.071 0,0 l -5.231,-5.231 C 194.952,63.511 194.927,63.5 194.9,63.5 H 183 c -0.1,0 0,0.1 0,0 v -4.7 c 0,-0.055 -0.045,-0.1 -0.1,-0.1 h -12 c -0.055,0 -0.1,0.045 -0.1,0.1 v 4.7 c 0,0.1 0.1,0 0,0 H 159 c -0.1,0 0,0.1 0,0 v -4.7 c 0,-0.055 -0.045,-0.1 -0.1,-0.1 h -12 c -0.055,0 -0.1,0.045 -0.1,0.1 v 4.7 c 0,0.1 0.1,0 0,0 H 135 c -0.1,0 0,0.1 0,0 v -4.7 c 0,-0.055 -0.045,-0.1 -0.1,-0.1 h -12 c -0.055,0 -0.1,0.045 -0.1,0.1 v 4.7 c 0,0.1 0.1,0 0,0 H 111 c -0.1,0 0,0.1 0,0 v -4.7 c 0,-0.055 -0.045,-0.1 -0.1,-0.1 h -12 c -0.055,0 -0.1,0.045 -0.1,0.1 v 4.7 c 0,0.1 0.1,0 0,0 H 87 c -0.1,0 0,0.1 0,0 v -4.7 c 0,-0.055 -0.045,-0.1 -0.1,-0.1 h -12 c -0.055,0 -0.1,0.045 -0.1,0.1 v 4.7 c 0,0.1 0.1,0 0,0 H 63 c -0.1,0 0,0.1 0,0 v -4.7 c 0,-0.055 -0.045,-0.1 -0.1,-0.1 h -12 c -0.055,0 -0.1,0.045 -0.1,0.1 v 4.7 c 0,0.1 0.1,0 0,0 H 39 c -0.1,0 0,0.1 0,0 v -4.7 c 0,-0.055 -0.045,-0.1 -0.1,-0.1 h -12 c -0.055,0 -0.1,0.045 -0.1,0.1 v 4.7 c 0,0.1 0.1,0 0,0 H 14.9 c -0.055,0 -0.1,0.045 -0.1,0.1 v 7.9 c 0,0.1 0.1,0 0,0 h -4.7 c -0.055,0 -0.1,0.045 -0.1,0.1 v 12 c 0,0.055 0.045,0.1 0.1,0.1 h 4.7 c 0.1,0 0,-0.1 0,0 v 11.8 c 0,0.1 0.1,0 0,0 h -4.7 c -0.055,0 -0.1,0.045 -0.1,0.1 v 12 c 0,0.055 0.045,0.1 0.1,0.1 h 4.7 c 0.1,0 0,-0.1 0,0 v 11.8 c 0,0.1 0.1,0 0,0 h -4.7 c -0.055,0 -0.1,0.045 -0.1,0.1 v 12 c 0,0.055 0.045,0.1 0.1,0.1 h 4.7 c 0.1,0 0,-0.1 0,0 v 11.8 c 0,0.1 0.1,0 0,0 h -4.7 c -0.055,0 -0.1,0.045 -0.1,0.1 v 12 c 0,0.055 0.045,0.1 0.1,0.1 h 4.7 c 0.1,0 0,-0.1 0,0 v 7.9 c 0,0.055 0.045,0.1 0.1,0.1"
       stroke="#000000"
       stroke-width="0.2"
       id="path15" />
  </g>
  <g
     id="p-2"
     style="fill:none;stroke-linecap:round;stroke-linejoin:round"
     transform="translate(4.992787,-58.6)">
    <g
       transform="translate(402.1,111.7)"
       id="text18"
       style="font-size:4px;text-anchor:middle;fill:#ff0000" />
    <path
       d="M 277.1,163.7 H 288 c 0.1,0 0,-0.1 0,0 v 4.7 c 0,0.055 0.045,0.1 0.1,0.1 h 12 c 0.055,0 0.1,-0.045 0.1,-0.1 v -4.7 c 0,-0.1 -0.1,0 0,0 H 312 c 0.1,0 0,-0.1 0,0 v 4.7 c 0,0.055 0.045,0.1 0.1,0.1 h 12 c 0.055,0 0.1,-0.045 0.1,-0.1 v -4.7 c 0,-0.1 -0.1,0 0,0 H 336 c 0.1,0 0,-0.1 0,0 v 4.7 c 0,0.055 0.045,0.1 0.1,0.1 h 12 c 0.055,0 0.1,-0.045 0.1,-0.1 v -4.7 c 0,-0.1 -0.1,0 0,0 H 360 c 0.1,0 0,-0.1 0,0 v 4.7 c 0,0.055 0.045,0.1 0.1,0.1 h 12 c 0.055,0 0.1,-0.045 0.1,-0.1 v -4.7 c 0,-0.1 -0.1,0 0,0 H 384 c 0.1,0 0,-0.1 0,0 v 4.7 c 0,0.055 0.045,0.1 0.1,0.1 h 12 c 0.055,0 0.1,-0.045 0.1,-0.1 v -4.7 c 0,-0.1 -0.1,0 0,0 H 408 c 0.1,0 0,-0.1 0,0 v 4.7 c 0,0.055 0.045,0.1 0.1,0.1 h 12 c 0.055,0 0.1,-0.045 0.1,-0.1 v -4.7 c 0,-0.1 -0.1,0 0,0 H 432 c 0.1,0 0,-0.1 0,0 v 4.7 c 0,0.055 0.045,0.1 0.1,0.1 h 12 c 0.055,0 0.1,-0.045 0.1,-0.1 v -4.7 c 0,-0.1 -0.1,0 0,0 H 456 c 0.1,0 0,-0.1 0,0 v 4.7 c 0,0.055 0.045,0.1 0.1,0.1 h 12 c 0.055,0 0.1,-0.045 0.1,-0.1 v -4.7 c 0,-0.1 -0.1,0 0,0 H 480 c 0.1,0 0,-0.1 0,0 v 4.7 c 0,0.055 0.045,0.1 0.1,0.1 h 12 c 0.055,0 0.1,-0.045 0.1,-0.1 v -4.7 c 0,-0.1 -0.1,0 0,0 H 504 c 0.1,0 0,-0.1 0,0 v 4.7 c 0,0.055 0.045,0.1 0.1,0.1 h 12 c 0.055,0 0.1,-0.045 0.1,-0.1 v -4.7 c 0,-0.1 -0.1,0 0,0 h 10.9 c 0.055,0 0.1,-0.045 0.1,-0.1 v -8.9 c 0,-0.1 -0.1,0 0,0 h 4.7 c 0.055,0 0.1,-0.045 0.1,-0.1 v -12 c 0,-0.055 -0.045,-0.1 -0.1,-0.1 h -4.7 c -0.1,0 0,0.1 0,0 v -8.9 c 0,-0.027 -0.011,-0.052 -0.029,-0.071 l -5.231,-5.231 c -0.071,-0.07 -0.071,0.071 0,0 l 3.323,-3.323 c 0.039,-0.039 0.039,-0.102 0,-0.141 l -8.485,-8.486 c -0.039,-0.039 -0.102,-0.039 -0.141,0 l -3.324,3.324 c -0.071,0.07 0.071,0.07 0,0 l -8.344,-8.344 c -0.07,-0.071 -0.07,0.071 0,0 l 3.324,-3.323 c 0.039,-0.04 0.039,-0.103 0,-0.142 l -8.486,-8.485 c -0.039,-0.039 -0.102,-0.039 -0.141,0 l -3.323,3.323 c -0.071,0.071 0.07,0.071 0,0 l -8.344,-8.344 c -0.071,-0.07 -0.071,0.071 0,0 l 3.323,-3.323 c 0.039,-0.039 0.039,-0.102 0,-0.141 l -8.485,-8.486 c -0.039,-0.039 -0.102,-0.039 -0.142,0 l -3.323,3.324 c -0.071,0.07 0.071,0.07 0,0 l -8.344,-8.344 c -0.07,-0.071 -0.07,0.071 0,0 l 3.324,-3.324 c 0.039,-0.039 0.039,-0.102 0,-0.141 l -8.486,-8.485 c -0.039,-0.039 -0.102,-0.039 -0.141,0 l -3.323,3.323 c -0.071,0.071 0.07,0.071 0,0 l -5.231,-5.231 C 457.152,63.511 457.127,63.5 457.1,63.5 h -11.9 c -0.1,0 0,0.1 0,0 v -4.7 c 0,-0.055 -0.045,-0.1 -0.1,-0.1 h -12 c -0.055,0 -0.1,0.045 -0.1,0.1 v 4.7 c 0,0.1 0.1,0 0,0 h -11.8 c -0.1,0 0,0.1 0,0 v -4.7 c 0,-0.055 -0.045,-0.1 -0.1,-0.1 h -12 c -0.055,0 -0.1,0.045 -0.1,0.1 v 4.7 c 0,0.1 0.1,0 0,0 h -11.8 c -0.1,0 0,0.1 0,0 v -4.7 c 0,-0.055 -0.045,-0.1 -0.1,-0.1 h -12 c -0.055,0 -0.1,0.045 -0.1,0.1 v 4.7 c 0,0.1 0.1,0 0,0 h -11.8 c -0.1,0 0,0.1 0,0 v -4.7 c 0,-0.055 -0.045,-0.1 -0.1,-0.1 h -12 c -0.055,0 -0.1,0.045 -0.1,0.1 v 4.7 c 0,0.1 0.1,0 0,0 h -11.8 c -0.1,0 0,0.1 0,0 v -4.7 c 0,-0.055 -0.045,-0.1 -0.1,-0.1 h -12 c -0.055,0 -0.1,0.045 -0.1,0.1 v 4.7 c 0,0.1 0.1,0 0,0 h -11.8 c -0.1,0 0,0.1 0,0 v -4.7 c 0,-0.055 -0.045,-0.1 -0.1,-0.1 h -12 c -0.055,0 -0.1,0.045 -0.1,0.1 v 4.7 c 0,0.1 0.1,0 0,0 h -11.8 c -0.1,0 0,0.1 0,0 v -4.7 c 0,-0.055 -0.045,-0.1 -0.1,-0.1 h -12 c -0.055,0 -0.1,0.045 -0.1,0.1 v 4.7 c 0,0.1 0.1,0 0,0 h -11.9 c -0.055,0 -0.1,0.045 -0.1,0.1 v 7.9 c 0,0.1 0.1,0 0,0 h -4.7 c -0.055,0 -0.1,0.045 -0.1,0.1 v 12 c 0,0.055 0.045,0.1 0.1,0.1 h 4.7 c 0.1,0 0,-0.1 0,0 v 11.8 c 0,0.1 0.1,0 0,0 h -4.7 c -0.055,0 -0.1,0.045 -0.1,0.1 v 12 c 0,0.055 0.045,0.1 0.1,0.1 h 4.7 c 0.1,0 0,-0.1 0,0 v 11.8 c 0,0.1 0.1,0 0,0 h -4.7 c -0.055,0 -0.1,0.045 -0.1,0.1 v 12 c 0,0.055 0.045,0.1 0.1,0.1 h 4.7 c 0.1,0 0,-0.1 0,0 v 11.8 c 0,0.1 0.1,0 0,0 h -4.7 c -0.055,0 -0.1,0.045 -0.1,0.1 v 12 c 0,0.055 0.045,0.1 0.1,0.1 h 4.7 c 0.1,0 0,-0.1 0,0 v 7.9 c 0,0.055 0.045,0.1 0.1,0.1"
       stroke="#000000"
       stroke-width="0.2"
       id="path20" />
  </g>
  <path
     d="m 9.452516,284.18543 h 11 c 0.055,0 0.1,-0.045 0.1,-0.1 v -4.7 c 0,-0.1 -0.1,0 0,0 h 11.8 c 0.1,0 0,-0.1 0,0 v 4.7 c 0,0.055 0.045,0.1 0.1,0.1 h 12 c 0.055,0 0.1,-0.045 0.1,-0.1 v -4.7 c 0,-0.1 -0.1,0 0,0 h 11.8 c 0.1,0 0,-0.1 0,0 v 4.7 c 0,0.055 0.045,0.1 0.1,0.1 h 12 c 0.055,0 0.1,-0.045 0.1,-0.1 v -4.7 c 0,-0.1 -0.1,0 0,0 h 11.8 c 0.1,0 0,-0.1 0,0 v 4.7 c 0,0.055 0.045,0.1 0.1,0.1 H 92.45252 c 0.055,0 0.1,-0.045 0.1,-0.1 v -4.7 c 0,-0.1 -0.1,0 0,0 h 11.8 c 0.1,0 0,-0.1 0,0 v 4.7 c 0,0.055 0.045,0.1 0.1,0.1 h 12 c 0.055,0 0.1,-0.045 0.1,-0.1 v -4.7 c 0,-0.1 -0.1,0 0,0 h 11.8 c 0.1,0 0,-0.1 0,0 v 4.7 c 0,0.055 0.045,0.1 0.1,0.1 h 12 c 0.055,0 0.1,-0.045 0.1,-0.1 v -4.7 c 0,-0.1 -0.1,0 0,0 h 11.8 c 0.1,0 0,-0.1 0,0 v 4.7 c 0,0.055 0.045,0.1 0.1,0.1 h 12 c 0.055,0 0.1,-0.045 0.1,-0.1 v -4.7 c 0,-0.1 -0.1,0 0,0 h 11.8 c 0.1,0 0,-0.1 0,0 v 4.7 c 0,0.055 0.045,0.1 0.1,0.1 h 12 c 0.055,0 0.1,-0.045 0.1,-0.1 v -4.7 c 0,-0.1 -0.1,0 0,0 h 11.8 c 0.1,0 0,-0.1 0,0 v 4.7 c 0,0.055 0.045,0.1 0.1,0.1 h 12 c 0.055,0 0.1,-0.045 0.1,-0.1 v -4.7 c 0,-0.1 -0.1,0 0,0 h 11.8 c 0.1,0 0,-0.1 0,0 v 4.7 c 0,0.055 0.045,0.1 0.1,0.1 h 12 c 0.055,0 0.1,-0.045 0.1,-0.1 v -4.7 c 0,-0.1 -0.1,0 0,0 h 11.8 c 0.1,0 0,-0.1 0,0 v 4.7 c 0,0.055 0.045,0.1 0.1,0.1 h 11 4.8 c 0.055,0 0.1,-0.045 0.1,-0.1 v -4.8 -9 c 0,-0.055 -0.045,-0.1 -0.1,-0.1 h -4.7 c -0.1,0 0,0.1 0,0 v -11.8 c 0,-0.1 -0.1,0 0,0 h 4.7 c 0.055,0 0.1,-0.045 0.1,-0.1 v -12 c 0,-0.055 -0.045,-0.1 -0.1,-0.1 h -4.7 c -0.1,0 0,0.1 0,0 v -11.8 c 0,-0.1 -0.1,0 0,0 h 4.7 c 0.055,0 0.1,-0.045 0.1,-0.1 v -12 c 0,-0.055 -0.045,-0.1 -0.1,-0.1 h -4.7 c -0.1,0 0,0.1 0,0 v -11.8 c 0,-0.1 -0.1,0 0,0 h 4.7 c 0.055,0 0.1,-0.045 0.1,-0.1 v -12 c 0,-0.055 -0.045,-0.1 -0.1,-0.1 h -4.7 c -0.1,0 0,0.1 0,0 v -11.8 c 0,-0.1 -0.1,0 0,0 h 4.7 c 0.055,0 0.1,-0.045 0.1,-0.1 v -12 c 0,-0.055 -0.045,-0.1 -0.1,-0.1 h -4.7 c -0.1,0 0,0.1 0,0 v -11.8 c 0,-0.1 -0.1,0 0,0 h 4.7 c 0.055,0 0.1,-0.045 0.1,-0.1 v -12 c 0,-0.055 -0.045,-0.1 -0.1,-0.1 h -4.7 c -0.1,0 0,0.1 0,0 v -11.8 c 0,-0.1 -0.1,0 0,0 h 4.7 c 0.055,0 0.1,-0.045 0.1,-0.1 v -9 -4.8 c 0,-0.055 -0.045,-0.1 -0.1,-0.1 h -4.8 -11 c -0.055,0 -0.1,0.045 -0.1,0.1 v 4.7 c 0,0.1 0.1,0 0,0 h -11.8 c -0.1,0 0,0.1 0,0 v -4.7 c 0,-0.055 -0.045,-0.1 -0.1,-0.1 h -12 c -0.055,0 -0.1,0.045 -0.1,0.1 v 4.7 c 0,0.1 0.1,0 0,0 h -11.8 c -0.1,0 0,0.1 0,0 v -4.7 c 0,-0.055 -0.045,-0.1 -0.1,-0.1 h -12 c -0.055,0 -0.1,0.045 -0.1,0.1 v 4.7 c 0,0.1 0.1,0 0,0 h -11.8 c -0.1,0 0,0.1 0,0 v -4.7 c 0,-0.055 -0.045,-0.1 -0.1,-0.1 h -12 c -0.055,0 -0.1,0.045 -0.1,0.1 v 4.7 c 0,0.1 0.1,0 0,0 h -11.8 c -0.1,0 0,0.1 0,0 v -4.7 c 0,-0.055 -0.045,-0.1 -0.1,-0.1 h -12 c -0.055,0 -0.1,0.045 -0.1,0.1 v 4.7 c 0,0.1 0.1,0 0,0 h -11.8 c -0.1,0 0,0.1 0,0 v -4.7 c 0,-0.055 -0.045,-0.1 -0.1,-0.1 h -12 c -0.055,0 -0.1,0.045 -0.1,0.1 v 4.7 c 0,0.1 0.1,0 0,0 h -11.8 c -0.1,0 0,0.1 0,0 v -4.7 c 0,-0.055 -0.045,-0.1 -0.1,-0.1 h -12 c -0.055,0 -0.1,0.045 -0.1,0.1 v 4.7 c 0,0.1 0.1,0 0,0 h -11.8 c -0.1,0 0,0.1 0,0 v -4.7 c 0,-0.055 -0.045,-0.1 -0.1,-0.1 H 80.452516 c -0.055,0 -0.1,0.045 -0.1,0.1 v 4.7 c 0,0.1 0.1,0 0,0 h -11.8 c -0.1,0 0,0.1 0,0 v -4.7 c 0,-0.055 -0.045,-0.1 -0.1,-0.1 h -12 c -0.055,0 -0.1,0.045 -0.1,0.1 v 4.7 c 0,0.1 0.1,0 0,0 h -11.8 c -0.1,0 0,0.1 0,0 v -4.7 c 0,-0.055 -0.045,-0.1 -0.1,-0.1 h -12 c -0.055,0 -0.1,0.045 -0.1,0.1 v 4.7 c 0,0.1 0.1,0 0,0 h -11.8 c -0.1,0 0,0.1 0,0 v -4.7 c 0,-0.055 -0.045,-0.1 -0.1,-0.1 h -11 -4.8 c -0.055,0 -0.1,0.045 -0.1,0.1 v 4.8 9 c 0,0.055 0.045,0.1 0.1,0.1 h 4.7 c 0.1,0 0,-0.1 0,0 v 11.8 c 0,0.1 0.1,0 0,0 h -4.7 c -0.055,0 -0.1,0.045 -0.1,0.1 v 12 c 0,0.055 0.045,0.1 0.1,0.1 h 4.7 c 0.1,0 0,-0.1 0,0 v 11.8 c 0,0.1 0.1,0 0,0 h -4.7 c -0.055,0 -0.1,0.045 -0.1,0.1 v 12 c 0,0.055 0.045,0.1 0.1,0.1 h 4.7 c 0.1,0 0,-0.1 0,0 v 11.8 c 0,0.1 0.1,0 0,0 h -4.7 c -0.055,0 -0.1,0.045 -0.1,0.1 v 12 c 0,0.055 0.045,0.1 0.1,0.1 h 4.7 c 0.1,0 0,-0.1 0,0 v 11.8 c 0,0.1 0.1,0 0,0 h -4.7 c -0.055,0 -0.1,0.045 -0.1,0.1 v 12 c 0,0.055 0.045,0.1 0.1,0.1 h 4.7 c 0.1,0 0,-0.1 0,0 v 11.8 c 0,0.1 0.1,0 0,0 h -4.7 c -0.055,0 -0.1,0.045 -0.1,0.1 v 12 c 0,0.055 0.045,0.1 0.1,0.1 h 4.7 c 0.1,0 0,-0.1 0,0 v 11.8 c 0,0.1 0.1,0 0,0 h -4.7 c -0.055,0 -0.1,0.045 -0.1,0.1 v 9 4.8 c 0,0.055 0.045,0.1 0.1,0.1 z"
     stroke="#000000"
     stroke-width="0.2"
     id="path23"
     style="fill:none;stroke-linecap:round;stroke-linejoin:round" />
  <path
     d="m 285.7085,288.76782 h 9 c 0.055,0 0.1,-0.045 0.1,-0.1 v -4.7 c 0,-0.1 -0.1,0 0,0 h 11.8 c 0.1,0 0,-0.1 0,0 v 4.7 c 0,0.055 0.045,0.1 0.1,0.1 h 9 -1.406 c 0.055,0 0.1,-0.045 0.1,-0.1 v -4.8 -8.9 c 0,-0.1 -0.1,0 0,0 h 3.294 c 0.055,0 0.1,-0.045 0.1,-0.1 v -12 c 0,-0.055 -0.045,-0.1 -0.1,-0.1 h -3.294 c -0.1,0 0,0.1 0,0 v -11.8 c 0,-0.1 -0.1,0 0,0 h 3.294 c 0.055,0 0.1,-0.045 0.1,-0.1 v -12 c 0,-0.055 -0.045,-0.1 -0.1,-0.1 h -3.294 c -0.1,0 0,0.1 0,0 v -11.8 c 0,-0.1 -0.1,0 0,0 h 3.294 c 0.055,0 0.1,-0.045 0.1,-0.1 v -12 c 0,-0.055 -0.045,-0.1 -0.1,-0.1 h -3.294 c -0.1,0 0,0.1 0,0 v -11.8 c 0,-0.1 -0.1,0 0,0 h 3.294 c 0.055,0 0.1,-0.045 0.1,-0.1 v -12 c 0,-0.055 -0.045,-0.1 -0.1,-0.1 h -3.294 c -0.1,0 0,0.1 0,0 v -11.8 c 0,-0.1 -0.1,0 0,0 h 3.294 c 0.055,0 0.1,-0.045 0.1,-0.1 v -12 c 0,-0.055 -0.045,-0.1 -0.1,-0.1 h -3.294 c -0.1,0 0,0.1 0,0 v -11.8 c 0,-0.1 -0.1,0 0,0 h 3.294 c 0.055,0 0.1,-0.045 0.1,-0.1 v -12 c 0,-0.055 -0.045,-0.1 -0.1,-0.1 h -3.294 c -0.1,0 0,0.1 0,0 v -8.9 -4.8 c 0,-0.055 -0.045,-0.1 -0.1,-0.1 h 1.406 -9 c -0.055,0 -0.1,0.045 -0.1,0.1 v 4.7 c 0,0.1 0.1,0 0,0 h -11.8 c -0.1,0 0,0.1 0,0 v -4.7 c 0,-0.055 -0.045,-0.1 -0.1,-0.1 h -9 c -0.055,0 -0.1,0.045 -0.1,0.1 v 4.8 8.9 c 0,0.1 0.1,0 0,0 h -4.7 c -0.055,0 -0.1,0.045 -0.1,0.1 v 12 c 0,0.055 0.045,0.1 0.1,0.1 h 4.7 c 0.1,0 0,-0.1 0,0 v 11.8 c 0,0.1 0.1,0 0,0 h -4.7 c -0.055,0 -0.1,0.045 -0.1,0.1 v 12 c 0,0.055 0.045,0.1 0.1,0.1 h 4.7 c 0.1,0 0,-0.1 0,0 v 11.8 c 0,0.1 0.1,0 0,0 h -4.7 c -0.055,0 -0.1,0.045 -0.1,0.1 v 12 c 0,0.055 0.045,0.1 0.1,0.1 h 4.7 c 0.1,0 0,-0.1 0,0 v 11.8 c 0,0.1 0.1,0 0,0 h -4.7 c -0.055,0 -0.1,0.045 -0.1,0.1 v 12 c 0,0.055 0.045,0.1 0.1,0.1 h 4.7 c 0.1,0 0,-0.1 0,0 v 11.8 c 0,0.1 0.1,0 0,0 h -4.7 c -0.055,0 -0.1,0.045 -0.1,0.1 v 12 c 0,0.055 0.045,0.1 0.1,0.1 h 4.7 c 0.1,0 0,-0.1 0,0 v 11.8 c 0,0.1 0.1,0 0,0 h -4.7 c -0.055,0 -0.1,0.045 -0.1,0.1 v 12 c 0,0.055 0.045,0.1 0.1,0.1 h 4.7 c 0.1,0 0,-0.1 0,0 v 8.9 4.8 c 0,0.055 0.045,0.1 0.1,0.1 z"
     stroke="#000000"
     stroke-width="0.2"
     id="path25"
     style="fill:none;stroke-linecap:round;stroke-linejoin:round" />
  <path
     d="m 339.6382,284.18543 h 12 c 0.055,0 0.1,-0.045 0.1,-0.1 v -4.7 c 0,-0.1 -0.1,0 0,0 h 11.8 c 0.1,0 0,-0.1 0,0 v 4.7 c 0,0.055 0.044,0.1 0.1,0.1 h 12 c 0.055,0 0.1,-0.045 0.1,-0.1 v -4.7 c 0,-0.1 -0.1,0 0,0 h 11.8 c 0.1,0 0,-0.1 0,0 v 4.7 c 0,0.055 0.044,0.1 0.1,0.1 h 12 c 0.055,0 0.1,-0.045 0.1,-0.1 v -4.7 c 0,-0.1 -0.1,0 0,0 h 11.8 c 0.1,0 0,-0.1 0,0 v 4.7 c 0,0.055 0.044,0.1 0.1,0.1 h 12 c 0.055,0 0.1,-0.045 0.1,-0.1 v -4.7 c 0,-0.1 -0.1,0 0,0 h 11.8 c 0.1,0 0,-0.1 0,0 v 4.7 c 0,0.055 0.044,0.1 0.1,0.1 h 12 c 0.055,0 0.1,-0.045 0.1,-0.1 v -4.7 c 0,-0.1 -0.1,0 0,0 h 11.8 c 0.1,0 0,-0.1 0,0 v 4.7 c 0,0.055 0.044,0.1 0.1,0.1 h 12 c 0.055,0 0.1,-0.045 0.1,-0.1 v -4.7 c 0,-0.1 -0.1,0 0,0 h 11.8 c 0.1,0 0,-0.1 0,0 v 4.7 c 0,0.055 0.044,0.1 0.1,0.1 h 12 c 0.055,0 0.1,-0.045 0.1,-0.1 v -4.7 c 0,-0.1 -0.1,0 0,0 h 11.8 c 0.1,0 0,-0.1 0,0 v 4.7 c 0,0.055 0.044,0.1 0.1,0.1 h 12 c 0.055,0 0.1,-0.045 0.1,-0.1 v -4.8 -8.9 c 0,-0.1 -0.1,0 0,0 h 4.7 c 0.055,0 0.1,-0.045 0.1,-0.1 v -12 c 0,-0.055 -0.045,-0.1 -0.1,-0.1 h -4.7 c -0.1,0 0,0.1 0,0 v -11.8 c 0,-0.1 -0.1,0 0,0 h 4.7 c 0.055,0 0.1,-0.045 0.1,-0.1 v -12 c 0,-0.055 -0.045,-0.1 -0.1,-0.1 h -4.7 c -0.1,0 0,0.1 0,0 v -11.8 c 0,-0.1 -0.1,0 0,0 h 4.7 c 0.055,0 0.1,-0.045 0.1,-0.1 v -12 c 0,-0.055 -0.045,-0.1 -0.1,-0.1 h -4.7 c -0.1,0 0,0.1 0,0 v -11.8 c 0,-0.1 -0.1,0 0,0 h 4.7 c 0.055,0 0.1,-0.045 0.1,-0.1 v -12 c 0,-0.055 -0.045,-0.1 -0.1,-0.1 h -4.7 c -0.1,0 0,0.1 0,0 v -11.8 c 0,-0.1 -0.1,0 0,0 h 4.7 c 0.055,0 0.1,-0.045 0.1,-0.1 v -12 c 0,-0.055 -0.045,-0.1 -0.1,-0.1 h -4.7 c -0.1,0 0,0.1 0,0 v -11.8 c 0,-0.1 -0.1,0 0,0 h 4.7 c 0.055,0 0.1,-0.045 0.1,-0.1 v -12 c 0,-0.055 -0.045,-0.1 -0.1,-0.1 h -4.7 c -0.1,0 0,0.1 0,0 v -8.9 -4.8 c 0,-0.055 -0.045,-0.1 -0.1,-0.1 h -12 c -0.056,0 -0.1,0.045 -0.1,0.1 v 4.7 c 0,0.1 0.1,0 0,0 h -11.8 c -0.1,0 0,0.1 0,0 v -4.7 c 0,-0.055 -0.045,-0.1 -0.1,-0.1 h -12 c -0.056,0 -0.1,0.045 -0.1,0.1 v 4.7 c 0,0.1 0.1,0 0,0 h -11.8 c -0.1,0 0,0.1 0,0 v -4.7 c 0,-0.055 -0.045,-0.1 -0.1,-0.1 h -12 c -0.056,0 -0.1,0.045 -0.1,0.1 v 4.7 c 0,0.1 0.1,0 0,0 h -11.8 c -0.1,0 0,0.1 0,0 v -4.7 c 0,-0.055 -0.045,-0.1 -0.1,-0.1 h -12 c -0.056,0 -0.1,0.045 -0.1,0.1 v 4.7 c 0,0.1 0.1,0 0,0 h -11.8 c -0.1,0 0,0.1 0,0 v -4.7 c 0,-0.055 -0.045,-0.1 -0.1,-0.1 h -12 c -0.056,0 -0.1,0.045 -0.1,0.1 v 4.7 c 0,0.1 0.1,0 0,0 h -11.8 c -0.1,0 0,0.1 0,0 v -4.7 c 0,-0.055 -0.045,-0.1 -0.1,-0.1 h -12 c -0.056,0 -0.1,0.045 -0.1,0.1 v 4.7 c 0,0.1 0.1,0 0,0 h -11.8 c -0.1,0 0,0.1 0,0 v -4.7 c 0,-0.055 -0.045,-0.1 -0.1,-0.1 h -12 c -0.056,0 -0.1,0.045 -0.1,0.1 v 4.7 c 0,0.1 0.1,0 0,0 h -11.8 c -0.1,0 0,0.1 0,0 v -4.7 c 0,-0.055 -0.045,-0.1 -0.1,-0.1 h -12 1.406 c -0.056,0 -0.1,0.045 -0.1,0.1 v 4.8 8.9 c 0,0.1 0.1,0 0,0 h -3.295 c -0.055,0 -0.1,0.045 -0.1,0.1 v 12 c 0,0.055 0.045,0.1 0.1,0.1 h 3.295 c 0.1,0 0,-0.1 0,0 v 11.8 c 0,0.1 0.1,0 0,0 h -3.295 c -0.055,0 -0.1,0.045 -0.1,0.1 v 12 c 0,0.055 0.045,0.1 0.1,0.1 h 3.295 c 0.1,0 0,-0.1 0,0 v 11.8 c 0,0.1 0.1,0 0,0 h -3.295 c -0.055,0 -0.1,0.045 -0.1,0.1 v 12 c 0,0.055 0.045,0.1 0.1,0.1 h 3.295 c 0.1,0 0,-0.1 0,0 v 11.8 c 0,0.1 0.1,0 0,0 h -3.295 c -0.055,0 -0.1,0.045 -0.1,0.1 v 12 c 0,0.055 0.045,0.1 0.1,0.1 h 3.295 c 0.1,0 0,-0.1 0,0 v 11.8 c 0,0.1 0.1,0 0,0 h -3.295 c -0.055,0 -0.1,0.045 -0.1,0.1 v 12 c 0,0.055 0.045,0.1 0.1,0.1 h 3.295 c 0.1,0 0,-0.1 0,0 v 11.8 c 0,0.1 0.1,0 0,0 h -3.295 c -0.055,0 -0.1,0.045 -0.1,0.1 v 12 c 0,0.055 0.045,0.1 0.1,0.1 h 3.295 c 0.1,0 0,-0.1 0,0 v 8.9 4.8 c 0,0.055 0.044,0.1 0.1,0.1 z"
     stroke="#000000"
     stroke-width="0.2"
     id="path29"
     style="fill:none;stroke-linecap:round;stroke-linejoin:round" />
</svg>
