<?xml version="1.0" encoding="UTF-8" standalone="no"?>
<!-- Created with Inkscape (http://www.inkscape.org/) -->

<svg
   width="341.5202mm"
   height="110mm"
   viewBox="0 0 341.5202 110"
   version="1.1"
   id="svg1159"
   inkscape:version="1.1 (c68e22c387, 2021-05-23)"
   sodipodi:docname="console_part_2_no_buttons.svg"
   xmlns:inkscape="http://www.inkscape.org/namespaces/inkscape"
   xmlns:sodipodi="http://sodipodi.sourceforge.net/DTD/sodipodi-0.dtd"
   xmlns="http://www.w3.org/2000/svg"
   xmlns:svg="http://www.w3.org/2000/svg">
  <sodipodi:namedview
     id="namedview1161"
     pagecolor="#ffffff"
     bordercolor="#666666"
     borderopacity="1.0"
     inkscape:pageshadow="2"
     inkscape:pageopacity="0.0"
     inkscape:pagecheckerboard="0"
     inkscape:document-units="mm"
     showgrid="false"
     fit-margin-top="0"
     fit-margin-left="0"
     fit-margin-right="0"
     fit-margin-bottom="0"
     inkscape:zoom="0.67081229"
     inkscape:cx="716.29576"
     inkscape:cy="424.11268"
     inkscape:window-width="1920"
     inkscape:window-height="1017"
     inkscape:window-x="-7"
     inkscape:window-y="1072"
     inkscape:window-maximized="1"
     inkscape:current-layer="layer1" />
  <defs
     id="defs1156" />
  <g
     inkscape:label="Layer 1"
     inkscape:groupmode="layer"
     id="layer1"
     transform="translate(84.381623,-36.111552)">
    <path
       d="m -84.281623,40.468462 v 7.498 c 0,0.055 0.045,0.1 0.1,0.1 h 4.7 c 0.1,0 0,-0.1 0,0 v 11.8 c 0,0.1 0.1,0 0,0 h -4.7 c -0.055,0 -0.1,0.044 -0.1,0.1 v 12 c 0,0.055 0.045,0.1 0.1,0.1 h 4.7 c 0.1,0 0,-0.1 0,0 v 11.8 c 0,0.1 0.1,0 0,0 h -4.7 c -0.055,0 -0.1,0.044 -0.1,0.1 v 12 c 0,0.055 0.045,0.1 0.1,0.1 h 4.7 c 0.1,0 0,-0.1 0,0 v 11.799998 c 0,0.1 0.1,0 0,0 h -4.7 c -0.055,0 -0.1,0.044 -0.1,0.1 v 12 c 0,0.055 0.045,0.1 0.1,0.1 h 4.7 c 0.1,0 0,-0.1 0,0 v 11.8 c 0,0.1 0.1,0 0,0 h -4.7 c -0.055,0 -0.1,0.044 -0.1,0.1 v 7.497 1.988 c 0,0.056 0.045,0.1 0.1,0.1 h 4.8 9 c 0.055,0 0.1,-0.044 0.1,-0.1 v -3.294 c 0,-0.1 -0.1,0 0,0 h 11.8 c 0.1,0 0,-0.1 0,0 v 3.294 c 0,0.056 0.045,0.1 0.1,0.1 h 12 c 0.055,0 0.1,-0.044 0.1,-0.1 v -3.294 c 0,-0.1 -0.1,0 0,0 h 11.8 c 0.1,0 0,-0.1 0,0 v 3.294 c 0,0.056 0.045,0.1 0.1,0.1 h 12 c 0.055,0 0.1,-0.044 0.1,-0.1 v -3.294 c 0,-0.1 -0.1,0 0,0 h 11.800002 c 0.1,0 0,-0.1 0,0 v 3.294 c 0,0.056 0.045,0.1 0.1,0.1 H 1.6183761 c 0.055,0 0.1,-0.044 0.1,-0.1 v -3.294 c 0,-0.1 -0.1,0 0,0 H 13.518376 c 0.1,0 0,-0.1 0,0 v 3.294 c 0,0.056 0.045,0.1 0.1,0.1 h 12 c 0.055,0 0.1,-0.044 0.1,-0.1 v -3.294 c 0,-0.1 -0.1,0 0,0 h 11.8 c 0.1,0 0,-0.1 0,0 v 3.294 c 0,0.056 0.045,0.1 0.1,0.1 h 12 c 0.055,0 0.1,-0.044 0.1,-0.1 v -3.294 c 0,-0.1 -0.1,0 0,0 h 11.8 c 0.1,0 0,-0.1 0,0 v 3.294 c 0,0.056 0.045,0.1 0.1,0.1 h 9 4.8 c 0.055,0 0.1,-0.044 0.1,-0.1 v -1.988 -7.497 c 0,-0.056 -0.045,-0.1 -0.1,-0.1 h -4.7 c -0.1,0 0,0.1 0,0 v -11.8 c 0,-0.1 -0.1,0 0,0 h 4.7 c 0.055,0 0.1,-0.045 0.1,-0.1 v -12 c 0,-0.056 -0.045,-0.1 -0.1,-0.1 h -4.7 c -0.1,0 0,0.1 0,0 V 96.066462 c 0,-0.1 -0.1,0 0,0 h 4.7 c 0.055,0 0.1,-0.045 0.1,-0.1 v -12 c 0,-0.056 -0.045,-0.1 -0.1,-0.1 h -4.7 c -0.1,0 0,0.1 0,0 v -11.8 c 0,-0.1 -0.1,0 0,0 h 4.7 c 0.055,0 0.1,-0.045 0.1,-0.1 v -12 c 0,-0.056 -0.045,-0.1 -0.1,-0.1 h -4.7 c -0.1,0 0,0.1 0,0 v -11.8 c 0,-0.1 -0.1,0 0,0 h 4.7 c 0.055,0 0.1,-0.045 0.1,-0.1 v -7.498 -1.988 c 0,-0.055 -0.045,-0.1 -0.1,-0.1 h -4.8 -9 c -0.055,0 -0.1,0.045 -0.1,0.1 v 3.294 c 0,0.1 0.1,0 0,0 h -11.8 c -0.1,0 0,0.1 0,0 v -3.294 c 0,-0.055 -0.045,-0.1 -0.1,-0.1 h -12 c -0.055,0 -0.1,0.045 -0.1,0.1 v 3.294 c 0,0.1 0.1,0 0,0 h -11.8 c -0.1,0 0,0.1 0,0 v -3.294 c 0,-0.055 -0.045,-0.1 -0.1,-0.1 h -12 c -0.055,0 -0.1,0.045 -0.1,0.1 v 3.294 c 0,0.1 0.1,0 0,0 H 1.7183761 c -0.1,0 0,0.1 0,0 v -3.294 c 0,-0.055 -0.045,-0.1 -0.1,-0.1 H -10.381621 c -0.055,0 -0.1,0.045 -0.1,0.1 v 3.294 c 0,0.1 0.1,0 0,0 h -11.800002 c -0.1,0 0,0.1 0,0 v -3.294 c 0,-0.055 -0.045,-0.1 -0.1,-0.1 h -12 c -0.055,0 -0.1,0.045 -0.1,0.1 v 3.294 c 0,0.1 0.1,0 0,0 h -11.8 c -0.1,0 0,0.1 0,0 v -3.294 c 0,-0.055 -0.045,-0.1 -0.1,-0.1 h -12 c -0.055,0 -0.1,0.045 -0.1,0.1 v 3.294 c 0,0.1 0.1,0 0,0 h -11.8 c -0.1,0 0,0.1 0,0 v -3.294 c 0,-0.055 -0.045,-0.1 -0.1,-0.1 h -9 -4.8 c -0.055,0 -0.1,0.045 -0.1,0.1 z"
       stroke="#000000"
       stroke-width="0.2"
       id="path27"
       style="fill:none;stroke-linecap:round;stroke-linejoin:round" />
    <path
       d="m 97.238586,41.111552 v 8 c 0,0.055 0.045,0.1 0.1,0.1 h 4.700004 c 0.1,0 0,-0.1 0,0 v 11.8 c 0,0.1 0.1,0 0,0 h -4.700004 c -0.055,0 -0.1,0.045 -0.1,0.1 v 12 c 0,0.055 0.045,0.1 0.1,0.1 h 4.700004 c 0.1,0 0,-0.1 0,0 v 11.8 c 0,0.1 0.1,0 0,0 h -4.700004 c -0.055,0 -0.1,0.045 -0.1,0.1 v 12 c 0,0.055 0.045,0.1 0.1,0.1 h 4.700004 c 0.1,0 0,-0.1 0,0 v 11.799998 c 0,0.1 0.1,0 0,0 h -4.700004 c -0.055,0 -0.1,0.045 -0.1,0.1 v 12 c 0,0.055 0.045,0.1 0.1,0.1 h 4.700004 c 0.1,0 0,-0.1 0,0 v 11.8 c 0,0.1 0.1,0 0,0 h -4.700004 c -0.055,0 -0.1,0.045 -0.1,0.1 v 8 c 0,0.055 0.045,0.1 0.1,0.1 h 4.800004 8.9 c 0.1,0 0,-0.1 0,0 v 4.7 c 0,0.055 0.045,0.1 0.1,0.1 h 12 c 0.055,0 0.1,-0.045 0.1,-0.1 v -4.7 c 0,-0.1 -0.1,0 0,0 h 11.8 c 0.1,0 0,-0.1 0,0 v 4.7 c 0,0.055 0.045,0.1 0.1,0.1 h 12 c 0.055,0 0.1,-0.045 0.1,-0.1 v -4.7 c 0,-0.1 -0.1,0 0,0 h 11.8 c 0.1,0 0,-0.1 0,0 v 4.7 c 0,0.055 0.045,0.1 0.1,0.1 h 12 c 0.055,0 0.1,-0.045 0.1,-0.1 v -4.7 c 0,-0.1 -0.1,0 0,0 h 11.8 c 0.1,0 0,-0.1 0,0 v 4.7 c 0,0.055 0.045,0.1 0.1,0.1 h 12 c 0.055,0 0.1,-0.045 0.1,-0.1 v -4.7 c 0,-0.1 -0.1,0 0,0 h 11.8 c 0.1,0 0,-0.1 0,0 v 4.7 c 0,0.055 0.045,0.1 0.1,0.1 h 12 c 0.055,0 0.1,-0.045 0.1,-0.1 v -4.7 c 0,-0.1 -0.1,0 0,0 h 11.8 c 0.1,0 0,-0.1 0,0 v 4.7 c 0,0.055 0.045,0.1 0.1,0.1 h 12 c 0.055,0 0.1,-0.045 0.1,-0.1 v -4.7 c 0,-0.1 -0.1,0 0,0 h 8.9 4.8 c 0.055,0 0.1,-0.045 0.1,-0.1 v -8 c 0,-0.055 -0.045,-0.1 -0.1,-0.1 h -4.7 c -0.1,0 0,0.1 0,0 v -11.8 c 0,-0.1 -0.1,0 0,0 h 4.7 c 0.055,0 0.1,-0.045 0.1,-0.1 v -12 c 0,-0.055 -0.045,-0.1 -0.1,-0.1 h -4.7 c -0.1,0 0,0.1 0,0 V 97.211552 c 0,-0.1 -0.1,0 0,0 h 4.7 c 0.055,0 0.1,-0.045 0.1,-0.1 v -12 c 0,-0.055 -0.045,-0.1 -0.1,-0.1 h -4.7 c -0.1,0 0,0.1 0,0 v -11.8 c 0,-0.1 -0.1,0 0,0 h 4.7 c 0.055,0 0.1,-0.045 0.1,-0.1 v -12 c 0,-0.055 -0.045,-0.1 -0.1,-0.1 h -4.7 c -0.1,0 0,0.1 0,0 v -11.8 c 0,-0.1 -0.1,0 0,0 h 4.7 c 0.055,0 0.1,-0.045 0.1,-0.1 v -8 -4.8 c 0,-0.055 -0.045,-0.1 -0.1,-0.1 h -4.8 -9 c -0.055,0 -0.1,0.045 -0.1,0.1 v 4.7 c 0,0.1 0.1,0 0,0 h -11.8 c -0.1,0 0,0.1 0,0 v -4.7 c 0,-0.055 -0.045,-0.1 -0.1,-0.1 h -12 c -0.055,0 -0.1,0.045 -0.1,0.1 v 4.7 c 0,0.1 0.1,0 0,0 h -11.8 c -0.1,0 0,0.1 0,0 v -4.7 c 0,-0.055 -0.045,-0.1 -0.1,-0.1 h -12 c -0.055,0 -0.1,0.045 -0.1,0.1 v 4.7 c 0,0.1 0.1,0 0,0 h -11.8 c -0.1,0 0,0.1 0,0 v -4.7 c 0,-0.055 -0.045,-0.1 -0.1,-0.1 h -12 c -0.055,0 -0.1,0.045 -0.1,0.1 v 4.7 c 0,0.1 0.1,0 0,0 h -11.8 c -0.1,0 0,0.1 0,0 v -4.7 c 0,-0.055 -0.045,-0.1 -0.1,-0.1 h -12 c -0.055,0 -0.1,0.045 -0.1,0.1 v 4.7 c 0,0.1 0.1,0 0,0 h -11.8 c -0.1,0 0,0.1 0,0 v -4.7 c 0,-0.055 -0.045,-0.1 -0.1,-0.1 h -12 c -0.055,0 -0.1,0.045 -0.1,0.1 v 4.7 c 0,0.1 0.1,0 0,0 h -11.8 c -0.1,0 0,0.1 0,0 v -4.7 c 0,-0.055 -0.045,-0.1 -0.1,-0.1 h -9 -4.800004 c -0.055,0 -0.1,0.045 -0.1,0.1 z"
       stroke="#000000"
       stroke-width="0.2"
       id="path31"
       style="fill:none;stroke-linecap:round;stroke-linejoin:round" />
  </g>
</svg>
