%FSLAX42Y42*%
%MOMM*%
G71*
G01*
G75*
%ADD10C,0.20*%
%ADD11R,2.00X2.00*%
%ADD12R,2.00X1.00*%
%ADD13R,1.00X2.00*%
%ADD14R,1.00X2.00*%
%ADD15C,0.41*%
%ADD16C,0.61*%
%ADD17C,0.30*%
%ADD18C,0.25*%
%ADD19C,1.73*%
%ADD20C,2.03*%
%ADD21C,1.90*%
%ADD22R,1.78X1.78*%
%ADD23C,1.78*%
%ADD24O,1.52X2.29*%
%ADD25R,1.52X2.29*%
%ADD26O,2.03X3.81*%
%ADD27C,1.83*%
%ADD28O,2.29X1.52*%
%ADD29O,1.78X1.52*%
%ADD30R,1.78X1.52*%
%ADD31C,5.08*%
%ADD32R,1.57X1.57*%
%ADD33C,1.57*%
%ADD34R,1.40X1.90*%
%ADD35O,1.40X1.90*%
%ADD36O,1.27X2.29*%
%ADD37R,1.27X2.29*%
%ADD38C,1.40*%
%ADD39R,2.29X1.52*%
%ADD40C,1.27*%
D10*
X26504Y18878D02*
Y19336D01*
X26707D01*
X26834Y19209D01*
Y19005D02*
Y19209D01*
X26707Y18878D02*
X26834Y19005D01*
X26504Y18878D02*
X26707D01*
X29518Y20436D02*
X29501Y20453D01*
X29467D01*
X29450Y20436D01*
Y20368D01*
X29467Y20352D01*
X29501D01*
X29518Y20368D01*
Y20402D01*
X29484D01*
X29552Y20352D02*
Y20419D01*
X29603D01*
X29620Y20402D01*
Y20352D01*
X29721Y20453D02*
Y20352D01*
X29671D01*
X29654Y20368D01*
Y20402D01*
X29671Y20419D01*
X29721D01*
X29476Y21114D02*
Y21215D01*
X29527D01*
X29544Y21198D01*
Y21164D01*
X29527Y21147D01*
X29476D01*
X29510D02*
X29544Y21114D01*
X29577Y21215D02*
X29645Y21114D01*
Y21215D02*
X29577Y21114D01*
X29476Y21469D02*
X29544D01*
X29510D01*
Y21368D01*
X29577Y21469D02*
X29645Y21368D01*
Y21469D02*
X29577Y21368D01*
X29450Y20606D02*
Y20707D01*
X29501D01*
X29518Y20690D01*
Y20656D01*
X29501Y20639D01*
X29450D01*
X29484D02*
X29518Y20606D01*
X29552Y20707D02*
X29620D01*
X29586D01*
Y20606D01*
X29721Y20690D02*
X29704Y20707D01*
X29671D01*
X29654Y20690D01*
Y20673D01*
X29671Y20656D01*
X29704D01*
X29721Y20639D01*
Y20622D01*
X29704Y20606D01*
X29671D01*
X29654Y20622D01*
X29518Y20944D02*
X29501Y20961D01*
X29467D01*
X29450Y20944D01*
Y20876D01*
X29467Y20860D01*
X29501D01*
X29518Y20876D01*
X29552Y20961D02*
X29620D01*
X29586D01*
Y20860D01*
X29721Y20944D02*
X29704Y20961D01*
X29671D01*
X29654Y20944D01*
Y20927D01*
X29671Y20910D01*
X29704D01*
X29721Y20893D01*
Y20876D01*
X29704Y20860D01*
X29671D01*
X29654Y20876D01*
D17*
X27139Y19132D02*
Y19742D01*
X27342Y19132D02*
Y19742D01*
X27241Y19031D02*
Y19132D01*
Y19742D02*
Y19844D01*
X27139Y19132D02*
X27342D01*
X27139Y19742D02*
X27342D01*
X20408Y22841D02*
X20611D01*
X20408Y22231D02*
X20611D01*
X20510Y22841D02*
Y22942D01*
Y22130D02*
Y22231D01*
X20611D02*
Y22841D01*
X20408Y22231D02*
Y22841D01*
X24726Y17050D02*
X25336D01*
X24726Y17253D02*
X25336D01*
Y17151D02*
X25437D01*
X24624D02*
X24726D01*
X25336Y17050D02*
Y17253D01*
X24726Y17050D02*
Y17253D01*
X22135Y19717D02*
Y19920D01*
X22745Y19717D02*
Y19920D01*
X22034Y19818D02*
X22135D01*
X22745D02*
X22846D01*
X22135Y19920D02*
X22745D01*
X22135Y19717D02*
X22745D01*
X24726Y19209D02*
X25336D01*
X24726Y19412D02*
X25336D01*
Y19310D02*
X25437D01*
X24624D02*
X24726D01*
X25336Y19209D02*
Y19412D01*
X24726Y19209D02*
Y19412D01*
X28104Y19742D02*
X28307D01*
X28104Y19132D02*
X28307D01*
X28206Y19742D02*
Y19844D01*
Y19031D02*
Y19132D01*
X28307D02*
Y19742D01*
X28104Y19132D02*
Y19742D01*
X27774Y19132D02*
Y19742D01*
X27977Y19132D02*
Y19742D01*
X27876Y19031D02*
Y19132D01*
Y19742D02*
Y19844D01*
X27774Y19132D02*
X27977D01*
X27774Y19742D02*
X27977D01*
X27469D02*
X27672D01*
X27469Y19132D02*
X27672D01*
X27571Y19742D02*
Y19844D01*
Y19031D02*
Y19132D01*
X27672D02*
Y19742D01*
X27469Y19132D02*
Y19742D01*
X24726Y18599D02*
X25336D01*
X24726Y18802D02*
X25336D01*
Y18701D02*
X25437D01*
X24624D02*
X24726D01*
X25336Y18599D02*
Y18802D01*
X24726Y18599D02*
Y18802D01*
Y18294D02*
Y18497D01*
X25336Y18294D02*
Y18497D01*
X24624Y18396D02*
X24726D01*
X25336D02*
X25437D01*
X24726Y18497D02*
X25336D01*
X24726Y18294D02*
X25336D01*
X24726Y17685D02*
X25336D01*
X24726Y17888D02*
X25336D01*
Y17786D02*
X25437D01*
X24624D02*
X24726D01*
X25336Y17685D02*
Y17888D01*
X24726Y17685D02*
Y17888D01*
X25336Y18904D02*
Y19107D01*
X24726Y18904D02*
Y19107D01*
X25336Y19005D02*
X25437D01*
X24624D02*
X24726D01*
Y18904D02*
X25336D01*
X24726Y19107D02*
X25336D01*
X24726Y18193D02*
X25336D01*
X24726Y17989D02*
X25336D01*
X24624Y18091D02*
X24726D01*
X25336D02*
X25437D01*
X24726Y17989D02*
Y18193D01*
X25336Y17989D02*
Y18193D01*
Y17354D02*
Y17558D01*
X24726Y17354D02*
Y17558D01*
X25336Y17456D02*
X25437D01*
X24624D02*
X24726D01*
Y17354D02*
X25336D01*
X24726Y17558D02*
X25336D01*
X20586Y18955D02*
Y19564D01*
X20789Y18955D02*
Y19564D01*
X20687Y18853D02*
Y18955D01*
Y19564D02*
Y19666D01*
X20586Y18955D02*
X20789D01*
X20586Y19564D02*
X20789D01*
X20865D02*
X21068D01*
X20865Y18955D02*
X21068D01*
X20967Y19564D02*
Y19666D01*
Y18853D02*
Y18955D01*
X21068D02*
Y19564D01*
X20865Y18955D02*
Y19564D01*
X26301Y17354D02*
Y17964D01*
X26098Y17354D02*
Y17964D01*
X26199D02*
Y18066D01*
Y17253D02*
Y17354D01*
X26098Y17964D02*
X26301D01*
X26098Y17354D02*
X26301D01*
X25793D02*
X25996D01*
X25793Y17964D02*
X25996D01*
X25894Y17253D02*
Y17354D01*
Y17964D02*
Y18066D01*
X25793Y17354D02*
Y17964D01*
X25996Y17354D02*
Y17964D01*
X27825Y23704D02*
Y24212D01*
X21475Y23704D02*
X27825D01*
X21475D02*
Y24212D01*
X27825D01*
X27571Y23958D02*
Y24212D01*
Y23958D02*
X27825D01*
X24307Y19983D02*
X25196D01*
X24307Y19602D02*
Y19983D01*
Y19602D02*
X25196D01*
Y19983D01*
X29019Y18472D02*
Y18980D01*
X28765D02*
X29019D01*
X28765Y18472D02*
Y18980D01*
Y18472D02*
X29019D01*
D18*
X21094Y20898D02*
X21118Y20902D01*
X21139Y20916D01*
X21153Y20937D01*
X21157Y20961D01*
X21153Y20985D01*
X21139Y21006D01*
X21118Y21020D01*
X21094Y21025D01*
X27241Y20504D02*
X27239Y20529D01*
X27236Y20554D01*
X27229Y20579D01*
X27221Y20603D01*
X27210Y20625D01*
X27197Y20647D01*
X27181Y20667D01*
X27164Y20686D01*
X27145Y20703D01*
X27124Y20717D01*
X27103Y20730D01*
X27079Y20740D01*
X27055Y20748D01*
X27031Y20754D01*
X27006Y20757D01*
X26980Y20758D01*
X26955Y20756D01*
X26930Y20752D01*
X26906Y20745D01*
X26882Y20735D01*
X26860Y20724D01*
X26838Y20710D01*
X26819Y20694D01*
X26800Y20677D01*
X26784Y20657D01*
X26770Y20636D01*
X26758Y20614D01*
X26748Y20591D01*
X26741Y20567D01*
X26735Y20542D01*
X26733Y20517D01*
Y20491D01*
X26735Y20466D01*
X26741Y20441D01*
X26748Y20417D01*
X26758Y20394D01*
X26770Y20372D01*
X26784Y20351D01*
X26800Y20331D01*
X26819Y20314D01*
X26838Y20298D01*
X26860Y20284D01*
X26882Y20272D01*
X26906Y20263D01*
X26930Y20256D01*
X26955Y20252D01*
X26980Y20250D01*
X27006Y20251D01*
X27031Y20254D01*
X27055Y20259D01*
X27079Y20268D01*
X27103Y20278D01*
X27124Y20291D01*
X27145Y20305D01*
X27164Y20322D01*
X27181Y20341D01*
X27197Y20361D01*
X27210Y20382D01*
X27221Y20405D01*
X27229Y20429D01*
X27236Y20454D01*
X27239Y20479D01*
X27241Y20504D01*
X27977D02*
X27976Y20529D01*
X27972Y20554D01*
X27966Y20579D01*
X27957Y20603D01*
X27946Y20625D01*
X27933Y20647D01*
X27918Y20667D01*
X27901Y20686D01*
X27882Y20703D01*
X27861Y20717D01*
X27839Y20730D01*
X27816Y20740D01*
X27792Y20748D01*
X27767Y20754D01*
X27742Y20757D01*
X27717Y20758D01*
X27692Y20756D01*
X27667Y20752D01*
X27642Y20745D01*
X27619Y20735D01*
X27596Y20724D01*
X27575Y20710D01*
X27555Y20694D01*
X27537Y20677D01*
X27521Y20657D01*
X27507Y20636D01*
X27494Y20614D01*
X27485Y20591D01*
X27477Y20567D01*
X27472Y20542D01*
X27470Y20517D01*
Y20491D01*
X27472Y20466D01*
X27477Y20441D01*
X27485Y20417D01*
X27494Y20394D01*
X27507Y20372D01*
X27521Y20351D01*
X27537Y20331D01*
X27555Y20314D01*
X27575Y20298D01*
X27596Y20284D01*
X27619Y20272D01*
X27642Y20263D01*
X27667Y20256D01*
X27692Y20252D01*
X27717Y20250D01*
X27742Y20251D01*
X27767Y20254D01*
X27792Y20259D01*
X27816Y20268D01*
X27839Y20278D01*
X27861Y20291D01*
X27882Y20305D01*
X27901Y20322D01*
X27918Y20341D01*
X27933Y20361D01*
X27946Y20382D01*
X27957Y20405D01*
X27966Y20429D01*
X27972Y20454D01*
X27976Y20479D01*
X27977Y20504D01*
X28714D02*
X28713Y20529D01*
X28709Y20554D01*
X28703Y20579D01*
X28694Y20603D01*
X28683Y20625D01*
X28670Y20647D01*
X28654Y20667D01*
X28637Y20686D01*
X28618Y20703D01*
X28598Y20717D01*
X28576Y20730D01*
X28553Y20740D01*
X28529Y20748D01*
X28504Y20754D01*
X28479Y20757D01*
X28454Y20758D01*
X28428Y20756D01*
X28403Y20752D01*
X28379Y20745D01*
X28355Y20735D01*
X28333Y20724D01*
X28312Y20710D01*
X28292Y20694D01*
X28274Y20677D01*
X28257Y20657D01*
X28243Y20636D01*
X28231Y20614D01*
X28221Y20591D01*
X28214Y20567D01*
X28209Y20542D01*
X28206Y20517D01*
Y20491D01*
X28209Y20466D01*
X28214Y20441D01*
X28221Y20417D01*
X28231Y20394D01*
X28243Y20372D01*
X28257Y20351D01*
X28274Y20331D01*
X28292Y20314D01*
X28312Y20298D01*
X28333Y20284D01*
X28355Y20272D01*
X28379Y20263D01*
X28403Y20256D01*
X28428Y20252D01*
X28454Y20250D01*
X28479Y20251D01*
X28504Y20254D01*
X28529Y20259D01*
X28553Y20268D01*
X28576Y20278D01*
X28598Y20291D01*
X28618Y20305D01*
X28637Y20322D01*
X28654Y20341D01*
X28670Y20361D01*
X28683Y20382D01*
X28694Y20405D01*
X28703Y20429D01*
X28709Y20454D01*
X28713Y20479D01*
X28714Y20504D01*
Y21406D02*
X28690Y21401D01*
X28669Y21387D01*
X28655Y21366D01*
X28650Y21342D01*
X28655Y21318D01*
X28669Y21297D01*
X28690Y21283D01*
X28714Y21279D01*
X26834Y19793D02*
X26833Y19818D01*
X26829Y19843D01*
X26823Y19868D01*
X26814Y19891D01*
X26803Y19914D01*
X26790Y19936D01*
X26775Y19956D01*
X26758Y19975D01*
X26739Y19991D01*
X26718Y20006D01*
X26696Y20019D01*
X26673Y20029D01*
X26649Y20037D01*
X26624Y20043D01*
X26599Y20046D01*
X26574Y20047D01*
X26549Y20045D01*
X26524Y20040D01*
X26499Y20034D01*
X26476Y20024D01*
X26453Y20013D01*
X26432Y19999D01*
X26412Y19983D01*
X26394Y19966D01*
X26378Y19946D01*
X26364Y19925D01*
X26351Y19903D01*
X26342Y19880D01*
X26334Y19855D01*
X26329Y19831D01*
X26327Y19805D01*
Y19780D01*
X26329Y19755D01*
X26334Y19730D01*
X26342Y19706D01*
X26351Y19683D01*
X26364Y19660D01*
X26378Y19639D01*
X26394Y19620D01*
X26412Y19602D01*
X26432Y19587D01*
X26453Y19573D01*
X26476Y19561D01*
X26499Y19552D01*
X26524Y19545D01*
X26549Y19541D01*
X26574Y19539D01*
X26599Y19539D01*
X26624Y19543D01*
X26649Y19548D01*
X26673Y19556D01*
X26696Y19567D01*
X26718Y19579D01*
X26739Y19594D01*
X26758Y19611D01*
X26775Y19629D01*
X26790Y19650D01*
X26803Y19671D01*
X26814Y19694D01*
X26823Y19718D01*
X26829Y19742D01*
X26833Y19767D01*
X26834Y19793D01*
X26127Y16796D02*
X26113Y16817D01*
X26097Y16837D01*
X26079Y16855D01*
X26060Y16872D01*
X26039Y16886D01*
X26016Y16898D01*
X25992Y16908D01*
X25968Y16915D01*
X25943Y16920D01*
X25917Y16922D01*
X25892Y16922D01*
X25866Y16919D01*
X25841Y16914D01*
X25817Y16906D01*
X25794Y16896D01*
X25771Y16883D01*
X25751Y16868D01*
X25731Y16852D01*
X25714Y16833D01*
X25698Y16813D01*
X25685Y16791D01*
X25673Y16768D01*
X25665Y16744D01*
X25658Y16719D01*
X25654Y16694D01*
X25653Y16669D01*
X25654Y16643D01*
X25658Y16618D01*
X25665Y16593D01*
X25673Y16569D01*
X25685Y16546D01*
X25698Y16524D01*
X25714Y16504D01*
X25731Y16485D01*
X25751Y16469D01*
X25771Y16454D01*
X25794Y16441D01*
X25817Y16431D01*
X25841Y16423D01*
X25866Y16418D01*
X25892Y16415D01*
X25917Y16415D01*
X25943Y16417D01*
X25968Y16422D01*
X25992Y16429D01*
X26016Y16439D01*
X26039Y16451D01*
X26060Y16465D01*
X26079Y16482D01*
X26097Y16500D01*
X26113Y16520D01*
X26127Y16542D01*
X25391Y16796D02*
X25377Y16817D01*
X25361Y16837D01*
X25343Y16855D01*
X25323Y16872D01*
X25302Y16886D01*
X25279Y16898D01*
X25256Y16908D01*
X25231Y16915D01*
X25206Y16920D01*
X25181Y16922D01*
X25155Y16922D01*
X25130Y16919D01*
X25105Y16914D01*
X25080Y16906D01*
X25057Y16896D01*
X25035Y16883D01*
X25014Y16868D01*
X24995Y16852D01*
X24977Y16833D01*
X24962Y16813D01*
X24948Y16791D01*
X24937Y16768D01*
X24928Y16744D01*
X24922Y16719D01*
X24918Y16694D01*
X24917Y16669D01*
X24918Y16643D01*
X24922Y16618D01*
X24928Y16593D01*
X24937Y16569D01*
X24948Y16546D01*
X24962Y16524D01*
X24977Y16504D01*
X24995Y16485D01*
X25014Y16469D01*
X25035Y16454D01*
X25057Y16441D01*
X25080Y16431D01*
X25105Y16423D01*
X25130Y16418D01*
X25155Y16415D01*
X25181Y16415D01*
X25206Y16417D01*
X25231Y16422D01*
X25256Y16429D01*
X25279Y16439D01*
X25302Y16451D01*
X25323Y16465D01*
X25343Y16482D01*
X25361Y16500D01*
X25377Y16520D01*
X25391Y16542D01*
X28511Y19501D02*
X28535Y19505D01*
X28556Y19519D01*
X28569Y19540D01*
X28574Y19564D01*
X28569Y19588D01*
X28556Y19609D01*
X28535Y19623D01*
X28511Y19628D01*
X28918Y17659D02*
X28918Y17685D01*
X28917Y17710D01*
X28915Y17735D01*
X28913Y17760D01*
X28910Y17786D01*
X28907Y17811D01*
X28903Y17836D01*
X28898Y17861D01*
X28893Y17886D01*
X28887Y17910D01*
X28880Y17935D01*
X28873Y17959D01*
X28865Y17983D01*
X28857Y18007D01*
X28848Y18031D01*
X28838Y18054D01*
X28828Y18078D01*
X28818Y18101D01*
X28806Y18123D01*
X28794Y18146D01*
X28782Y18168D01*
X28769Y18190D01*
X28756Y18211D01*
X28742Y18232D01*
X28727Y18253D01*
X28712Y18273D01*
X28696Y18293D01*
X28680Y18313D01*
X28664Y18332D01*
X28647Y18351D01*
X28629Y18369D01*
X28611Y18387D01*
X28593Y18405D01*
X28574Y18422D01*
X28555Y18438D01*
X28535Y18454D01*
X28515Y18470D01*
X28495Y18485D01*
X28474Y18500D01*
X28453Y18514D01*
X28431Y18527D01*
X28410Y18540D01*
X28388Y18553D01*
X28365Y18564D01*
X28342Y18576D01*
X28319Y18586D01*
X28296Y18597D01*
X28273Y18606D01*
X28249Y18615D01*
X28225Y18623D01*
X28201Y18631D01*
X28177Y18638D01*
X28152Y18645D01*
X28127Y18651D01*
X28103Y18656D01*
X28078Y18661D01*
X28053Y18665D01*
X28028Y18669D01*
X28002Y18671D01*
X27977Y18674D01*
X27952Y18675D01*
X27926Y18676D01*
X27901Y18676D01*
X27876Y18676D01*
X27850Y18675D01*
X27825Y18674D01*
X27800Y18671D01*
X27775Y18669D01*
X27749Y18665D01*
X27724Y18661D01*
X27699Y18656D01*
X27675Y18651D01*
X27650Y18645D01*
X27626Y18638D01*
X27601Y18631D01*
X27577Y18623D01*
X27553Y18615D01*
X27529Y18606D01*
X27506Y18597D01*
X27483Y18586D01*
X27460Y18576D01*
X27437Y18564D01*
X27415Y18553D01*
X27392Y18540D01*
X27371Y18527D01*
X27349Y18514D01*
X27328Y18500D01*
X27307Y18485D01*
X27287Y18470D01*
X27267Y18454D01*
X27247Y18438D01*
X27228Y18422D01*
X27209Y18405D01*
X27191Y18387D01*
X27173Y18369D01*
X27155Y18351D01*
X27138Y18332D01*
X27122Y18313D01*
X27106Y18293D01*
X27090Y18273D01*
X27075Y18253D01*
X27061Y18232D01*
X27047Y18211D01*
X27033Y18190D01*
X27020Y18168D01*
X27008Y18146D01*
X26996Y18123D01*
X26985Y18101D01*
X26974Y18078D01*
X26964Y18054D01*
X26954Y18031D01*
X26945Y18007D01*
X26937Y17983D01*
X26929Y17959D01*
X26922Y17935D01*
X26915Y17910D01*
X26909Y17886D01*
X26904Y17861D01*
X26899Y17836D01*
X26895Y17811D01*
X26892Y17786D01*
X26889Y17760D01*
X26887Y17735D01*
X26885Y17710D01*
X26884Y17685D01*
X26884Y17659D01*
X26884Y17634D01*
X26885Y17608D01*
X26887Y17583D01*
X26889Y17558D01*
X26892Y17533D01*
X26895Y17508D01*
X26899Y17483D01*
X26904Y17458D01*
X26909Y17433D01*
X26915Y17408D01*
X26922Y17384D01*
X26929Y17359D01*
X26937Y17335D01*
X26945Y17311D01*
X26954Y17287D01*
X26964Y17264D01*
X26974Y17241D01*
X26985Y17218D01*
X26996Y17195D01*
X27008Y17173D01*
X27020Y17151D01*
X27033Y17129D01*
X27047Y17107D01*
X27061Y17086D01*
X27075Y17065D01*
X27090Y17045D01*
X27106Y17025D01*
X27122Y17005D01*
X27138Y16986D01*
X27155Y16967D01*
X27173Y16949D01*
X27191Y16931D01*
X27209Y16913D01*
X27228Y16896D01*
X27247Y16880D01*
X27267Y16864D01*
X27287Y16848D01*
X27307Y16833D01*
X27328Y16819D01*
X27349Y16805D01*
X27371Y16791D01*
X27392Y16778D01*
X27415Y16766D01*
X27437Y16754D01*
X27460Y16743D01*
X27483Y16732D01*
X27506Y16722D01*
X27529Y16712D01*
X27553Y16703D01*
X27577Y16695D01*
X27601Y16687D01*
X27626Y16680D01*
X27650Y16673D01*
X27675Y16667D01*
X27699Y16662D01*
X27724Y16657D01*
X27749Y16653D01*
X27775Y16650D01*
X27800Y16647D01*
X27825Y16645D01*
X27850Y16643D01*
X27876Y16642D01*
X27901Y16642D01*
X27926Y16642D01*
X27952Y16643D01*
X27977Y16645D01*
X28002Y16647D01*
X28028Y16650D01*
X28053Y16653D01*
X28078Y16657D01*
X28103Y16662D01*
X28127Y16667D01*
X28152Y16673D01*
X28177Y16680D01*
X28201Y16687D01*
X28225Y16695D01*
X28249Y16703D01*
X28273Y16712D01*
X28296Y16722D01*
X28319Y16732D01*
X28342Y16743D01*
X28365Y16754D01*
X28388Y16766D01*
X28410Y16778D01*
X28431Y16791D01*
X28453Y16805D01*
X28474Y16819D01*
X28495Y16833D01*
X28515Y16848D01*
X28535Y16864D01*
X28555Y16880D01*
X28574Y16896D01*
X28593Y16913D01*
X28611Y16931D01*
X28629Y16949D01*
X28647Y16967D01*
X28664Y16986D01*
X28680Y17005D01*
X28696Y17025D01*
X28712Y17045D01*
X28727Y17065D01*
X28742Y17086D01*
X28756Y17107D01*
X28769Y17129D01*
X28782Y17151D01*
X28794Y17173D01*
X28806Y17195D01*
X28818Y17218D01*
X28828Y17241D01*
X28838Y17264D01*
X28848Y17287D01*
X28857Y17311D01*
X28865Y17335D01*
X28873Y17359D01*
X28880Y17384D01*
X28887Y17408D01*
X28893Y17433D01*
X28898Y17458D01*
X28903Y17482D01*
X28907Y17508D01*
X28910Y17533D01*
X28913Y17558D01*
X28915Y17583D01*
X28917Y17608D01*
X28918Y17634D01*
X28918Y17659D01*
X26326Y22726D02*
X26302Y22722D01*
X26281Y22708D01*
X26268Y22687D01*
X26263Y22663D01*
X26268Y22639D01*
X26281Y22618D01*
X26302Y22604D01*
X26326Y22599D01*
X29882Y23044D02*
X29881Y23069D01*
X29877Y23094D01*
X29871Y23119D01*
X29862Y23143D01*
X29851Y23165D01*
X29838Y23187D01*
X29823Y23207D01*
X29806Y23226D01*
X29787Y23243D01*
X29766Y23257D01*
X29744Y23270D01*
X29721Y23280D01*
X29697Y23288D01*
X29672Y23294D01*
X29647Y23297D01*
X29622Y23298D01*
X29597Y23296D01*
X29572Y23292D01*
X29547Y23285D01*
X29524Y23275D01*
X29501Y23264D01*
X29480Y23250D01*
X29460Y23234D01*
X29442Y23217D01*
X29426Y23197D01*
X29412Y23176D01*
X29399Y23154D01*
X29390Y23131D01*
X29382Y23107D01*
X29377Y23082D01*
X29375Y23057D01*
Y23031D01*
X29377Y23006D01*
X29382Y22981D01*
X29390Y22957D01*
X29399Y22934D01*
X29412Y22912D01*
X29426Y22891D01*
X29442Y22871D01*
X29460Y22854D01*
X29480Y22838D01*
X29501Y22824D01*
X29524Y22812D01*
X29547Y22803D01*
X29572Y22796D01*
X29597Y22792D01*
X29622Y22790D01*
X29647Y22791D01*
X29672Y22794D01*
X29697Y22799D01*
X29721Y22808D01*
X29744Y22818D01*
X29766Y22831D01*
X29787Y22845D01*
X29806Y22862D01*
X29823Y22881D01*
X29838Y22901D01*
X29851Y22922D01*
X29862Y22945D01*
X29871Y22969D01*
X29877Y22994D01*
X29881Y23019D01*
X29882Y23044D01*
X23634Y22726D02*
X23610Y22722D01*
X23589Y22708D01*
X23575Y22687D01*
X23570Y22663D01*
X23575Y22639D01*
X23589Y22618D01*
X23610Y22604D01*
X23634Y22599D01*
X28536Y22726D02*
X28512Y22722D01*
X28491Y22708D01*
X28477Y22687D01*
X28473Y22663D01*
X28477Y22639D01*
X28491Y22618D01*
X28512Y22604D01*
X28536Y22599D01*
X29933Y22130D02*
X29932Y22155D01*
X29928Y22180D01*
X29922Y22204D01*
X29913Y22228D01*
X29902Y22251D01*
X29889Y22273D01*
X29874Y22293D01*
X29856Y22311D01*
X29837Y22328D01*
X29817Y22343D01*
X29795Y22356D01*
X29772Y22366D01*
X29748Y22374D01*
X29723Y22380D01*
X29698Y22383D01*
X29673Y22383D01*
X29647Y22382D01*
X29623Y22377D01*
X29598Y22370D01*
X29575Y22361D01*
X29552Y22350D01*
X29531Y22336D01*
X29511Y22320D01*
X29493Y22302D01*
X29477Y22283D01*
X29462Y22262D01*
X29450Y22240D01*
X29440Y22216D01*
X29433Y22192D01*
X29428Y22167D01*
X29425Y22142D01*
Y22117D01*
X29428Y22092D01*
X29433Y22067D01*
X29440Y22043D01*
X29450Y22019D01*
X29462Y21997D01*
X29477Y21976D01*
X29493Y21957D01*
X29511Y21939D01*
X29531Y21923D01*
X29552Y21910D01*
X29575Y21898D01*
X29598Y21889D01*
X29623Y21882D01*
X29647Y21878D01*
X29673Y21876D01*
X29698Y21876D01*
X29723Y21879D01*
X29748Y21885D01*
X29772Y21893D01*
X29795Y21904D01*
X29817Y21916D01*
X29837Y21931D01*
X29856Y21948D01*
X29874Y21966D01*
X29889Y21986D01*
X29902Y22008D01*
X29913Y22031D01*
X29922Y22055D01*
X29928Y22079D01*
X29932Y22104D01*
X29933Y22130D01*
X29298D02*
X29297Y22155D01*
X29293Y22180D01*
X29287Y22204D01*
X29278Y22228D01*
X29267Y22251D01*
X29254Y22273D01*
X29239Y22293D01*
X29221Y22311D01*
X29202Y22328D01*
X29182Y22343D01*
X29160Y22356D01*
X29137Y22366D01*
X29113Y22374D01*
X29088Y22380D01*
X29063Y22383D01*
X29038Y22383D01*
X29012Y22382D01*
X28988Y22377D01*
X28963Y22370D01*
X28940Y22361D01*
X28917Y22350D01*
X28896Y22336D01*
X28876Y22320D01*
X28858Y22302D01*
X28842Y22283D01*
X28827Y22262D01*
X28815Y22240D01*
X28805Y22216D01*
X28798Y22192D01*
X28793Y22167D01*
X28790Y22142D01*
Y22117D01*
X28793Y22092D01*
X28798Y22067D01*
X28805Y22043D01*
X28815Y22019D01*
X28827Y21997D01*
X28842Y21976D01*
X28858Y21957D01*
X28876Y21939D01*
X28896Y21923D01*
X28917Y21910D01*
X28940Y21898D01*
X28963Y21889D01*
X28988Y21882D01*
X29012Y21878D01*
X29038Y21876D01*
X29063Y21876D01*
X29088Y21879D01*
X29113Y21885D01*
X29137Y21893D01*
X29160Y21904D01*
X29182Y21916D01*
X29202Y21931D01*
X29221Y21948D01*
X29239Y21966D01*
X29254Y21986D01*
X29267Y22008D01*
X29278Y22031D01*
X29287Y22055D01*
X29293Y22079D01*
X29297Y22104D01*
X29298Y22130D01*
X23824Y19259D02*
Y19437D01*
X24115D01*
X21665Y19183D02*
Y19437D01*
X21475D02*
X21665D01*
X21678Y19183D02*
X23748D01*
X21475Y16383D02*
X24115D01*
Y19437D01*
X21475Y16383D02*
Y19437D01*
X21018Y22511D02*
Y22795D01*
Y22257D02*
Y23069D01*
X20713D02*
X21018D01*
X20713Y22257D02*
Y23069D01*
Y22257D02*
X21018D01*
X28815Y22688D02*
X29120D01*
X28815D02*
Y23501D01*
X29120D01*
Y22688D02*
Y23501D01*
Y22942D02*
Y23227D01*
X23629Y19945D02*
X23913D01*
X23354D02*
X24167D01*
X23354Y19640D02*
Y19945D01*
Y19640D02*
X24167D01*
Y19945D01*
X25310Y19640D02*
Y19945D01*
X26123D01*
Y19640D02*
Y19945D01*
X25310Y19640D02*
X26123D01*
X25564D02*
X25849D01*
X26225Y18472D02*
X26509D01*
X25971D02*
X26783D01*
Y18777D01*
X25971D02*
X26783D01*
X25971Y18472D02*
Y18777D01*
X21094Y20402D02*
Y20898D01*
Y21025D02*
Y21520D01*
X26174D01*
Y20402D02*
Y21520D01*
X21094Y20402D02*
X26174D01*
X26606Y20504D02*
X26707D01*
X26656Y20453D02*
Y20555D01*
X27342Y20504D02*
X27444D01*
X27393Y20453D02*
Y20555D01*
X28739Y20504D02*
X28841D01*
X28790Y20453D02*
Y20555D01*
X28714Y21406D02*
Y21520D01*
Y21164D02*
Y21279D01*
X26682Y21164D02*
X28714D01*
X26682D02*
Y21520D01*
X28714D01*
X26860Y19793D02*
X26961D01*
X26910Y19742D02*
Y19844D01*
X26128Y16542D02*
Y16796D01*
X25392Y16542D02*
Y16796D01*
X28511Y19386D02*
X29527D01*
Y19742D01*
X28511D02*
X29527D01*
X28511Y19628D02*
Y19742D01*
Y19386D02*
Y19501D01*
X28866Y17304D02*
X29577D01*
Y18015D01*
X28866D02*
X29577D01*
X26479Y17304D02*
X26936D01*
X26479D02*
Y18015D01*
X26936D01*
X28561Y17659D02*
X28714D01*
X28511D02*
X28561D01*
X28612Y17558D02*
Y17761D01*
X27088Y17558D02*
Y17761D01*
X20789Y20402D02*
Y21672D01*
X20535D02*
X20789D01*
X20535Y20402D02*
Y21672D01*
Y20402D02*
X20789D01*
X20535Y20656D02*
X20789D01*
X29120Y20529D02*
X29374D01*
X29120Y20275D02*
X29374D01*
X29120D02*
Y21545D01*
X29374D01*
Y20275D02*
Y21545D01*
X23786Y22841D02*
X26326D01*
X23786Y22485D02*
Y22841D01*
Y22485D02*
X26326D01*
Y22599D01*
Y22726D02*
Y22841D01*
X29628Y22663D02*
Y22765D01*
X29577Y22714D02*
X29679D01*
X23634Y22726D02*
Y22841D01*
Y22485D02*
Y22599D01*
X21094Y22485D02*
X23634D01*
X21094D02*
Y22841D01*
X23634D01*
X28536Y22726D02*
Y22841D01*
Y22485D02*
Y22599D01*
X26504Y22485D02*
X28536D01*
X26504D02*
Y22841D01*
X28536D01*
X29679Y21749D02*
Y21850D01*
X29628Y21799D02*
X29730D01*
X29044Y21749D02*
Y21850D01*
X28993Y21799D02*
X29095D01*
X28714Y23831D02*
Y24085D01*
X28460Y23831D02*
Y24085D01*
X28968D01*
Y23831D02*
Y24085D01*
X28460Y23831D02*
X28968D01*
X25945Y19005D02*
X26072Y18878D01*
X26275D01*
X25945Y19209D02*
X26072Y19336D01*
X26275D01*
X25945Y19005D02*
Y19209D01*
X26275Y18878D02*
Y19336D01*
X23532Y21037D02*
Y20910D01*
X23558Y20885D01*
X23608D01*
X23634Y20910D01*
Y21037D01*
X23685Y20885D02*
X23735D01*
X23710D01*
Y21037D01*
X23685Y21012D01*
X27571Y21418D02*
Y21291D01*
X27596Y21266D01*
X27647D01*
X27672Y21291D01*
Y21418D01*
X27825D02*
X27723D01*
Y21342D01*
X27774Y21368D01*
X27799D01*
X27825Y21342D01*
Y21291D01*
X27799Y21266D01*
X27749D01*
X27723Y21291D01*
X29222Y21787D02*
X29171D01*
X29196D01*
Y21660D01*
X29171Y21634D01*
X29146D01*
X29120Y21660D01*
X29374Y21787D02*
X29273D01*
Y21710D01*
X29323Y21736D01*
X29349D01*
X29374Y21710D01*
Y21660D01*
X29349Y21634D01*
X29298D01*
X29273Y21660D01*
X28104Y20809D02*
X28079Y20834D01*
X28028D01*
X28003Y20809D01*
Y20707D01*
X28028Y20682D01*
X28079D01*
X28104Y20707D01*
X28155Y20809D02*
X28180Y20834D01*
X28231D01*
X28257Y20809D01*
Y20783D01*
X28231Y20758D01*
X28257Y20733D01*
Y20707D01*
X28231Y20682D01*
X28180D01*
X28155Y20707D01*
Y20733D01*
X28180Y20758D01*
X28155Y20783D01*
Y20809D01*
X28180Y20758D02*
X28231D01*
X27393Y20783D02*
X27368Y20809D01*
X27317D01*
X27291Y20783D01*
Y20682D01*
X27317Y20656D01*
X27368D01*
X27393Y20682D01*
X27444Y20809D02*
X27545D01*
Y20783D01*
X27444Y20682D01*
Y20656D01*
X26606Y20783D02*
X26580Y20809D01*
X26529D01*
X26504Y20783D01*
Y20682D01*
X26529Y20656D01*
X26580D01*
X26606Y20682D01*
X26758Y20809D02*
X26707Y20783D01*
X26656Y20733D01*
Y20682D01*
X26682Y20656D01*
X26733D01*
X26758Y20682D01*
Y20707D01*
X26733Y20733D01*
X26656D01*
X24650Y19869D02*
Y19844D01*
X24701Y19793D01*
X24751Y19844D01*
Y19869D01*
X24701Y19793D02*
Y19717D01*
X24802D02*
X24853D01*
X24828D01*
Y19869D01*
X24802Y19844D01*
X29110Y18802D02*
Y18777D01*
X29161Y18726D01*
X29212Y18777D01*
Y18802D01*
X29161Y18726D02*
Y18650D01*
X29364D02*
X29262D01*
X29364Y18751D01*
Y18777D01*
X29339Y18802D01*
X29288D01*
X29262Y18777D01*
X25742Y19463D02*
Y19336D01*
X25767Y19310D01*
X25818D01*
X25844Y19336D01*
Y19463D01*
X25971Y19310D02*
Y19463D01*
X25894Y19386D01*
X25996D01*
X28892Y19640D02*
Y19513D01*
X28917Y19488D01*
X28968D01*
X28993Y19513D01*
Y19640D01*
X29044D02*
X29146D01*
Y19615D01*
X29044Y19513D01*
Y19488D01*
X25971Y17469D02*
X25818D01*
Y17545D01*
X25844Y17570D01*
X25894D01*
X25920Y17545D01*
Y17469D01*
Y17519D02*
X25971Y17570D01*
Y17621D02*
Y17672D01*
Y17646D01*
X25818D01*
X25844Y17621D01*
Y17748D02*
X25818Y17773D01*
Y17824D01*
X25844Y17850D01*
X25869D01*
X25894Y17824D01*
Y17799D01*
Y17824D01*
X25920Y17850D01*
X25945D01*
X25971Y17824D01*
Y17773D01*
X25945Y17748D01*
X26275Y17469D02*
X26123D01*
Y17545D01*
X26148Y17570D01*
X26199D01*
X26225Y17545D01*
Y17469D01*
Y17519D02*
X26275Y17570D01*
Y17621D02*
Y17672D01*
Y17646D01*
X26123D01*
X26148Y17621D01*
X26275Y17824D02*
X26123D01*
X26199Y17748D01*
Y17850D01*
X21043Y19132D02*
X20891D01*
Y19209D01*
X20916Y19234D01*
X20967D01*
X20992Y19209D01*
Y19132D01*
Y19183D02*
X21043Y19234D01*
X20916Y19285D02*
X20891Y19310D01*
Y19361D01*
X20916Y19386D01*
X20941D01*
X20967Y19361D01*
Y19335D01*
Y19361D01*
X20992Y19386D01*
X21018D01*
X21043Y19361D01*
Y19310D01*
X21018Y19285D01*
X20764Y19158D02*
X20611D01*
Y19234D01*
X20637Y19259D01*
X20687D01*
X20713Y19234D01*
Y19158D01*
Y19209D02*
X20764Y19259D01*
Y19310D02*
Y19361D01*
Y19335D01*
X20611D01*
X20637Y19310D01*
X24904Y17380D02*
Y17532D01*
X24980D01*
X25005Y17507D01*
Y17456D01*
X24980Y17431D01*
X24904D01*
X24955D02*
X25005Y17380D01*
X25158Y17532D02*
X25107Y17507D01*
X25056Y17456D01*
Y17405D01*
X25082Y17380D01*
X25132D01*
X25158Y17405D01*
Y17431D01*
X25132Y17456D01*
X25056D01*
X24904Y18015D02*
Y18167D01*
X24980D01*
X25005Y18142D01*
Y18091D01*
X24980Y18066D01*
X24904D01*
X24955D02*
X25005Y18015D01*
X25056Y18142D02*
X25082Y18167D01*
X25132D01*
X25158Y18142D01*
Y18116D01*
X25132Y18091D01*
X25158Y18066D01*
Y18040D01*
X25132Y18015D01*
X25082D01*
X25056Y18040D01*
Y18066D01*
X25082Y18091D01*
X25056Y18116D01*
Y18142D01*
X25082Y18091D02*
X25132D01*
X24866Y18929D02*
Y19082D01*
X24942D01*
X24967Y19056D01*
Y19005D01*
X24942Y18980D01*
X24866D01*
X24917D02*
X24967Y18929D01*
X25018D02*
X25069D01*
X25043D01*
Y19082D01*
X25018Y19056D01*
X25145Y18929D02*
X25196D01*
X25170D01*
Y19082D01*
X25145Y19056D01*
X24904Y17710D02*
Y17862D01*
X24980D01*
X25005Y17837D01*
Y17786D01*
X24980Y17761D01*
X24904D01*
X24955D02*
X25005Y17710D01*
X25056Y17862D02*
X25158D01*
Y17837D01*
X25056Y17735D01*
Y17710D01*
X24904Y18320D02*
Y18472D01*
X24980D01*
X25005Y18447D01*
Y18396D01*
X24980Y18370D01*
X24904D01*
X24955D02*
X25005Y18320D01*
X25056Y18345D02*
X25082Y18320D01*
X25132D01*
X25158Y18345D01*
Y18447D01*
X25132Y18472D01*
X25082D01*
X25056Y18447D01*
Y18421D01*
X25082Y18396D01*
X25158D01*
X24840Y18624D02*
Y18777D01*
X24917D01*
X24942Y18751D01*
Y18701D01*
X24917Y18675D01*
X24840D01*
X24891D02*
X24942Y18624D01*
X24993D02*
X25043D01*
X25018D01*
Y18777D01*
X24993Y18751D01*
X25120D02*
X25145Y18777D01*
X25196D01*
X25221Y18751D01*
Y18650D01*
X25196Y18624D01*
X25145D01*
X25120Y18650D01*
Y18751D01*
X27647Y19247D02*
X27495D01*
Y19323D01*
X27520Y19348D01*
X27571D01*
X27596Y19323D01*
Y19247D01*
Y19297D02*
X27647Y19348D01*
Y19399D02*
Y19450D01*
Y19424D01*
X27495D01*
X27520Y19399D01*
X27495Y19628D02*
X27520Y19577D01*
X27571Y19526D01*
X27622D01*
X27647Y19551D01*
Y19602D01*
X27622Y19628D01*
X27596D01*
X27571Y19602D01*
Y19526D01*
X27952Y19247D02*
X27800D01*
Y19323D01*
X27825Y19348D01*
X27876D01*
X27901Y19323D01*
Y19247D01*
Y19297D02*
X27952Y19348D01*
Y19399D02*
Y19450D01*
Y19424D01*
X27800D01*
X27825Y19399D01*
X27800Y19526D02*
Y19628D01*
X27825D01*
X27926Y19526D01*
X27952D01*
X28282Y19247D02*
X28130D01*
Y19323D01*
X28155Y19348D01*
X28206D01*
X28231Y19323D01*
Y19247D01*
Y19297D02*
X28282Y19348D01*
Y19399D02*
Y19450D01*
Y19424D01*
X28130D01*
X28155Y19399D01*
Y19526D02*
X28130Y19551D01*
Y19602D01*
X28155Y19628D01*
X28180D01*
X28206Y19602D01*
X28231Y19628D01*
X28257D01*
X28282Y19602D01*
Y19551D01*
X28257Y19526D01*
X28231D01*
X28206Y19551D01*
X28180Y19526D01*
X28155D01*
X28206Y19551D02*
Y19602D01*
X24840Y19234D02*
Y19386D01*
X24917D01*
X24942Y19361D01*
Y19310D01*
X24917Y19285D01*
X24840D01*
X24891D02*
X24942Y19234D01*
X24993D02*
X25043D01*
X25018D01*
Y19386D01*
X24993Y19361D01*
X25221Y19234D02*
X25120D01*
X25221Y19336D01*
Y19361D01*
X25196Y19386D01*
X25145D01*
X25120Y19361D01*
X22313Y19742D02*
Y19894D01*
X22389D01*
X22415Y19869D01*
Y19818D01*
X22389Y19793D01*
X22313D01*
X22364D02*
X22415Y19742D01*
X22542D02*
Y19894D01*
X22465Y19818D01*
X22567D01*
X24904Y17075D02*
Y17227D01*
X24980D01*
X25005Y17202D01*
Y17151D01*
X24980Y17126D01*
X24904D01*
X24955D02*
X25005Y17075D01*
X25158Y17227D02*
X25056D01*
Y17151D01*
X25107Y17177D01*
X25132D01*
X25158Y17151D01*
Y17100D01*
X25132Y17075D01*
X25082D01*
X25056Y17100D01*
X20586Y22409D02*
X20434D01*
Y22485D01*
X20459Y22511D01*
X20510D01*
X20535Y22485D01*
Y22409D01*
Y22460D02*
X20586Y22511D01*
Y22663D02*
Y22561D01*
X20484Y22663D01*
X20459D01*
X20434Y22637D01*
Y22587D01*
X20459Y22561D01*
X20649Y20313D02*
X20599D01*
X20624D01*
Y20186D01*
X20599Y20161D01*
X20573D01*
X20548Y20186D01*
X20700Y20161D02*
X20751D01*
X20725D01*
Y20313D01*
X20700Y20288D01*
X24675Y16897D02*
Y16745D01*
X24751D01*
X24777Y16770D01*
Y16872D01*
X24751Y16897D01*
X24675D01*
X24828Y16745D02*
X24878D01*
X24853D01*
Y16897D01*
X24828Y16872D01*
X26174Y16897D02*
Y16745D01*
X26250D01*
X26275Y16770D01*
Y16872D01*
X26250Y16897D01*
X26174D01*
X26428Y16745D02*
X26326D01*
X26428Y16846D01*
Y16872D01*
X26402Y16897D01*
X26352D01*
X26326Y16872D01*
X26885Y20072D02*
X26860Y20098D01*
X26809D01*
X26783Y20072D01*
Y19971D01*
X26809Y19945D01*
X26860D01*
X26885Y19971D01*
X27037Y20098D02*
X26936D01*
Y20021D01*
X26987Y20047D01*
X27012D01*
X27037Y20021D01*
Y19971D01*
X27012Y19945D01*
X26961D01*
X26936Y19971D01*
X26352Y18675D02*
X26326Y18701D01*
X26275D01*
X26250Y18675D01*
Y18574D01*
X26275Y18548D01*
X26326D01*
X26352Y18574D01*
X26479Y18548D02*
Y18701D01*
X26402Y18624D01*
X26504D01*
X25691Y19844D02*
X25666Y19869D01*
X25615D01*
X25590Y19844D01*
Y19742D01*
X25615Y19717D01*
X25666D01*
X25691Y19742D01*
X25742Y19844D02*
X25767Y19869D01*
X25818D01*
X25844Y19844D01*
Y19818D01*
X25818Y19793D01*
X25793D01*
X25818D01*
X25844Y19767D01*
Y19742D01*
X25818Y19717D01*
X25767D01*
X25742Y19742D01*
X23735Y19844D02*
X23710Y19869D01*
X23659D01*
X23634Y19844D01*
Y19742D01*
X23659Y19717D01*
X23710D01*
X23735Y19742D01*
X23888Y19717D02*
X23786D01*
X23888Y19818D01*
Y19844D01*
X23862Y19869D01*
X23812D01*
X23786Y19844D01*
X27647Y17761D02*
Y17608D01*
X27723D01*
X27749Y17634D01*
Y17659D01*
X27723Y17685D01*
X27647D01*
X27723D01*
X27749Y17710D01*
Y17735D01*
X27723Y17761D01*
X27647D01*
X27799Y17608D02*
Y17710D01*
X27850Y17761D01*
X27901Y17710D01*
Y17608D01*
Y17685D01*
X27799D01*
X27952Y17761D02*
X28053D01*
X28003D01*
Y17608D01*
X28104D02*
X28155D01*
X28129D01*
Y17761D01*
X28104Y17735D01*
X22717Y18012D02*
X22666D01*
X22691D01*
Y17885D01*
X22666Y17860D01*
X22641D01*
X22615Y17885D01*
X22869Y17860D02*
X22768D01*
X22869Y17961D01*
Y17987D01*
X22844Y18012D01*
X22793D01*
X22768Y17987D01*
X24624Y23613D02*
X24574D01*
X24599D01*
Y23486D01*
X24574Y23461D01*
X24548D01*
X24523Y23486D01*
X24675Y23587D02*
X24701Y23613D01*
X24751D01*
X24777Y23587D01*
Y23562D01*
X24751Y23537D01*
X24726D01*
X24751D01*
X24777Y23511D01*
Y23486D01*
X24751Y23461D01*
X24701D01*
X24675Y23486D01*
X24929Y22739D02*
Y22612D01*
X24955Y22587D01*
X25005D01*
X25031Y22612D01*
Y22739D01*
X25082Y22714D02*
X25107Y22739D01*
X25158D01*
X25183Y22714D01*
Y22688D01*
X25158Y22663D01*
X25132D01*
X25158D01*
X25183Y22638D01*
Y22612D01*
X25158Y22587D01*
X25107D01*
X25082Y22612D01*
X28917Y23006D02*
X28892Y22980D01*
Y22930D01*
X28917Y22904D01*
X29019D01*
X29044Y22930D01*
Y22980D01*
X29019Y23006D01*
Y23057D02*
X29044Y23082D01*
Y23133D01*
X29019Y23158D01*
X28917D01*
X28892Y23133D01*
Y23082D01*
X28917Y23057D01*
X28942D01*
X28968Y23082D01*
Y23158D01*
X29628Y23450D02*
X29603Y23476D01*
X29552D01*
X29527Y23450D01*
Y23349D01*
X29552Y23323D01*
X29603D01*
X29628Y23349D01*
X29679Y23323D02*
X29730D01*
X29704D01*
Y23476D01*
X29679Y23450D01*
X29908Y23323D02*
X29806D01*
X29908Y23425D01*
Y23450D01*
X29882Y23476D01*
X29831D01*
X29806Y23450D01*
X21983Y22739D02*
Y22612D01*
X22008Y22587D01*
X22059D01*
X22084Y22612D01*
Y22739D01*
X22237Y22587D02*
X22135D01*
X22237Y22688D01*
Y22714D01*
X22211Y22739D01*
X22161D01*
X22135Y22714D01*
X27393Y22739D02*
Y22612D01*
X27418Y22587D01*
X27469D01*
X27495Y22612D01*
Y22739D01*
X27647D02*
X27596Y22714D01*
X27545Y22663D01*
Y22612D01*
X27571Y22587D01*
X27622D01*
X27647Y22612D01*
Y22638D01*
X27622Y22663D01*
X27545D01*
X29679Y22561D02*
X29654Y22587D01*
X29603D01*
X29577Y22561D01*
Y22460D01*
X29603Y22434D01*
X29654D01*
X29679Y22460D01*
X29730Y22434D02*
X29781D01*
X29755D01*
Y22587D01*
X29730Y22561D01*
X29857Y22434D02*
X29908D01*
X29882D01*
Y22587D01*
X29857Y22561D01*
X28841D02*
X28815Y22587D01*
X28765D01*
X28739Y22561D01*
Y22460D01*
X28765Y22434D01*
X28815D01*
X28841Y22460D01*
X28892Y22434D02*
X28942D01*
X28917D01*
Y22587D01*
X28892Y22561D01*
X29019D02*
X29044Y22587D01*
X29095D01*
X29120Y22561D01*
Y22460D01*
X29095Y22434D01*
X29044D01*
X29019Y22460D01*
Y22561D01*
X20814Y22663D02*
X20789Y22638D01*
Y22587D01*
X20814Y22561D01*
X20916D01*
X20941Y22587D01*
Y22638D01*
X20916Y22663D01*
X20941Y22714D02*
Y22764D01*
Y22739D01*
X20789D01*
X20814Y22714D01*
X28688Y23742D02*
X28638D01*
X28663D01*
Y23615D01*
X28638Y23590D01*
X28612D01*
X28587Y23615D01*
X28815Y23590D02*
Y23742D01*
X28739Y23666D01*
X28841D01*
X27317Y19247D02*
X27165D01*
Y19323D01*
X27190Y19348D01*
X27241D01*
X27266Y19323D01*
Y19247D01*
Y19297D02*
X27317Y19348D01*
Y19399D02*
Y19450D01*
Y19424D01*
X27165D01*
X27190Y19399D01*
X27165Y19628D02*
Y19526D01*
X27241D01*
X27215Y19577D01*
Y19602D01*
X27241Y19628D01*
X27291D01*
X27317Y19602D01*
Y19551D01*
X27291Y19526D01*
X26910Y19336D02*
Y19437D01*
X26885Y19463D01*
X26834D01*
X26809Y19437D01*
Y19336D01*
X26834Y19310D01*
X26885D01*
X26860Y19361D02*
X26910Y19310D01*
X26885D02*
X26910Y19336D01*
X26961Y19310D02*
X27012D01*
X26987D01*
Y19463D01*
X26961Y19437D01*
X28307Y24212D02*
X28333Y24238D01*
X28384D01*
X28409Y24212D01*
Y24111D01*
X28384Y24085D01*
X28333D01*
X28307Y24111D01*
Y24212D01*
X29019Y24162D02*
X29120D01*
X29069Y24212D02*
Y24111D01*
X29273Y24238D02*
X29171D01*
Y24162D01*
X29222Y24187D01*
X29247D01*
X29273Y24162D01*
Y24111D01*
X29247Y24085D01*
X29196D01*
X29171Y24111D01*
X20484Y21622D02*
X20383D01*
Y21545D01*
X20433Y21571D01*
X20459D01*
X20484Y21545D01*
Y21495D01*
X20459Y21469D01*
X20408D01*
X20383Y21495D01*
X20408Y20453D02*
X20459D01*
X20433D01*
Y20606D01*
X20408Y20580D01*
X27901Y24035D02*
X27952D01*
X27926D01*
Y24187D01*
X27901Y24162D01*
X21246Y23908D02*
X21145D01*
Y23831D01*
X21195Y23857D01*
X21221D01*
X21246Y23831D01*
Y23781D01*
X21221Y23755D01*
X21170D01*
X21145Y23781D01*
X21297Y23882D02*
X21322Y23908D01*
X21373D01*
X21399Y23882D01*
Y23781D01*
X21373Y23755D01*
X21322D01*
X21297Y23781D01*
Y23882D01*
M02*
