M71
M48
T1F00S00C0.56
T2F00S00C0.70
T3F00S00C0.90
T4F00S00C1.00
T5F00S00C1.10
T6F00S00C3.30
T7F00S00C1.30
%
T01
X005715Y002718
X005842Y002591
Y002845
T02
X006274Y002591
Y002845
X006401Y002718
X006375Y003404
X006121
X005715Y00381
X006528Y004115
X006782
X007264
X007518
X008001
X008255
Y004572
X008001
X007747
X007493
X007239
X006985
X006731
X006477
X006096Y004902
X005715Y005334
X006477
X006731
X006985
X007239
X007493
X007747
X008001
X008255
X008712Y005613
X009347
X009068Y003556
X008814
X00856
X008306
Y002794
X00856
X008814
X009068
X00856Y002464
Y00221
X004674Y002159
X004445Y002464
X004674Y003404
X004699Y00381
X004445
X004191
X003937
X003683
X003429
X003175
X002921
X002667
X002413
X002159
X001905
X001651
X002108Y004648
X002159Y005334
X001905
X001651
X002413
X002667
X002921
X003175
X003429
X003683
X003937
X004191
X004445
X004699
X004953
X005207
X005461
X004572Y004902
X003302Y004801
Y005156
X002667Y005664
X002413
X002159
X004166Y003404
X004953Y00381
X005207
X005461
X001397
X001143
X000889
Y005334
X001143
X001397
X000533Y001829
X000889Y005893
X001143
X001397
Y006655
X001143
X000889
X001651
X001905
X002159
X002413
X002667
X002921
X003175
X003581
X003835
X004089
X004343
X004597
X004851
X005105
X005359
X005461Y007239
X005359Y005893
X005105
X004851
X004597
X004343
X004089
X003835
X003581
X003175
X002921
X002667
X002413
X002159
X001905
X001651
X005613
X005867
X006299
X006553
X006807
X007061
X007315
X007569
X007823
X008077
X008712Y005867
X009347
X009296Y006528
Y006782
X008077Y006655
X007823
X007569
X007315
X007061
X006807
X006553
X006299
X005867
X005613
X005715Y007239
X005969
X006223
X006477
X006731
X006985
T03
X004191Y000762
Y001067
Y001397
Y001702
X005207
Y001397
Y001067
Y000762
X005563
X005867
Y001778
X005563
X005791Y002235
X006299
X006909Y00254
X007239
X007544
X007874
Y003556
X007544
X007239
X006909
X005639Y003404
X005131
X005207Y002921
Y002616
Y002311
Y002007
X004191
Y002311
Y002616
Y002921
X003683Y003404
X003175
X002616Y003429
X0016
X000635Y003378
X000356
X00033Y00414
Y004394
Y004648
Y004902
Y005156
X000178Y005639
X000356Y002362
X000635
X000533Y00602
Y006528
X000178Y006655
X008636Y006452
Y00696
T04
X004699Y000279
X004953
X005436
X00569
X006299Y00127
X009093Y001397
Y001143
X008915Y004013
Y004267
Y004521
Y004775
Y005029
T05
X00127Y007442
X001524
Y007696
X00127
X001778
X002032
X002286
X00254
X002794
X003048
X003302
X003556
X00381
X004064
X004318
X004572
X004826
X00508
X005334
Y007442
X00508
X004826
X004572
X004318
X004064
X00381
X003556
X003302
X003048
X002794
X00254
X002286
X002032
X001778
X005588
X005842
X006096
X00635
X006604
X006858
X007112
X007366
Y007696
X007112
X006858
X006604
X00635
X006096
X005842
X005588
X008255Y007569
X008509
T06
X000381Y000432
X009195
X000381Y007417
X009195
T07
X00348Y002794
X00127
M30
