%FSLAX42Y42*%
%MOMM*%
G71*
G01*
G75*
%ADD10C,0.20*%
%ADD11R,2.00X2.00*%
%ADD12R,2.00X1.00*%
%ADD13R,1.00X2.00*%
%ADD14R,1.00X2.00*%
%ADD15C,0.41*%
%ADD16C,0.61*%
%ADD17C,0.30*%
%ADD18C,0.25*%
%ADD19C,1.73*%
%ADD20C,2.03*%
%ADD21C,1.90*%
%ADD22R,1.78X1.78*%
%ADD23C,1.78*%
%ADD24O,1.52X2.29*%
%ADD25R,1.52X2.29*%
%ADD26O,2.03X3.81*%
%ADD27C,1.83*%
%ADD28O,2.29X1.52*%
%ADD29O,1.78X1.52*%
%ADD30R,1.78X1.52*%
%ADD31C,5.08*%
%ADD32R,1.57X1.57*%
%ADD33C,1.57*%
%ADD34R,1.40X1.90*%
%ADD35O,1.40X1.90*%
%ADD36O,1.27X2.29*%
%ADD37R,1.27X2.29*%
%ADD38C,1.40*%
%ADD39R,2.29X1.52*%
%ADD40C,1.27*%
D15*
X26707Y20250D02*
X28257D01*
X26860D02*
Y20504D01*
X26453Y19996D02*
X26707Y20250D01*
X26453Y19793D02*
Y19996D01*
X25971Y19793D02*
X26453D01*
X28333Y20326D02*
Y20504D01*
X27850Y20682D02*
X27901Y20733D01*
X27850Y20504D02*
Y20682D01*
X23558Y22460D02*
X26860D01*
X23507Y22130D02*
Y22409D01*
X23253Y21876D02*
X23507Y22130D01*
X23253Y20885D02*
Y21876D01*
X26199Y22282D02*
Y22460D01*
X22440Y21037D02*
X23253D01*
Y20885D02*
X23761Y20377D01*
Y20199D02*
Y20377D01*
X28257Y20250D02*
X28333Y20326D01*
X26885Y22282D02*
Y22434D01*
X26860Y22460D02*
X26885Y22434D01*
X23507Y22409D02*
X23558Y22460D01*
X21297Y23831D02*
X23380D01*
X21221Y23755D02*
X21297Y23831D01*
X21221Y23044D02*
Y23755D01*
X21094Y22917D02*
X21221Y23044D01*
X20865Y22917D02*
X21094D01*
X24015Y20199D02*
Y20504D01*
X23507Y21012D02*
Y21723D01*
Y21012D02*
X24015Y20504D01*
X27901Y20733D02*
X28587D01*
X29628Y22511D02*
X29654Y22485D01*
X25539Y19005D02*
X25691D01*
X25793Y19107D01*
X26047D01*
X20814Y21037D02*
X20840Y21012D01*
X20687Y19767D02*
X20967D01*
X20662Y21037D02*
X20814D01*
X20840Y19767D02*
Y21012D01*
D16*
X29628Y22511D02*
Y22917D01*
X28739Y23069D02*
X28968Y22841D01*
X28739Y23069D02*
Y23552D01*
X28841Y23654D01*
Y23958D01*
X28587Y22282D02*
X28790Y22485D01*
X29857Y20326D02*
Y22384D01*
X29755Y22485D02*
X29857Y22384D01*
X28409Y22282D02*
X28587D01*
X29730Y20199D02*
X29857Y20326D01*
X28587Y20250D02*
Y20504D01*
Y20961D01*
X28638Y20199D02*
X29730D01*
X28587Y20250D02*
X28638Y20199D01*
Y19945D02*
Y20199D01*
X28968Y22485D02*
Y22841D01*
X28790Y22485D02*
X29755D01*
X26174Y18853D02*
Y18980D01*
X26123Y18802D02*
X26174Y18853D01*
X26123Y18624D02*
Y18802D01*
D17*
X20865Y18218D02*
X22084D01*
X21551Y16973D02*
X24675D01*
X21500Y16872D02*
X24726D01*
X22415Y20453D02*
X23456D01*
X22084Y18218D02*
X22364Y18497D01*
Y20402D01*
X22415Y20453D01*
X23456D02*
X23507Y20402D01*
Y20199D02*
Y20402D01*
X26656Y20352D02*
Y21876D01*
X26275Y19971D02*
X26656Y20352D01*
X28257Y19691D02*
X28815D01*
X27926Y19590D02*
X29069D01*
X27622Y19488D02*
X29298D01*
X23634Y21190D02*
Y21545D01*
X28333Y21495D02*
Y21723D01*
X28282Y21444D02*
X28333Y21495D01*
X28130Y21444D02*
X28282D01*
X28587Y21723D02*
X29400D01*
X29679Y22003D01*
X22745Y21926D02*
Y22282D01*
X22999Y21723D02*
Y21876D01*
X22973Y21901D02*
X22999Y21876D01*
X22770Y21901D02*
X22973D01*
X22745Y21926D02*
X22770Y21901D01*
X25336Y18396D02*
X25539D01*
X25285Y18447D02*
X25336Y18396D01*
X25539Y19996D02*
Y20225D01*
Y19996D02*
X25564Y19971D01*
X24980Y21926D02*
X25742D01*
X24929Y21977D02*
Y22282D01*
Y21977D02*
X24980Y21926D01*
X27622Y22104D02*
X28765D01*
X28917Y22257D01*
X29044D01*
X28130Y21926D02*
X28765D01*
X28079Y21723D02*
Y21876D01*
X28130Y21926D01*
X29247Y21825D02*
X29679Y22257D01*
X28866Y21825D02*
X29247D01*
X28765Y21926D02*
X28866Y21825D01*
X27825Y21723D02*
Y21952D01*
X27876Y22003D02*
X29044D01*
X27825Y21952D02*
X27876Y22003D01*
X27571Y22053D02*
X27622Y22104D01*
X27571Y21723D02*
Y22053D01*
X27825Y20961D02*
Y21215D01*
X27876Y21266D01*
X28765D01*
X28841Y21190D01*
Y20961D02*
Y21190D01*
Y20961D02*
X28892Y20910D01*
X29247D01*
X28079Y21114D02*
X28130Y21164D01*
X28815Y20656D02*
X29247D01*
X28765Y20707D02*
X28815Y20656D01*
X28765Y20707D02*
Y21114D01*
X28714Y21164D02*
X28765Y21114D01*
X28130Y21164D02*
X28714D01*
X28079Y20961D02*
Y21114D01*
X26428Y21291D02*
Y21977D01*
X26479Y22028D01*
X26961D01*
X27012Y22079D01*
Y22434D01*
X27037Y22460D01*
X27368D01*
X27393Y22434D01*
Y22282D02*
Y22434D01*
X27139Y22003D02*
Y22282D01*
X26656Y21876D02*
X26707Y21926D01*
X27063D01*
X27139Y22003D01*
X27647Y22282D02*
Y22485D01*
X27571Y22561D02*
X27647Y22485D01*
X23329Y22561D02*
X27571D01*
X23253Y22485D02*
X23329Y22561D01*
X23253Y22282D02*
Y22485D01*
X22364Y21545D02*
Y22638D01*
X23426Y22683D02*
X23507Y22765D01*
X22410Y22683D02*
X23426D01*
X22364Y22638D02*
X22410Y22683D01*
X23253Y22815D02*
Y23222D01*
X22110Y21545D02*
Y22663D01*
X23177Y22739D02*
X23253Y22815D01*
X22186Y22739D02*
X23177D01*
X22110Y22663D02*
X22186Y22739D01*
X22999Y22866D02*
Y23273D01*
X21856Y21545D02*
Y22739D01*
X22943Y22810D02*
X22999Y22866D01*
X21927Y22810D02*
X22943D01*
X21856Y22739D02*
X21927Y22810D01*
X22745Y22917D02*
Y23323D01*
X21602Y21545D02*
Y22815D01*
X22694Y22866D02*
X22745Y22917D01*
X21653Y22866D02*
X22694D01*
X21602Y22815D02*
X21653Y22866D01*
X26275Y20123D02*
Y21977D01*
X25691Y22130D02*
Y22282D01*
X26159Y22094D02*
X26275Y21977D01*
X25727Y22094D02*
X26159D01*
X25691Y22130D02*
X25727Y22094D01*
X26199Y20352D02*
Y21952D01*
X26113Y22038D02*
X26199Y21952D01*
X25478Y22038D02*
X26113D01*
X25437Y22079D02*
X25478Y22038D01*
X25437Y22079D02*
Y22282D01*
X26047Y21723D02*
Y21901D01*
X25966Y21982D02*
X26047Y21901D01*
X25229Y21982D02*
X25966D01*
X25183Y22028D02*
X25229Y21982D01*
X25183Y22028D02*
Y22282D01*
X25793Y21723D02*
Y21876D01*
X25742Y21926D02*
X25793Y21876D01*
X26199Y20047D02*
X26275Y20123D01*
X26047Y20199D02*
X26199Y20352D01*
X25818Y20047D02*
X26199D01*
X25793Y20072D02*
X25818Y20047D01*
X25793Y20072D02*
Y20199D01*
X24523Y22130D02*
X24675Y22282D01*
X24523Y21723D02*
Y22130D01*
X24269D02*
X24421Y22282D01*
X24269Y21723D02*
Y22130D01*
X24015D02*
X24167Y22282D01*
X24015Y21723D02*
Y22130D01*
X23761D02*
X23913Y22282D01*
X23761Y21723D02*
Y22130D01*
X27850Y24085D02*
X28587Y23349D01*
X27698Y24085D02*
X27850D01*
X28409Y23044D02*
Y23374D01*
X28155Y23628D02*
X28409Y23374D01*
X27317Y23628D02*
X28155D01*
X27317Y23958D02*
X27444Y24085D01*
X27317Y23628D02*
Y23958D01*
X27063Y23527D02*
Y23958D01*
X28155Y23044D02*
Y23425D01*
X28079Y23501D02*
X28155Y23425D01*
X27088Y23501D02*
X28079D01*
X27063Y23527D02*
X27088Y23501D01*
X27063Y23958D02*
X27190Y24085D01*
X26809Y23476D02*
Y23958D01*
X27901Y23044D02*
Y23349D01*
X27820Y23430D02*
X27901Y23349D01*
X26855Y23430D02*
X27820D01*
X26809Y23476D02*
X26855Y23430D01*
X26555Y23400D02*
Y23958D01*
X27647Y23044D02*
Y23323D01*
X27596Y23374D02*
X27647Y23323D01*
X26580Y23374D02*
X27596D01*
X26555Y23400D02*
X26580Y23374D01*
X26301Y23349D02*
Y23958D01*
X27393Y23044D02*
Y23273D01*
X27357Y23308D02*
X27393Y23273D01*
X26341Y23308D02*
X27357D01*
X26301Y23349D02*
X26341Y23308D01*
X26047Y23273D02*
Y23958D01*
X27139Y23044D02*
Y23222D01*
X27109Y23252D02*
X27139Y23222D01*
X26067Y23252D02*
X27109D01*
X26047Y23273D02*
X26067Y23252D01*
X25844Y23196D02*
X26860D01*
X26885Y23044D02*
Y23171D01*
X25793Y23247D02*
Y23958D01*
X26860Y23196D02*
X26885Y23171D01*
X25793Y23247D02*
X25844Y23196D01*
X26809Y23958D02*
X26936Y24085D01*
X26555Y23958D02*
X26682Y24085D01*
X26301Y23958D02*
X26428Y24085D01*
X26047Y23958D02*
X26174Y24085D01*
X25793Y23958D02*
X25920Y24085D01*
X25539Y23958D02*
X25666Y24085D01*
X25539Y23273D02*
Y23958D01*
X25458Y23191D02*
X25539Y23273D01*
X25285Y23958D02*
X25412Y24085D01*
X25285Y23323D02*
Y23958D01*
X25209Y23247D02*
X25285Y23323D01*
X23278Y23247D02*
X25209D01*
X23253Y23222D02*
X23278Y23247D01*
X25031Y23958D02*
X25158Y24085D01*
X25031Y23374D02*
Y23958D01*
X24970Y23313D02*
X25031Y23374D01*
X23039Y23313D02*
X24970D01*
X22999Y23273D02*
X23039Y23313D01*
X24777Y23958D02*
X24904Y24085D01*
X24777Y23450D02*
Y23958D01*
X24696Y23369D02*
X24777Y23450D01*
X22791Y23369D02*
X24696D01*
X22745Y23323D02*
X22791Y23369D01*
X24523Y23958D02*
X24650Y24085D01*
X24523Y23501D02*
Y23958D01*
X24447Y23425D02*
X24523Y23501D01*
X22516Y23425D02*
X24447D01*
X22491Y23400D02*
X22516Y23425D01*
X22491Y23044D02*
Y23400D01*
X24269Y23958D02*
X24396Y24085D01*
X24269Y23552D02*
Y23958D01*
X24203Y23486D02*
X24269Y23552D01*
X22272Y23486D02*
X24203D01*
X22237Y23450D02*
X22272Y23486D01*
X22237Y23044D02*
Y23450D01*
X24015Y23958D02*
X24142Y24085D01*
X24015Y23603D02*
Y23958D01*
X23954Y23542D02*
X24015Y23603D01*
X22023Y23542D02*
X23954D01*
X21983Y23501D02*
X22023Y23542D01*
X21983Y23044D02*
Y23501D01*
X23761Y23958D02*
X23888Y24085D01*
X23761Y23654D02*
Y23958D01*
X23705Y23598D02*
X23761Y23654D01*
X21775Y23598D02*
X23705D01*
X21729Y23552D02*
X21775Y23598D01*
X21729Y23044D02*
Y23552D01*
X21475Y23044D02*
Y23577D01*
X21551Y23654D01*
X23456D01*
X23507Y23704D01*
Y23958D01*
X23634Y24085D01*
X22948Y18548D02*
X25005D01*
X23151Y18853D02*
X24777D01*
X22745Y18751D02*
Y20199D01*
Y18751D02*
X22948Y18548D01*
X25310Y17608D02*
X25717D01*
X24675Y16973D02*
X25310Y17608D01*
X25158Y17304D02*
X25666D01*
X24726Y16872D02*
X25158Y17304D01*
X25894Y17786D02*
Y18167D01*
X25717Y17608D02*
X25894Y17786D01*
X25666Y17304D02*
X26199Y17837D01*
Y18167D01*
X27317Y21545D02*
Y21723D01*
X27190Y21418D02*
X27317Y21545D01*
X27190Y20580D02*
Y21418D01*
X27114Y20504D02*
X27190Y20580D01*
X27596Y20504D02*
X27698Y20606D01*
X24015Y19793D02*
X24497D01*
X24269D02*
Y20199D01*
X22237D02*
Y21418D01*
X22364Y21545D01*
X21983Y20199D02*
Y21418D01*
X22110Y21545D01*
X21729Y20199D02*
Y21418D01*
X21856Y21545D01*
X21475Y20199D02*
Y21418D01*
X21602Y21545D01*
X20662D02*
Y21825D01*
X20713Y21876D01*
X21449D02*
X21475Y21850D01*
X20713Y21876D02*
X21449D01*
X21119Y21291D02*
X21221Y21393D01*
Y21723D01*
X25285Y21139D02*
Y21723D01*
X28892Y18853D02*
Y19183D01*
Y19767D02*
Y19945D01*
X28815Y19691D02*
X28892Y19767D01*
X28206Y19742D02*
X28257Y19691D01*
X28206Y19742D02*
Y19945D01*
X27876Y19640D02*
Y19945D01*
Y19640D02*
X27926Y19590D01*
X29069D02*
X29146Y19666D01*
Y19945D01*
X27571Y19539D02*
Y19945D01*
Y19539D02*
X27622Y19488D01*
X29298D02*
X29400Y19590D01*
Y19945D01*
X28129Y21444D02*
X28130Y21444D01*
X27749Y21444D02*
X28129D01*
X27698Y21393D02*
X27749Y21444D01*
X27698Y20606D02*
Y21393D01*
X25717Y16973D02*
X25894Y17151D01*
X21348Y21444D02*
X21475Y21571D01*
X25767Y16846D02*
X25818Y16897D01*
X25767Y16669D02*
Y16846D01*
X28688Y18599D02*
X28892D01*
X28638Y18650D02*
X28688Y18599D01*
X28638Y18650D02*
Y19183D01*
X21729Y21545D02*
Y21723D01*
X21602Y21418D02*
X21729Y21545D01*
X21856Y21418D02*
X21983Y21545D01*
Y21723D01*
X20967Y18751D02*
Y19107D01*
X21856Y19996D01*
Y21418D01*
X20687Y18751D02*
Y18980D01*
X21602Y19894D01*
Y21418D01*
X20510Y18955D02*
X21348Y19793D01*
Y21444D01*
X24777Y21164D02*
X24904Y21291D01*
X24777Y20199D02*
Y21164D01*
X22948Y19056D02*
Y19818D01*
Y19056D02*
X23151Y18853D01*
X28587Y22866D02*
Y23349D01*
X28536Y22815D02*
X28587Y22866D01*
X25945D02*
X25996Y22815D01*
X25945Y22866D02*
Y23044D01*
X28155Y22282D02*
Y22815D01*
X25996D02*
X28536D01*
X24904Y19996D02*
Y20758D01*
X24853Y19945D02*
X24904Y19996D01*
Y20758D02*
X25285Y21139D01*
X25539D02*
Y21723D01*
X25158Y20758D02*
X25539Y21139D01*
X29146Y18472D02*
Y19183D01*
Y18472D02*
X29425Y18193D01*
Y17532D02*
Y18193D01*
X24523Y17151D02*
X24548D01*
X24751Y17354D01*
Y18142D01*
X24853Y18243D01*
X26834Y19107D02*
X26860Y19082D01*
X26733Y19107D02*
X26834D01*
X25031Y16897D02*
X25107Y16973D01*
X25031Y16669D02*
Y16897D01*
X25107Y16973D02*
X25717D01*
X26148Y16897D02*
X26199Y16948D01*
X25818Y16897D02*
X26148D01*
X26199Y16948D02*
Y17151D01*
X25158Y19564D02*
X25234Y19488D01*
X27190D02*
X27241Y19539D01*
X25158Y19564D02*
Y20758D01*
X27241Y19539D02*
Y19945D01*
X25717Y19666D02*
X25793Y19590D01*
X26910D01*
X26987Y19666D01*
Y20098D01*
X27037Y20148D01*
X27368D01*
X27393Y20123D01*
Y19513D02*
Y20123D01*
X26987Y19107D02*
X27393Y19513D01*
X24853Y19590D02*
X25285Y19158D01*
X24853Y19590D02*
Y19945D01*
X25285Y18447D02*
Y19158D01*
X25793Y18421D02*
X26783D01*
X26860Y18497D01*
X25615Y18243D02*
X25793Y18421D01*
X26606Y18980D02*
X26860D01*
X24853Y18243D02*
X25615D01*
X26860Y18497D02*
Y19082D01*
X25539Y17786D02*
X25691D01*
X25717Y17812D01*
Y18243D01*
X25818Y18345D01*
X26834D01*
X25717Y19666D02*
Y19971D01*
X26834Y18345D02*
X26987Y18497D01*
X25564Y19971D02*
X26275D01*
X26987Y18497D02*
Y19107D01*
X26606Y19234D02*
Y19488D01*
X25234D02*
X27190D01*
X20510Y18015D02*
Y18955D01*
Y18015D02*
X21551Y16973D01*
X21475Y21571D02*
Y21850D01*
X20433Y17939D02*
X21500Y16872D01*
X20433Y21241D02*
X20484Y21291D01*
X20433Y17939D02*
Y21241D01*
X20484Y21291D02*
X21119D01*
X23507Y23171D02*
X23527Y23191D01*
X23507Y22765D02*
Y23171D01*
X23527Y23191D02*
X25458D01*
D18*
X29146Y17989D02*
X29044D01*
X29095D01*
Y17837D01*
X28993D02*
Y17989D01*
X28917D01*
X28892Y17964D01*
Y17913D01*
X28917Y17888D01*
X28993D01*
X28943D02*
X28892Y17837D01*
X28739Y17964D02*
X28765Y17989D01*
X28816D01*
X28841Y17964D01*
Y17939D01*
X28816Y17913D01*
X28765D01*
X28739Y17888D01*
Y17862D01*
X28765Y17837D01*
X28816D01*
X28841Y17862D01*
X28689Y17964D02*
X28663Y17989D01*
X28612D01*
X28587Y17964D01*
Y17939D01*
X28612Y17913D01*
X28587Y17888D01*
Y17862D01*
X28612Y17837D01*
X28663D01*
X28689Y17862D01*
Y17888D01*
X28663Y17913D01*
X28689Y17939D01*
Y17964D01*
X28663Y17913D02*
X28612D01*
X28536Y17964D02*
X28511Y17989D01*
X28460D01*
X28435Y17964D01*
Y17862D01*
X28460Y17837D01*
X28511D01*
X28536Y17862D01*
Y17964D01*
X28232Y17989D02*
Y17837D01*
Y17913D01*
X28130D01*
Y17989D01*
Y17837D01*
X28054Y17939D02*
X28003D01*
X27978Y17913D01*
Y17837D01*
X28054D01*
X28079Y17862D01*
X28054Y17888D01*
X27978D01*
X27927Y17939D02*
Y17837D01*
Y17888D01*
X27901Y17913D01*
X27876Y17939D01*
X27851D01*
X27673Y17989D02*
Y17837D01*
X27749D01*
X27774Y17862D01*
Y17913D01*
X27749Y17939D01*
X27673D01*
X27470Y17989D02*
Y17837D01*
X27394D01*
X27368Y17862D01*
Y17964D01*
X27394Y17989D01*
X27470D01*
X27317Y17939D02*
Y17837D01*
Y17888D01*
X27292Y17913D01*
X27267Y17939D01*
X27241D01*
X27165Y17837D02*
X27114D01*
X27140D01*
Y17939D01*
X27165D01*
X27038D02*
X26987Y17837D01*
X26937Y17939D01*
X26810Y17837D02*
X26860D01*
X26886Y17862D01*
Y17913D01*
X26860Y17939D01*
X26810D01*
X26784Y17913D01*
Y17888D01*
X26886D01*
X28993Y16897D02*
X29044Y16948D01*
Y16999D01*
X28993Y17050D01*
X28816Y16999D02*
X28892D01*
X28917Y16973D01*
Y16923D01*
X28892Y16897D01*
X28816D01*
X28765D02*
X28714Y16948D01*
Y16999D01*
X28765Y17050D01*
X28384D02*
X28485D01*
Y16973D01*
X28435D01*
X28485D01*
Y16897D01*
X28333D02*
Y16923D01*
X28308D01*
Y16897D01*
X28333D01*
X28054Y17050D02*
Y16948D01*
X28003Y16897D01*
X27952Y16948D01*
Y17050D01*
X27825Y16897D02*
X27876D01*
X27901Y16923D01*
Y16973D01*
X27876Y16999D01*
X27825D01*
X27800Y16973D01*
Y16948D01*
X27901D01*
X27648Y16999D02*
X27724D01*
X27749Y16973D01*
Y16923D01*
X27724Y16897D01*
X27648D01*
X27571D02*
X27521D01*
X27495Y16923D01*
Y16973D01*
X27521Y16999D01*
X27571D01*
X27597Y16973D01*
Y16923D01*
X27571Y16897D01*
X27444Y16999D02*
X27394Y16897D01*
X27343Y16999D01*
X27216Y16897D02*
X27267D01*
X27292Y16923D01*
Y16973D01*
X27267Y16999D01*
X27216D01*
X27190Y16973D01*
Y16948D01*
X27292D01*
X27140Y16897D02*
Y16999D01*
X27063D01*
X27038Y16973D01*
Y16897D01*
X28409Y16745D02*
X28460D01*
X28434D01*
Y16618D01*
X28460Y16592D01*
X28485D01*
X28511Y16618D01*
X28358Y16694D02*
Y16618D01*
X28333Y16592D01*
X28257D01*
Y16694D01*
X28206Y16592D02*
X28155D01*
X28181D01*
Y16745D01*
X28206D01*
X27825Y16592D02*
X27927D01*
X27825Y16694D01*
Y16719D01*
X27850Y16745D01*
X27901D01*
X27927Y16719D01*
X27774D02*
X27749Y16745D01*
X27698D01*
X27673Y16719D01*
Y16618D01*
X27698Y16592D01*
X27749D01*
X27774Y16618D01*
Y16719D01*
X27622Y16592D02*
X27571D01*
X27597D01*
Y16745D01*
X27622Y16719D01*
X27393Y16592D02*
X27495D01*
X27393Y16694D01*
Y16719D01*
X27419Y16745D01*
X27470D01*
X27495Y16719D01*
X28942Y17659D02*
X29044D01*
Y17507D01*
X28942D01*
X29044Y17583D02*
X28993D01*
X28892Y17507D02*
Y17608D01*
X28866D01*
X28841Y17583D01*
Y17507D01*
Y17583D01*
X28816Y17608D01*
X28790Y17583D01*
Y17507D01*
X28739Y17608D02*
Y17532D01*
X28714Y17507D01*
X28638D01*
Y17608D01*
X28587Y17507D02*
X28536D01*
X28562D01*
Y17659D01*
X28587D01*
X28435Y17608D02*
X28384D01*
X28358Y17583D01*
Y17507D01*
X28435D01*
X28460Y17532D01*
X28435Y17558D01*
X28358D01*
X28282Y17634D02*
Y17608D01*
X28308D01*
X28257D01*
X28282D01*
Y17532D01*
X28257Y17507D01*
X28155D02*
X28105D01*
X28079Y17532D01*
Y17583D01*
X28105Y17608D01*
X28155D01*
X28181Y17583D01*
Y17532D01*
X28155Y17507D01*
X28028Y17608D02*
Y17507D01*
Y17558D01*
X28003Y17583D01*
X27978Y17608D01*
X27952D01*
X27571Y17659D02*
Y17558D01*
X27521Y17507D01*
X27470Y17558D01*
Y17659D01*
X27419Y17634D02*
X27394Y17659D01*
X27343D01*
X27317Y17634D01*
Y17608D01*
X27343Y17583D01*
X27368D01*
X27343D01*
X27317Y17558D01*
Y17532D01*
X27343Y17507D01*
X27394D01*
X27419Y17532D01*
X27267Y17507D02*
Y17532D01*
X27241D01*
Y17507D01*
X27267D01*
X27140Y17634D02*
X27114Y17659D01*
X27063D01*
X27038Y17634D01*
Y17532D01*
X27063Y17507D01*
X27114D01*
X27140Y17532D01*
Y17634D01*
X26987Y17507D02*
X26937D01*
X26962D01*
Y17659D01*
X26987Y17634D01*
D19*
X21602Y19183D02*
D03*
X23812D02*
D03*
D20*
X27241Y19945D02*
D03*
Y18929D02*
D03*
X20510Y22028D02*
D03*
Y23044D02*
D03*
X24523Y17151D02*
D03*
X25539D02*
D03*
X22948Y19818D02*
D03*
X21932D02*
D03*
X24523Y19310D02*
D03*
X25539D02*
D03*
X28206Y18929D02*
D03*
Y19945D02*
D03*
X27876D02*
D03*
Y18929D02*
D03*
X27571D02*
D03*
Y19945D02*
D03*
X24523Y18701D02*
D03*
X25539D02*
D03*
Y18396D02*
D03*
X24523D02*
D03*
Y17786D02*
D03*
X25539D02*
D03*
X24523Y19005D02*
D03*
X25539D02*
D03*
Y18091D02*
D03*
X24523D02*
D03*
Y17456D02*
D03*
X25539D02*
D03*
X20687Y19767D02*
D03*
Y18751D02*
D03*
X20967D02*
D03*
Y19767D02*
D03*
X26199Y17151D02*
D03*
Y18167D02*
D03*
X25894D02*
D03*
Y17151D02*
D03*
D21*
X20865Y22409D02*
D03*
Y22917D02*
D03*
X28968Y23349D02*
D03*
Y22841D02*
D03*
X24015Y19793D02*
D03*
X23507D02*
D03*
X25971D02*
D03*
X25463D02*
D03*
X26123Y18624D02*
D03*
X26631D02*
D03*
D22*
X27698Y24085D02*
D03*
D23*
Y23831D02*
D03*
X27444Y24085D02*
D03*
Y23831D02*
D03*
X27190Y24085D02*
D03*
Y23831D02*
D03*
X26936Y24085D02*
D03*
Y23831D02*
D03*
X26682Y24085D02*
D03*
Y23831D02*
D03*
X26428Y24085D02*
D03*
Y23831D02*
D03*
X26174Y24085D02*
D03*
Y23831D02*
D03*
X25920Y24085D02*
D03*
Y23831D02*
D03*
X25666Y24085D02*
D03*
Y23831D02*
D03*
X25412Y24085D02*
D03*
Y23831D02*
D03*
X25158Y24085D02*
D03*
Y23831D02*
D03*
X24904Y24085D02*
D03*
Y23831D02*
D03*
X24650Y24085D02*
D03*
Y23831D02*
D03*
X24396Y24085D02*
D03*
Y23831D02*
D03*
X24142Y24085D02*
D03*
Y23831D02*
D03*
X23888Y24085D02*
D03*
Y23831D02*
D03*
X23634Y24085D02*
D03*
Y23831D02*
D03*
X23380Y24085D02*
D03*
Y23831D02*
D03*
X23126Y24085D02*
D03*
Y23831D02*
D03*
X22872Y24085D02*
D03*
Y23831D02*
D03*
X22618Y24085D02*
D03*
Y23831D02*
D03*
X22364Y24085D02*
D03*
Y23831D02*
D03*
X22110Y24085D02*
D03*
Y23831D02*
D03*
X21856Y24085D02*
D03*
Y23831D02*
D03*
X21602Y24085D02*
D03*
Y23831D02*
D03*
D24*
X28841Y23958D02*
D03*
D25*
X28587D02*
D03*
D26*
X26631Y17659D02*
D03*
X29425Y17786D02*
D03*
Y17532D02*
D03*
D27*
X25285Y16669D02*
D03*
X25767D02*
D03*
X26021D02*
D03*
X25031D02*
D03*
D28*
X29247Y21418D02*
D03*
Y20656D02*
D03*
Y20910D02*
D03*
Y21164D02*
D03*
D29*
X20662Y21291D02*
D03*
Y21037D02*
D03*
Y20783D02*
D03*
Y21545D02*
D03*
D30*
Y20529D02*
D03*
D31*
X29527Y16821D02*
D03*
Y23806D02*
D03*
X20713D02*
D03*
Y16821D02*
D03*
D32*
X26199Y23044D02*
D03*
X23507D02*
D03*
X21221Y20199D02*
D03*
D33*
X27596Y20504D02*
D03*
X27114D02*
D03*
X29628Y23171D02*
D03*
X29044Y22003D02*
D03*
Y22257D02*
D03*
X29679Y22003D02*
D03*
Y22257D02*
D03*
X22237Y22282D02*
D03*
X21983D02*
D03*
X22491D02*
D03*
X22745D02*
D03*
X22999D02*
D03*
X21729D02*
D03*
X21221D02*
D03*
X23253D02*
D03*
X21475D02*
D03*
X23253Y23044D02*
D03*
X22999D02*
D03*
X22745D02*
D03*
X22491D02*
D03*
X22237D02*
D03*
X21983D02*
D03*
X21729D02*
D03*
X21475D02*
D03*
X21221D02*
D03*
X23507Y22282D02*
D03*
X29628Y22917D02*
D03*
X25793Y20199D02*
D03*
X26047D02*
D03*
Y21723D02*
D03*
X25793D02*
D03*
X24523D02*
D03*
X24269D02*
D03*
X24015D02*
D03*
X23761D02*
D03*
X26707Y19793D02*
D03*
X26453D02*
D03*
X21475Y20199D02*
D03*
X21729D02*
D03*
X21983D02*
D03*
X22237D02*
D03*
X22491D02*
D03*
X22745D02*
D03*
X22999D02*
D03*
X23253D02*
D03*
X23507D02*
D03*
X23761D02*
D03*
X24015D02*
D03*
X24269D02*
D03*
X24523D02*
D03*
X24777D02*
D03*
X25031D02*
D03*
X25285D02*
D03*
X25539D02*
D03*
X21221Y21723D02*
D03*
X21475D02*
D03*
X22237D02*
D03*
X22491D02*
D03*
X22745D02*
D03*
X22999D02*
D03*
X23253D02*
D03*
X23507D02*
D03*
X24777D02*
D03*
X25031D02*
D03*
X25285D02*
D03*
X26860Y20504D02*
D03*
X27850D02*
D03*
X28587D02*
D03*
X28333D02*
D03*
X24497Y19793D02*
D03*
X25005D02*
D03*
X28892Y18853D02*
D03*
Y18599D02*
D03*
X21729Y21723D02*
D03*
X21983D02*
D03*
X25945Y23044D02*
D03*
X25691D02*
D03*
X25437D02*
D03*
X25183D02*
D03*
X24929D02*
D03*
X24675D02*
D03*
X24421D02*
D03*
X24167D02*
D03*
X23913D02*
D03*
X26199Y22282D02*
D03*
X25945D02*
D03*
X25691D02*
D03*
X25437D02*
D03*
X25183D02*
D03*
X24929D02*
D03*
X24675D02*
D03*
X24421D02*
D03*
X24167D02*
D03*
X23913D02*
D03*
X25539Y21723D02*
D03*
D34*
X28409Y23044D02*
D03*
X28587Y21723D02*
D03*
D35*
X28155Y23044D02*
D03*
X27901D02*
D03*
X27647D02*
D03*
X27393D02*
D03*
X27139D02*
D03*
X26885D02*
D03*
X26631D02*
D03*
X28409Y22282D02*
D03*
X28155D02*
D03*
X27901D02*
D03*
X27647D02*
D03*
X27393D02*
D03*
X27139D02*
D03*
X26885D02*
D03*
X26631D02*
D03*
X28333Y21723D02*
D03*
X28079D02*
D03*
X27825D02*
D03*
X27571D02*
D03*
X27317D02*
D03*
X27063D02*
D03*
X28587Y20961D02*
D03*
X28333D02*
D03*
X28079D02*
D03*
X27571D02*
D03*
X27317D02*
D03*
X27063D02*
D03*
X26809D02*
D03*
Y21723D02*
D03*
X27825Y20961D02*
D03*
D36*
X29400Y19945D02*
D03*
X29146D02*
D03*
X28892D02*
D03*
X28638D02*
D03*
X29400Y19183D02*
D03*
X29146D02*
D03*
X28892D02*
D03*
D37*
X28638D02*
D03*
D38*
X26606Y18980D02*
D03*
Y19234D02*
D03*
X26733Y19107D02*
D03*
X26047D02*
D03*
X26174Y18980D02*
D03*
Y19234D02*
D03*
D39*
X29247Y20402D02*
D03*
D40*
X20865Y18218D02*
D03*
X23634Y21545D02*
D03*
Y21190D02*
D03*
X22440Y21037D02*
D03*
X24777Y18853D02*
D03*
X25793Y23628D02*
D03*
X26047D02*
D03*
X26301D02*
D03*
X26555D02*
D03*
X26809D02*
D03*
X27063D02*
D03*
X27317D02*
D03*
X26428Y21291D02*
D03*
X24904D02*
D03*
X22745Y22053D02*
D03*
X22999D02*
D03*
X22491D02*
D03*
X25005Y18548D02*
D03*
M02*
