%TF.GenerationSoftware,KiCad,Pcbnew,8.0.3*%
%TF.CreationDate,2024-06-10T16:35:51-04:00*%
%TF.ProjectId,Kicad 8,4b696361-6420-4382-9e6b-696361645f70,rev?*%
%TF.SameCoordinates,Original*%
%TF.FileFunction,Legend,Top*%
%TF.FilePolarity,Positive*%
%FSLAX46Y46*%
G04 Gerber Fmt 4.6, Leading zero omitted, Abs format (unit mm)*
G04 Created by KiCad (PCBNEW 8.0.3) date 2024-06-10 16:35:51*
%MOMM*%
%LPD*%
G01*
G04 APERTURE LIST*
%ADD10C,0.100000*%
%ADD11C,1.200000*%
%ADD12C,0.150000*%
%ADD13C,0.120000*%
G04 APERTURE END LIST*
D10*
X101708646Y-81372419D02*
X101946741Y-82372419D01*
X101946741Y-82372419D02*
X102137217Y-81658133D01*
X102137217Y-81658133D02*
X102327693Y-82372419D01*
X102327693Y-82372419D02*
X102565789Y-81372419D01*
X103327693Y-82324800D02*
X103232455Y-82372419D01*
X103232455Y-82372419D02*
X103041979Y-82372419D01*
X103041979Y-82372419D02*
X102946741Y-82324800D01*
X102946741Y-82324800D02*
X102899122Y-82229561D01*
X102899122Y-82229561D02*
X102899122Y-81848609D01*
X102899122Y-81848609D02*
X102946741Y-81753371D01*
X102946741Y-81753371D02*
X103041979Y-81705752D01*
X103041979Y-81705752D02*
X103232455Y-81705752D01*
X103232455Y-81705752D02*
X103327693Y-81753371D01*
X103327693Y-81753371D02*
X103375312Y-81848609D01*
X103375312Y-81848609D02*
X103375312Y-81943847D01*
X103375312Y-81943847D02*
X102899122Y-82039085D01*
X103803884Y-82372419D02*
X103803884Y-81372419D01*
X103803884Y-81372419D02*
X104137217Y-82086704D01*
X104137217Y-82086704D02*
X104470550Y-81372419D01*
X104470550Y-81372419D02*
X104470550Y-82372419D01*
X105089598Y-82372419D02*
X104994360Y-82324800D01*
X104994360Y-82324800D02*
X104946741Y-82277180D01*
X104946741Y-82277180D02*
X104899122Y-82181942D01*
X104899122Y-82181942D02*
X104899122Y-81896228D01*
X104899122Y-81896228D02*
X104946741Y-81800990D01*
X104946741Y-81800990D02*
X104994360Y-81753371D01*
X104994360Y-81753371D02*
X105089598Y-81705752D01*
X105089598Y-81705752D02*
X105232455Y-81705752D01*
X105232455Y-81705752D02*
X105327693Y-81753371D01*
X105327693Y-81753371D02*
X105375312Y-81800990D01*
X105375312Y-81800990D02*
X105422931Y-81896228D01*
X105422931Y-81896228D02*
X105422931Y-82181942D01*
X105422931Y-82181942D02*
X105375312Y-82277180D01*
X105375312Y-82277180D02*
X105327693Y-82324800D01*
X105327693Y-82324800D02*
X105232455Y-82372419D01*
X105232455Y-82372419D02*
X105089598Y-82372419D01*
X105803884Y-82324800D02*
X105899122Y-82372419D01*
X105899122Y-82372419D02*
X106089598Y-82372419D01*
X106089598Y-82372419D02*
X106184836Y-82324800D01*
X106184836Y-82324800D02*
X106232455Y-82229561D01*
X106232455Y-82229561D02*
X106232455Y-82181942D01*
X106232455Y-82181942D02*
X106184836Y-82086704D01*
X106184836Y-82086704D02*
X106089598Y-82039085D01*
X106089598Y-82039085D02*
X105946741Y-82039085D01*
X105946741Y-82039085D02*
X105851503Y-81991466D01*
X105851503Y-81991466D02*
X105803884Y-81896228D01*
X105803884Y-81896228D02*
X105803884Y-81848609D01*
X105803884Y-81848609D02*
X105851503Y-81753371D01*
X105851503Y-81753371D02*
X105946741Y-81705752D01*
X105946741Y-81705752D02*
X106089598Y-81705752D01*
X106089598Y-81705752D02*
X106184836Y-81753371D01*
X107375313Y-82324800D02*
X107518170Y-82372419D01*
X107518170Y-82372419D02*
X107756265Y-82372419D01*
X107756265Y-82372419D02*
X107851503Y-82324800D01*
X107851503Y-82324800D02*
X107899122Y-82277180D01*
X107899122Y-82277180D02*
X107946741Y-82181942D01*
X107946741Y-82181942D02*
X107946741Y-82086704D01*
X107946741Y-82086704D02*
X107899122Y-81991466D01*
X107899122Y-81991466D02*
X107851503Y-81943847D01*
X107851503Y-81943847D02*
X107756265Y-81896228D01*
X107756265Y-81896228D02*
X107565789Y-81848609D01*
X107565789Y-81848609D02*
X107470551Y-81800990D01*
X107470551Y-81800990D02*
X107422932Y-81753371D01*
X107422932Y-81753371D02*
X107375313Y-81658133D01*
X107375313Y-81658133D02*
X107375313Y-81562895D01*
X107375313Y-81562895D02*
X107422932Y-81467657D01*
X107422932Y-81467657D02*
X107470551Y-81420038D01*
X107470551Y-81420038D02*
X107565789Y-81372419D01*
X107565789Y-81372419D02*
X107803884Y-81372419D01*
X107803884Y-81372419D02*
X107946741Y-81420038D01*
X108375313Y-82372419D02*
X108375313Y-81372419D01*
X108803884Y-82372419D02*
X108803884Y-81848609D01*
X108803884Y-81848609D02*
X108756265Y-81753371D01*
X108756265Y-81753371D02*
X108661027Y-81705752D01*
X108661027Y-81705752D02*
X108518170Y-81705752D01*
X108518170Y-81705752D02*
X108422932Y-81753371D01*
X108422932Y-81753371D02*
X108375313Y-81800990D01*
X109280075Y-82372419D02*
X109280075Y-81705752D01*
X109280075Y-81372419D02*
X109232456Y-81420038D01*
X109232456Y-81420038D02*
X109280075Y-81467657D01*
X109280075Y-81467657D02*
X109327694Y-81420038D01*
X109327694Y-81420038D02*
X109280075Y-81372419D01*
X109280075Y-81372419D02*
X109280075Y-81467657D01*
X110137217Y-82324800D02*
X110041979Y-82372419D01*
X110041979Y-82372419D02*
X109851503Y-82372419D01*
X109851503Y-82372419D02*
X109756265Y-82324800D01*
X109756265Y-82324800D02*
X109708646Y-82229561D01*
X109708646Y-82229561D02*
X109708646Y-81848609D01*
X109708646Y-81848609D02*
X109756265Y-81753371D01*
X109756265Y-81753371D02*
X109851503Y-81705752D01*
X109851503Y-81705752D02*
X110041979Y-81705752D01*
X110041979Y-81705752D02*
X110137217Y-81753371D01*
X110137217Y-81753371D02*
X110184836Y-81848609D01*
X110184836Y-81848609D02*
X110184836Y-81943847D01*
X110184836Y-81943847D02*
X109708646Y-82039085D01*
X110756265Y-82372419D02*
X110661027Y-82324800D01*
X110661027Y-82324800D02*
X110613408Y-82229561D01*
X110613408Y-82229561D02*
X110613408Y-81372419D01*
X111565789Y-82372419D02*
X111565789Y-81372419D01*
X111565789Y-82324800D02*
X111470551Y-82372419D01*
X111470551Y-82372419D02*
X111280075Y-82372419D01*
X111280075Y-82372419D02*
X111184837Y-82324800D01*
X111184837Y-82324800D02*
X111137218Y-82277180D01*
X111137218Y-82277180D02*
X111089599Y-82181942D01*
X111089599Y-82181942D02*
X111089599Y-81896228D01*
X111089599Y-81896228D02*
X111137218Y-81800990D01*
X111137218Y-81800990D02*
X111184837Y-81753371D01*
X111184837Y-81753371D02*
X111280075Y-81705752D01*
X111280075Y-81705752D02*
X111470551Y-81705752D01*
X111470551Y-81705752D02*
X111565789Y-81753371D01*
X112756266Y-81467657D02*
X112803885Y-81420038D01*
X112803885Y-81420038D02*
X112899123Y-81372419D01*
X112899123Y-81372419D02*
X113137218Y-81372419D01*
X113137218Y-81372419D02*
X113232456Y-81420038D01*
X113232456Y-81420038D02*
X113280075Y-81467657D01*
X113280075Y-81467657D02*
X113327694Y-81562895D01*
X113327694Y-81562895D02*
X113327694Y-81658133D01*
X113327694Y-81658133D02*
X113280075Y-81800990D01*
X113280075Y-81800990D02*
X112708647Y-82372419D01*
X112708647Y-82372419D02*
X113327694Y-82372419D01*
X162920038Y-53796116D02*
X162872419Y-53891354D01*
X162872419Y-53891354D02*
X162872419Y-54034211D01*
X162872419Y-54034211D02*
X162920038Y-54177068D01*
X162920038Y-54177068D02*
X163015276Y-54272306D01*
X163015276Y-54272306D02*
X163110514Y-54319925D01*
X163110514Y-54319925D02*
X163300990Y-54367544D01*
X163300990Y-54367544D02*
X163443847Y-54367544D01*
X163443847Y-54367544D02*
X163634323Y-54319925D01*
X163634323Y-54319925D02*
X163729561Y-54272306D01*
X163729561Y-54272306D02*
X163824800Y-54177068D01*
X163824800Y-54177068D02*
X163872419Y-54034211D01*
X163872419Y-54034211D02*
X163872419Y-53938973D01*
X163872419Y-53938973D02*
X163824800Y-53796116D01*
X163824800Y-53796116D02*
X163777180Y-53748497D01*
X163777180Y-53748497D02*
X163443847Y-53748497D01*
X163443847Y-53748497D02*
X163443847Y-53938973D01*
X163872419Y-53319925D02*
X162872419Y-53319925D01*
X162872419Y-53319925D02*
X163872419Y-52748497D01*
X163872419Y-52748497D02*
X162872419Y-52748497D01*
X163872419Y-52272306D02*
X162872419Y-52272306D01*
X162872419Y-52272306D02*
X162872419Y-52034211D01*
X162872419Y-52034211D02*
X162920038Y-51891354D01*
X162920038Y-51891354D02*
X163015276Y-51796116D01*
X163015276Y-51796116D02*
X163110514Y-51748497D01*
X163110514Y-51748497D02*
X163300990Y-51700878D01*
X163300990Y-51700878D02*
X163443847Y-51700878D01*
X163443847Y-51700878D02*
X163634323Y-51748497D01*
X163634323Y-51748497D02*
X163729561Y-51796116D01*
X163729561Y-51796116D02*
X163824800Y-51891354D01*
X163824800Y-51891354D02*
X163872419Y-52034211D01*
X163872419Y-52034211D02*
X163872419Y-52272306D01*
X162872419Y-71148365D02*
X162872419Y-70529318D01*
X162872419Y-70529318D02*
X163253371Y-70862651D01*
X163253371Y-70862651D02*
X163253371Y-70719794D01*
X163253371Y-70719794D02*
X163300990Y-70624556D01*
X163300990Y-70624556D02*
X163348609Y-70576937D01*
X163348609Y-70576937D02*
X163443847Y-70529318D01*
X163443847Y-70529318D02*
X163681942Y-70529318D01*
X163681942Y-70529318D02*
X163777180Y-70576937D01*
X163777180Y-70576937D02*
X163824800Y-70624556D01*
X163824800Y-70624556D02*
X163872419Y-70719794D01*
X163872419Y-70719794D02*
X163872419Y-71005508D01*
X163872419Y-71005508D02*
X163824800Y-71100746D01*
X163824800Y-71100746D02*
X163777180Y-71148365D01*
X163777180Y-70100746D02*
X163824800Y-70053127D01*
X163824800Y-70053127D02*
X163872419Y-70100746D01*
X163872419Y-70100746D02*
X163824800Y-70148365D01*
X163824800Y-70148365D02*
X163777180Y-70100746D01*
X163777180Y-70100746D02*
X163872419Y-70100746D01*
X162872419Y-69719794D02*
X162872419Y-69100747D01*
X162872419Y-69100747D02*
X163253371Y-69434080D01*
X163253371Y-69434080D02*
X163253371Y-69291223D01*
X163253371Y-69291223D02*
X163300990Y-69195985D01*
X163300990Y-69195985D02*
X163348609Y-69148366D01*
X163348609Y-69148366D02*
X163443847Y-69100747D01*
X163443847Y-69100747D02*
X163681942Y-69100747D01*
X163681942Y-69100747D02*
X163777180Y-69148366D01*
X163777180Y-69148366D02*
X163824800Y-69195985D01*
X163824800Y-69195985D02*
X163872419Y-69291223D01*
X163872419Y-69291223D02*
X163872419Y-69576937D01*
X163872419Y-69576937D02*
X163824800Y-69672175D01*
X163824800Y-69672175D02*
X163777180Y-69719794D01*
X163205752Y-68767413D02*
X163872419Y-68529318D01*
X163872419Y-68529318D02*
X163205752Y-68291223D01*
X162872419Y-86548234D02*
X162872419Y-87024424D01*
X162872419Y-87024424D02*
X163348609Y-87072043D01*
X163348609Y-87072043D02*
X163300990Y-87024424D01*
X163300990Y-87024424D02*
X163253371Y-86929186D01*
X163253371Y-86929186D02*
X163253371Y-86691091D01*
X163253371Y-86691091D02*
X163300990Y-86595853D01*
X163300990Y-86595853D02*
X163348609Y-86548234D01*
X163348609Y-86548234D02*
X163443847Y-86500615D01*
X163443847Y-86500615D02*
X163681942Y-86500615D01*
X163681942Y-86500615D02*
X163777180Y-86548234D01*
X163777180Y-86548234D02*
X163824800Y-86595853D01*
X163824800Y-86595853D02*
X163872419Y-86691091D01*
X163872419Y-86691091D02*
X163872419Y-86929186D01*
X163872419Y-86929186D02*
X163824800Y-87024424D01*
X163824800Y-87024424D02*
X163777180Y-87072043D01*
X163205752Y-86167281D02*
X163872419Y-85929186D01*
X163872419Y-85929186D02*
X163205752Y-85691091D01*
X167811228Y-113779925D02*
X167811228Y-112851353D01*
X167811228Y-112851353D02*
X168382657Y-113351353D01*
X168382657Y-113351353D02*
X168382657Y-113137068D01*
X168382657Y-113137068D02*
X168454085Y-112994211D01*
X168454085Y-112994211D02*
X168525514Y-112922782D01*
X168525514Y-112922782D02*
X168668371Y-112851353D01*
X168668371Y-112851353D02*
X169025514Y-112851353D01*
X169025514Y-112851353D02*
X169168371Y-112922782D01*
X169168371Y-112922782D02*
X169239800Y-112994211D01*
X169239800Y-112994211D02*
X169311228Y-113137068D01*
X169311228Y-113137068D02*
X169311228Y-113565639D01*
X169311228Y-113565639D02*
X169239800Y-113708496D01*
X169239800Y-113708496D02*
X169168371Y-113779925D01*
X168311228Y-112351354D02*
X169311228Y-111994211D01*
X169311228Y-111994211D02*
X168311228Y-111637068D01*
X169311228Y-108779926D02*
X167811228Y-108779926D01*
X167811228Y-108779926D02*
X167811228Y-108422783D01*
X167811228Y-108422783D02*
X167882657Y-108208497D01*
X167882657Y-108208497D02*
X168025514Y-108065640D01*
X168025514Y-108065640D02*
X168168371Y-107994211D01*
X168168371Y-107994211D02*
X168454085Y-107922783D01*
X168454085Y-107922783D02*
X168668371Y-107922783D01*
X168668371Y-107922783D02*
X168954085Y-107994211D01*
X168954085Y-107994211D02*
X169096942Y-108065640D01*
X169096942Y-108065640D02*
X169239800Y-108208497D01*
X169239800Y-108208497D02*
X169311228Y-108422783D01*
X169311228Y-108422783D02*
X169311228Y-108779926D01*
X168454085Y-107065640D02*
X168382657Y-107208497D01*
X168382657Y-107208497D02*
X168311228Y-107279926D01*
X168311228Y-107279926D02*
X168168371Y-107351354D01*
X168168371Y-107351354D02*
X168096942Y-107351354D01*
X168096942Y-107351354D02*
X167954085Y-107279926D01*
X167954085Y-107279926D02*
X167882657Y-107208497D01*
X167882657Y-107208497D02*
X167811228Y-107065640D01*
X167811228Y-107065640D02*
X167811228Y-106779926D01*
X167811228Y-106779926D02*
X167882657Y-106637069D01*
X167882657Y-106637069D02*
X167954085Y-106565640D01*
X167954085Y-106565640D02*
X168096942Y-106494211D01*
X168096942Y-106494211D02*
X168168371Y-106494211D01*
X168168371Y-106494211D02*
X168311228Y-106565640D01*
X168311228Y-106565640D02*
X168382657Y-106637069D01*
X168382657Y-106637069D02*
X168454085Y-106779926D01*
X168454085Y-106779926D02*
X168454085Y-107065640D01*
X168454085Y-107065640D02*
X168525514Y-107208497D01*
X168525514Y-107208497D02*
X168596942Y-107279926D01*
X168596942Y-107279926D02*
X168739800Y-107351354D01*
X168739800Y-107351354D02*
X169025514Y-107351354D01*
X169025514Y-107351354D02*
X169168371Y-107279926D01*
X169168371Y-107279926D02*
X169239800Y-107208497D01*
X169239800Y-107208497D02*
X169311228Y-107065640D01*
X169311228Y-107065640D02*
X169311228Y-106779926D01*
X169311228Y-106779926D02*
X169239800Y-106637069D01*
X169239800Y-106637069D02*
X169168371Y-106565640D01*
X169168371Y-106565640D02*
X169025514Y-106494211D01*
X169025514Y-106494211D02*
X168739800Y-106494211D01*
X168739800Y-106494211D02*
X168596942Y-106565640D01*
X168596942Y-106565640D02*
X168525514Y-106637069D01*
X168525514Y-106637069D02*
X168454085Y-106779926D01*
X169311228Y-103565641D02*
X167811228Y-103565641D01*
X167811228Y-103565641D02*
X167811228Y-103208498D01*
X167811228Y-103208498D02*
X167882657Y-102994212D01*
X167882657Y-102994212D02*
X168025514Y-102851355D01*
X168025514Y-102851355D02*
X168168371Y-102779926D01*
X168168371Y-102779926D02*
X168454085Y-102708498D01*
X168454085Y-102708498D02*
X168668371Y-102708498D01*
X168668371Y-102708498D02*
X168954085Y-102779926D01*
X168954085Y-102779926D02*
X169096942Y-102851355D01*
X169096942Y-102851355D02*
X169239800Y-102994212D01*
X169239800Y-102994212D02*
X169311228Y-103208498D01*
X169311228Y-103208498D02*
X169311228Y-103565641D01*
X167811228Y-102208498D02*
X167811228Y-101208498D01*
X167811228Y-101208498D02*
X169311228Y-101851355D01*
X169311228Y-98351356D02*
X167811228Y-98351356D01*
X167811228Y-98351356D02*
X167811228Y-97994213D01*
X167811228Y-97994213D02*
X167882657Y-97779927D01*
X167882657Y-97779927D02*
X168025514Y-97637070D01*
X168025514Y-97637070D02*
X168168371Y-97565641D01*
X168168371Y-97565641D02*
X168454085Y-97494213D01*
X168454085Y-97494213D02*
X168668371Y-97494213D01*
X168668371Y-97494213D02*
X168954085Y-97565641D01*
X168954085Y-97565641D02*
X169096942Y-97637070D01*
X169096942Y-97637070D02*
X169239800Y-97779927D01*
X169239800Y-97779927D02*
X169311228Y-97994213D01*
X169311228Y-97994213D02*
X169311228Y-98351356D01*
X167811228Y-96208499D02*
X167811228Y-96494213D01*
X167811228Y-96494213D02*
X167882657Y-96637070D01*
X167882657Y-96637070D02*
X167954085Y-96708499D01*
X167954085Y-96708499D02*
X168168371Y-96851356D01*
X168168371Y-96851356D02*
X168454085Y-96922784D01*
X168454085Y-96922784D02*
X169025514Y-96922784D01*
X169025514Y-96922784D02*
X169168371Y-96851356D01*
X169168371Y-96851356D02*
X169239800Y-96779927D01*
X169239800Y-96779927D02*
X169311228Y-96637070D01*
X169311228Y-96637070D02*
X169311228Y-96351356D01*
X169311228Y-96351356D02*
X169239800Y-96208499D01*
X169239800Y-96208499D02*
X169168371Y-96137070D01*
X169168371Y-96137070D02*
X169025514Y-96065641D01*
X169025514Y-96065641D02*
X168668371Y-96065641D01*
X168668371Y-96065641D02*
X168525514Y-96137070D01*
X168525514Y-96137070D02*
X168454085Y-96208499D01*
X168454085Y-96208499D02*
X168382657Y-96351356D01*
X168382657Y-96351356D02*
X168382657Y-96637070D01*
X168382657Y-96637070D02*
X168454085Y-96779927D01*
X168454085Y-96779927D02*
X168525514Y-96851356D01*
X168525514Y-96851356D02*
X168668371Y-96922784D01*
X169311228Y-93137071D02*
X167811228Y-93137071D01*
X167811228Y-93137071D02*
X167811228Y-92779928D01*
X167811228Y-92779928D02*
X167882657Y-92565642D01*
X167882657Y-92565642D02*
X168025514Y-92422785D01*
X168025514Y-92422785D02*
X168168371Y-92351356D01*
X168168371Y-92351356D02*
X168454085Y-92279928D01*
X168454085Y-92279928D02*
X168668371Y-92279928D01*
X168668371Y-92279928D02*
X168954085Y-92351356D01*
X168954085Y-92351356D02*
X169096942Y-92422785D01*
X169096942Y-92422785D02*
X169239800Y-92565642D01*
X169239800Y-92565642D02*
X169311228Y-92779928D01*
X169311228Y-92779928D02*
X169311228Y-93137071D01*
X167811228Y-90922785D02*
X167811228Y-91637071D01*
X167811228Y-91637071D02*
X168525514Y-91708499D01*
X168525514Y-91708499D02*
X168454085Y-91637071D01*
X168454085Y-91637071D02*
X168382657Y-91494214D01*
X168382657Y-91494214D02*
X168382657Y-91137071D01*
X168382657Y-91137071D02*
X168454085Y-90994214D01*
X168454085Y-90994214D02*
X168525514Y-90922785D01*
X168525514Y-90922785D02*
X168668371Y-90851356D01*
X168668371Y-90851356D02*
X169025514Y-90851356D01*
X169025514Y-90851356D02*
X169168371Y-90922785D01*
X169168371Y-90922785D02*
X169239800Y-90994214D01*
X169239800Y-90994214D02*
X169311228Y-91137071D01*
X169311228Y-91137071D02*
X169311228Y-91494214D01*
X169311228Y-91494214D02*
X169239800Y-91637071D01*
X169239800Y-91637071D02*
X169168371Y-91708499D01*
X169311228Y-87922786D02*
X167811228Y-87922786D01*
X167811228Y-87922786D02*
X167811228Y-87565643D01*
X167811228Y-87565643D02*
X167882657Y-87351357D01*
X167882657Y-87351357D02*
X168025514Y-87208500D01*
X168025514Y-87208500D02*
X168168371Y-87137071D01*
X168168371Y-87137071D02*
X168454085Y-87065643D01*
X168454085Y-87065643D02*
X168668371Y-87065643D01*
X168668371Y-87065643D02*
X168954085Y-87137071D01*
X168954085Y-87137071D02*
X169096942Y-87208500D01*
X169096942Y-87208500D02*
X169239800Y-87351357D01*
X169239800Y-87351357D02*
X169311228Y-87565643D01*
X169311228Y-87565643D02*
X169311228Y-87922786D01*
X167811228Y-86137071D02*
X167811228Y-85994214D01*
X167811228Y-85994214D02*
X167882657Y-85851357D01*
X167882657Y-85851357D02*
X167954085Y-85779929D01*
X167954085Y-85779929D02*
X168096942Y-85708500D01*
X168096942Y-85708500D02*
X168382657Y-85637071D01*
X168382657Y-85637071D02*
X168739800Y-85637071D01*
X168739800Y-85637071D02*
X169025514Y-85708500D01*
X169025514Y-85708500D02*
X169168371Y-85779929D01*
X169168371Y-85779929D02*
X169239800Y-85851357D01*
X169239800Y-85851357D02*
X169311228Y-85994214D01*
X169311228Y-85994214D02*
X169311228Y-86137071D01*
X169311228Y-86137071D02*
X169239800Y-86279929D01*
X169239800Y-86279929D02*
X169168371Y-86351357D01*
X169168371Y-86351357D02*
X169025514Y-86422786D01*
X169025514Y-86422786D02*
X168739800Y-86494214D01*
X168739800Y-86494214D02*
X168382657Y-86494214D01*
X168382657Y-86494214D02*
X168096942Y-86422786D01*
X168096942Y-86422786D02*
X167954085Y-86351357D01*
X167954085Y-86351357D02*
X167882657Y-86279929D01*
X167882657Y-86279929D02*
X167811228Y-86137071D01*
X168882657Y-82779929D02*
X168882657Y-82065644D01*
X169311228Y-82922786D02*
X167811228Y-82422786D01*
X167811228Y-82422786D02*
X169311228Y-81922786D01*
X167811228Y-81137072D02*
X167811228Y-80994215D01*
X167811228Y-80994215D02*
X167882657Y-80851358D01*
X167882657Y-80851358D02*
X167954085Y-80779930D01*
X167954085Y-80779930D02*
X168096942Y-80708501D01*
X168096942Y-80708501D02*
X168382657Y-80637072D01*
X168382657Y-80637072D02*
X168739800Y-80637072D01*
X168739800Y-80637072D02*
X169025514Y-80708501D01*
X169025514Y-80708501D02*
X169168371Y-80779930D01*
X169168371Y-80779930D02*
X169239800Y-80851358D01*
X169239800Y-80851358D02*
X169311228Y-80994215D01*
X169311228Y-80994215D02*
X169311228Y-81137072D01*
X169311228Y-81137072D02*
X169239800Y-81279930D01*
X169239800Y-81279930D02*
X169168371Y-81351358D01*
X169168371Y-81351358D02*
X169025514Y-81422787D01*
X169025514Y-81422787D02*
X168739800Y-81494215D01*
X168739800Y-81494215D02*
X168382657Y-81494215D01*
X168382657Y-81494215D02*
X168096942Y-81422787D01*
X168096942Y-81422787D02*
X167954085Y-81351358D01*
X167954085Y-81351358D02*
X167882657Y-81279930D01*
X167882657Y-81279930D02*
X167811228Y-81137072D01*
X169311228Y-76851359D02*
X168596942Y-77351359D01*
X169311228Y-77708502D02*
X167811228Y-77708502D01*
X167811228Y-77708502D02*
X167811228Y-77137073D01*
X167811228Y-77137073D02*
X167882657Y-76994216D01*
X167882657Y-76994216D02*
X167954085Y-76922787D01*
X167954085Y-76922787D02*
X168096942Y-76851359D01*
X168096942Y-76851359D02*
X168311228Y-76851359D01*
X168311228Y-76851359D02*
X168454085Y-76922787D01*
X168454085Y-76922787D02*
X168525514Y-76994216D01*
X168525514Y-76994216D02*
X168596942Y-77137073D01*
X168596942Y-77137073D02*
X168596942Y-77708502D01*
X169239800Y-76279930D02*
X169311228Y-76065645D01*
X169311228Y-76065645D02*
X169311228Y-75708502D01*
X169311228Y-75708502D02*
X169239800Y-75565645D01*
X169239800Y-75565645D02*
X169168371Y-75494216D01*
X169168371Y-75494216D02*
X169025514Y-75422787D01*
X169025514Y-75422787D02*
X168882657Y-75422787D01*
X168882657Y-75422787D02*
X168739800Y-75494216D01*
X168739800Y-75494216D02*
X168668371Y-75565645D01*
X168668371Y-75565645D02*
X168596942Y-75708502D01*
X168596942Y-75708502D02*
X168525514Y-75994216D01*
X168525514Y-75994216D02*
X168454085Y-76137073D01*
X168454085Y-76137073D02*
X168382657Y-76208502D01*
X168382657Y-76208502D02*
X168239800Y-76279930D01*
X168239800Y-76279930D02*
X168096942Y-76279930D01*
X168096942Y-76279930D02*
X167954085Y-76208502D01*
X167954085Y-76208502D02*
X167882657Y-76137073D01*
X167882657Y-76137073D02*
X167811228Y-75994216D01*
X167811228Y-75994216D02*
X167811228Y-75637073D01*
X167811228Y-75637073D02*
X167882657Y-75422787D01*
X102568646Y-121411919D02*
X102806741Y-122411919D01*
X102806741Y-122411919D02*
X102997217Y-121697633D01*
X102997217Y-121697633D02*
X103187693Y-122411919D01*
X103187693Y-122411919D02*
X103425789Y-121411919D01*
X104187693Y-122364300D02*
X104092455Y-122411919D01*
X104092455Y-122411919D02*
X103901979Y-122411919D01*
X103901979Y-122411919D02*
X103806741Y-122364300D01*
X103806741Y-122364300D02*
X103759122Y-122269061D01*
X103759122Y-122269061D02*
X103759122Y-121888109D01*
X103759122Y-121888109D02*
X103806741Y-121792871D01*
X103806741Y-121792871D02*
X103901979Y-121745252D01*
X103901979Y-121745252D02*
X104092455Y-121745252D01*
X104092455Y-121745252D02*
X104187693Y-121792871D01*
X104187693Y-121792871D02*
X104235312Y-121888109D01*
X104235312Y-121888109D02*
X104235312Y-121983347D01*
X104235312Y-121983347D02*
X103759122Y-122078585D01*
X104663884Y-122411919D02*
X104663884Y-121411919D01*
X104663884Y-121411919D02*
X104997217Y-122126204D01*
X104997217Y-122126204D02*
X105330550Y-121411919D01*
X105330550Y-121411919D02*
X105330550Y-122411919D01*
X105949598Y-122411919D02*
X105854360Y-122364300D01*
X105854360Y-122364300D02*
X105806741Y-122316680D01*
X105806741Y-122316680D02*
X105759122Y-122221442D01*
X105759122Y-122221442D02*
X105759122Y-121935728D01*
X105759122Y-121935728D02*
X105806741Y-121840490D01*
X105806741Y-121840490D02*
X105854360Y-121792871D01*
X105854360Y-121792871D02*
X105949598Y-121745252D01*
X105949598Y-121745252D02*
X106092455Y-121745252D01*
X106092455Y-121745252D02*
X106187693Y-121792871D01*
X106187693Y-121792871D02*
X106235312Y-121840490D01*
X106235312Y-121840490D02*
X106282931Y-121935728D01*
X106282931Y-121935728D02*
X106282931Y-122221442D01*
X106282931Y-122221442D02*
X106235312Y-122316680D01*
X106235312Y-122316680D02*
X106187693Y-122364300D01*
X106187693Y-122364300D02*
X106092455Y-122411919D01*
X106092455Y-122411919D02*
X105949598Y-122411919D01*
X106663884Y-122364300D02*
X106759122Y-122411919D01*
X106759122Y-122411919D02*
X106949598Y-122411919D01*
X106949598Y-122411919D02*
X107044836Y-122364300D01*
X107044836Y-122364300D02*
X107092455Y-122269061D01*
X107092455Y-122269061D02*
X107092455Y-122221442D01*
X107092455Y-122221442D02*
X107044836Y-122126204D01*
X107044836Y-122126204D02*
X106949598Y-122078585D01*
X106949598Y-122078585D02*
X106806741Y-122078585D01*
X106806741Y-122078585D02*
X106711503Y-122030966D01*
X106711503Y-122030966D02*
X106663884Y-121935728D01*
X106663884Y-121935728D02*
X106663884Y-121888109D01*
X106663884Y-121888109D02*
X106711503Y-121792871D01*
X106711503Y-121792871D02*
X106806741Y-121745252D01*
X106806741Y-121745252D02*
X106949598Y-121745252D01*
X106949598Y-121745252D02*
X107044836Y-121792871D01*
X108282932Y-122411919D02*
X108282932Y-121411919D01*
X108282932Y-121411919D02*
X108521027Y-121411919D01*
X108521027Y-121411919D02*
X108663884Y-121459538D01*
X108663884Y-121459538D02*
X108759122Y-121554776D01*
X108759122Y-121554776D02*
X108806741Y-121650014D01*
X108806741Y-121650014D02*
X108854360Y-121840490D01*
X108854360Y-121840490D02*
X108854360Y-121983347D01*
X108854360Y-121983347D02*
X108806741Y-122173823D01*
X108806741Y-122173823D02*
X108759122Y-122269061D01*
X108759122Y-122269061D02*
X108663884Y-122364300D01*
X108663884Y-122364300D02*
X108521027Y-122411919D01*
X108521027Y-122411919D02*
X108282932Y-122411919D01*
X109806741Y-122411919D02*
X109235313Y-122411919D01*
X109521027Y-122411919D02*
X109521027Y-121411919D01*
X109521027Y-121411919D02*
X109425789Y-121554776D01*
X109425789Y-121554776D02*
X109330551Y-121650014D01*
X109330551Y-121650014D02*
X109235313Y-121697633D01*
X110997218Y-122411919D02*
X110997218Y-121411919D01*
X110997218Y-121411919D02*
X111330551Y-122126204D01*
X111330551Y-122126204D02*
X111663884Y-121411919D01*
X111663884Y-121411919D02*
X111663884Y-122411919D01*
X112140075Y-122411919D02*
X112140075Y-121745252D01*
X112140075Y-121411919D02*
X112092456Y-121459538D01*
X112092456Y-121459538D02*
X112140075Y-121507157D01*
X112140075Y-121507157D02*
X112187694Y-121459538D01*
X112187694Y-121459538D02*
X112140075Y-121411919D01*
X112140075Y-121411919D02*
X112140075Y-121507157D01*
X112616265Y-121745252D02*
X112616265Y-122411919D01*
X112616265Y-121840490D02*
X112663884Y-121792871D01*
X112663884Y-121792871D02*
X112759122Y-121745252D01*
X112759122Y-121745252D02*
X112901979Y-121745252D01*
X112901979Y-121745252D02*
X112997217Y-121792871D01*
X112997217Y-121792871D02*
X113044836Y-121888109D01*
X113044836Y-121888109D02*
X113044836Y-122411919D01*
X113521027Y-122411919D02*
X113521027Y-121745252D01*
X113521027Y-121411919D02*
X113473408Y-121459538D01*
X113473408Y-121459538D02*
X113521027Y-121507157D01*
X113521027Y-121507157D02*
X113568646Y-121459538D01*
X113568646Y-121459538D02*
X113521027Y-121411919D01*
X113521027Y-121411919D02*
X113521027Y-121507157D01*
D11*
G36*
X89232972Y-41970000D02*
G01*
X87535240Y-41970000D01*
X86582937Y-37246099D01*
X86499509Y-36792002D01*
X86425091Y-36347410D01*
X86401709Y-36204159D01*
X86333154Y-35760443D01*
X86272520Y-35310184D01*
X86256385Y-35142435D01*
X86200895Y-35609257D01*
X86132093Y-36076235D01*
X86111060Y-36210753D01*
X86038368Y-36665900D01*
X85963382Y-37101673D01*
X85933251Y-37259288D01*
X84986078Y-41970000D01*
X83293475Y-41970000D01*
X81500000Y-32966231D01*
X82966922Y-32966231D01*
X83864515Y-37876978D01*
X83948423Y-38374403D01*
X84023196Y-38846172D01*
X84088832Y-39292283D01*
X84153861Y-39780319D01*
X84206454Y-40233433D01*
X84253899Y-39786102D01*
X84313605Y-39325101D01*
X84338101Y-39147529D01*
X84408186Y-38680481D01*
X84486845Y-38229649D01*
X84533007Y-38006671D01*
X85558827Y-32966231D01*
X86967620Y-32966231D01*
X87991730Y-38006671D01*
X88072226Y-38466852D01*
X88140668Y-38912705D01*
X88159281Y-39039818D01*
X88222974Y-39494256D01*
X88279554Y-39937277D01*
X88313154Y-40233433D01*
X88366168Y-39768688D01*
X88429320Y-39298002D01*
X88467027Y-39037620D01*
X88537680Y-38576168D01*
X88615450Y-38115206D01*
X88660223Y-37876978D01*
X89554396Y-32966231D01*
X91021318Y-32966231D01*
X89232972Y-41970000D01*
G37*
G36*
X94302101Y-34956252D02*
G01*
X94681814Y-35034769D01*
X95026065Y-35172173D01*
X95334853Y-35368464D01*
X95650284Y-35671897D01*
X95731542Y-35773314D01*
X95979361Y-36170228D01*
X96143332Y-36558998D01*
X96262584Y-36992590D01*
X96337116Y-37471005D01*
X96366929Y-37994242D01*
X96367550Y-38085806D01*
X96367550Y-39004647D01*
X92900279Y-39004647D01*
X92946628Y-39471762D01*
X93070120Y-39906247D01*
X93269574Y-40257613D01*
X93568825Y-40532214D01*
X93911569Y-40672596D01*
X94240683Y-40708241D01*
X94597396Y-40690003D01*
X94939203Y-40635289D01*
X95158792Y-40578548D01*
X95488738Y-40459640D01*
X95829743Y-40297455D01*
X96063224Y-40165289D01*
X96063224Y-41622686D01*
X95741922Y-41802042D01*
X95403126Y-41940041D01*
X95240858Y-41989783D01*
X94885668Y-42063457D01*
X94512766Y-42101120D01*
X94174005Y-42110683D01*
X93782302Y-42088197D01*
X93418231Y-42020738D01*
X93081792Y-41908306D01*
X92714541Y-41714025D01*
X92387080Y-41454982D01*
X92144591Y-41189644D01*
X91896491Y-40816459D01*
X91699722Y-40389332D01*
X91554284Y-39908265D01*
X91472297Y-39466169D01*
X91425956Y-38986615D01*
X91414549Y-38576001D01*
X91431037Y-38051903D01*
X91461844Y-37749483D01*
X92934473Y-37749483D01*
X94991242Y-37749483D01*
X94953077Y-37302554D01*
X94827752Y-36872819D01*
X94707431Y-36661381D01*
X94431095Y-36398415D01*
X94080800Y-36282709D01*
X93967131Y-36276699D01*
X93622301Y-36340186D01*
X93306466Y-36571221D01*
X93237090Y-36661381D01*
X93048735Y-37057905D01*
X92956572Y-37496237D01*
X92934473Y-37749483D01*
X91461844Y-37749483D01*
X91480500Y-37566338D01*
X91562938Y-37119306D01*
X91705390Y-36633730D01*
X91895327Y-36203641D01*
X92089881Y-35887620D01*
X92361342Y-35564152D01*
X92669229Y-35307608D01*
X93013540Y-35117989D01*
X93394275Y-34995294D01*
X93739379Y-34944171D01*
X93958583Y-34935806D01*
X94302101Y-34956252D01*
G37*
G36*
X100617864Y-41970000D02*
G01*
X98925261Y-34907229D01*
X98882519Y-34907229D01*
X98904157Y-35423391D01*
X98922910Y-35894764D01*
X98942295Y-36420998D01*
X98957171Y-36877250D01*
X98969072Y-37332377D01*
X98974842Y-37782456D01*
X98974842Y-41970000D01*
X97642986Y-41970000D01*
X97642986Y-32966231D01*
X99670690Y-32966231D01*
X101335938Y-39850949D01*
X101365003Y-39850949D01*
X103129413Y-32966231D01*
X105157117Y-32966231D01*
X105157117Y-41970000D01*
X103768841Y-41970000D01*
X103768841Y-37709916D01*
X103772073Y-37252195D01*
X103775680Y-37015289D01*
X103788022Y-36535226D01*
X103801883Y-36085884D01*
X103817671Y-35601441D01*
X103833583Y-35127726D01*
X103840648Y-34920418D01*
X103797906Y-34920418D01*
X101983914Y-41970000D01*
X100617864Y-41970000D01*
G37*
G36*
X109436176Y-34962871D02*
G01*
X109789122Y-35044066D01*
X110119201Y-35179392D01*
X110426413Y-35368848D01*
X110737389Y-35642342D01*
X111004819Y-35975650D01*
X111228701Y-36368774D01*
X111334263Y-36613021D01*
X111473390Y-37036034D01*
X111572766Y-37493944D01*
X111632392Y-37986750D01*
X111651957Y-38446581D01*
X111652267Y-38514452D01*
X111635362Y-39024725D01*
X111584648Y-39499041D01*
X111500123Y-39937401D01*
X111354063Y-40415970D01*
X111159318Y-40842762D01*
X110959839Y-41158869D01*
X110681064Y-41482337D01*
X110364062Y-41738881D01*
X110008832Y-41928500D01*
X109615374Y-42051195D01*
X109258290Y-42102318D01*
X109031297Y-42110683D01*
X108655484Y-42083481D01*
X108302538Y-42001873D01*
X107972459Y-41865860D01*
X107665247Y-41675443D01*
X107354135Y-41399302D01*
X107086300Y-41062999D01*
X106861742Y-40666533D01*
X106755687Y-40420279D01*
X106617308Y-39994518D01*
X106518466Y-39534959D01*
X106459161Y-39041604D01*
X106439701Y-38582194D01*
X106439392Y-38514452D01*
X107933670Y-38514452D01*
X107950019Y-38997503D01*
X108007496Y-39466051D01*
X108119896Y-39893667D01*
X108195254Y-40070767D01*
X108438886Y-40390912D01*
X108774842Y-40563298D01*
X109050104Y-40596133D01*
X109414282Y-40534314D01*
X109722629Y-40325864D01*
X109892986Y-40072965D01*
X110039969Y-39652766D01*
X110114847Y-39218936D01*
X110147117Y-38765285D01*
X110151151Y-38514452D01*
X110134909Y-38032225D01*
X110077807Y-37566574D01*
X109966143Y-37144626D01*
X109891277Y-36971325D01*
X109649728Y-36657878D01*
X109314894Y-36489098D01*
X109039846Y-36456950D01*
X108675264Y-36517471D01*
X108365555Y-36721542D01*
X108193545Y-36969127D01*
X108045589Y-37381817D01*
X107970215Y-37811822D01*
X107937731Y-38263824D01*
X107933670Y-38514452D01*
X106439392Y-38514452D01*
X106456172Y-38002601D01*
X106506511Y-37527672D01*
X106590410Y-37089667D01*
X106735388Y-36612798D01*
X106928690Y-36189098D01*
X107126692Y-35876629D01*
X107404084Y-35556896D01*
X107720786Y-35303315D01*
X108076797Y-35115885D01*
X108472119Y-34994607D01*
X108831581Y-34944074D01*
X109060362Y-34935806D01*
X109436176Y-34962871D01*
G37*
G36*
X116583042Y-39932281D02*
G01*
X116555553Y-40373554D01*
X116456818Y-40818618D01*
X116286276Y-41200484D01*
X116043926Y-41519152D01*
X116008583Y-41554542D01*
X115685663Y-41797854D01*
X115344555Y-41953726D01*
X115008679Y-42044968D01*
X114632652Y-42097106D01*
X114288625Y-42110683D01*
X113938971Y-42100594D01*
X113593306Y-42066189D01*
X113288450Y-42007369D01*
X112936566Y-41900379D01*
X112604971Y-41756363D01*
X112513956Y-41708415D01*
X112513956Y-40152100D01*
X112834846Y-40325619D01*
X113184586Y-40476882D01*
X113433775Y-40565359D01*
X113771855Y-40660473D01*
X114133897Y-40721980D01*
X114336496Y-40732421D01*
X114685809Y-40695189D01*
X115003154Y-40522411D01*
X115134926Y-40136713D01*
X115028925Y-39776210D01*
X114740503Y-39513767D01*
X114663049Y-39459672D01*
X114339532Y-39254360D01*
X114025718Y-39075590D01*
X113972330Y-39046413D01*
X113649332Y-38862467D01*
X113325449Y-38648507D01*
X113061060Y-38428722D01*
X112809734Y-38122625D01*
X112637055Y-37775861D01*
X112534334Y-37335715D01*
X112505408Y-36868011D01*
X112549361Y-36381900D01*
X112681220Y-35962212D01*
X112900985Y-35608946D01*
X113061060Y-35441388D01*
X113367844Y-35220196D01*
X113732545Y-35062201D01*
X114099167Y-34975798D01*
X114448707Y-34940249D01*
X114635694Y-34935806D01*
X114997997Y-34954971D01*
X115356573Y-35012467D01*
X115711422Y-35108294D01*
X116062545Y-35242452D01*
X116409942Y-35414941D01*
X116524912Y-35480956D01*
X116082100Y-36841632D01*
X115762730Y-36674304D01*
X115437727Y-36523316D01*
X115326413Y-36476734D01*
X114972505Y-36369572D01*
X114611758Y-36333852D01*
X114269150Y-36378073D01*
X113984913Y-36632788D01*
X113962072Y-36786678D01*
X114121769Y-37178573D01*
X114170655Y-37226315D01*
X114476749Y-37440606D01*
X114801859Y-37626936D01*
X115087055Y-37778060D01*
X115415147Y-37958991D01*
X115743419Y-38171157D01*
X116010293Y-38391353D01*
X116265465Y-38696901D01*
X116442847Y-39046413D01*
X116552237Y-39481449D01*
X116583042Y-39932281D01*
G37*
G36*
X122986696Y-32984435D02*
G01*
X123380702Y-33039046D01*
X123750719Y-33130065D01*
X124096746Y-33257491D01*
X124418784Y-33421324D01*
X124787597Y-33677314D01*
X125118926Y-33990191D01*
X125240963Y-34131270D01*
X125515308Y-34517251D01*
X125743153Y-34948419D01*
X125924500Y-35424775D01*
X126059348Y-35946318D01*
X126133746Y-36396088D01*
X126178386Y-36874777D01*
X126193265Y-37382386D01*
X126177825Y-37921732D01*
X126131502Y-38428585D01*
X126054299Y-38902947D01*
X125946214Y-39344816D01*
X125807247Y-39754194D01*
X125590112Y-40220224D01*
X125324724Y-40635486D01*
X125205059Y-40787376D01*
X124874831Y-41128073D01*
X124579815Y-41359054D01*
X124257389Y-41553078D01*
X123907555Y-41710146D01*
X123530313Y-41830256D01*
X123125661Y-41913409D01*
X122693601Y-41959605D01*
X122351570Y-41970000D01*
X120361479Y-41970000D01*
X120361479Y-40387306D01*
X121850628Y-40387306D01*
X122490055Y-40387306D01*
X122875038Y-40361320D01*
X123222154Y-40283364D01*
X123626071Y-40098579D01*
X123962668Y-39821402D01*
X124231946Y-39451832D01*
X124433904Y-38989869D01*
X124568543Y-38435515D01*
X124625344Y-37959116D01*
X124644277Y-37430746D01*
X124626696Y-36913376D01*
X124573952Y-36446895D01*
X124448931Y-35904081D01*
X124261398Y-35451735D01*
X124011354Y-35089859D01*
X123698800Y-34818452D01*
X123323734Y-34637513D01*
X122886158Y-34547044D01*
X122643928Y-34535736D01*
X121850628Y-34535736D01*
X121850628Y-40387306D01*
X120361479Y-40387306D01*
X120361479Y-32966231D01*
X122568702Y-32966231D01*
X122986696Y-32984435D01*
G37*
G36*
X130792358Y-41970000D02*
G01*
X129306629Y-41970000D01*
X129306629Y-36764696D01*
X129322016Y-35909602D01*
X129345952Y-34975373D01*
X129099675Y-35284081D01*
X128840530Y-35585739D01*
X128831332Y-35595261D01*
X128022644Y-36426175D01*
X127306280Y-35276524D01*
X129571632Y-32966231D01*
X130792358Y-32966231D01*
X130792358Y-41970000D01*
G37*
G36*
X138723656Y-41970000D02*
G01*
X137031053Y-34907229D01*
X136988311Y-34907229D01*
X137009949Y-35423391D01*
X137028702Y-35894764D01*
X137048087Y-36420998D01*
X137062963Y-36877250D01*
X137074864Y-37332377D01*
X137080635Y-37782456D01*
X137080635Y-41970000D01*
X135748778Y-41970000D01*
X135748778Y-32966231D01*
X137776482Y-32966231D01*
X139441730Y-39850949D01*
X139470795Y-39850949D01*
X141235205Y-32966231D01*
X143262909Y-32966231D01*
X143262909Y-41970000D01*
X141874633Y-41970000D01*
X141874633Y-37709916D01*
X141877866Y-37252195D01*
X141881472Y-37015289D01*
X141893814Y-36535226D01*
X141907675Y-36085884D01*
X141923463Y-35601441D01*
X141939375Y-35127726D01*
X141946441Y-34920418D01*
X141903698Y-34920418D01*
X140089706Y-41970000D01*
X138723656Y-41970000D01*
G37*
G36*
X147461879Y-34957057D02*
G01*
X147814344Y-35020813D01*
X148180581Y-35148916D01*
X148498385Y-35334871D01*
X148732240Y-35540307D01*
X148985061Y-35881850D01*
X149165648Y-36301978D01*
X149264407Y-36734054D01*
X149307861Y-37226298D01*
X149310118Y-37377990D01*
X149310118Y-41970000D01*
X148286008Y-41970000D01*
X148002198Y-41046762D01*
X147962875Y-41046762D01*
X147729728Y-41385978D01*
X147467866Y-41676303D01*
X147200348Y-41879874D01*
X146873288Y-42020523D01*
X146514767Y-42092426D01*
X146179658Y-42110683D01*
X145813034Y-42075650D01*
X145449885Y-41952485D01*
X145138938Y-41740641D01*
X144960642Y-41550146D01*
X144745760Y-41197286D01*
X144601204Y-40769309D01*
X144531747Y-40325825D01*
X144516397Y-39960858D01*
X146020655Y-39960858D01*
X146104698Y-40400136D01*
X146388081Y-40671389D01*
X146731891Y-40732421D01*
X147086199Y-40681107D01*
X147404375Y-40509704D01*
X147547418Y-40367522D01*
X147756622Y-40002795D01*
X147848672Y-39547187D01*
X147853454Y-39400321D01*
X147853454Y-38850774D01*
X147285833Y-38874954D01*
X146918081Y-38913465D01*
X146560967Y-39021451D01*
X146333531Y-39162916D01*
X146098874Y-39493194D01*
X146020961Y-39927604D01*
X146020655Y-39960858D01*
X144516397Y-39960858D01*
X144516120Y-39954263D01*
X144544754Y-39507385D01*
X144647603Y-39063386D01*
X144852717Y-38648953D01*
X145114515Y-38356182D01*
X145451753Y-38127708D01*
X145809247Y-37974902D01*
X146162033Y-37878921D01*
X146557615Y-37815242D01*
X146919958Y-37786852D01*
X147853454Y-37749483D01*
X147853454Y-37432944D01*
X147801094Y-36952091D01*
X147617018Y-36575351D01*
X147300406Y-36372492D01*
X147015701Y-36333852D01*
X146635286Y-36373322D01*
X146267166Y-36474679D01*
X145921920Y-36614532D01*
X145555076Y-36802140D01*
X145500907Y-36832840D01*
X145015352Y-35560090D01*
X145370582Y-35347931D01*
X145739998Y-35179667D01*
X146123598Y-35055297D01*
X146521384Y-34974823D01*
X146863708Y-34941292D01*
X147073831Y-34935806D01*
X147461879Y-34957057D01*
G37*
G36*
X151888346Y-38448506D02*
G01*
X150158129Y-35076489D01*
X151821667Y-35076489D01*
X152864584Y-37268080D01*
X153917759Y-35076489D01*
X155581297Y-35076489D01*
X153830565Y-38448506D01*
X155663363Y-41970000D01*
X153994696Y-41970000D01*
X152864584Y-39611346D01*
X151729344Y-41970000D01*
X150065806Y-41970000D01*
X151888346Y-38448506D01*
G37*
D10*
X124708646Y-94906816D02*
X125565789Y-94906816D01*
X125137217Y-96406816D02*
X125137217Y-94906816D01*
X125922931Y-94906816D02*
X126922931Y-96406816D01*
X126922931Y-94906816D02*
X125922931Y-96406816D01*
X125780074Y-98821732D02*
X125280074Y-98107446D01*
X124922931Y-98821732D02*
X124922931Y-97321732D01*
X124922931Y-97321732D02*
X125494360Y-97321732D01*
X125494360Y-97321732D02*
X125637217Y-97393161D01*
X125637217Y-97393161D02*
X125708646Y-97464589D01*
X125708646Y-97464589D02*
X125780074Y-97607446D01*
X125780074Y-97607446D02*
X125780074Y-97821732D01*
X125780074Y-97821732D02*
X125708646Y-97964589D01*
X125708646Y-97964589D02*
X125637217Y-98036018D01*
X125637217Y-98036018D02*
X125494360Y-98107446D01*
X125494360Y-98107446D02*
X124922931Y-98107446D01*
X126280074Y-97321732D02*
X127280074Y-98821732D01*
X127280074Y-97321732D02*
X126280074Y-98821732D01*
X124922931Y-101236648D02*
X124922931Y-99736648D01*
X124922931Y-99736648D02*
X125280074Y-99736648D01*
X125280074Y-99736648D02*
X125494360Y-99808077D01*
X125494360Y-99808077D02*
X125637217Y-99950934D01*
X125637217Y-99950934D02*
X125708646Y-100093791D01*
X125708646Y-100093791D02*
X125780074Y-100379505D01*
X125780074Y-100379505D02*
X125780074Y-100593791D01*
X125780074Y-100593791D02*
X125708646Y-100879505D01*
X125708646Y-100879505D02*
X125637217Y-101022362D01*
X125637217Y-101022362D02*
X125494360Y-101165220D01*
X125494360Y-101165220D02*
X125280074Y-101236648D01*
X125280074Y-101236648D02*
X124922931Y-101236648D01*
X127208646Y-101236648D02*
X126351503Y-101236648D01*
X126780074Y-101236648D02*
X126780074Y-99736648D01*
X126780074Y-99736648D02*
X126637217Y-99950934D01*
X126637217Y-99950934D02*
X126494360Y-100093791D01*
X126494360Y-100093791D02*
X126351503Y-100165220D01*
X124922931Y-103651564D02*
X124922931Y-102151564D01*
X124922931Y-102151564D02*
X125280074Y-102151564D01*
X125280074Y-102151564D02*
X125494360Y-102222993D01*
X125494360Y-102222993D02*
X125637217Y-102365850D01*
X125637217Y-102365850D02*
X125708646Y-102508707D01*
X125708646Y-102508707D02*
X125780074Y-102794421D01*
X125780074Y-102794421D02*
X125780074Y-103008707D01*
X125780074Y-103008707D02*
X125708646Y-103294421D01*
X125708646Y-103294421D02*
X125637217Y-103437278D01*
X125637217Y-103437278D02*
X125494360Y-103580136D01*
X125494360Y-103580136D02*
X125280074Y-103651564D01*
X125280074Y-103651564D02*
X124922931Y-103651564D01*
X126351503Y-102294421D02*
X126422931Y-102222993D01*
X126422931Y-102222993D02*
X126565789Y-102151564D01*
X126565789Y-102151564D02*
X126922931Y-102151564D01*
X126922931Y-102151564D02*
X127065789Y-102222993D01*
X127065789Y-102222993D02*
X127137217Y-102294421D01*
X127137217Y-102294421D02*
X127208646Y-102437278D01*
X127208646Y-102437278D02*
X127208646Y-102580136D01*
X127208646Y-102580136D02*
X127137217Y-102794421D01*
X127137217Y-102794421D02*
X126280074Y-103651564D01*
X126280074Y-103651564D02*
X127208646Y-103651564D01*
X124922931Y-106066480D02*
X124922931Y-104566480D01*
X124922931Y-104566480D02*
X125280074Y-104566480D01*
X125280074Y-104566480D02*
X125494360Y-104637909D01*
X125494360Y-104637909D02*
X125637217Y-104780766D01*
X125637217Y-104780766D02*
X125708646Y-104923623D01*
X125708646Y-104923623D02*
X125780074Y-105209337D01*
X125780074Y-105209337D02*
X125780074Y-105423623D01*
X125780074Y-105423623D02*
X125708646Y-105709337D01*
X125708646Y-105709337D02*
X125637217Y-105852194D01*
X125637217Y-105852194D02*
X125494360Y-105995052D01*
X125494360Y-105995052D02*
X125280074Y-106066480D01*
X125280074Y-106066480D02*
X124922931Y-106066480D01*
X126280074Y-104566480D02*
X127208646Y-104566480D01*
X127208646Y-104566480D02*
X126708646Y-105137909D01*
X126708646Y-105137909D02*
X126922931Y-105137909D01*
X126922931Y-105137909D02*
X127065789Y-105209337D01*
X127065789Y-105209337D02*
X127137217Y-105280766D01*
X127137217Y-105280766D02*
X127208646Y-105423623D01*
X127208646Y-105423623D02*
X127208646Y-105780766D01*
X127208646Y-105780766D02*
X127137217Y-105923623D01*
X127137217Y-105923623D02*
X127065789Y-105995052D01*
X127065789Y-105995052D02*
X126922931Y-106066480D01*
X126922931Y-106066480D02*
X126494360Y-106066480D01*
X126494360Y-106066480D02*
X126351503Y-105995052D01*
X126351503Y-105995052D02*
X126280074Y-105923623D01*
X124922931Y-108481396D02*
X124922931Y-106981396D01*
X124922931Y-106981396D02*
X125280074Y-106981396D01*
X125280074Y-106981396D02*
X125494360Y-107052825D01*
X125494360Y-107052825D02*
X125637217Y-107195682D01*
X125637217Y-107195682D02*
X125708646Y-107338539D01*
X125708646Y-107338539D02*
X125780074Y-107624253D01*
X125780074Y-107624253D02*
X125780074Y-107838539D01*
X125780074Y-107838539D02*
X125708646Y-108124253D01*
X125708646Y-108124253D02*
X125637217Y-108267110D01*
X125637217Y-108267110D02*
X125494360Y-108409968D01*
X125494360Y-108409968D02*
X125280074Y-108481396D01*
X125280074Y-108481396D02*
X124922931Y-108481396D01*
X127065789Y-107481396D02*
X127065789Y-108481396D01*
X126708646Y-106909968D02*
X126351503Y-107981396D01*
X126351503Y-107981396D02*
X127280074Y-107981396D01*
X125708646Y-109467741D02*
X125565789Y-109396312D01*
X125565789Y-109396312D02*
X125351503Y-109396312D01*
X125351503Y-109396312D02*
X125137217Y-109467741D01*
X125137217Y-109467741D02*
X124994360Y-109610598D01*
X124994360Y-109610598D02*
X124922931Y-109753455D01*
X124922931Y-109753455D02*
X124851503Y-110039169D01*
X124851503Y-110039169D02*
X124851503Y-110253455D01*
X124851503Y-110253455D02*
X124922931Y-110539169D01*
X124922931Y-110539169D02*
X124994360Y-110682026D01*
X124994360Y-110682026D02*
X125137217Y-110824884D01*
X125137217Y-110824884D02*
X125351503Y-110896312D01*
X125351503Y-110896312D02*
X125494360Y-110896312D01*
X125494360Y-110896312D02*
X125708646Y-110824884D01*
X125708646Y-110824884D02*
X125780074Y-110753455D01*
X125780074Y-110753455D02*
X125780074Y-110253455D01*
X125780074Y-110253455D02*
X125494360Y-110253455D01*
X125637217Y-111811228D02*
X124922931Y-111811228D01*
X124922931Y-111811228D02*
X124851503Y-112525514D01*
X124851503Y-112525514D02*
X124922931Y-112454085D01*
X124922931Y-112454085D02*
X125065789Y-112382657D01*
X125065789Y-112382657D02*
X125422931Y-112382657D01*
X125422931Y-112382657D02*
X125565789Y-112454085D01*
X125565789Y-112454085D02*
X125637217Y-112525514D01*
X125637217Y-112525514D02*
X125708646Y-112668371D01*
X125708646Y-112668371D02*
X125708646Y-113025514D01*
X125708646Y-113025514D02*
X125637217Y-113168371D01*
X125637217Y-113168371D02*
X125565789Y-113239800D01*
X125565789Y-113239800D02*
X125422931Y-113311228D01*
X125422931Y-113311228D02*
X125065789Y-113311228D01*
X125065789Y-113311228D02*
X124922931Y-113239800D01*
X124922931Y-113239800D02*
X124851503Y-113168371D01*
X126208645Y-112311228D02*
X126565788Y-113311228D01*
X126565788Y-113311228D02*
X126922931Y-112311228D01*
X167811228Y-71862782D02*
X167811228Y-72577068D01*
X167811228Y-72577068D02*
X168525514Y-72648496D01*
X168525514Y-72648496D02*
X168454085Y-72577068D01*
X168454085Y-72577068D02*
X168382657Y-72434211D01*
X168382657Y-72434211D02*
X168382657Y-72077068D01*
X168382657Y-72077068D02*
X168454085Y-71934211D01*
X168454085Y-71934211D02*
X168525514Y-71862782D01*
X168525514Y-71862782D02*
X168668371Y-71791353D01*
X168668371Y-71791353D02*
X169025514Y-71791353D01*
X169025514Y-71791353D02*
X169168371Y-71862782D01*
X169168371Y-71862782D02*
X169239800Y-71934211D01*
X169239800Y-71934211D02*
X169311228Y-72077068D01*
X169311228Y-72077068D02*
X169311228Y-72434211D01*
X169311228Y-72434211D02*
X169239800Y-72577068D01*
X169239800Y-72577068D02*
X169168371Y-72648496D01*
X168311228Y-71291354D02*
X169311228Y-70934211D01*
X169311228Y-70934211D02*
X168311228Y-70577068D01*
X167882657Y-66934211D02*
X167811228Y-67077069D01*
X167811228Y-67077069D02*
X167811228Y-67291354D01*
X167811228Y-67291354D02*
X167882657Y-67505640D01*
X167882657Y-67505640D02*
X168025514Y-67648497D01*
X168025514Y-67648497D02*
X168168371Y-67719926D01*
X168168371Y-67719926D02*
X168454085Y-67791354D01*
X168454085Y-67791354D02*
X168668371Y-67791354D01*
X168668371Y-67791354D02*
X168954085Y-67719926D01*
X168954085Y-67719926D02*
X169096942Y-67648497D01*
X169096942Y-67648497D02*
X169239800Y-67505640D01*
X169239800Y-67505640D02*
X169311228Y-67291354D01*
X169311228Y-67291354D02*
X169311228Y-67148497D01*
X169311228Y-67148497D02*
X169239800Y-66934211D01*
X169239800Y-66934211D02*
X169168371Y-66862783D01*
X169168371Y-66862783D02*
X168668371Y-66862783D01*
X168668371Y-66862783D02*
X168668371Y-67148497D01*
X169311228Y-63934212D02*
X167811228Y-63934212D01*
X167811228Y-63934212D02*
X167811228Y-63577069D01*
X167811228Y-63577069D02*
X167882657Y-63362783D01*
X167882657Y-63362783D02*
X168025514Y-63219926D01*
X168025514Y-63219926D02*
X168168371Y-63148497D01*
X168168371Y-63148497D02*
X168454085Y-63077069D01*
X168454085Y-63077069D02*
X168668371Y-63077069D01*
X168668371Y-63077069D02*
X168954085Y-63148497D01*
X168954085Y-63148497D02*
X169096942Y-63219926D01*
X169096942Y-63219926D02*
X169239800Y-63362783D01*
X169239800Y-63362783D02*
X169311228Y-63577069D01*
X169311228Y-63577069D02*
X169311228Y-63934212D01*
X168311228Y-61791355D02*
X169311228Y-61791355D01*
X167739800Y-62148497D02*
X168811228Y-62505640D01*
X168811228Y-62505640D02*
X168811228Y-61577069D01*
X169311228Y-58719927D02*
X167811228Y-58719927D01*
X167811228Y-58719927D02*
X167811228Y-58362784D01*
X167811228Y-58362784D02*
X167882657Y-58148498D01*
X167882657Y-58148498D02*
X168025514Y-58005641D01*
X168025514Y-58005641D02*
X168168371Y-57934212D01*
X168168371Y-57934212D02*
X168454085Y-57862784D01*
X168454085Y-57862784D02*
X168668371Y-57862784D01*
X168668371Y-57862784D02*
X168954085Y-57934212D01*
X168954085Y-57934212D02*
X169096942Y-58005641D01*
X169096942Y-58005641D02*
X169239800Y-58148498D01*
X169239800Y-58148498D02*
X169311228Y-58362784D01*
X169311228Y-58362784D02*
X169311228Y-58719927D01*
X167811228Y-57362784D02*
X167811228Y-56434212D01*
X167811228Y-56434212D02*
X168382657Y-56934212D01*
X168382657Y-56934212D02*
X168382657Y-56719927D01*
X168382657Y-56719927D02*
X168454085Y-56577070D01*
X168454085Y-56577070D02*
X168525514Y-56505641D01*
X168525514Y-56505641D02*
X168668371Y-56434212D01*
X168668371Y-56434212D02*
X169025514Y-56434212D01*
X169025514Y-56434212D02*
X169168371Y-56505641D01*
X169168371Y-56505641D02*
X169239800Y-56577070D01*
X169239800Y-56577070D02*
X169311228Y-56719927D01*
X169311228Y-56719927D02*
X169311228Y-57148498D01*
X169311228Y-57148498D02*
X169239800Y-57291355D01*
X169239800Y-57291355D02*
X169168371Y-57362784D01*
X169311228Y-53505642D02*
X167811228Y-53505642D01*
X167811228Y-53505642D02*
X167811228Y-53148499D01*
X167811228Y-53148499D02*
X167882657Y-52934213D01*
X167882657Y-52934213D02*
X168025514Y-52791356D01*
X168025514Y-52791356D02*
X168168371Y-52719927D01*
X168168371Y-52719927D02*
X168454085Y-52648499D01*
X168454085Y-52648499D02*
X168668371Y-52648499D01*
X168668371Y-52648499D02*
X168954085Y-52719927D01*
X168954085Y-52719927D02*
X169096942Y-52791356D01*
X169096942Y-52791356D02*
X169239800Y-52934213D01*
X169239800Y-52934213D02*
X169311228Y-53148499D01*
X169311228Y-53148499D02*
X169311228Y-53505642D01*
X167954085Y-52077070D02*
X167882657Y-52005642D01*
X167882657Y-52005642D02*
X167811228Y-51862785D01*
X167811228Y-51862785D02*
X167811228Y-51505642D01*
X167811228Y-51505642D02*
X167882657Y-51362785D01*
X167882657Y-51362785D02*
X167954085Y-51291356D01*
X167954085Y-51291356D02*
X168096942Y-51219927D01*
X168096942Y-51219927D02*
X168239800Y-51219927D01*
X168239800Y-51219927D02*
X168454085Y-51291356D01*
X168454085Y-51291356D02*
X169311228Y-52148499D01*
X169311228Y-52148499D02*
X169311228Y-51219927D01*
X169311228Y-48291357D02*
X167811228Y-48291357D01*
X167811228Y-48291357D02*
X167811228Y-47934214D01*
X167811228Y-47934214D02*
X167882657Y-47719928D01*
X167882657Y-47719928D02*
X168025514Y-47577071D01*
X168025514Y-47577071D02*
X168168371Y-47505642D01*
X168168371Y-47505642D02*
X168454085Y-47434214D01*
X168454085Y-47434214D02*
X168668371Y-47434214D01*
X168668371Y-47434214D02*
X168954085Y-47505642D01*
X168954085Y-47505642D02*
X169096942Y-47577071D01*
X169096942Y-47577071D02*
X169239800Y-47719928D01*
X169239800Y-47719928D02*
X169311228Y-47934214D01*
X169311228Y-47934214D02*
X169311228Y-48291357D01*
X169311228Y-46005642D02*
X169311228Y-46862785D01*
X169311228Y-46434214D02*
X167811228Y-46434214D01*
X167811228Y-46434214D02*
X168025514Y-46577071D01*
X168025514Y-46577071D02*
X168168371Y-46719928D01*
X168168371Y-46719928D02*
X168239800Y-46862785D01*
X169311228Y-42219929D02*
X168596942Y-42719929D01*
X169311228Y-43077072D02*
X167811228Y-43077072D01*
X167811228Y-43077072D02*
X167811228Y-42505643D01*
X167811228Y-42505643D02*
X167882657Y-42362786D01*
X167882657Y-42362786D02*
X167954085Y-42291357D01*
X167954085Y-42291357D02*
X168096942Y-42219929D01*
X168096942Y-42219929D02*
X168311228Y-42219929D01*
X168311228Y-42219929D02*
X168454085Y-42291357D01*
X168454085Y-42291357D02*
X168525514Y-42362786D01*
X168525514Y-42362786D02*
X168596942Y-42505643D01*
X168596942Y-42505643D02*
X168596942Y-43077072D01*
X167811228Y-41719929D02*
X169311228Y-40719929D01*
X167811228Y-40719929D02*
X169311228Y-41719929D01*
X167811228Y-38077072D02*
X167811228Y-37219930D01*
X169311228Y-37648501D02*
X167811228Y-37648501D01*
X167811228Y-36862787D02*
X169311228Y-35862787D01*
X167811228Y-35862787D02*
X169311228Y-36862787D01*
X82077068Y-95406816D02*
X81577068Y-94692530D01*
X81219925Y-95406816D02*
X81219925Y-93906816D01*
X81219925Y-93906816D02*
X81791354Y-93906816D01*
X81791354Y-93906816D02*
X81934211Y-93978245D01*
X81934211Y-93978245D02*
X82005640Y-94049673D01*
X82005640Y-94049673D02*
X82077068Y-94192530D01*
X82077068Y-94192530D02*
X82077068Y-94406816D01*
X82077068Y-94406816D02*
X82005640Y-94549673D01*
X82005640Y-94549673D02*
X81934211Y-94621102D01*
X81934211Y-94621102D02*
X81791354Y-94692530D01*
X81791354Y-94692530D02*
X81219925Y-94692530D01*
X82648497Y-95335388D02*
X82862783Y-95406816D01*
X82862783Y-95406816D02*
X83219925Y-95406816D01*
X83219925Y-95406816D02*
X83362783Y-95335388D01*
X83362783Y-95335388D02*
X83434211Y-95263959D01*
X83434211Y-95263959D02*
X83505640Y-95121102D01*
X83505640Y-95121102D02*
X83505640Y-94978245D01*
X83505640Y-94978245D02*
X83434211Y-94835388D01*
X83434211Y-94835388D02*
X83362783Y-94763959D01*
X83362783Y-94763959D02*
X83219925Y-94692530D01*
X83219925Y-94692530D02*
X82934211Y-94621102D01*
X82934211Y-94621102D02*
X82791354Y-94549673D01*
X82791354Y-94549673D02*
X82719925Y-94478245D01*
X82719925Y-94478245D02*
X82648497Y-94335388D01*
X82648497Y-94335388D02*
X82648497Y-94192530D01*
X82648497Y-94192530D02*
X82719925Y-94049673D01*
X82719925Y-94049673D02*
X82791354Y-93978245D01*
X82791354Y-93978245D02*
X82934211Y-93906816D01*
X82934211Y-93906816D02*
X83291354Y-93906816D01*
X83291354Y-93906816D02*
X83505640Y-93978245D01*
X83934211Y-93906816D02*
X84791354Y-93906816D01*
X84362782Y-95406816D02*
X84362782Y-93906816D01*
X82505640Y-97393161D02*
X83219926Y-97393161D01*
X82362783Y-97821732D02*
X82862783Y-96321732D01*
X82862783Y-96321732D02*
X83362783Y-97821732D01*
X84148497Y-96321732D02*
X84291354Y-96321732D01*
X84291354Y-96321732D02*
X84434211Y-96393161D01*
X84434211Y-96393161D02*
X84505640Y-96464589D01*
X84505640Y-96464589D02*
X84577068Y-96607446D01*
X84577068Y-96607446D02*
X84648497Y-96893161D01*
X84648497Y-96893161D02*
X84648497Y-97250304D01*
X84648497Y-97250304D02*
X84577068Y-97536018D01*
X84577068Y-97536018D02*
X84505640Y-97678875D01*
X84505640Y-97678875D02*
X84434211Y-97750304D01*
X84434211Y-97750304D02*
X84291354Y-97821732D01*
X84291354Y-97821732D02*
X84148497Y-97821732D01*
X84148497Y-97821732D02*
X84005640Y-97750304D01*
X84005640Y-97750304D02*
X83934211Y-97678875D01*
X83934211Y-97678875D02*
X83862782Y-97536018D01*
X83862782Y-97536018D02*
X83791354Y-97250304D01*
X83791354Y-97250304D02*
X83791354Y-96893161D01*
X83791354Y-96893161D02*
X83862782Y-96607446D01*
X83862782Y-96607446D02*
X83934211Y-96464589D01*
X83934211Y-96464589D02*
X84005640Y-96393161D01*
X84005640Y-96393161D02*
X84148497Y-96321732D01*
X82362782Y-100236648D02*
X82362782Y-98736648D01*
X82362782Y-98736648D02*
X82719925Y-98736648D01*
X82719925Y-98736648D02*
X82934211Y-98808077D01*
X82934211Y-98808077D02*
X83077068Y-98950934D01*
X83077068Y-98950934D02*
X83148497Y-99093791D01*
X83148497Y-99093791D02*
X83219925Y-99379505D01*
X83219925Y-99379505D02*
X83219925Y-99593791D01*
X83219925Y-99593791D02*
X83148497Y-99879505D01*
X83148497Y-99879505D02*
X83077068Y-100022362D01*
X83077068Y-100022362D02*
X82934211Y-100165220D01*
X82934211Y-100165220D02*
X82719925Y-100236648D01*
X82719925Y-100236648D02*
X82362782Y-100236648D01*
X84148497Y-98736648D02*
X84291354Y-98736648D01*
X84291354Y-98736648D02*
X84434211Y-98808077D01*
X84434211Y-98808077D02*
X84505640Y-98879505D01*
X84505640Y-98879505D02*
X84577068Y-99022362D01*
X84577068Y-99022362D02*
X84648497Y-99308077D01*
X84648497Y-99308077D02*
X84648497Y-99665220D01*
X84648497Y-99665220D02*
X84577068Y-99950934D01*
X84577068Y-99950934D02*
X84505640Y-100093791D01*
X84505640Y-100093791D02*
X84434211Y-100165220D01*
X84434211Y-100165220D02*
X84291354Y-100236648D01*
X84291354Y-100236648D02*
X84148497Y-100236648D01*
X84148497Y-100236648D02*
X84005640Y-100165220D01*
X84005640Y-100165220D02*
X83934211Y-100093791D01*
X83934211Y-100093791D02*
X83862782Y-99950934D01*
X83862782Y-99950934D02*
X83791354Y-99665220D01*
X83791354Y-99665220D02*
X83791354Y-99308077D01*
X83791354Y-99308077D02*
X83862782Y-99022362D01*
X83862782Y-99022362D02*
X83934211Y-98879505D01*
X83934211Y-98879505D02*
X84005640Y-98808077D01*
X84005640Y-98808077D02*
X84148497Y-98736648D01*
X82362782Y-102651564D02*
X82362782Y-101151564D01*
X82362782Y-101151564D02*
X82719925Y-101151564D01*
X82719925Y-101151564D02*
X82934211Y-101222993D01*
X82934211Y-101222993D02*
X83077068Y-101365850D01*
X83077068Y-101365850D02*
X83148497Y-101508707D01*
X83148497Y-101508707D02*
X83219925Y-101794421D01*
X83219925Y-101794421D02*
X83219925Y-102008707D01*
X83219925Y-102008707D02*
X83148497Y-102294421D01*
X83148497Y-102294421D02*
X83077068Y-102437278D01*
X83077068Y-102437278D02*
X82934211Y-102580136D01*
X82934211Y-102580136D02*
X82719925Y-102651564D01*
X82719925Y-102651564D02*
X82362782Y-102651564D01*
X84577068Y-101151564D02*
X83862782Y-101151564D01*
X83862782Y-101151564D02*
X83791354Y-101865850D01*
X83791354Y-101865850D02*
X83862782Y-101794421D01*
X83862782Y-101794421D02*
X84005640Y-101722993D01*
X84005640Y-101722993D02*
X84362782Y-101722993D01*
X84362782Y-101722993D02*
X84505640Y-101794421D01*
X84505640Y-101794421D02*
X84577068Y-101865850D01*
X84577068Y-101865850D02*
X84648497Y-102008707D01*
X84648497Y-102008707D02*
X84648497Y-102365850D01*
X84648497Y-102365850D02*
X84577068Y-102508707D01*
X84577068Y-102508707D02*
X84505640Y-102580136D01*
X84505640Y-102580136D02*
X84362782Y-102651564D01*
X84362782Y-102651564D02*
X84005640Y-102651564D01*
X84005640Y-102651564D02*
X83862782Y-102580136D01*
X83862782Y-102580136D02*
X83791354Y-102508707D01*
X82362782Y-105066480D02*
X82362782Y-103566480D01*
X82362782Y-103566480D02*
X82719925Y-103566480D01*
X82719925Y-103566480D02*
X82934211Y-103637909D01*
X82934211Y-103637909D02*
X83077068Y-103780766D01*
X83077068Y-103780766D02*
X83148497Y-103923623D01*
X83148497Y-103923623D02*
X83219925Y-104209337D01*
X83219925Y-104209337D02*
X83219925Y-104423623D01*
X83219925Y-104423623D02*
X83148497Y-104709337D01*
X83148497Y-104709337D02*
X83077068Y-104852194D01*
X83077068Y-104852194D02*
X82934211Y-104995052D01*
X82934211Y-104995052D02*
X82719925Y-105066480D01*
X82719925Y-105066480D02*
X82362782Y-105066480D01*
X84505640Y-103566480D02*
X84219925Y-103566480D01*
X84219925Y-103566480D02*
X84077068Y-103637909D01*
X84077068Y-103637909D02*
X84005640Y-103709337D01*
X84005640Y-103709337D02*
X83862782Y-103923623D01*
X83862782Y-103923623D02*
X83791354Y-104209337D01*
X83791354Y-104209337D02*
X83791354Y-104780766D01*
X83791354Y-104780766D02*
X83862782Y-104923623D01*
X83862782Y-104923623D02*
X83934211Y-104995052D01*
X83934211Y-104995052D02*
X84077068Y-105066480D01*
X84077068Y-105066480D02*
X84362782Y-105066480D01*
X84362782Y-105066480D02*
X84505640Y-104995052D01*
X84505640Y-104995052D02*
X84577068Y-104923623D01*
X84577068Y-104923623D02*
X84648497Y-104780766D01*
X84648497Y-104780766D02*
X84648497Y-104423623D01*
X84648497Y-104423623D02*
X84577068Y-104280766D01*
X84577068Y-104280766D02*
X84505640Y-104209337D01*
X84505640Y-104209337D02*
X84362782Y-104137909D01*
X84362782Y-104137909D02*
X84077068Y-104137909D01*
X84077068Y-104137909D02*
X83934211Y-104209337D01*
X83934211Y-104209337D02*
X83862782Y-104280766D01*
X83862782Y-104280766D02*
X83791354Y-104423623D01*
X82362782Y-107481396D02*
X82362782Y-105981396D01*
X82362782Y-105981396D02*
X82719925Y-105981396D01*
X82719925Y-105981396D02*
X82934211Y-106052825D01*
X82934211Y-106052825D02*
X83077068Y-106195682D01*
X83077068Y-106195682D02*
X83148497Y-106338539D01*
X83148497Y-106338539D02*
X83219925Y-106624253D01*
X83219925Y-106624253D02*
X83219925Y-106838539D01*
X83219925Y-106838539D02*
X83148497Y-107124253D01*
X83148497Y-107124253D02*
X83077068Y-107267110D01*
X83077068Y-107267110D02*
X82934211Y-107409968D01*
X82934211Y-107409968D02*
X82719925Y-107481396D01*
X82719925Y-107481396D02*
X82362782Y-107481396D01*
X83719925Y-105981396D02*
X84719925Y-105981396D01*
X84719925Y-105981396D02*
X84077068Y-107481396D01*
X82362782Y-109896312D02*
X82362782Y-108396312D01*
X82362782Y-108396312D02*
X82719925Y-108396312D01*
X82719925Y-108396312D02*
X82934211Y-108467741D01*
X82934211Y-108467741D02*
X83077068Y-108610598D01*
X83077068Y-108610598D02*
X83148497Y-108753455D01*
X83148497Y-108753455D02*
X83219925Y-109039169D01*
X83219925Y-109039169D02*
X83219925Y-109253455D01*
X83219925Y-109253455D02*
X83148497Y-109539169D01*
X83148497Y-109539169D02*
X83077068Y-109682026D01*
X83077068Y-109682026D02*
X82934211Y-109824884D01*
X82934211Y-109824884D02*
X82719925Y-109896312D01*
X82719925Y-109896312D02*
X82362782Y-109896312D01*
X84077068Y-109039169D02*
X83934211Y-108967741D01*
X83934211Y-108967741D02*
X83862782Y-108896312D01*
X83862782Y-108896312D02*
X83791354Y-108753455D01*
X83791354Y-108753455D02*
X83791354Y-108682026D01*
X83791354Y-108682026D02*
X83862782Y-108539169D01*
X83862782Y-108539169D02*
X83934211Y-108467741D01*
X83934211Y-108467741D02*
X84077068Y-108396312D01*
X84077068Y-108396312D02*
X84362782Y-108396312D01*
X84362782Y-108396312D02*
X84505640Y-108467741D01*
X84505640Y-108467741D02*
X84577068Y-108539169D01*
X84577068Y-108539169D02*
X84648497Y-108682026D01*
X84648497Y-108682026D02*
X84648497Y-108753455D01*
X84648497Y-108753455D02*
X84577068Y-108896312D01*
X84577068Y-108896312D02*
X84505640Y-108967741D01*
X84505640Y-108967741D02*
X84362782Y-109039169D01*
X84362782Y-109039169D02*
X84077068Y-109039169D01*
X84077068Y-109039169D02*
X83934211Y-109110598D01*
X83934211Y-109110598D02*
X83862782Y-109182026D01*
X83862782Y-109182026D02*
X83791354Y-109324884D01*
X83791354Y-109324884D02*
X83791354Y-109610598D01*
X83791354Y-109610598D02*
X83862782Y-109753455D01*
X83862782Y-109753455D02*
X83934211Y-109824884D01*
X83934211Y-109824884D02*
X84077068Y-109896312D01*
X84077068Y-109896312D02*
X84362782Y-109896312D01*
X84362782Y-109896312D02*
X84505640Y-109824884D01*
X84505640Y-109824884D02*
X84577068Y-109753455D01*
X84577068Y-109753455D02*
X84648497Y-109610598D01*
X84648497Y-109610598D02*
X84648497Y-109324884D01*
X84648497Y-109324884D02*
X84577068Y-109182026D01*
X84577068Y-109182026D02*
X84505640Y-109110598D01*
X84505640Y-109110598D02*
X84362782Y-109039169D01*
X81148497Y-110811228D02*
X82077069Y-110811228D01*
X82077069Y-110811228D02*
X81577069Y-111382657D01*
X81577069Y-111382657D02*
X81791354Y-111382657D01*
X81791354Y-111382657D02*
X81934212Y-111454085D01*
X81934212Y-111454085D02*
X82005640Y-111525514D01*
X82005640Y-111525514D02*
X82077069Y-111668371D01*
X82077069Y-111668371D02*
X82077069Y-112025514D01*
X82077069Y-112025514D02*
X82005640Y-112168371D01*
X82005640Y-112168371D02*
X81934212Y-112239800D01*
X81934212Y-112239800D02*
X81791354Y-112311228D01*
X81791354Y-112311228D02*
X81362783Y-112311228D01*
X81362783Y-112311228D02*
X81219926Y-112239800D01*
X81219926Y-112239800D02*
X81148497Y-112168371D01*
X82577068Y-111311228D02*
X82934211Y-112311228D01*
X82934211Y-112311228D02*
X83291354Y-111311228D01*
X83719925Y-110811228D02*
X84648497Y-110811228D01*
X84648497Y-110811228D02*
X84148497Y-111382657D01*
X84148497Y-111382657D02*
X84362782Y-111382657D01*
X84362782Y-111382657D02*
X84505640Y-111454085D01*
X84505640Y-111454085D02*
X84577068Y-111525514D01*
X84577068Y-111525514D02*
X84648497Y-111668371D01*
X84648497Y-111668371D02*
X84648497Y-112025514D01*
X84648497Y-112025514D02*
X84577068Y-112168371D01*
X84577068Y-112168371D02*
X84505640Y-112239800D01*
X84505640Y-112239800D02*
X84362782Y-112311228D01*
X84362782Y-112311228D02*
X83934211Y-112311228D01*
X83934211Y-112311228D02*
X83791354Y-112239800D01*
X83791354Y-112239800D02*
X83719925Y-112168371D01*
X83875312Y-76872419D02*
X83541979Y-76396228D01*
X83303884Y-76872419D02*
X83303884Y-75872419D01*
X83303884Y-75872419D02*
X83684836Y-75872419D01*
X83684836Y-75872419D02*
X83780074Y-75920038D01*
X83780074Y-75920038D02*
X83827693Y-75967657D01*
X83827693Y-75967657D02*
X83875312Y-76062895D01*
X83875312Y-76062895D02*
X83875312Y-76205752D01*
X83875312Y-76205752D02*
X83827693Y-76300990D01*
X83827693Y-76300990D02*
X83780074Y-76348609D01*
X83780074Y-76348609D02*
X83684836Y-76396228D01*
X83684836Y-76396228D02*
X83303884Y-76396228D01*
X84684836Y-76824800D02*
X84589598Y-76872419D01*
X84589598Y-76872419D02*
X84399122Y-76872419D01*
X84399122Y-76872419D02*
X84303884Y-76824800D01*
X84303884Y-76824800D02*
X84256265Y-76729561D01*
X84256265Y-76729561D02*
X84256265Y-76348609D01*
X84256265Y-76348609D02*
X84303884Y-76253371D01*
X84303884Y-76253371D02*
X84399122Y-76205752D01*
X84399122Y-76205752D02*
X84589598Y-76205752D01*
X84589598Y-76205752D02*
X84684836Y-76253371D01*
X84684836Y-76253371D02*
X84732455Y-76348609D01*
X84732455Y-76348609D02*
X84732455Y-76443847D01*
X84732455Y-76443847D02*
X84256265Y-76539085D01*
X85113408Y-76824800D02*
X85208646Y-76872419D01*
X85208646Y-76872419D02*
X85399122Y-76872419D01*
X85399122Y-76872419D02*
X85494360Y-76824800D01*
X85494360Y-76824800D02*
X85541979Y-76729561D01*
X85541979Y-76729561D02*
X85541979Y-76681942D01*
X85541979Y-76681942D02*
X85494360Y-76586704D01*
X85494360Y-76586704D02*
X85399122Y-76539085D01*
X85399122Y-76539085D02*
X85256265Y-76539085D01*
X85256265Y-76539085D02*
X85161027Y-76491466D01*
X85161027Y-76491466D02*
X85113408Y-76396228D01*
X85113408Y-76396228D02*
X85113408Y-76348609D01*
X85113408Y-76348609D02*
X85161027Y-76253371D01*
X85161027Y-76253371D02*
X85256265Y-76205752D01*
X85256265Y-76205752D02*
X85399122Y-76205752D01*
X85399122Y-76205752D02*
X85494360Y-76253371D01*
X86351503Y-76824800D02*
X86256265Y-76872419D01*
X86256265Y-76872419D02*
X86065789Y-76872419D01*
X86065789Y-76872419D02*
X85970551Y-76824800D01*
X85970551Y-76824800D02*
X85922932Y-76729561D01*
X85922932Y-76729561D02*
X85922932Y-76348609D01*
X85922932Y-76348609D02*
X85970551Y-76253371D01*
X85970551Y-76253371D02*
X86065789Y-76205752D01*
X86065789Y-76205752D02*
X86256265Y-76205752D01*
X86256265Y-76205752D02*
X86351503Y-76253371D01*
X86351503Y-76253371D02*
X86399122Y-76348609D01*
X86399122Y-76348609D02*
X86399122Y-76443847D01*
X86399122Y-76443847D02*
X85922932Y-76539085D01*
X86684837Y-76205752D02*
X87065789Y-76205752D01*
X86827694Y-75872419D02*
X86827694Y-76729561D01*
X86827694Y-76729561D02*
X86875313Y-76824800D01*
X86875313Y-76824800D02*
X86970551Y-76872419D01*
X86970551Y-76872419D02*
X87065789Y-76872419D01*
X140428646Y-121411919D02*
X140666741Y-122411919D01*
X140666741Y-122411919D02*
X140857217Y-121697633D01*
X140857217Y-121697633D02*
X141047693Y-122411919D01*
X141047693Y-122411919D02*
X141285789Y-121411919D01*
X142047693Y-122364300D02*
X141952455Y-122411919D01*
X141952455Y-122411919D02*
X141761979Y-122411919D01*
X141761979Y-122411919D02*
X141666741Y-122364300D01*
X141666741Y-122364300D02*
X141619122Y-122269061D01*
X141619122Y-122269061D02*
X141619122Y-121888109D01*
X141619122Y-121888109D02*
X141666741Y-121792871D01*
X141666741Y-121792871D02*
X141761979Y-121745252D01*
X141761979Y-121745252D02*
X141952455Y-121745252D01*
X141952455Y-121745252D02*
X142047693Y-121792871D01*
X142047693Y-121792871D02*
X142095312Y-121888109D01*
X142095312Y-121888109D02*
X142095312Y-121983347D01*
X142095312Y-121983347D02*
X141619122Y-122078585D01*
X142523884Y-122411919D02*
X142523884Y-121411919D01*
X142523884Y-121411919D02*
X142857217Y-122126204D01*
X142857217Y-122126204D02*
X143190550Y-121411919D01*
X143190550Y-121411919D02*
X143190550Y-122411919D01*
X143809598Y-122411919D02*
X143714360Y-122364300D01*
X143714360Y-122364300D02*
X143666741Y-122316680D01*
X143666741Y-122316680D02*
X143619122Y-122221442D01*
X143619122Y-122221442D02*
X143619122Y-121935728D01*
X143619122Y-121935728D02*
X143666741Y-121840490D01*
X143666741Y-121840490D02*
X143714360Y-121792871D01*
X143714360Y-121792871D02*
X143809598Y-121745252D01*
X143809598Y-121745252D02*
X143952455Y-121745252D01*
X143952455Y-121745252D02*
X144047693Y-121792871D01*
X144047693Y-121792871D02*
X144095312Y-121840490D01*
X144095312Y-121840490D02*
X144142931Y-121935728D01*
X144142931Y-121935728D02*
X144142931Y-122221442D01*
X144142931Y-122221442D02*
X144095312Y-122316680D01*
X144095312Y-122316680D02*
X144047693Y-122364300D01*
X144047693Y-122364300D02*
X143952455Y-122411919D01*
X143952455Y-122411919D02*
X143809598Y-122411919D01*
X144523884Y-122364300D02*
X144619122Y-122411919D01*
X144619122Y-122411919D02*
X144809598Y-122411919D01*
X144809598Y-122411919D02*
X144904836Y-122364300D01*
X144904836Y-122364300D02*
X144952455Y-122269061D01*
X144952455Y-122269061D02*
X144952455Y-122221442D01*
X144952455Y-122221442D02*
X144904836Y-122126204D01*
X144904836Y-122126204D02*
X144809598Y-122078585D01*
X144809598Y-122078585D02*
X144666741Y-122078585D01*
X144666741Y-122078585D02*
X144571503Y-122030966D01*
X144571503Y-122030966D02*
X144523884Y-121935728D01*
X144523884Y-121935728D02*
X144523884Y-121888109D01*
X144523884Y-121888109D02*
X144571503Y-121792871D01*
X144571503Y-121792871D02*
X144666741Y-121745252D01*
X144666741Y-121745252D02*
X144809598Y-121745252D01*
X144809598Y-121745252D02*
X144904836Y-121792871D01*
X146095313Y-122364300D02*
X146238170Y-122411919D01*
X146238170Y-122411919D02*
X146476265Y-122411919D01*
X146476265Y-122411919D02*
X146571503Y-122364300D01*
X146571503Y-122364300D02*
X146619122Y-122316680D01*
X146619122Y-122316680D02*
X146666741Y-122221442D01*
X146666741Y-122221442D02*
X146666741Y-122126204D01*
X146666741Y-122126204D02*
X146619122Y-122030966D01*
X146619122Y-122030966D02*
X146571503Y-121983347D01*
X146571503Y-121983347D02*
X146476265Y-121935728D01*
X146476265Y-121935728D02*
X146285789Y-121888109D01*
X146285789Y-121888109D02*
X146190551Y-121840490D01*
X146190551Y-121840490D02*
X146142932Y-121792871D01*
X146142932Y-121792871D02*
X146095313Y-121697633D01*
X146095313Y-121697633D02*
X146095313Y-121602395D01*
X146095313Y-121602395D02*
X146142932Y-121507157D01*
X146142932Y-121507157D02*
X146190551Y-121459538D01*
X146190551Y-121459538D02*
X146285789Y-121411919D01*
X146285789Y-121411919D02*
X146523884Y-121411919D01*
X146523884Y-121411919D02*
X146666741Y-121459538D01*
X147095313Y-122411919D02*
X147095313Y-121411919D01*
X147523884Y-122411919D02*
X147523884Y-121888109D01*
X147523884Y-121888109D02*
X147476265Y-121792871D01*
X147476265Y-121792871D02*
X147381027Y-121745252D01*
X147381027Y-121745252D02*
X147238170Y-121745252D01*
X147238170Y-121745252D02*
X147142932Y-121792871D01*
X147142932Y-121792871D02*
X147095313Y-121840490D01*
X148000075Y-122411919D02*
X148000075Y-121745252D01*
X148000075Y-121411919D02*
X147952456Y-121459538D01*
X147952456Y-121459538D02*
X148000075Y-121507157D01*
X148000075Y-121507157D02*
X148047694Y-121459538D01*
X148047694Y-121459538D02*
X148000075Y-121411919D01*
X148000075Y-121411919D02*
X148000075Y-121507157D01*
X148857217Y-122364300D02*
X148761979Y-122411919D01*
X148761979Y-122411919D02*
X148571503Y-122411919D01*
X148571503Y-122411919D02*
X148476265Y-122364300D01*
X148476265Y-122364300D02*
X148428646Y-122269061D01*
X148428646Y-122269061D02*
X148428646Y-121888109D01*
X148428646Y-121888109D02*
X148476265Y-121792871D01*
X148476265Y-121792871D02*
X148571503Y-121745252D01*
X148571503Y-121745252D02*
X148761979Y-121745252D01*
X148761979Y-121745252D02*
X148857217Y-121792871D01*
X148857217Y-121792871D02*
X148904836Y-121888109D01*
X148904836Y-121888109D02*
X148904836Y-121983347D01*
X148904836Y-121983347D02*
X148428646Y-122078585D01*
X149476265Y-122411919D02*
X149381027Y-122364300D01*
X149381027Y-122364300D02*
X149333408Y-122269061D01*
X149333408Y-122269061D02*
X149333408Y-121411919D01*
X150285789Y-122411919D02*
X150285789Y-121411919D01*
X150285789Y-122364300D02*
X150190551Y-122411919D01*
X150190551Y-122411919D02*
X150000075Y-122411919D01*
X150000075Y-122411919D02*
X149904837Y-122364300D01*
X149904837Y-122364300D02*
X149857218Y-122316680D01*
X149857218Y-122316680D02*
X149809599Y-122221442D01*
X149809599Y-122221442D02*
X149809599Y-121935728D01*
X149809599Y-121935728D02*
X149857218Y-121840490D01*
X149857218Y-121840490D02*
X149904837Y-121792871D01*
X149904837Y-121792871D02*
X150000075Y-121745252D01*
X150000075Y-121745252D02*
X150190551Y-121745252D01*
X150190551Y-121745252D02*
X150285789Y-121792871D01*
X152047694Y-122411919D02*
X151476266Y-122411919D01*
X151761980Y-122411919D02*
X151761980Y-121411919D01*
X151761980Y-121411919D02*
X151666742Y-121554776D01*
X151666742Y-121554776D02*
X151571504Y-121650014D01*
X151571504Y-121650014D02*
X151476266Y-121697633D01*
X139568646Y-81372419D02*
X139806741Y-82372419D01*
X139806741Y-82372419D02*
X139997217Y-81658133D01*
X139997217Y-81658133D02*
X140187693Y-82372419D01*
X140187693Y-82372419D02*
X140425789Y-81372419D01*
X141187693Y-82324800D02*
X141092455Y-82372419D01*
X141092455Y-82372419D02*
X140901979Y-82372419D01*
X140901979Y-82372419D02*
X140806741Y-82324800D01*
X140806741Y-82324800D02*
X140759122Y-82229561D01*
X140759122Y-82229561D02*
X140759122Y-81848609D01*
X140759122Y-81848609D02*
X140806741Y-81753371D01*
X140806741Y-81753371D02*
X140901979Y-81705752D01*
X140901979Y-81705752D02*
X141092455Y-81705752D01*
X141092455Y-81705752D02*
X141187693Y-81753371D01*
X141187693Y-81753371D02*
X141235312Y-81848609D01*
X141235312Y-81848609D02*
X141235312Y-81943847D01*
X141235312Y-81943847D02*
X140759122Y-82039085D01*
X141663884Y-82372419D02*
X141663884Y-81372419D01*
X141663884Y-81372419D02*
X141997217Y-82086704D01*
X141997217Y-82086704D02*
X142330550Y-81372419D01*
X142330550Y-81372419D02*
X142330550Y-82372419D01*
X142949598Y-82372419D02*
X142854360Y-82324800D01*
X142854360Y-82324800D02*
X142806741Y-82277180D01*
X142806741Y-82277180D02*
X142759122Y-82181942D01*
X142759122Y-82181942D02*
X142759122Y-81896228D01*
X142759122Y-81896228D02*
X142806741Y-81800990D01*
X142806741Y-81800990D02*
X142854360Y-81753371D01*
X142854360Y-81753371D02*
X142949598Y-81705752D01*
X142949598Y-81705752D02*
X143092455Y-81705752D01*
X143092455Y-81705752D02*
X143187693Y-81753371D01*
X143187693Y-81753371D02*
X143235312Y-81800990D01*
X143235312Y-81800990D02*
X143282931Y-81896228D01*
X143282931Y-81896228D02*
X143282931Y-82181942D01*
X143282931Y-82181942D02*
X143235312Y-82277180D01*
X143235312Y-82277180D02*
X143187693Y-82324800D01*
X143187693Y-82324800D02*
X143092455Y-82372419D01*
X143092455Y-82372419D02*
X142949598Y-82372419D01*
X143663884Y-82324800D02*
X143759122Y-82372419D01*
X143759122Y-82372419D02*
X143949598Y-82372419D01*
X143949598Y-82372419D02*
X144044836Y-82324800D01*
X144044836Y-82324800D02*
X144092455Y-82229561D01*
X144092455Y-82229561D02*
X144092455Y-82181942D01*
X144092455Y-82181942D02*
X144044836Y-82086704D01*
X144044836Y-82086704D02*
X143949598Y-82039085D01*
X143949598Y-82039085D02*
X143806741Y-82039085D01*
X143806741Y-82039085D02*
X143711503Y-81991466D01*
X143711503Y-81991466D02*
X143663884Y-81896228D01*
X143663884Y-81896228D02*
X143663884Y-81848609D01*
X143663884Y-81848609D02*
X143711503Y-81753371D01*
X143711503Y-81753371D02*
X143806741Y-81705752D01*
X143806741Y-81705752D02*
X143949598Y-81705752D01*
X143949598Y-81705752D02*
X144044836Y-81753371D01*
X145235313Y-82324800D02*
X145378170Y-82372419D01*
X145378170Y-82372419D02*
X145616265Y-82372419D01*
X145616265Y-82372419D02*
X145711503Y-82324800D01*
X145711503Y-82324800D02*
X145759122Y-82277180D01*
X145759122Y-82277180D02*
X145806741Y-82181942D01*
X145806741Y-82181942D02*
X145806741Y-82086704D01*
X145806741Y-82086704D02*
X145759122Y-81991466D01*
X145759122Y-81991466D02*
X145711503Y-81943847D01*
X145711503Y-81943847D02*
X145616265Y-81896228D01*
X145616265Y-81896228D02*
X145425789Y-81848609D01*
X145425789Y-81848609D02*
X145330551Y-81800990D01*
X145330551Y-81800990D02*
X145282932Y-81753371D01*
X145282932Y-81753371D02*
X145235313Y-81658133D01*
X145235313Y-81658133D02*
X145235313Y-81562895D01*
X145235313Y-81562895D02*
X145282932Y-81467657D01*
X145282932Y-81467657D02*
X145330551Y-81420038D01*
X145330551Y-81420038D02*
X145425789Y-81372419D01*
X145425789Y-81372419D02*
X145663884Y-81372419D01*
X145663884Y-81372419D02*
X145806741Y-81420038D01*
X146235313Y-82372419D02*
X146235313Y-81372419D01*
X146663884Y-82372419D02*
X146663884Y-81848609D01*
X146663884Y-81848609D02*
X146616265Y-81753371D01*
X146616265Y-81753371D02*
X146521027Y-81705752D01*
X146521027Y-81705752D02*
X146378170Y-81705752D01*
X146378170Y-81705752D02*
X146282932Y-81753371D01*
X146282932Y-81753371D02*
X146235313Y-81800990D01*
X147140075Y-82372419D02*
X147140075Y-81705752D01*
X147140075Y-81372419D02*
X147092456Y-81420038D01*
X147092456Y-81420038D02*
X147140075Y-81467657D01*
X147140075Y-81467657D02*
X147187694Y-81420038D01*
X147187694Y-81420038D02*
X147140075Y-81372419D01*
X147140075Y-81372419D02*
X147140075Y-81467657D01*
X147997217Y-82324800D02*
X147901979Y-82372419D01*
X147901979Y-82372419D02*
X147711503Y-82372419D01*
X147711503Y-82372419D02*
X147616265Y-82324800D01*
X147616265Y-82324800D02*
X147568646Y-82229561D01*
X147568646Y-82229561D02*
X147568646Y-81848609D01*
X147568646Y-81848609D02*
X147616265Y-81753371D01*
X147616265Y-81753371D02*
X147711503Y-81705752D01*
X147711503Y-81705752D02*
X147901979Y-81705752D01*
X147901979Y-81705752D02*
X147997217Y-81753371D01*
X147997217Y-81753371D02*
X148044836Y-81848609D01*
X148044836Y-81848609D02*
X148044836Y-81943847D01*
X148044836Y-81943847D02*
X147568646Y-82039085D01*
X148616265Y-82372419D02*
X148521027Y-82324800D01*
X148521027Y-82324800D02*
X148473408Y-82229561D01*
X148473408Y-82229561D02*
X148473408Y-81372419D01*
X149425789Y-82372419D02*
X149425789Y-81372419D01*
X149425789Y-82324800D02*
X149330551Y-82372419D01*
X149330551Y-82372419D02*
X149140075Y-82372419D01*
X149140075Y-82372419D02*
X149044837Y-82324800D01*
X149044837Y-82324800D02*
X148997218Y-82277180D01*
X148997218Y-82277180D02*
X148949599Y-82181942D01*
X148949599Y-82181942D02*
X148949599Y-81896228D01*
X148949599Y-81896228D02*
X148997218Y-81800990D01*
X148997218Y-81800990D02*
X149044837Y-81753371D01*
X149044837Y-81753371D02*
X149140075Y-81705752D01*
X149140075Y-81705752D02*
X149330551Y-81705752D01*
X149330551Y-81705752D02*
X149425789Y-81753371D01*
X150568647Y-81372419D02*
X151187694Y-81372419D01*
X151187694Y-81372419D02*
X150854361Y-81753371D01*
X150854361Y-81753371D02*
X150997218Y-81753371D01*
X150997218Y-81753371D02*
X151092456Y-81800990D01*
X151092456Y-81800990D02*
X151140075Y-81848609D01*
X151140075Y-81848609D02*
X151187694Y-81943847D01*
X151187694Y-81943847D02*
X151187694Y-82181942D01*
X151187694Y-82181942D02*
X151140075Y-82277180D01*
X151140075Y-82277180D02*
X151092456Y-82324800D01*
X151092456Y-82324800D02*
X150997218Y-82372419D01*
X150997218Y-82372419D02*
X150711504Y-82372419D01*
X150711504Y-82372419D02*
X150616266Y-82324800D01*
X150616266Y-82324800D02*
X150568647Y-82277180D01*
D12*
X152738095Y-80454819D02*
X152738095Y-81264342D01*
X152738095Y-81264342D02*
X152785714Y-81359580D01*
X152785714Y-81359580D02*
X152833333Y-81407200D01*
X152833333Y-81407200D02*
X152928571Y-81454819D01*
X152928571Y-81454819D02*
X153119047Y-81454819D01*
X153119047Y-81454819D02*
X153214285Y-81407200D01*
X153214285Y-81407200D02*
X153261904Y-81359580D01*
X153261904Y-81359580D02*
X153309523Y-81264342D01*
X153309523Y-81264342D02*
X153309523Y-80454819D01*
X154214285Y-80788152D02*
X154214285Y-81454819D01*
X153976190Y-80407200D02*
X153738095Y-81121485D01*
X153738095Y-81121485D02*
X154357142Y-81121485D01*
X87666666Y-91639819D02*
X87666666Y-92354104D01*
X87666666Y-92354104D02*
X87619047Y-92496961D01*
X87619047Y-92496961D02*
X87523809Y-92592200D01*
X87523809Y-92592200D02*
X87380952Y-92639819D01*
X87380952Y-92639819D02*
X87285714Y-92639819D01*
X88095238Y-91735057D02*
X88142857Y-91687438D01*
X88142857Y-91687438D02*
X88238095Y-91639819D01*
X88238095Y-91639819D02*
X88476190Y-91639819D01*
X88476190Y-91639819D02*
X88571428Y-91687438D01*
X88571428Y-91687438D02*
X88619047Y-91735057D01*
X88619047Y-91735057D02*
X88666666Y-91830295D01*
X88666666Y-91830295D02*
X88666666Y-91925533D01*
X88666666Y-91925533D02*
X88619047Y-92068390D01*
X88619047Y-92068390D02*
X88047619Y-92639819D01*
X88047619Y-92639819D02*
X88666666Y-92639819D01*
X158454819Y-39166666D02*
X157978628Y-39499999D01*
X158454819Y-39738094D02*
X157454819Y-39738094D01*
X157454819Y-39738094D02*
X157454819Y-39357142D01*
X157454819Y-39357142D02*
X157502438Y-39261904D01*
X157502438Y-39261904D02*
X157550057Y-39214285D01*
X157550057Y-39214285D02*
X157645295Y-39166666D01*
X157645295Y-39166666D02*
X157788152Y-39166666D01*
X157788152Y-39166666D02*
X157883390Y-39214285D01*
X157883390Y-39214285D02*
X157931009Y-39261904D01*
X157931009Y-39261904D02*
X157978628Y-39357142D01*
X157978628Y-39357142D02*
X157978628Y-39738094D01*
X158454819Y-38214285D02*
X158454819Y-38785713D01*
X158454819Y-38499999D02*
X157454819Y-38499999D01*
X157454819Y-38499999D02*
X157597676Y-38595237D01*
X157597676Y-38595237D02*
X157692914Y-38690475D01*
X157692914Y-38690475D02*
X157740533Y-38785713D01*
X121666666Y-91639819D02*
X121666666Y-92354104D01*
X121666666Y-92354104D02*
X121619047Y-92496961D01*
X121619047Y-92496961D02*
X121523809Y-92592200D01*
X121523809Y-92592200D02*
X121380952Y-92639819D01*
X121380952Y-92639819D02*
X121285714Y-92639819D01*
X122666666Y-92639819D02*
X122095238Y-92639819D01*
X122380952Y-92639819D02*
X122380952Y-91639819D01*
X122380952Y-91639819D02*
X122285714Y-91782676D01*
X122285714Y-91782676D02*
X122190476Y-91877914D01*
X122190476Y-91877914D02*
X122095238Y-91925533D01*
X114738095Y-80454819D02*
X114738095Y-81264342D01*
X114738095Y-81264342D02*
X114785714Y-81359580D01*
X114785714Y-81359580D02*
X114833333Y-81407200D01*
X114833333Y-81407200D02*
X114928571Y-81454819D01*
X114928571Y-81454819D02*
X115119047Y-81454819D01*
X115119047Y-81454819D02*
X115214285Y-81407200D01*
X115214285Y-81407200D02*
X115261904Y-81359580D01*
X115261904Y-81359580D02*
X115309523Y-81264342D01*
X115309523Y-81264342D02*
X115309523Y-80454819D01*
X115690476Y-80454819D02*
X116309523Y-80454819D01*
X116309523Y-80454819D02*
X115976190Y-80835771D01*
X115976190Y-80835771D02*
X116119047Y-80835771D01*
X116119047Y-80835771D02*
X116214285Y-80883390D01*
X116214285Y-80883390D02*
X116261904Y-80931009D01*
X116261904Y-80931009D02*
X116309523Y-81026247D01*
X116309523Y-81026247D02*
X116309523Y-81264342D01*
X116309523Y-81264342D02*
X116261904Y-81359580D01*
X116261904Y-81359580D02*
X116214285Y-81407200D01*
X116214285Y-81407200D02*
X116119047Y-81454819D01*
X116119047Y-81454819D02*
X115833333Y-81454819D01*
X115833333Y-81454819D02*
X115738095Y-81407200D01*
X115738095Y-81407200D02*
X115690476Y-81359580D01*
X155098095Y-121454819D02*
X155098095Y-122264342D01*
X155098095Y-122264342D02*
X155145714Y-122359580D01*
X155145714Y-122359580D02*
X155193333Y-122407200D01*
X155193333Y-122407200D02*
X155288571Y-122454819D01*
X155288571Y-122454819D02*
X155479047Y-122454819D01*
X155479047Y-122454819D02*
X155574285Y-122407200D01*
X155574285Y-122407200D02*
X155621904Y-122359580D01*
X155621904Y-122359580D02*
X155669523Y-122264342D01*
X155669523Y-122264342D02*
X155669523Y-121454819D01*
X156098095Y-121550057D02*
X156145714Y-121502438D01*
X156145714Y-121502438D02*
X156240952Y-121454819D01*
X156240952Y-121454819D02*
X156479047Y-121454819D01*
X156479047Y-121454819D02*
X156574285Y-121502438D01*
X156574285Y-121502438D02*
X156621904Y-121550057D01*
X156621904Y-121550057D02*
X156669523Y-121645295D01*
X156669523Y-121645295D02*
X156669523Y-121740533D01*
X156669523Y-121740533D02*
X156621904Y-121883390D01*
X156621904Y-121883390D02*
X156050476Y-122454819D01*
X156050476Y-122454819D02*
X156669523Y-122454819D01*
X160166666Y-78056019D02*
X160166666Y-78770304D01*
X160166666Y-78770304D02*
X160119047Y-78913161D01*
X160119047Y-78913161D02*
X160023809Y-79008400D01*
X160023809Y-79008400D02*
X159880952Y-79056019D01*
X159880952Y-79056019D02*
X159785714Y-79056019D01*
X161119047Y-78056019D02*
X160642857Y-78056019D01*
X160642857Y-78056019D02*
X160595238Y-78532209D01*
X160595238Y-78532209D02*
X160642857Y-78484590D01*
X160642857Y-78484590D02*
X160738095Y-78436971D01*
X160738095Y-78436971D02*
X160976190Y-78436971D01*
X160976190Y-78436971D02*
X161071428Y-78484590D01*
X161071428Y-78484590D02*
X161119047Y-78532209D01*
X161119047Y-78532209D02*
X161166666Y-78627447D01*
X161166666Y-78627447D02*
X161166666Y-78865542D01*
X161166666Y-78865542D02*
X161119047Y-78960780D01*
X161119047Y-78960780D02*
X161071428Y-79008400D01*
X161071428Y-79008400D02*
X160976190Y-79056019D01*
X160976190Y-79056019D02*
X160738095Y-79056019D01*
X160738095Y-79056019D02*
X160642857Y-79008400D01*
X160642857Y-79008400D02*
X160595238Y-78960780D01*
X160166666Y-44684819D02*
X160166666Y-45399104D01*
X160166666Y-45399104D02*
X160119047Y-45541961D01*
X160119047Y-45541961D02*
X160023809Y-45637200D01*
X160023809Y-45637200D02*
X159880952Y-45684819D01*
X159880952Y-45684819D02*
X159785714Y-45684819D01*
X160547619Y-44684819D02*
X161214285Y-44684819D01*
X161214285Y-44684819D02*
X160785714Y-45684819D01*
X174954819Y-54333333D02*
X175669104Y-54333333D01*
X175669104Y-54333333D02*
X175811961Y-54380952D01*
X175811961Y-54380952D02*
X175907200Y-54476190D01*
X175907200Y-54476190D02*
X175954819Y-54619047D01*
X175954819Y-54619047D02*
X175954819Y-54714285D01*
X175288152Y-53428571D02*
X175954819Y-53428571D01*
X174907200Y-53666666D02*
X175621485Y-53904761D01*
X175621485Y-53904761D02*
X175621485Y-53285714D01*
X160166666Y-61370419D02*
X160166666Y-62084704D01*
X160166666Y-62084704D02*
X160119047Y-62227561D01*
X160119047Y-62227561D02*
X160023809Y-62322800D01*
X160023809Y-62322800D02*
X159880952Y-62370419D01*
X159880952Y-62370419D02*
X159785714Y-62370419D01*
X161071428Y-61370419D02*
X160880952Y-61370419D01*
X160880952Y-61370419D02*
X160785714Y-61418038D01*
X160785714Y-61418038D02*
X160738095Y-61465657D01*
X160738095Y-61465657D02*
X160642857Y-61608514D01*
X160642857Y-61608514D02*
X160595238Y-61798990D01*
X160595238Y-61798990D02*
X160595238Y-62179942D01*
X160595238Y-62179942D02*
X160642857Y-62275180D01*
X160642857Y-62275180D02*
X160690476Y-62322800D01*
X160690476Y-62322800D02*
X160785714Y-62370419D01*
X160785714Y-62370419D02*
X160976190Y-62370419D01*
X160976190Y-62370419D02*
X161071428Y-62322800D01*
X161071428Y-62322800D02*
X161119047Y-62275180D01*
X161119047Y-62275180D02*
X161166666Y-62179942D01*
X161166666Y-62179942D02*
X161166666Y-61941847D01*
X161166666Y-61941847D02*
X161119047Y-61846609D01*
X161119047Y-61846609D02*
X161071428Y-61798990D01*
X161071428Y-61798990D02*
X160976190Y-61751371D01*
X160976190Y-61751371D02*
X160785714Y-61751371D01*
X160785714Y-61751371D02*
X160690476Y-61798990D01*
X160690476Y-61798990D02*
X160642857Y-61846609D01*
X160642857Y-61846609D02*
X160595238Y-61941847D01*
X174954819Y-96833333D02*
X175669104Y-96833333D01*
X175669104Y-96833333D02*
X175811961Y-96880952D01*
X175811961Y-96880952D02*
X175907200Y-96976190D01*
X175907200Y-96976190D02*
X175954819Y-97119047D01*
X175954819Y-97119047D02*
X175954819Y-97214285D01*
X174954819Y-96452380D02*
X174954819Y-95833333D01*
X174954819Y-95833333D02*
X175335771Y-96166666D01*
X175335771Y-96166666D02*
X175335771Y-96023809D01*
X175335771Y-96023809D02*
X175383390Y-95928571D01*
X175383390Y-95928571D02*
X175431009Y-95880952D01*
X175431009Y-95880952D02*
X175526247Y-95833333D01*
X175526247Y-95833333D02*
X175764342Y-95833333D01*
X175764342Y-95833333D02*
X175859580Y-95880952D01*
X175859580Y-95880952D02*
X175907200Y-95928571D01*
X175907200Y-95928571D02*
X175954819Y-96023809D01*
X175954819Y-96023809D02*
X175954819Y-96309523D01*
X175954819Y-96309523D02*
X175907200Y-96404761D01*
X175907200Y-96404761D02*
X175859580Y-96452380D01*
X157256905Y-27494819D02*
X157256905Y-26494819D01*
X157256905Y-26494819D02*
X157495000Y-26494819D01*
X157495000Y-26494819D02*
X157637857Y-26542438D01*
X157637857Y-26542438D02*
X157733095Y-26637676D01*
X157733095Y-26637676D02*
X157780714Y-26732914D01*
X157780714Y-26732914D02*
X157828333Y-26923390D01*
X157828333Y-26923390D02*
X157828333Y-27066247D01*
X157828333Y-27066247D02*
X157780714Y-27256723D01*
X157780714Y-27256723D02*
X157733095Y-27351961D01*
X157733095Y-27351961D02*
X157637857Y-27447200D01*
X157637857Y-27447200D02*
X157495000Y-27494819D01*
X157495000Y-27494819D02*
X157256905Y-27494819D01*
X158780714Y-27494819D02*
X158209286Y-27494819D01*
X158495000Y-27494819D02*
X158495000Y-26494819D01*
X158495000Y-26494819D02*
X158399762Y-26637676D01*
X158399762Y-26637676D02*
X158304524Y-26732914D01*
X158304524Y-26732914D02*
X158209286Y-26780533D01*
X117098095Y-121454819D02*
X117098095Y-122264342D01*
X117098095Y-122264342D02*
X117145714Y-122359580D01*
X117145714Y-122359580D02*
X117193333Y-122407200D01*
X117193333Y-122407200D02*
X117288571Y-122454819D01*
X117288571Y-122454819D02*
X117479047Y-122454819D01*
X117479047Y-122454819D02*
X117574285Y-122407200D01*
X117574285Y-122407200D02*
X117621904Y-122359580D01*
X117621904Y-122359580D02*
X117669523Y-122264342D01*
X117669523Y-122264342D02*
X117669523Y-121454819D01*
X118669523Y-122454819D02*
X118098095Y-122454819D01*
X118383809Y-122454819D02*
X118383809Y-121454819D01*
X118383809Y-121454819D02*
X118288571Y-121597676D01*
X118288571Y-121597676D02*
X118193333Y-121692914D01*
X118193333Y-121692914D02*
X118098095Y-121740533D01*
D13*
%TO.C,SW1*%
X82000000Y-80000000D02*
X82000000Y-84500000D01*
X84500000Y-85750000D02*
X86000000Y-85750000D01*
X86000000Y-78750000D02*
X84500000Y-78750000D01*
X88500000Y-84500000D02*
X88500000Y-80000000D01*
%TO.C,U4*%
X130000000Y-73220000D02*
X130000000Y-47790000D01*
X130000000Y-73220000D02*
X132540000Y-73220000D01*
X132540000Y-73220000D02*
X132540000Y-80120000D01*
X132540000Y-80120000D02*
X155860000Y-80120000D01*
X153740000Y-45660000D02*
X132130000Y-45660000D01*
X155860000Y-80120000D02*
X155860000Y-47790000D01*
X130000000Y-47790000D02*
G75*
G02*
X132130000Y-45660000I2130002J-2D01*
G01*
X153730000Y-45660000D02*
G75*
G02*
X155860000Y-47790000I0J-2130000D01*
G01*
D12*
X129595000Y-54000000D02*
X128960000Y-54635000D01*
X128960000Y-53365000D01*
X129595000Y-54000000D01*
G36*
X129595000Y-54000000D02*
G01*
X128960000Y-54635000D01*
X128960000Y-53365000D01*
X129595000Y-54000000D01*
G37*
D13*
%TO.C,J2*%
X86670000Y-93185000D02*
X88000000Y-93185000D01*
X86670000Y-94515000D02*
X86670000Y-93185000D01*
X86670000Y-95785000D02*
X86670000Y-113625000D01*
X86670000Y-95785000D02*
X89330000Y-95785000D01*
X86670000Y-113625000D02*
X89330000Y-113625000D01*
X89330000Y-95785000D02*
X89330000Y-113625000D01*
%TO.C,R1*%
X156630000Y-35730000D02*
X156630000Y-42270000D01*
X156630000Y-42270000D02*
X156960000Y-42270000D01*
X156960000Y-35730000D02*
X156630000Y-35730000D01*
X159040000Y-35730000D02*
X159370000Y-35730000D01*
X159370000Y-35730000D02*
X159370000Y-42270000D01*
X159370000Y-42270000D02*
X159040000Y-42270000D01*
%TO.C,J1*%
X120670000Y-93185000D02*
X122000000Y-93185000D01*
X120670000Y-94515000D02*
X120670000Y-93185000D01*
X120670000Y-95785000D02*
X120670000Y-113625000D01*
X120670000Y-95785000D02*
X123330000Y-95785000D01*
X120670000Y-113625000D02*
X123330000Y-113625000D01*
X123330000Y-95785000D02*
X123330000Y-113625000D01*
%TO.C,U3*%
X92000000Y-73220000D02*
X92000000Y-47790000D01*
X92000000Y-73220000D02*
X94540000Y-73220000D01*
X94540000Y-73220000D02*
X94540000Y-80120000D01*
X94540000Y-80120000D02*
X117860000Y-80120000D01*
X115740000Y-45660000D02*
X94130000Y-45660000D01*
X117860000Y-80120000D02*
X117860000Y-47790000D01*
X92000000Y-47790000D02*
G75*
G02*
X94130000Y-45660000I2130002J-2D01*
G01*
X115730000Y-45660000D02*
G75*
G02*
X117860000Y-47790000I0J-2130000D01*
G01*
D12*
X91595000Y-54000000D02*
X90960000Y-54635000D01*
X90960000Y-53365000D01*
X91595000Y-54000000D01*
G36*
X91595000Y-54000000D02*
G01*
X90960000Y-54635000D01*
X90960000Y-53365000D01*
X91595000Y-54000000D01*
G37*
D13*
%TO.C,U2*%
X130000000Y-113720000D02*
X130000000Y-88290000D01*
X130000000Y-113720000D02*
X132540000Y-113720000D01*
X132540000Y-113720000D02*
X132540000Y-120620000D01*
X132540000Y-120620000D02*
X155860000Y-120620000D01*
X153740000Y-86160000D02*
X132130000Y-86160000D01*
X155860000Y-120620000D02*
X155860000Y-88290000D01*
X130000000Y-88290000D02*
G75*
G02*
X132130000Y-86160000I2130002J-2D01*
G01*
X153730000Y-86160000D02*
G75*
G02*
X155860000Y-88290000I0J-2130000D01*
G01*
D12*
X129595000Y-94500000D02*
X128960000Y-95135000D01*
X128960000Y-93865000D01*
X129595000Y-94500000D01*
G36*
X129595000Y-94500000D02*
G01*
X128960000Y-95135000D01*
X128960000Y-93865000D01*
X129595000Y-94500000D01*
G37*
D13*
%TO.C,J5*%
X159170000Y-82641200D02*
X159170000Y-92861200D01*
X159170000Y-82641200D02*
X161830000Y-82641200D01*
X159170000Y-92861200D02*
X161830000Y-92861200D01*
X160500000Y-80041200D02*
X161830000Y-80041200D01*
X161830000Y-80041200D02*
X161830000Y-81371200D01*
X161830000Y-82641200D02*
X161830000Y-92861200D01*
%TO.C,J7*%
X159170000Y-49270000D02*
X159170000Y-59490000D01*
X159170000Y-49270000D02*
X161830000Y-49270000D01*
X159170000Y-59490000D02*
X161830000Y-59490000D01*
X160500000Y-46670000D02*
X161830000Y-46670000D01*
X161830000Y-46670000D02*
X161830000Y-48000000D01*
X161830000Y-49270000D02*
X161830000Y-59490000D01*
%TO.C,J4*%
X170200000Y-33700000D02*
X170200000Y-34300000D01*
X170439000Y-33940000D02*
X170439000Y-74060000D01*
X171040000Y-33700000D02*
X170200000Y-33700000D01*
X171100000Y-33940000D02*
X171100000Y-74060000D01*
X171700000Y-33940000D02*
X171700000Y-74060000D01*
X172784000Y-40490000D02*
X172726000Y-40431000D01*
X172784000Y-45490000D02*
X172726000Y-45431000D01*
X172784000Y-50490000D02*
X172726000Y-50431000D01*
X172784000Y-55490000D02*
X172726000Y-55431000D01*
X172784000Y-60490000D02*
X172726000Y-60431000D01*
X172784000Y-65490000D02*
X172726000Y-65431000D01*
X172784000Y-70490000D02*
X172726000Y-70431000D01*
X173024000Y-40320000D02*
X172931000Y-40226000D01*
X173024000Y-45320000D02*
X172931000Y-45226000D01*
X173024000Y-50320000D02*
X172931000Y-50226000D01*
X173024000Y-55320000D02*
X172931000Y-55226000D01*
X173024000Y-60320000D02*
X172931000Y-60226000D01*
X173024000Y-65320000D02*
X172931000Y-65226000D01*
X173024000Y-70320000D02*
X172931000Y-70226000D01*
X175069000Y-42775000D02*
X174976000Y-42681000D01*
X175069000Y-47775000D02*
X174976000Y-47681000D01*
X175069000Y-52775000D02*
X174976000Y-52681000D01*
X175069000Y-57775000D02*
X174976000Y-57681000D01*
X175069000Y-62775000D02*
X174976000Y-62681000D01*
X175069000Y-67775000D02*
X174976000Y-67681000D01*
X175069000Y-72775000D02*
X174976000Y-72681000D01*
X175275000Y-42570000D02*
X175216000Y-42511000D01*
X175275000Y-47570000D02*
X175216000Y-47511000D01*
X175275000Y-52570000D02*
X175216000Y-52511000D01*
X175275000Y-57570000D02*
X175216000Y-57511000D01*
X175275000Y-62570000D02*
X175216000Y-62511000D01*
X175275000Y-67570000D02*
X175216000Y-67511000D01*
X175275000Y-72570000D02*
X175216000Y-72511000D01*
X176400000Y-33940000D02*
X176400000Y-74060000D01*
X178160000Y-33940000D02*
X170439000Y-33940000D01*
X178160000Y-33940000D02*
X178160000Y-74060000D01*
X178160000Y-74060000D02*
X170439000Y-74060000D01*
X172319550Y-36529383D02*
G75*
G02*
X172516000Y-35711000I1680445J29385D01*
G01*
X172516648Y-37288712D02*
G75*
G02*
X172320000Y-36500000I1483352J788712D01*
G01*
X173210911Y-35016047D02*
G75*
G02*
X174789000Y-35016000I789089J-1483948D01*
G01*
X174789089Y-37983953D02*
G75*
G02*
X173211000Y-37984000I-789089J1483953D01*
G01*
X175483953Y-35710911D02*
G75*
G02*
X175484000Y-37289000I-1483948J-789089D01*
G01*
X175680000Y-41500000D02*
G75*
G02*
X172320000Y-41500000I-1680000J0D01*
G01*
X172320000Y-41500000D02*
G75*
G02*
X175680000Y-41500000I1680000J0D01*
G01*
X175680000Y-46500000D02*
G75*
G02*
X172320000Y-46500000I-1680000J0D01*
G01*
X172320000Y-46500000D02*
G75*
G02*
X175680000Y-46500000I1680000J0D01*
G01*
X175680000Y-51500000D02*
G75*
G02*
X172320000Y-51500000I-1680000J0D01*
G01*
X172320000Y-51500000D02*
G75*
G02*
X175680000Y-51500000I1680000J0D01*
G01*
X175680000Y-56500000D02*
G75*
G02*
X172320000Y-56500000I-1680000J0D01*
G01*
X172320000Y-56500000D02*
G75*
G02*
X175680000Y-56500000I1680000J0D01*
G01*
X175680000Y-61500000D02*
G75*
G02*
X172320000Y-61500000I-1680000J0D01*
G01*
X172320000Y-61500000D02*
G75*
G02*
X175680000Y-61500000I1680000J0D01*
G01*
X175680000Y-66500000D02*
G75*
G02*
X172320000Y-66500000I-1680000J0D01*
G01*
X172320000Y-66500000D02*
G75*
G02*
X175680000Y-66500000I1680000J0D01*
G01*
X175680000Y-71500000D02*
G75*
G02*
X172320000Y-71500000I-1680000J0D01*
G01*
X172320000Y-71500000D02*
G75*
G02*
X175680000Y-71500000I1680000J0D01*
G01*
X177550000Y-36500000D02*
G75*
G02*
X176450000Y-36500000I-550000J0D01*
G01*
X176450000Y-36500000D02*
G75*
G02*
X177550000Y-36500000I550000J0D01*
G01*
X177550000Y-41500000D02*
G75*
G02*
X176450000Y-41500000I-550000J0D01*
G01*
X176450000Y-41500000D02*
G75*
G02*
X177550000Y-41500000I550000J0D01*
G01*
X177550000Y-46500000D02*
G75*
G02*
X176450000Y-46500000I-550000J0D01*
G01*
X176450000Y-46500000D02*
G75*
G02*
X177550000Y-46500000I550000J0D01*
G01*
X177550000Y-51500000D02*
G75*
G02*
X176450000Y-51500000I-550000J0D01*
G01*
X176450000Y-51500000D02*
G75*
G02*
X177550000Y-51500000I550000J0D01*
G01*
X177550000Y-56500000D02*
G75*
G02*
X176450000Y-56500000I-550000J0D01*
G01*
X176450000Y-56500000D02*
G75*
G02*
X177550000Y-56500000I550000J0D01*
G01*
X177550000Y-61500000D02*
G75*
G02*
X176450000Y-61500000I-550000J0D01*
G01*
X176450000Y-61500000D02*
G75*
G02*
X177550000Y-61500000I550000J0D01*
G01*
X177550000Y-66500000D02*
G75*
G02*
X176450000Y-66500000I-550000J0D01*
G01*
X176450000Y-66500000D02*
G75*
G02*
X177550000Y-66500000I550000J0D01*
G01*
X177550000Y-71500000D02*
G75*
G02*
X176450000Y-71500000I-550000J0D01*
G01*
X176450000Y-71500000D02*
G75*
G02*
X177550000Y-71500000I550000J0D01*
G01*
%TO.C,J6*%
X159170000Y-65955600D02*
X159170000Y-76175600D01*
X159170000Y-65955600D02*
X161830000Y-65955600D01*
X159170000Y-76175600D02*
X161830000Y-76175600D01*
X160500000Y-63355600D02*
X161830000Y-63355600D01*
X161830000Y-63355600D02*
X161830000Y-64685600D01*
X161830000Y-65955600D02*
X161830000Y-76175600D01*
%TO.C,J3*%
X170200000Y-75700000D02*
X170200000Y-76300000D01*
X170439000Y-75940000D02*
X170439000Y-116060000D01*
X171040000Y-75700000D02*
X170200000Y-75700000D01*
X171100000Y-75940000D02*
X171100000Y-116060000D01*
X171700000Y-75940000D02*
X171700000Y-116060000D01*
X172784000Y-82490000D02*
X172726000Y-82431000D01*
X172784000Y-87490000D02*
X172726000Y-87431000D01*
X172784000Y-92490000D02*
X172726000Y-92431000D01*
X172784000Y-97490000D02*
X172726000Y-97431000D01*
X172784000Y-102490000D02*
X172726000Y-102431000D01*
X172784000Y-107490000D02*
X172726000Y-107431000D01*
X172784000Y-112490000D02*
X172726000Y-112431000D01*
X173024000Y-82320000D02*
X172931000Y-82226000D01*
X173024000Y-87320000D02*
X172931000Y-87226000D01*
X173024000Y-92320000D02*
X172931000Y-92226000D01*
X173024000Y-97320000D02*
X172931000Y-97226000D01*
X173024000Y-102320000D02*
X172931000Y-102226000D01*
X173024000Y-107320000D02*
X172931000Y-107226000D01*
X173024000Y-112320000D02*
X172931000Y-112226000D01*
X175069000Y-84775000D02*
X174976000Y-84681000D01*
X175069000Y-89775000D02*
X174976000Y-89681000D01*
X175069000Y-94775000D02*
X174976000Y-94681000D01*
X175069000Y-99775000D02*
X174976000Y-99681000D01*
X175069000Y-104775000D02*
X174976000Y-104681000D01*
X175069000Y-109775000D02*
X174976000Y-109681000D01*
X175069000Y-114775000D02*
X174976000Y-114681000D01*
X175275000Y-84570000D02*
X175216000Y-84511000D01*
X175275000Y-89570000D02*
X175216000Y-89511000D01*
X175275000Y-94570000D02*
X175216000Y-94511000D01*
X175275000Y-99570000D02*
X175216000Y-99511000D01*
X175275000Y-104570000D02*
X175216000Y-104511000D01*
X175275000Y-109570000D02*
X175216000Y-109511000D01*
X175275000Y-114570000D02*
X175216000Y-114511000D01*
X176400000Y-75940000D02*
X176400000Y-116060000D01*
X178160000Y-75940000D02*
X170439000Y-75940000D01*
X178160000Y-75940000D02*
X178160000Y-116060000D01*
X178160000Y-116060000D02*
X170439000Y-116060000D01*
X172319550Y-78529383D02*
G75*
G02*
X172516000Y-77711000I1680445J29385D01*
G01*
X172516648Y-79288712D02*
G75*
G02*
X172320000Y-78500000I1483352J788712D01*
G01*
X173210911Y-77016047D02*
G75*
G02*
X174789000Y-77016000I789089J-1483948D01*
G01*
X174789089Y-79983953D02*
G75*
G02*
X173211000Y-79984000I-789089J1483953D01*
G01*
X175483953Y-77710911D02*
G75*
G02*
X175484000Y-79289000I-1483948J-789089D01*
G01*
X175680000Y-83500000D02*
G75*
G02*
X172320000Y-83500000I-1680000J0D01*
G01*
X172320000Y-83500000D02*
G75*
G02*
X175680000Y-83500000I1680000J0D01*
G01*
X175680000Y-88500000D02*
G75*
G02*
X172320000Y-88500000I-1680000J0D01*
G01*
X172320000Y-88500000D02*
G75*
G02*
X175680000Y-88500000I1680000J0D01*
G01*
X175680000Y-93500000D02*
G75*
G02*
X172320000Y-93500000I-1680000J0D01*
G01*
X172320000Y-93500000D02*
G75*
G02*
X175680000Y-93500000I1680000J0D01*
G01*
X175680000Y-98500000D02*
G75*
G02*
X172320000Y-98500000I-1680000J0D01*
G01*
X172320000Y-98500000D02*
G75*
G02*
X175680000Y-98500000I1680000J0D01*
G01*
X175680000Y-103500000D02*
G75*
G02*
X172320000Y-103500000I-1680000J0D01*
G01*
X172320000Y-103500000D02*
G75*
G02*
X175680000Y-103500000I1680000J0D01*
G01*
X175680000Y-108500000D02*
G75*
G02*
X172320000Y-108500000I-1680000J0D01*
G01*
X172320000Y-108500000D02*
G75*
G02*
X175680000Y-108500000I1680000J0D01*
G01*
X175680000Y-113500000D02*
G75*
G02*
X172320000Y-113500000I-1680000J0D01*
G01*
X172320000Y-113500000D02*
G75*
G02*
X175680000Y-113500000I1680000J0D01*
G01*
X177550000Y-78500000D02*
G75*
G02*
X176450000Y-78500000I-550000J0D01*
G01*
X176450000Y-78500000D02*
G75*
G02*
X177550000Y-78500000I550000J0D01*
G01*
X177550000Y-83500000D02*
G75*
G02*
X176450000Y-83500000I-550000J0D01*
G01*
X176450000Y-83500000D02*
G75*
G02*
X177550000Y-83500000I550000J0D01*
G01*
X177550000Y-88500000D02*
G75*
G02*
X176450000Y-88500000I-550000J0D01*
G01*
X176450000Y-88500000D02*
G75*
G02*
X177550000Y-88500000I550000J0D01*
G01*
X177550000Y-93500000D02*
G75*
G02*
X176450000Y-93500000I-550000J0D01*
G01*
X176450000Y-93500000D02*
G75*
G02*
X177550000Y-93500000I550000J0D01*
G01*
X177550000Y-98500000D02*
G75*
G02*
X176450000Y-98500000I-550000J0D01*
G01*
X176450000Y-98500000D02*
G75*
G02*
X177550000Y-98500000I550000J0D01*
G01*
X177550000Y-103500000D02*
G75*
G02*
X176450000Y-103500000I-550000J0D01*
G01*
X176450000Y-103500000D02*
G75*
G02*
X177550000Y-103500000I550000J0D01*
G01*
X177550000Y-108500000D02*
G75*
G02*
X176450000Y-108500000I-550000J0D01*
G01*
X176450000Y-108500000D02*
G75*
G02*
X177550000Y-108500000I550000J0D01*
G01*
X177550000Y-113500000D02*
G75*
G02*
X176450000Y-113500000I-550000J0D01*
G01*
X176450000Y-113500000D02*
G75*
G02*
X177550000Y-113500000I550000J0D01*
G01*
%TO.C,D1*%
X156435000Y-28764000D02*
X156435000Y-28920000D01*
X156435000Y-31080000D02*
X156435000Y-31236000D01*
X156435000Y-28764484D02*
G75*
G02*
X159667335Y-28921392I1560000J-1235516D01*
G01*
X156954039Y-28920000D02*
G75*
G02*
X159036130Y-28920163I1040961J-1080000D01*
G01*
X159036130Y-31079837D02*
G75*
G02*
X156954039Y-31080000I-1041130J1079837D01*
G01*
X159667335Y-31078608D02*
G75*
G02*
X156435000Y-31235516I-1672335J1078608D01*
G01*
%TO.C,U1*%
X92000000Y-113720000D02*
X92000000Y-88290000D01*
X92000000Y-113720000D02*
X94540000Y-113720000D01*
X94540000Y-113720000D02*
X94540000Y-120620000D01*
X94540000Y-120620000D02*
X117860000Y-120620000D01*
X115740000Y-86160000D02*
X94130000Y-86160000D01*
X117860000Y-120620000D02*
X117860000Y-88290000D01*
X92000000Y-88290000D02*
G75*
G02*
X94130000Y-86160000I2130002J-2D01*
G01*
X115730000Y-86160000D02*
G75*
G02*
X117860000Y-88290000I0J-2130000D01*
G01*
D12*
X91595000Y-94500000D02*
X90960000Y-95135000D01*
X90960000Y-93865000D01*
X91595000Y-94500000D01*
G36*
X91595000Y-94500000D02*
G01*
X90960000Y-95135000D01*
X90960000Y-93865000D01*
X91595000Y-94500000D01*
G37*
%TD*%
M02*
