M48
; DRILL file {KiCad 8.0.3} date 2024-06-10T16:35:46-0400
; FORMAT={-:-/ absolute / inch / decimal}
; #@! TF.CreationDate,2024-06-10T16:35:46-04:00
; #@! TF.GenerationSoftware,Kicad,Pcbnew,8.0.3
; #@! TF.FileFunction,Plated,1,2,PTH
FMAT,2
INCH
; #@! TA.AperFunction,Plated,PTH,ViaDrill
T1C0.0118
; #@! TA.AperFunction,Plated,PTH,ComponentDrill
T2C0.0315
; #@! TA.AperFunction,Plated,PTH,ComponentDrill
T3C0.0354
; #@! TA.AperFunction,Plated,PTH,ComponentDrill
T4C0.0394
; #@! TA.AperFunction,Plated,PTH,ComponentDrill
T5C0.0433
; #@! TA.AperFunction,Plated,PTH,ComponentDrill
T6C0.0512
%
G90
G05
T1
X6.1565Y-3.9585
T2
X6.2205Y-1.3854
X6.2205Y-1.6854
T3
X6.1703Y-1.1811
X6.2703Y-1.1811
T4
X3.4646Y-3.7211
X3.4646Y-3.8211
X3.4646Y-3.9211
X3.4646Y-4.0211
X3.4646Y-4.1211
X3.4646Y-4.2211
X3.4646Y-4.3211
X3.4646Y-4.4211
X3.6811Y-2.126
X3.6811Y-2.226
X3.6811Y-2.326
X3.6811Y-2.426
X3.6811Y-2.526
X3.6811Y-2.626
X3.6811Y-2.726
X3.6811Y-2.826
X3.6811Y-3.7205
X3.6811Y-3.8205
X3.6811Y-3.9205
X3.6811Y-4.0205
X3.6811Y-4.1205
X3.6811Y-4.2205
X3.6811Y-4.3205
X3.6811Y-4.4205
X4.5811Y-2.126
X4.5811Y-2.226
X4.5811Y-2.326
X4.5811Y-2.426
X4.5811Y-2.526
X4.5811Y-2.626
X4.5811Y-2.726
X4.5811Y-2.826
X4.5811Y-3.7205
X4.5811Y-3.8205
X4.5811Y-3.9205
X4.5811Y-4.0205
X4.5811Y-4.1205
X4.5811Y-4.2205
X4.5811Y-4.3205
X4.5811Y-4.4205
X4.8031Y-3.7211
X4.8031Y-3.8211
X4.8031Y-3.9211
X4.8031Y-4.0211
X4.8031Y-4.1211
X4.8031Y-4.2211
X4.8031Y-4.3211
X4.8031Y-4.4211
X5.1772Y-2.126
X5.1772Y-2.226
X5.1772Y-2.326
X5.1772Y-2.426
X5.1772Y-2.526
X5.1772Y-2.626
X5.1772Y-2.726
X5.1772Y-2.826
X5.1772Y-3.7205
X5.1772Y-3.8205
X5.1772Y-3.9205
X5.1772Y-4.0205
X5.1772Y-4.1205
X5.1772Y-4.2205
X5.1772Y-4.3205
X5.1772Y-4.4205
X6.0772Y-2.126
X6.0772Y-2.226
X6.0772Y-2.326
X6.0772Y-2.426
X6.0772Y-2.526
X6.0772Y-2.626
X6.0772Y-2.726
X6.0772Y-2.826
X6.0772Y-3.7205
X6.0772Y-3.8205
X6.0772Y-3.9205
X6.0772Y-4.0205
X6.0772Y-4.1205
X6.0772Y-4.2205
X6.0772Y-4.3205
X6.0772Y-4.4205
X6.3189Y-1.8898
X6.3189Y-1.9898
X6.3189Y-2.0898
X6.3189Y-2.1898
X6.3189Y-2.2898
X6.3189Y-2.5467
X6.3189Y-2.6467
X6.3189Y-2.7467
X6.3189Y-2.8467
X6.3189Y-2.9467
X6.3189Y-3.2036
X6.3189Y-3.3036
X6.3189Y-3.4036
X6.3189Y-3.5036
X6.3189Y-3.6036
T5
X3.2677Y-3.1102
X3.2677Y-3.3661
X3.4449Y-3.1102
X3.4449Y-3.3661
T6
X6.8504Y-1.437
X6.8504Y-1.6339
X6.8504Y-1.8307
X6.8504Y-2.0276
X6.8504Y-2.2244
X6.8504Y-2.4213
X6.8504Y-2.6181
X6.8504Y-2.815
X6.8504Y-3.0906
X6.8504Y-3.2874
X6.8504Y-3.4843
X6.8504Y-3.6811
X6.8504Y-3.878
X6.8504Y-4.0748
X6.8504Y-4.2717
X6.8504Y-4.4685
M30
