%TF.GenerationSoftware,KiCad,Pcbnew,8.0.3*%
%TF.CreationDate,2024-06-10T16:35:51-04:00*%
%TF.ProjectId,Kicad 8,4b696361-6420-4382-9e6b-696361645f70,rev?*%
%TF.SameCoordinates,Original*%
%TF.FileFunction,Legend,Bot*%
%TF.FilePolarity,Positive*%
%FSLAX46Y46*%
G04 Gerber Fmt 4.6, Leading zero omitted, Abs format (unit mm)*
G04 Created by KiCad (PCBNEW 8.0.3) date 2024-06-10 16:35:51*
%MOMM*%
%LPD*%
G01*
G04 APERTURE LIST*
%ADD10C,0.100000*%
G04 APERTURE END LIST*
D10*
X138247617Y-37183684D02*
X138247617Y-34983684D01*
X138247617Y-34983684D02*
X137409522Y-34983684D01*
X137409522Y-34983684D02*
X137199998Y-35088446D01*
X137199998Y-35088446D02*
X137095236Y-35193208D01*
X137095236Y-35193208D02*
X136990474Y-35402732D01*
X136990474Y-35402732D02*
X136990474Y-35717018D01*
X136990474Y-35717018D02*
X137095236Y-35926542D01*
X137095236Y-35926542D02*
X137199998Y-36031303D01*
X137199998Y-36031303D02*
X137409522Y-36136065D01*
X137409522Y-36136065D02*
X138247617Y-36136065D01*
X136047617Y-37183684D02*
X136047617Y-35717018D01*
X136047617Y-36136065D02*
X135942855Y-35926542D01*
X135942855Y-35926542D02*
X135838093Y-35821780D01*
X135838093Y-35821780D02*
X135628569Y-35717018D01*
X135628569Y-35717018D02*
X135419046Y-35717018D01*
X134371426Y-37183684D02*
X134580950Y-37078923D01*
X134580950Y-37078923D02*
X134685712Y-36974161D01*
X134685712Y-36974161D02*
X134790474Y-36764637D01*
X134790474Y-36764637D02*
X134790474Y-36136065D01*
X134790474Y-36136065D02*
X134685712Y-35926542D01*
X134685712Y-35926542D02*
X134580950Y-35821780D01*
X134580950Y-35821780D02*
X134371426Y-35717018D01*
X134371426Y-35717018D02*
X134057141Y-35717018D01*
X134057141Y-35717018D02*
X133847617Y-35821780D01*
X133847617Y-35821780D02*
X133742855Y-35926542D01*
X133742855Y-35926542D02*
X133638093Y-36136065D01*
X133638093Y-36136065D02*
X133638093Y-36764637D01*
X133638093Y-36764637D02*
X133742855Y-36974161D01*
X133742855Y-36974161D02*
X133847617Y-37078923D01*
X133847617Y-37078923D02*
X134057141Y-37183684D01*
X134057141Y-37183684D02*
X134371426Y-37183684D01*
X132695236Y-35717018D02*
X132695236Y-37602732D01*
X132695236Y-37602732D02*
X132799998Y-37812256D01*
X132799998Y-37812256D02*
X133009522Y-37917018D01*
X133009522Y-37917018D02*
X133114284Y-37917018D01*
X132695236Y-34983684D02*
X132799998Y-35088446D01*
X132799998Y-35088446D02*
X132695236Y-35193208D01*
X132695236Y-35193208D02*
X132590474Y-35088446D01*
X132590474Y-35088446D02*
X132695236Y-34983684D01*
X132695236Y-34983684D02*
X132695236Y-35193208D01*
X130809522Y-37078923D02*
X131019046Y-37183684D01*
X131019046Y-37183684D02*
X131438093Y-37183684D01*
X131438093Y-37183684D02*
X131647617Y-37078923D01*
X131647617Y-37078923D02*
X131752379Y-36869399D01*
X131752379Y-36869399D02*
X131752379Y-36031303D01*
X131752379Y-36031303D02*
X131647617Y-35821780D01*
X131647617Y-35821780D02*
X131438093Y-35717018D01*
X131438093Y-35717018D02*
X131019046Y-35717018D01*
X131019046Y-35717018D02*
X130809522Y-35821780D01*
X130809522Y-35821780D02*
X130704760Y-36031303D01*
X130704760Y-36031303D02*
X130704760Y-36240827D01*
X130704760Y-36240827D02*
X131752379Y-36450351D01*
X128819046Y-37078923D02*
X129028570Y-37183684D01*
X129028570Y-37183684D02*
X129447617Y-37183684D01*
X129447617Y-37183684D02*
X129657141Y-37078923D01*
X129657141Y-37078923D02*
X129761903Y-36974161D01*
X129761903Y-36974161D02*
X129866665Y-36764637D01*
X129866665Y-36764637D02*
X129866665Y-36136065D01*
X129866665Y-36136065D02*
X129761903Y-35926542D01*
X129761903Y-35926542D02*
X129657141Y-35821780D01*
X129657141Y-35821780D02*
X129447617Y-35717018D01*
X129447617Y-35717018D02*
X129028570Y-35717018D01*
X129028570Y-35717018D02*
X128819046Y-35821780D01*
X128190475Y-35717018D02*
X127352379Y-35717018D01*
X127876189Y-34983684D02*
X127876189Y-36869399D01*
X127876189Y-36869399D02*
X127771427Y-37078923D01*
X127771427Y-37078923D02*
X127561903Y-37183684D01*
X127561903Y-37183684D02*
X127352379Y-37183684D01*
X124942856Y-37183684D02*
X124942856Y-34983684D01*
X124942856Y-35821780D02*
X124733332Y-35717018D01*
X124733332Y-35717018D02*
X124314285Y-35717018D01*
X124314285Y-35717018D02*
X124104761Y-35821780D01*
X124104761Y-35821780D02*
X123999999Y-35926542D01*
X123999999Y-35926542D02*
X123895237Y-36136065D01*
X123895237Y-36136065D02*
X123895237Y-36764637D01*
X123895237Y-36764637D02*
X123999999Y-36974161D01*
X123999999Y-36974161D02*
X124104761Y-37078923D01*
X124104761Y-37078923D02*
X124314285Y-37183684D01*
X124314285Y-37183684D02*
X124733332Y-37183684D01*
X124733332Y-37183684D02*
X124942856Y-37078923D01*
X123161904Y-35717018D02*
X122638094Y-37183684D01*
X122114285Y-35717018D02*
X122638094Y-37183684D01*
X122638094Y-37183684D02*
X122847618Y-37707494D01*
X122847618Y-37707494D02*
X122952380Y-37812256D01*
X122952380Y-37812256D02*
X123161904Y-37917018D01*
X119704762Y-36555113D02*
X118657143Y-36555113D01*
X119914286Y-37183684D02*
X119180952Y-34983684D01*
X119180952Y-34983684D02*
X118447619Y-37183684D01*
X117714286Y-35717018D02*
X117714286Y-37183684D01*
X117714286Y-35926542D02*
X117609524Y-35821780D01*
X117609524Y-35821780D02*
X117400000Y-35717018D01*
X117400000Y-35717018D02*
X117085715Y-35717018D01*
X117085715Y-35717018D02*
X116876191Y-35821780D01*
X116876191Y-35821780D02*
X116771429Y-36031303D01*
X116771429Y-36031303D02*
X116771429Y-37183684D01*
X115409524Y-37183684D02*
X115619048Y-37078923D01*
X115619048Y-37078923D02*
X115723810Y-36974161D01*
X115723810Y-36974161D02*
X115828572Y-36764637D01*
X115828572Y-36764637D02*
X115828572Y-36136065D01*
X115828572Y-36136065D02*
X115723810Y-35926542D01*
X115723810Y-35926542D02*
X115619048Y-35821780D01*
X115619048Y-35821780D02*
X115409524Y-35717018D01*
X115409524Y-35717018D02*
X115095239Y-35717018D01*
X115095239Y-35717018D02*
X114885715Y-35821780D01*
X114885715Y-35821780D02*
X114780953Y-35926542D01*
X114780953Y-35926542D02*
X114676191Y-36136065D01*
X114676191Y-36136065D02*
X114676191Y-36764637D01*
X114676191Y-36764637D02*
X114780953Y-36974161D01*
X114780953Y-36974161D02*
X114885715Y-37078923D01*
X114885715Y-37078923D02*
X115095239Y-37183684D01*
X115095239Y-37183684D02*
X115409524Y-37183684D01*
X114047620Y-35717018D02*
X113209524Y-35717018D01*
X113733334Y-34983684D02*
X113733334Y-36869399D01*
X113733334Y-36869399D02*
X113628572Y-37078923D01*
X113628572Y-37078923D02*
X113419048Y-37183684D01*
X113419048Y-37183684D02*
X113209524Y-37183684D01*
X112476191Y-37183684D02*
X112476191Y-34983684D01*
X111533334Y-37183684D02*
X111533334Y-36031303D01*
X111533334Y-36031303D02*
X111638096Y-35821780D01*
X111638096Y-35821780D02*
X111847620Y-35717018D01*
X111847620Y-35717018D02*
X112161905Y-35717018D01*
X112161905Y-35717018D02*
X112371429Y-35821780D01*
X112371429Y-35821780D02*
X112476191Y-35926542D01*
X109647620Y-37078923D02*
X109857144Y-37183684D01*
X109857144Y-37183684D02*
X110276191Y-37183684D01*
X110276191Y-37183684D02*
X110485715Y-37078923D01*
X110485715Y-37078923D02*
X110590477Y-36869399D01*
X110590477Y-36869399D02*
X110590477Y-36031303D01*
X110590477Y-36031303D02*
X110485715Y-35821780D01*
X110485715Y-35821780D02*
X110276191Y-35717018D01*
X110276191Y-35717018D02*
X109857144Y-35717018D01*
X109857144Y-35717018D02*
X109647620Y-35821780D01*
X109647620Y-35821780D02*
X109542858Y-36031303D01*
X109542858Y-36031303D02*
X109542858Y-36240827D01*
X109542858Y-36240827D02*
X110590477Y-36450351D01*
X108600001Y-37183684D02*
X108600001Y-35717018D01*
X108600001Y-36136065D02*
X108495239Y-35926542D01*
X108495239Y-35926542D02*
X108390477Y-35821780D01*
X108390477Y-35821780D02*
X108180953Y-35717018D01*
X108180953Y-35717018D02*
X107971430Y-35717018D01*
X107238096Y-37183684D02*
X107238096Y-34983684D01*
X107238096Y-34983684D02*
X106504763Y-36555113D01*
X106504763Y-36555113D02*
X105771429Y-34983684D01*
X105771429Y-34983684D02*
X105771429Y-37183684D01*
X103780953Y-37183684D02*
X103780953Y-36031303D01*
X103780953Y-36031303D02*
X103885715Y-35821780D01*
X103885715Y-35821780D02*
X104095239Y-35717018D01*
X104095239Y-35717018D02*
X104514286Y-35717018D01*
X104514286Y-35717018D02*
X104723810Y-35821780D01*
X103780953Y-37078923D02*
X103990477Y-37183684D01*
X103990477Y-37183684D02*
X104514286Y-37183684D01*
X104514286Y-37183684D02*
X104723810Y-37078923D01*
X104723810Y-37078923D02*
X104828572Y-36869399D01*
X104828572Y-36869399D02*
X104828572Y-36659875D01*
X104828572Y-36659875D02*
X104723810Y-36450351D01*
X104723810Y-36450351D02*
X104514286Y-36345589D01*
X104514286Y-36345589D02*
X103990477Y-36345589D01*
X103990477Y-36345589D02*
X103780953Y-36240827D01*
X102733334Y-37183684D02*
X102733334Y-34983684D01*
X102523810Y-36345589D02*
X101895239Y-37183684D01*
X101895239Y-35717018D02*
X102733334Y-36555113D01*
X100114287Y-37078923D02*
X100323811Y-37183684D01*
X100323811Y-37183684D02*
X100742858Y-37183684D01*
X100742858Y-37183684D02*
X100952382Y-37078923D01*
X100952382Y-37078923D02*
X101057144Y-36869399D01*
X101057144Y-36869399D02*
X101057144Y-36031303D01*
X101057144Y-36031303D02*
X100952382Y-35821780D01*
X100952382Y-35821780D02*
X100742858Y-35717018D01*
X100742858Y-35717018D02*
X100323811Y-35717018D01*
X100323811Y-35717018D02*
X100114287Y-35821780D01*
X100114287Y-35821780D02*
X100009525Y-36031303D01*
X100009525Y-36031303D02*
X100009525Y-36240827D01*
X100009525Y-36240827D02*
X101057144Y-36450351D01*
X99066668Y-37183684D02*
X99066668Y-35717018D01*
X99066668Y-36136065D02*
X98961906Y-35926542D01*
X98961906Y-35926542D02*
X98857144Y-35821780D01*
X98857144Y-35821780D02*
X98647620Y-35717018D01*
X98647620Y-35717018D02*
X98438097Y-35717018D01*
X154852378Y-40725561D02*
X154852378Y-38525561D01*
X153909521Y-40725561D02*
X153909521Y-39573180D01*
X153909521Y-39573180D02*
X154014283Y-39363657D01*
X154014283Y-39363657D02*
X154223807Y-39258895D01*
X154223807Y-39258895D02*
X154538092Y-39258895D01*
X154538092Y-39258895D02*
X154747616Y-39363657D01*
X154747616Y-39363657D02*
X154852378Y-39468419D01*
X153176188Y-39258895D02*
X152338092Y-39258895D01*
X152861902Y-38525561D02*
X152861902Y-40411276D01*
X152861902Y-40411276D02*
X152757140Y-40620800D01*
X152757140Y-40620800D02*
X152547616Y-40725561D01*
X152547616Y-40725561D02*
X152338092Y-40725561D01*
X151919045Y-39258895D02*
X151080949Y-39258895D01*
X151604759Y-38525561D02*
X151604759Y-40411276D01*
X151604759Y-40411276D02*
X151499997Y-40620800D01*
X151499997Y-40620800D02*
X151290473Y-40725561D01*
X151290473Y-40725561D02*
X151080949Y-40725561D01*
X150347616Y-39258895D02*
X150347616Y-41458895D01*
X150347616Y-39363657D02*
X150138092Y-39258895D01*
X150138092Y-39258895D02*
X149719045Y-39258895D01*
X149719045Y-39258895D02*
X149509521Y-39363657D01*
X149509521Y-39363657D02*
X149404759Y-39468419D01*
X149404759Y-39468419D02*
X149299997Y-39677942D01*
X149299997Y-39677942D02*
X149299997Y-40306514D01*
X149299997Y-40306514D02*
X149404759Y-40516038D01*
X149404759Y-40516038D02*
X149509521Y-40620800D01*
X149509521Y-40620800D02*
X149719045Y-40725561D01*
X149719045Y-40725561D02*
X150138092Y-40725561D01*
X150138092Y-40725561D02*
X150347616Y-40620800D01*
X148461902Y-40620800D02*
X148252378Y-40725561D01*
X148252378Y-40725561D02*
X147833330Y-40725561D01*
X147833330Y-40725561D02*
X147623807Y-40620800D01*
X147623807Y-40620800D02*
X147519045Y-40411276D01*
X147519045Y-40411276D02*
X147519045Y-40306514D01*
X147519045Y-40306514D02*
X147623807Y-40096990D01*
X147623807Y-40096990D02*
X147833330Y-39992228D01*
X147833330Y-39992228D02*
X148147616Y-39992228D01*
X148147616Y-39992228D02*
X148357140Y-39887466D01*
X148357140Y-39887466D02*
X148461902Y-39677942D01*
X148461902Y-39677942D02*
X148461902Y-39573180D01*
X148461902Y-39573180D02*
X148357140Y-39363657D01*
X148357140Y-39363657D02*
X148147616Y-39258895D01*
X148147616Y-39258895D02*
X147833330Y-39258895D01*
X147833330Y-39258895D02*
X147623807Y-39363657D01*
X146576188Y-40516038D02*
X146471426Y-40620800D01*
X146471426Y-40620800D02*
X146576188Y-40725561D01*
X146576188Y-40725561D02*
X146680950Y-40620800D01*
X146680950Y-40620800D02*
X146576188Y-40516038D01*
X146576188Y-40516038D02*
X146576188Y-40725561D01*
X146576188Y-39363657D02*
X146471426Y-39468419D01*
X146471426Y-39468419D02*
X146576188Y-39573180D01*
X146576188Y-39573180D02*
X146680950Y-39468419D01*
X146680950Y-39468419D02*
X146576188Y-39363657D01*
X146576188Y-39363657D02*
X146576188Y-39573180D01*
X143957140Y-38420800D02*
X145842855Y-41249371D01*
X141652378Y-38420800D02*
X143538093Y-41249371D01*
X139976188Y-39258895D02*
X139976188Y-41039847D01*
X139976188Y-41039847D02*
X140080950Y-41249371D01*
X140080950Y-41249371D02*
X140185712Y-41354133D01*
X140185712Y-41354133D02*
X140395235Y-41458895D01*
X140395235Y-41458895D02*
X140709521Y-41458895D01*
X140709521Y-41458895D02*
X140919045Y-41354133D01*
X139976188Y-40620800D02*
X140185712Y-40725561D01*
X140185712Y-40725561D02*
X140604759Y-40725561D01*
X140604759Y-40725561D02*
X140814283Y-40620800D01*
X140814283Y-40620800D02*
X140919045Y-40516038D01*
X140919045Y-40516038D02*
X141023807Y-40306514D01*
X141023807Y-40306514D02*
X141023807Y-39677942D01*
X141023807Y-39677942D02*
X140919045Y-39468419D01*
X140919045Y-39468419D02*
X140814283Y-39363657D01*
X140814283Y-39363657D02*
X140604759Y-39258895D01*
X140604759Y-39258895D02*
X140185712Y-39258895D01*
X140185712Y-39258895D02*
X139976188Y-39363657D01*
X138928569Y-40725561D02*
X138928569Y-39258895D01*
X138928569Y-38525561D02*
X139033331Y-38630323D01*
X139033331Y-38630323D02*
X138928569Y-38735085D01*
X138928569Y-38735085D02*
X138823807Y-38630323D01*
X138823807Y-38630323D02*
X138928569Y-38525561D01*
X138928569Y-38525561D02*
X138928569Y-38735085D01*
X138195236Y-39258895D02*
X137357140Y-39258895D01*
X137880950Y-38525561D02*
X137880950Y-40411276D01*
X137880950Y-40411276D02*
X137776188Y-40620800D01*
X137776188Y-40620800D02*
X137566664Y-40725561D01*
X137566664Y-40725561D02*
X137357140Y-40725561D01*
X136623807Y-40725561D02*
X136623807Y-38525561D01*
X135680950Y-40725561D02*
X135680950Y-39573180D01*
X135680950Y-39573180D02*
X135785712Y-39363657D01*
X135785712Y-39363657D02*
X135995236Y-39258895D01*
X135995236Y-39258895D02*
X136309521Y-39258895D01*
X136309521Y-39258895D02*
X136519045Y-39363657D01*
X136519045Y-39363657D02*
X136623807Y-39468419D01*
X133690474Y-39258895D02*
X133690474Y-40725561D01*
X134633331Y-39258895D02*
X134633331Y-40411276D01*
X134633331Y-40411276D02*
X134528569Y-40620800D01*
X134528569Y-40620800D02*
X134319045Y-40725561D01*
X134319045Y-40725561D02*
X134004760Y-40725561D01*
X134004760Y-40725561D02*
X133795236Y-40620800D01*
X133795236Y-40620800D02*
X133690474Y-40516038D01*
X132642855Y-40725561D02*
X132642855Y-38525561D01*
X132642855Y-39363657D02*
X132433331Y-39258895D01*
X132433331Y-39258895D02*
X132014284Y-39258895D01*
X132014284Y-39258895D02*
X131804760Y-39363657D01*
X131804760Y-39363657D02*
X131699998Y-39468419D01*
X131699998Y-39468419D02*
X131595236Y-39677942D01*
X131595236Y-39677942D02*
X131595236Y-40306514D01*
X131595236Y-40306514D02*
X131699998Y-40516038D01*
X131699998Y-40516038D02*
X131804760Y-40620800D01*
X131804760Y-40620800D02*
X132014284Y-40725561D01*
X132014284Y-40725561D02*
X132433331Y-40725561D01*
X132433331Y-40725561D02*
X132642855Y-40620800D01*
X130652379Y-40516038D02*
X130547617Y-40620800D01*
X130547617Y-40620800D02*
X130652379Y-40725561D01*
X130652379Y-40725561D02*
X130757141Y-40620800D01*
X130757141Y-40620800D02*
X130652379Y-40516038D01*
X130652379Y-40516038D02*
X130652379Y-40725561D01*
X128661903Y-40620800D02*
X128871427Y-40725561D01*
X128871427Y-40725561D02*
X129290474Y-40725561D01*
X129290474Y-40725561D02*
X129499998Y-40620800D01*
X129499998Y-40620800D02*
X129604760Y-40516038D01*
X129604760Y-40516038D02*
X129709522Y-40306514D01*
X129709522Y-40306514D02*
X129709522Y-39677942D01*
X129709522Y-39677942D02*
X129604760Y-39468419D01*
X129604760Y-39468419D02*
X129499998Y-39363657D01*
X129499998Y-39363657D02*
X129290474Y-39258895D01*
X129290474Y-39258895D02*
X128871427Y-39258895D01*
X128871427Y-39258895D02*
X128661903Y-39363657D01*
X127404760Y-40725561D02*
X127614284Y-40620800D01*
X127614284Y-40620800D02*
X127719046Y-40516038D01*
X127719046Y-40516038D02*
X127823808Y-40306514D01*
X127823808Y-40306514D02*
X127823808Y-39677942D01*
X127823808Y-39677942D02*
X127719046Y-39468419D01*
X127719046Y-39468419D02*
X127614284Y-39363657D01*
X127614284Y-39363657D02*
X127404760Y-39258895D01*
X127404760Y-39258895D02*
X127090475Y-39258895D01*
X127090475Y-39258895D02*
X126880951Y-39363657D01*
X126880951Y-39363657D02*
X126776189Y-39468419D01*
X126776189Y-39468419D02*
X126671427Y-39677942D01*
X126671427Y-39677942D02*
X126671427Y-40306514D01*
X126671427Y-40306514D02*
X126776189Y-40516038D01*
X126776189Y-40516038D02*
X126880951Y-40620800D01*
X126880951Y-40620800D02*
X127090475Y-40725561D01*
X127090475Y-40725561D02*
X127404760Y-40725561D01*
X125728570Y-40725561D02*
X125728570Y-39258895D01*
X125728570Y-39468419D02*
X125623808Y-39363657D01*
X125623808Y-39363657D02*
X125414284Y-39258895D01*
X125414284Y-39258895D02*
X125099999Y-39258895D01*
X125099999Y-39258895D02*
X124890475Y-39363657D01*
X124890475Y-39363657D02*
X124785713Y-39573180D01*
X124785713Y-39573180D02*
X124785713Y-40725561D01*
X124785713Y-39573180D02*
X124680951Y-39363657D01*
X124680951Y-39363657D02*
X124471427Y-39258895D01*
X124471427Y-39258895D02*
X124157141Y-39258895D01*
X124157141Y-39258895D02*
X123947618Y-39363657D01*
X123947618Y-39363657D02*
X123842856Y-39573180D01*
X123842856Y-39573180D02*
X123842856Y-40725561D01*
X121223808Y-38420800D02*
X123109523Y-41249371D01*
X120490475Y-40725561D02*
X120490475Y-39258895D01*
X120490475Y-39468419D02*
X120385713Y-39363657D01*
X120385713Y-39363657D02*
X120176189Y-39258895D01*
X120176189Y-39258895D02*
X119861904Y-39258895D01*
X119861904Y-39258895D02*
X119652380Y-39363657D01*
X119652380Y-39363657D02*
X119547618Y-39573180D01*
X119547618Y-39573180D02*
X119547618Y-40725561D01*
X119547618Y-39573180D02*
X119442856Y-39363657D01*
X119442856Y-39363657D02*
X119233332Y-39258895D01*
X119233332Y-39258895D02*
X118919046Y-39258895D01*
X118919046Y-39258895D02*
X118709523Y-39363657D01*
X118709523Y-39363657D02*
X118604761Y-39573180D01*
X118604761Y-39573180D02*
X118604761Y-40725561D01*
X116614285Y-39258895D02*
X116614285Y-40725561D01*
X117557142Y-39258895D02*
X117557142Y-40411276D01*
X117557142Y-40411276D02*
X117452380Y-40620800D01*
X117452380Y-40620800D02*
X117242856Y-40725561D01*
X117242856Y-40725561D02*
X116928571Y-40725561D01*
X116928571Y-40725561D02*
X116719047Y-40620800D01*
X116719047Y-40620800D02*
X116614285Y-40516038D01*
X114623809Y-40725561D02*
X114623809Y-38525561D01*
X114623809Y-40620800D02*
X114833333Y-40725561D01*
X114833333Y-40725561D02*
X115252380Y-40725561D01*
X115252380Y-40725561D02*
X115461904Y-40620800D01*
X115461904Y-40620800D02*
X115566666Y-40516038D01*
X115566666Y-40516038D02*
X115671428Y-40306514D01*
X115671428Y-40306514D02*
X115671428Y-39677942D01*
X115671428Y-39677942D02*
X115566666Y-39468419D01*
X115566666Y-39468419D02*
X115461904Y-39363657D01*
X115461904Y-39363657D02*
X115252380Y-39258895D01*
X115252380Y-39258895D02*
X114833333Y-39258895D01*
X114833333Y-39258895D02*
X114623809Y-39363657D01*
X113576190Y-40725561D02*
X113576190Y-39258895D01*
X113576190Y-39468419D02*
X113471428Y-39363657D01*
X113471428Y-39363657D02*
X113261904Y-39258895D01*
X113261904Y-39258895D02*
X112947619Y-39258895D01*
X112947619Y-39258895D02*
X112738095Y-39363657D01*
X112738095Y-39363657D02*
X112633333Y-39573180D01*
X112633333Y-39573180D02*
X112633333Y-40725561D01*
X112633333Y-39573180D02*
X112528571Y-39363657D01*
X112528571Y-39363657D02*
X112319047Y-39258895D01*
X112319047Y-39258895D02*
X112004761Y-39258895D01*
X112004761Y-39258895D02*
X111795238Y-39363657D01*
X111795238Y-39363657D02*
X111690476Y-39573180D01*
X111690476Y-39573180D02*
X111690476Y-40725561D01*
X110642857Y-40725561D02*
X110642857Y-39258895D01*
X110642857Y-38525561D02*
X110747619Y-38630323D01*
X110747619Y-38630323D02*
X110642857Y-38735085D01*
X110642857Y-38735085D02*
X110538095Y-38630323D01*
X110538095Y-38630323D02*
X110642857Y-38525561D01*
X110642857Y-38525561D02*
X110642857Y-38735085D01*
X109595238Y-39258895D02*
X109595238Y-40725561D01*
X109595238Y-39468419D02*
X109490476Y-39363657D01*
X109490476Y-39363657D02*
X109280952Y-39258895D01*
X109280952Y-39258895D02*
X108966667Y-39258895D01*
X108966667Y-39258895D02*
X108757143Y-39363657D01*
X108757143Y-39363657D02*
X108652381Y-39573180D01*
X108652381Y-39573180D02*
X108652381Y-40725561D01*
X106033333Y-38420800D02*
X107919048Y-41249371D01*
X105404762Y-40096990D02*
X104357143Y-40096990D01*
X105614286Y-40725561D02*
X104880952Y-38525561D01*
X104880952Y-38525561D02*
X104147619Y-40725561D01*
X103414286Y-39258895D02*
X103414286Y-40725561D01*
X103414286Y-39468419D02*
X103309524Y-39363657D01*
X103309524Y-39363657D02*
X103100000Y-39258895D01*
X103100000Y-39258895D02*
X102785715Y-39258895D01*
X102785715Y-39258895D02*
X102576191Y-39363657D01*
X102576191Y-39363657D02*
X102471429Y-39573180D01*
X102471429Y-39573180D02*
X102471429Y-40725561D01*
X101109524Y-40725561D02*
X101319048Y-40620800D01*
X101319048Y-40620800D02*
X101423810Y-40516038D01*
X101423810Y-40516038D02*
X101528572Y-40306514D01*
X101528572Y-40306514D02*
X101528572Y-39677942D01*
X101528572Y-39677942D02*
X101423810Y-39468419D01*
X101423810Y-39468419D02*
X101319048Y-39363657D01*
X101319048Y-39363657D02*
X101109524Y-39258895D01*
X101109524Y-39258895D02*
X100795239Y-39258895D01*
X100795239Y-39258895D02*
X100585715Y-39363657D01*
X100585715Y-39363657D02*
X100480953Y-39468419D01*
X100480953Y-39468419D02*
X100376191Y-39677942D01*
X100376191Y-39677942D02*
X100376191Y-40306514D01*
X100376191Y-40306514D02*
X100480953Y-40516038D01*
X100480953Y-40516038D02*
X100585715Y-40620800D01*
X100585715Y-40620800D02*
X100795239Y-40725561D01*
X100795239Y-40725561D02*
X101109524Y-40725561D01*
X99747620Y-39258895D02*
X98909524Y-39258895D01*
X99433334Y-38525561D02*
X99433334Y-40411276D01*
X99433334Y-40411276D02*
X99328572Y-40620800D01*
X99328572Y-40620800D02*
X99119048Y-40725561D01*
X99119048Y-40725561D02*
X98909524Y-40725561D01*
X98176191Y-40725561D02*
X98176191Y-38525561D01*
X97233334Y-40725561D02*
X97233334Y-39573180D01*
X97233334Y-39573180D02*
X97338096Y-39363657D01*
X97338096Y-39363657D02*
X97547620Y-39258895D01*
X97547620Y-39258895D02*
X97861905Y-39258895D01*
X97861905Y-39258895D02*
X98071429Y-39363657D01*
X98071429Y-39363657D02*
X98176191Y-39468419D01*
X95347620Y-40620800D02*
X95557144Y-40725561D01*
X95557144Y-40725561D02*
X95976191Y-40725561D01*
X95976191Y-40725561D02*
X96185715Y-40620800D01*
X96185715Y-40620800D02*
X96290477Y-40411276D01*
X96290477Y-40411276D02*
X96290477Y-39573180D01*
X96290477Y-39573180D02*
X96185715Y-39363657D01*
X96185715Y-39363657D02*
X95976191Y-39258895D01*
X95976191Y-39258895D02*
X95557144Y-39258895D01*
X95557144Y-39258895D02*
X95347620Y-39363657D01*
X95347620Y-39363657D02*
X95242858Y-39573180D01*
X95242858Y-39573180D02*
X95242858Y-39782704D01*
X95242858Y-39782704D02*
X96290477Y-39992228D01*
X94300001Y-40725561D02*
X94300001Y-39258895D01*
X94300001Y-39677942D02*
X94195239Y-39468419D01*
X94195239Y-39468419D02*
X94090477Y-39363657D01*
X94090477Y-39363657D02*
X93880953Y-39258895D01*
X93880953Y-39258895D02*
X93671430Y-39258895D01*
X92938096Y-40725561D02*
X92938096Y-38525561D01*
X92938096Y-38525561D02*
X92204763Y-40096990D01*
X92204763Y-40096990D02*
X91471429Y-38525561D01*
X91471429Y-38525561D02*
X91471429Y-40725561D01*
X89480953Y-40725561D02*
X89480953Y-39573180D01*
X89480953Y-39573180D02*
X89585715Y-39363657D01*
X89585715Y-39363657D02*
X89795239Y-39258895D01*
X89795239Y-39258895D02*
X90214286Y-39258895D01*
X90214286Y-39258895D02*
X90423810Y-39363657D01*
X89480953Y-40620800D02*
X89690477Y-40725561D01*
X89690477Y-40725561D02*
X90214286Y-40725561D01*
X90214286Y-40725561D02*
X90423810Y-40620800D01*
X90423810Y-40620800D02*
X90528572Y-40411276D01*
X90528572Y-40411276D02*
X90528572Y-40201752D01*
X90528572Y-40201752D02*
X90423810Y-39992228D01*
X90423810Y-39992228D02*
X90214286Y-39887466D01*
X90214286Y-39887466D02*
X89690477Y-39887466D01*
X89690477Y-39887466D02*
X89480953Y-39782704D01*
X88433334Y-40725561D02*
X88433334Y-38525561D01*
X88223810Y-39887466D02*
X87595239Y-40725561D01*
X87595239Y-39258895D02*
X88433334Y-40096990D01*
X85814287Y-40620800D02*
X86023811Y-40725561D01*
X86023811Y-40725561D02*
X86442858Y-40725561D01*
X86442858Y-40725561D02*
X86652382Y-40620800D01*
X86652382Y-40620800D02*
X86757144Y-40411276D01*
X86757144Y-40411276D02*
X86757144Y-39573180D01*
X86757144Y-39573180D02*
X86652382Y-39363657D01*
X86652382Y-39363657D02*
X86442858Y-39258895D01*
X86442858Y-39258895D02*
X86023811Y-39258895D01*
X86023811Y-39258895D02*
X85814287Y-39363657D01*
X85814287Y-39363657D02*
X85709525Y-39573180D01*
X85709525Y-39573180D02*
X85709525Y-39782704D01*
X85709525Y-39782704D02*
X86757144Y-39992228D01*
X84766668Y-40725561D02*
X84766668Y-39258895D01*
X84766668Y-39677942D02*
X84661906Y-39468419D01*
X84661906Y-39468419D02*
X84557144Y-39363657D01*
X84557144Y-39363657D02*
X84347620Y-39258895D01*
X84347620Y-39258895D02*
X84138097Y-39258895D01*
X81833334Y-38420800D02*
X83719049Y-41249371D01*
M02*
