%TF.GenerationSoftware,KiCad,Pcbnew,8.0.3*%
%TF.CreationDate,2024-06-10T16:35:51-04:00*%
%TF.ProjectId,Kicad 8,4b696361-6420-4382-9e6b-696361645f70,rev?*%
%TF.SameCoordinates,Original*%
%TF.FileFunction,Copper,L1,Top*%
%TF.FilePolarity,Positive*%
%FSLAX46Y46*%
G04 Gerber Fmt 4.6, Leading zero omitted, Abs format (unit mm)*
G04 Created by KiCad (PCBNEW 8.0.3) date 2024-06-10 16:35:51*
%MOMM*%
%LPD*%
G01*
G04 APERTURE LIST*
%TA.AperFunction,ComponentPad*%
%ADD10C,2.000000*%
%TD*%
%TA.AperFunction,ComponentPad*%
%ADD11R,2.000000X2.000000*%
%TD*%
%TA.AperFunction,ComponentPad*%
%ADD12O,2.000000X1.600000*%
%TD*%
%TA.AperFunction,ComponentPad*%
%ADD13R,1.700000X1.700000*%
%TD*%
%TA.AperFunction,ComponentPad*%
%ADD14O,1.700000X1.700000*%
%TD*%
%TA.AperFunction,ComponentPad*%
%ADD15C,1.600000*%
%TD*%
%TA.AperFunction,ComponentPad*%
%ADD16O,1.600000X1.600000*%
%TD*%
%TA.AperFunction,ComponentPad*%
%ADD17R,2.500000X2.500000*%
%TD*%
%TA.AperFunction,ComponentPad*%
%ADD18C,2.500000*%
%TD*%
%TA.AperFunction,ComponentPad*%
%ADD19R,1.800000X1.800000*%
%TD*%
%TA.AperFunction,ComponentPad*%
%ADD20C,1.800000*%
%TD*%
%TA.AperFunction,ViaPad*%
%ADD21C,0.600000*%
%TD*%
%TA.AperFunction,Conductor*%
%ADD22C,0.200000*%
%TD*%
G04 APERTURE END LIST*
D10*
%TO.P,SW1,1,1*%
%TO.N,GND*%
X83000000Y-85500000D03*
X83000000Y-79000000D03*
%TO.P,SW1,2,2*%
%TO.N,Net-(J2-Pin_1)*%
X87500000Y-85500000D03*
X87500000Y-79000000D03*
%TD*%
D11*
%TO.P,U4,1,~{RST}*%
%TO.N,Net-(J2-Pin_1)*%
X131500000Y-54000000D03*
D12*
%TO.P,U4,2,A0*%
%TO.N,Net-(J2-Pin_2)*%
X131500000Y-56540000D03*
%TO.P,U4,3,D0*%
%TO.N,Net-(J2-Pin_3)*%
X131500000Y-59080000D03*
%TO.P,U4,4,SCK/D5*%
%TO.N,Net-(J2-Pin_4)*%
X131500000Y-61620000D03*
%TO.P,U4,5,MISO/D6*%
%TO.N,Net-(J2-Pin_5)*%
X131500000Y-64160000D03*
%TO.P,U4,6,MOSI/D7*%
%TO.N,Net-(J2-Pin_6)*%
X131500000Y-66700000D03*
%TO.P,U4,7,CS/D8*%
%TO.N,Net-(J2-Pin_7)*%
X131500000Y-69240000D03*
%TO.P,U4,8,3V3*%
%TO.N,Net-(J2-Pin_8)*%
X131500000Y-71780000D03*
%TO.P,U4,9,5V*%
%TO.N,Net-(J1-Pin_8)*%
X154360000Y-71780000D03*
%TO.P,U4,10,GND*%
%TO.N,GND*%
X154360000Y-69240000D03*
%TO.P,U4,11,D4*%
%TO.N,Net-(J1-Pin_6)*%
X154360000Y-66700000D03*
%TO.P,U4,12,D3*%
%TO.N,Net-(J1-Pin_5)*%
X154360000Y-64160000D03*
%TO.P,U4,13,SDA/D2*%
%TO.N,Net-(J1-Pin_4)*%
X154360000Y-61620000D03*
%TO.P,U4,14,SCL/D1*%
%TO.N,Net-(J1-Pin_3)*%
X154360000Y-59080000D03*
%TO.P,U4,15,RX*%
%TO.N,Net-(J1-Pin_2)*%
X154360000Y-56540000D03*
%TO.P,U4,16,TX*%
%TO.N,Net-(J1-Pin_1)*%
X154360000Y-54000000D03*
%TD*%
D13*
%TO.P,J2,1,Pin_1*%
%TO.N,Net-(J2-Pin_1)*%
X88000000Y-94515000D03*
D14*
%TO.P,J2,2,Pin_2*%
%TO.N,Net-(J2-Pin_2)*%
X88000000Y-97055000D03*
%TO.P,J2,3,Pin_3*%
%TO.N,Net-(J2-Pin_3)*%
X88000000Y-99595000D03*
%TO.P,J2,4,Pin_4*%
%TO.N,Net-(J2-Pin_4)*%
X88000000Y-102135000D03*
%TO.P,J2,5,Pin_5*%
%TO.N,Net-(J2-Pin_5)*%
X88000000Y-104675000D03*
%TO.P,J2,6,Pin_6*%
%TO.N,Net-(J2-Pin_6)*%
X88000000Y-107215000D03*
%TO.P,J2,7,Pin_7*%
%TO.N,Net-(J2-Pin_7)*%
X88000000Y-109755000D03*
%TO.P,J2,8,Pin_8*%
%TO.N,Net-(J2-Pin_8)*%
X88000000Y-112295000D03*
%TD*%
D15*
%TO.P,R1,1*%
%TO.N,Net-(D1-A)*%
X158000000Y-35190000D03*
D16*
%TO.P,R1,2*%
%TO.N,Net-(J1-Pin_8)*%
X158000000Y-42810000D03*
%TD*%
D13*
%TO.P,J1,1,Pin_1*%
%TO.N,Net-(J1-Pin_1)*%
X122000000Y-94515000D03*
D14*
%TO.P,J1,2,Pin_2*%
%TO.N,Net-(J1-Pin_2)*%
X122000000Y-97055000D03*
%TO.P,J1,3,Pin_3*%
%TO.N,Net-(J1-Pin_3)*%
X122000000Y-99595000D03*
%TO.P,J1,4,Pin_4*%
%TO.N,Net-(J1-Pin_4)*%
X122000000Y-102135000D03*
%TO.P,J1,5,Pin_5*%
%TO.N,Net-(J1-Pin_5)*%
X122000000Y-104675000D03*
%TO.P,J1,6,Pin_6*%
%TO.N,Net-(J1-Pin_6)*%
X122000000Y-107215000D03*
%TO.P,J1,7,Pin_7*%
%TO.N,GND*%
X122000000Y-109755000D03*
%TO.P,J1,8,Pin_8*%
%TO.N,Net-(J1-Pin_8)*%
X122000000Y-112295000D03*
%TD*%
D11*
%TO.P,U3,1,~{RST}*%
%TO.N,Net-(J2-Pin_1)*%
X93500000Y-54000000D03*
D12*
%TO.P,U3,2,A0*%
%TO.N,Net-(J2-Pin_2)*%
X93500000Y-56540000D03*
%TO.P,U3,3,D0*%
%TO.N,Net-(J2-Pin_3)*%
X93500000Y-59080000D03*
%TO.P,U3,4,SCK/D5*%
%TO.N,Net-(J2-Pin_4)*%
X93500000Y-61620000D03*
%TO.P,U3,5,MISO/D6*%
%TO.N,Net-(J2-Pin_5)*%
X93500000Y-64160000D03*
%TO.P,U3,6,MOSI/D7*%
%TO.N,Net-(J2-Pin_6)*%
X93500000Y-66700000D03*
%TO.P,U3,7,CS/D8*%
%TO.N,Net-(J2-Pin_7)*%
X93500000Y-69240000D03*
%TO.P,U3,8,3V3*%
%TO.N,Net-(J2-Pin_8)*%
X93500000Y-71780000D03*
%TO.P,U3,9,5V*%
%TO.N,Net-(J1-Pin_8)*%
X116360000Y-71780000D03*
%TO.P,U3,10,GND*%
%TO.N,GND*%
X116360000Y-69240000D03*
%TO.P,U3,11,D4*%
%TO.N,Net-(J1-Pin_6)*%
X116360000Y-66700000D03*
%TO.P,U3,12,D3*%
%TO.N,Net-(J1-Pin_5)*%
X116360000Y-64160000D03*
%TO.P,U3,13,SDA/D2*%
%TO.N,Net-(J1-Pin_4)*%
X116360000Y-61620000D03*
%TO.P,U3,14,SCL/D1*%
%TO.N,Net-(J1-Pin_3)*%
X116360000Y-59080000D03*
%TO.P,U3,15,RX*%
%TO.N,Net-(J1-Pin_2)*%
X116360000Y-56540000D03*
%TO.P,U3,16,TX*%
%TO.N,Net-(J1-Pin_1)*%
X116360000Y-54000000D03*
%TD*%
D11*
%TO.P,U2,1,~{RST}*%
%TO.N,Net-(J2-Pin_1)*%
X131500000Y-94500000D03*
D12*
%TO.P,U2,2,A0*%
%TO.N,Net-(J2-Pin_2)*%
X131500000Y-97040000D03*
%TO.P,U2,3,D0*%
%TO.N,Net-(J2-Pin_3)*%
X131500000Y-99580000D03*
%TO.P,U2,4,SCK/D5*%
%TO.N,Net-(J2-Pin_4)*%
X131500000Y-102120000D03*
%TO.P,U2,5,MISO/D6*%
%TO.N,Net-(J2-Pin_5)*%
X131500000Y-104660000D03*
%TO.P,U2,6,MOSI/D7*%
%TO.N,Net-(J2-Pin_6)*%
X131500000Y-107200000D03*
%TO.P,U2,7,CS/D8*%
%TO.N,Net-(J2-Pin_7)*%
X131500000Y-109740000D03*
%TO.P,U2,8,3V3*%
%TO.N,Net-(J2-Pin_8)*%
X131500000Y-112280000D03*
%TO.P,U2,9,5V*%
%TO.N,Net-(J1-Pin_8)*%
X154360000Y-112280000D03*
%TO.P,U2,10,GND*%
%TO.N,GND*%
X154360000Y-109740000D03*
%TO.P,U2,11,D4*%
%TO.N,Net-(J1-Pin_6)*%
X154360000Y-107200000D03*
%TO.P,U2,12,D3*%
%TO.N,Net-(J1-Pin_5)*%
X154360000Y-104660000D03*
%TO.P,U2,13,SDA/D2*%
%TO.N,Net-(J1-Pin_4)*%
X154360000Y-102120000D03*
%TO.P,U2,14,SCL/D1*%
%TO.N,Net-(J1-Pin_3)*%
X154360000Y-99580000D03*
%TO.P,U2,15,RX*%
%TO.N,Net-(J1-Pin_2)*%
X154360000Y-97040000D03*
%TO.P,U2,16,TX*%
%TO.N,Net-(J1-Pin_1)*%
X154360000Y-94500000D03*
%TD*%
D13*
%TO.P,J5,1,Pin_1*%
%TO.N,Net-(J1-Pin_8)*%
X160500000Y-81371200D03*
D14*
%TO.P,J5,2,Pin_2*%
X160500000Y-83911200D03*
%TO.P,J5,3,Pin_3*%
X160500000Y-86451200D03*
%TO.P,J5,4,Pin_4*%
X160500000Y-88991200D03*
%TO.P,J5,5,Pin_5*%
X160500000Y-91531200D03*
%TD*%
D13*
%TO.P,J7,1,Pin_1*%
%TO.N,GND*%
X160500000Y-48000000D03*
D14*
%TO.P,J7,2,Pin_2*%
X160500000Y-50540000D03*
%TO.P,J7,3,Pin_3*%
X160500000Y-53080000D03*
%TO.P,J7,4,Pin_4*%
X160500000Y-55620000D03*
%TO.P,J7,5,Pin_5*%
X160500000Y-58160000D03*
%TD*%
D17*
%TO.P,J4,1,Pin_1*%
%TO.N,Net-(J1-Pin_1)*%
X174000000Y-36500000D03*
D18*
%TO.P,J4,2,Pin_2*%
%TO.N,Net-(J1-Pin_2)*%
X174000000Y-41500000D03*
%TO.P,J4,3,Pin_3*%
%TO.N,Net-(J1-Pin_3)*%
X174000000Y-46500000D03*
%TO.P,J4,4,Pin_4*%
%TO.N,Net-(J1-Pin_4)*%
X174000000Y-51500000D03*
%TO.P,J4,5,Pin_5*%
%TO.N,Net-(J1-Pin_5)*%
X174000000Y-56500000D03*
%TO.P,J4,6,Pin_6*%
%TO.N,Net-(J1-Pin_6)*%
X174000000Y-61500000D03*
%TO.P,J4,7,Pin_7*%
%TO.N,GND*%
X174000000Y-66500000D03*
%TO.P,J4,8,Pin_8*%
%TO.N,Net-(J1-Pin_8)*%
X174000000Y-71500000D03*
%TD*%
D13*
%TO.P,J6,1,Pin_1*%
%TO.N,Net-(J2-Pin_8)*%
X160500000Y-64685600D03*
D14*
%TO.P,J6,2,Pin_2*%
X160500000Y-67225600D03*
%TO.P,J6,3,Pin_3*%
X160500000Y-69765600D03*
%TO.P,J6,4,Pin_4*%
X160500000Y-72305600D03*
%TO.P,J6,5,Pin_5*%
X160500000Y-74845600D03*
%TD*%
D17*
%TO.P,J3,1,Pin_1*%
%TO.N,Net-(J2-Pin_1)*%
X174000000Y-78500000D03*
D18*
%TO.P,J3,2,Pin_2*%
%TO.N,Net-(J2-Pin_2)*%
X174000000Y-83500000D03*
%TO.P,J3,3,Pin_3*%
%TO.N,Net-(J2-Pin_3)*%
X174000000Y-88500000D03*
%TO.P,J3,4,Pin_4*%
%TO.N,Net-(J2-Pin_4)*%
X174000000Y-93500000D03*
%TO.P,J3,5,Pin_5*%
%TO.N,Net-(J2-Pin_5)*%
X174000000Y-98500000D03*
%TO.P,J3,6,Pin_6*%
%TO.N,Net-(J2-Pin_6)*%
X174000000Y-103500000D03*
%TO.P,J3,7,Pin_7*%
%TO.N,Net-(J2-Pin_7)*%
X174000000Y-108500000D03*
%TO.P,J3,8,Pin_8*%
%TO.N,Net-(J2-Pin_8)*%
X174000000Y-113500000D03*
%TD*%
D19*
%TO.P,D1,1,K*%
%TO.N,GND*%
X156725000Y-30000000D03*
D20*
%TO.P,D1,2,A*%
%TO.N,Net-(D1-A)*%
X159265000Y-30000000D03*
%TD*%
D11*
%TO.P,U1,1,~{RST}*%
%TO.N,Net-(J2-Pin_1)*%
X93500000Y-94500000D03*
D12*
%TO.P,U1,2,A0*%
%TO.N,Net-(J2-Pin_2)*%
X93500000Y-97040000D03*
%TO.P,U1,3,D0*%
%TO.N,Net-(J2-Pin_3)*%
X93500000Y-99580000D03*
%TO.P,U1,4,SCK/D5*%
%TO.N,Net-(J2-Pin_4)*%
X93500000Y-102120000D03*
%TO.P,U1,5,MISO/D6*%
%TO.N,Net-(J2-Pin_5)*%
X93500000Y-104660000D03*
%TO.P,U1,6,MOSI/D7*%
%TO.N,Net-(J2-Pin_6)*%
X93500000Y-107200000D03*
%TO.P,U1,7,CS/D8*%
%TO.N,Net-(J2-Pin_7)*%
X93500000Y-109740000D03*
%TO.P,U1,8,3V3*%
%TO.N,Net-(J2-Pin_8)*%
X93500000Y-112280000D03*
%TO.P,U1,9,5V*%
%TO.N,Net-(J1-Pin_8)*%
X116360000Y-112280000D03*
%TO.P,U1,10,GND*%
%TO.N,GND*%
X116360000Y-109740000D03*
%TO.P,U1,11,D4*%
%TO.N,Net-(J1-Pin_6)*%
X116360000Y-107200000D03*
%TO.P,U1,12,D3*%
%TO.N,Net-(J1-Pin_5)*%
X116360000Y-104660000D03*
%TO.P,U1,13,SDA/D2*%
%TO.N,Net-(J1-Pin_4)*%
X116360000Y-102120000D03*
%TO.P,U1,14,SCL/D1*%
%TO.N,Net-(J1-Pin_3)*%
X116360000Y-99580000D03*
%TO.P,U1,15,RX*%
%TO.N,Net-(J1-Pin_2)*%
X116360000Y-97040000D03*
%TO.P,U1,16,TX*%
%TO.N,Net-(J1-Pin_1)*%
X116360000Y-94500000D03*
%TD*%
D21*
%TO.N,Net-(J2-Pin_3)*%
X156374600Y-100546200D03*
%TD*%
D22*
%TO.N,GND*%
X156725000Y-30000000D02*
X156725000Y-31201700D01*
X156725000Y-31201700D02*
X160500000Y-34976700D01*
X160500000Y-34976700D02*
X160500000Y-48000000D01*
X116360000Y-69690000D02*
X95022000Y-69690000D01*
X95022000Y-69690000D02*
X94202000Y-70510000D01*
X94202000Y-70510000D02*
X91490000Y-70510000D01*
X91490000Y-70510000D02*
X83000000Y-79000000D01*
X154360000Y-68138300D02*
X117911700Y-68138300D01*
X117911700Y-68138300D02*
X116360000Y-69690000D01*
X154360000Y-69240000D02*
X154360000Y-68138300D01*
X116360000Y-69240000D02*
X116360000Y-69690000D01*
X154360000Y-69240000D02*
X155661700Y-69240000D01*
X155661700Y-69240000D02*
X156406100Y-68495600D01*
X156406100Y-68495600D02*
X172004400Y-68495600D01*
X172004400Y-68495600D02*
X174000000Y-66500000D01*
X117661700Y-109740000D02*
X117676700Y-109755000D01*
X117676700Y-109755000D02*
X122000000Y-109755000D01*
X116360000Y-109740000D02*
X117661700Y-109740000D01*
%TO.N,Net-(J1-Pin_3)*%
X116360000Y-59080000D02*
X116360000Y-57978300D01*
X116360000Y-57978300D02*
X154360000Y-57978300D01*
X154360000Y-59080000D02*
X154360000Y-57978300D01*
X174000000Y-46500000D02*
X166150000Y-54350000D01*
X166150000Y-54350000D02*
X159090000Y-54350000D01*
X159090000Y-54350000D02*
X155461700Y-57978300D01*
X155461700Y-57978300D02*
X154360000Y-57978300D01*
X116360000Y-99580000D02*
X117661700Y-99580000D01*
X122000000Y-99595000D02*
X117676700Y-99595000D01*
X117676700Y-99595000D02*
X117661700Y-99580000D01*
%TO.N,Net-(J1-Pin_4)*%
X174000000Y-51500000D02*
X164981700Y-60518300D01*
X164981700Y-60518300D02*
X154360000Y-60518300D01*
X154360000Y-61620000D02*
X154360000Y-60518300D01*
X116360000Y-61620000D02*
X116360000Y-60518300D01*
X116360000Y-60518300D02*
X154360000Y-60518300D01*
%TO.N,Net-(J1-Pin_1)*%
X154360000Y-54000000D02*
X154360000Y-52898300D01*
X174000000Y-36500000D02*
X174000000Y-38051700D01*
X174000000Y-38051700D02*
X162781700Y-49270000D01*
X162781700Y-49270000D02*
X157988300Y-49270000D01*
X157988300Y-49270000D02*
X154360000Y-52898300D01*
X122000000Y-94515000D02*
X120848300Y-94515000D01*
X120848300Y-94515000D02*
X120833300Y-94500000D01*
X120833300Y-94500000D02*
X117661700Y-94500000D01*
X116360000Y-94500000D02*
X117661700Y-94500000D01*
%TO.N,Net-(J1-Pin_5)*%
X116360000Y-64160000D02*
X116360000Y-63058300D01*
X116360000Y-63058300D02*
X154360000Y-63058300D01*
X154360000Y-64160000D02*
X154360000Y-63058300D01*
X174000000Y-56500000D02*
X167441700Y-63058300D01*
X167441700Y-63058300D02*
X154360000Y-63058300D01*
X116360000Y-104660000D02*
X117661700Y-104660000D01*
X122000000Y-104675000D02*
X117676700Y-104675000D01*
X117676700Y-104675000D02*
X117661700Y-104660000D01*
%TO.N,Net-(J1-Pin_2)*%
X154360000Y-56540000D02*
X154360000Y-55438300D01*
X174000000Y-41500000D02*
X163690000Y-51810000D01*
X163690000Y-51810000D02*
X159090000Y-51810000D01*
X159090000Y-51810000D02*
X155461700Y-55438300D01*
X155461700Y-55438300D02*
X154360000Y-55438300D01*
X154360000Y-97040000D02*
X154360000Y-98141700D01*
X122000000Y-97055000D02*
X127717500Y-97055000D01*
X127717500Y-97055000D02*
X128804200Y-98141700D01*
X128804200Y-98141700D02*
X154360000Y-98141700D01*
X117661700Y-97040000D02*
X117676700Y-97055000D01*
X117676700Y-97055000D02*
X122000000Y-97055000D01*
X116360000Y-97040000D02*
X117661700Y-97040000D01*
%TO.N,Net-(J1-Pin_6)*%
X122000000Y-107215000D02*
X123151700Y-107215000D01*
X154360000Y-107200000D02*
X154360000Y-108301700D01*
X154360000Y-108301700D02*
X124238400Y-108301700D01*
X124238400Y-108301700D02*
X123151700Y-107215000D01*
X154360000Y-66700000D02*
X155661700Y-66700000D01*
X174000000Y-61500000D02*
X169449900Y-66050100D01*
X169449900Y-66050100D02*
X156311600Y-66050100D01*
X156311600Y-66050100D02*
X155661700Y-66700000D01*
X117661700Y-107200000D02*
X117676700Y-107215000D01*
X117676700Y-107215000D02*
X122000000Y-107215000D01*
X116360000Y-107200000D02*
X117661700Y-107200000D01*
%TO.N,Net-(J1-Pin_8)*%
X116360000Y-71780000D02*
X116360000Y-72881700D01*
X154360000Y-71780000D02*
X154360000Y-72881700D01*
X154360000Y-72881700D02*
X116360000Y-72881700D01*
X117661700Y-112280000D02*
X117676700Y-112295000D01*
X117676700Y-112295000D02*
X122000000Y-112295000D01*
X116360000Y-112280000D02*
X117661700Y-112280000D01*
%TO.N,Net-(J2-Pin_1)*%
X131500000Y-94500000D02*
X130198300Y-94500000D01*
X93500000Y-94500000D02*
X94801700Y-94500000D01*
X94801700Y-94500000D02*
X95938400Y-93363300D01*
X95938400Y-93363300D02*
X129061600Y-93363300D01*
X129061600Y-93363300D02*
X130198300Y-94500000D01*
X92849200Y-94500000D02*
X93500000Y-94500000D01*
X131500000Y-94500000D02*
X132801700Y-94500000D01*
X174000000Y-78500000D02*
X148801700Y-78500000D01*
X148801700Y-78500000D02*
X132801700Y-94500000D01*
X92849200Y-94500000D02*
X92198300Y-94500000D01*
X93500000Y-54000000D02*
X94801700Y-54000000D01*
X131500000Y-54000000D02*
X130198300Y-54000000D01*
X130198300Y-54000000D02*
X129087100Y-55111200D01*
X129087100Y-55111200D02*
X95912900Y-55111200D01*
X95912900Y-55111200D02*
X94801700Y-54000000D01*
X88000000Y-94515000D02*
X92183300Y-94515000D01*
X92183300Y-94515000D02*
X92198300Y-94500000D01*
%TO.N,Net-(J2-Pin_3)*%
X174000000Y-88500000D02*
X161953800Y-100546200D01*
X161953800Y-100546200D02*
X156374600Y-100546200D01*
X93500000Y-98478300D02*
X93576700Y-98401600D01*
X93576700Y-98401600D02*
X128428700Y-98401600D01*
X128428700Y-98401600D02*
X129607100Y-99580000D01*
X129607100Y-99580000D02*
X131500000Y-99580000D01*
X93500000Y-99580000D02*
X92198300Y-99580000D01*
X88000000Y-99595000D02*
X92183300Y-99595000D01*
X92183300Y-99595000D02*
X92198300Y-99580000D01*
X93500000Y-99580000D02*
X93500000Y-98478300D01*
%TO.N,Net-(J2-Pin_2)*%
X174000000Y-83500000D02*
X161699800Y-95800200D01*
X161699800Y-95800200D02*
X149229600Y-95800200D01*
X149229600Y-95800200D02*
X149056300Y-95973500D01*
X149056300Y-95973500D02*
X131500000Y-95973500D01*
X88000000Y-97055000D02*
X89151700Y-97055000D01*
X93500000Y-96489100D02*
X89717600Y-96489100D01*
X89717600Y-96489100D02*
X89151700Y-97055000D01*
X93500000Y-96489100D02*
X93500000Y-95938300D01*
X93500000Y-97040000D02*
X93500000Y-96489100D01*
X131500000Y-96055900D02*
X131500000Y-95973500D01*
X93500000Y-95938300D02*
X93535600Y-95902700D01*
X93535600Y-95902700D02*
X131429200Y-95902700D01*
X131429200Y-95902700D02*
X131500000Y-95973500D01*
X131500000Y-96097200D02*
X131500000Y-96055900D01*
X131500000Y-97040000D02*
X131500000Y-96097200D01*
%TO.N,Net-(J2-Pin_5)*%
X93500000Y-104660000D02*
X93500000Y-103558300D01*
X93500000Y-103558300D02*
X93576700Y-103481600D01*
X93576700Y-103481600D02*
X131423300Y-103481600D01*
X131423300Y-103481600D02*
X131500000Y-103558300D01*
X89151700Y-104675000D02*
X89166700Y-104660000D01*
X89166700Y-104660000D02*
X93500000Y-104660000D01*
X131500000Y-104660000D02*
X131500000Y-103558300D01*
X174000000Y-98500000D02*
X168941700Y-103558300D01*
X168941700Y-103558300D02*
X131500000Y-103558300D01*
X88000000Y-104675000D02*
X89151700Y-104675000D01*
X93500000Y-64160000D02*
X93500000Y-65261700D01*
X131500000Y-64160000D02*
X131500000Y-65261700D01*
X131500000Y-65261700D02*
X93500000Y-65261700D01*
%TO.N,Net-(J2-Pin_7)*%
X93500000Y-109740000D02*
X92198300Y-109740000D01*
X88000000Y-109755000D02*
X92183300Y-109755000D01*
X92183300Y-109755000D02*
X92198300Y-109740000D01*
X93500000Y-109740000D02*
X93500000Y-110841700D01*
X131500000Y-110273600D02*
X130855700Y-110917900D01*
X130855700Y-110917900D02*
X93576200Y-110917900D01*
X93576200Y-110917900D02*
X93500000Y-110841700D01*
X131500000Y-110273600D02*
X131500000Y-110841700D01*
X131500000Y-109740000D02*
X131500000Y-110273600D01*
X131500000Y-110841700D02*
X171658300Y-110841700D01*
X171658300Y-110841700D02*
X174000000Y-108500000D01*
%TO.N,Net-(J2-Pin_6)*%
X93500000Y-66700000D02*
X93500000Y-67801700D01*
X93500000Y-67801700D02*
X117410200Y-67801700D01*
X117410200Y-67801700D02*
X118511900Y-66700000D01*
X118511900Y-66700000D02*
X131500000Y-66700000D01*
X93500000Y-107200000D02*
X92198300Y-107200000D01*
X88000000Y-107215000D02*
X92183300Y-107215000D01*
X92183300Y-107215000D02*
X92198300Y-107200000D01*
X93500000Y-107200000D02*
X93500000Y-106098300D01*
X131500000Y-106098300D02*
X131415800Y-106014100D01*
X131415800Y-106014100D02*
X93584200Y-106014100D01*
X93584200Y-106014100D02*
X93500000Y-106098300D01*
X131500000Y-106181600D02*
X131500000Y-106098300D01*
X131500000Y-107200000D02*
X131500000Y-106181600D01*
X174000000Y-103500000D02*
X171401700Y-106098300D01*
X171401700Y-106098300D02*
X131500000Y-106098300D01*
%TO.N,Net-(J2-Pin_8)*%
X159348300Y-69765600D02*
X158435600Y-70678300D01*
X158435600Y-70678300D02*
X131500000Y-70678300D01*
X131500000Y-70678300D02*
X115291700Y-70678300D01*
X115291700Y-70678300D02*
X114190000Y-71780000D01*
X114190000Y-71780000D02*
X93500000Y-71780000D01*
X131500000Y-70694100D02*
X131500000Y-70678300D01*
X131500000Y-71780000D02*
X131500000Y-70694100D01*
X93500000Y-112280000D02*
X92198300Y-112280000D01*
X88000000Y-112295000D02*
X92183300Y-112295000D01*
X92183300Y-112295000D02*
X92198300Y-112280000D01*
X131500000Y-113381700D02*
X131618300Y-113500000D01*
X131618300Y-113500000D02*
X174000000Y-113500000D01*
X131500000Y-113381700D02*
X131435000Y-113446700D01*
X131435000Y-113446700D02*
X93565000Y-113446700D01*
X93565000Y-113446700D02*
X93500000Y-113381700D01*
X93500000Y-112280000D02*
X93500000Y-113381700D01*
X160500000Y-69765600D02*
X159348300Y-69765600D01*
X131500000Y-112280000D02*
X131500000Y-113381700D01*
%TO.N,Net-(J2-Pin_4)*%
X131500000Y-101018300D02*
X155786800Y-101018300D01*
X155786800Y-101018300D02*
X155916400Y-101147900D01*
X155916400Y-101147900D02*
X166352100Y-101147900D01*
X166352100Y-101147900D02*
X174000000Y-93500000D01*
X93500000Y-102120000D02*
X93500000Y-101018300D01*
X93500000Y-101018300D02*
X93576700Y-100941600D01*
X93576700Y-100941600D02*
X131423300Y-100941600D01*
X131423300Y-100941600D02*
X131500000Y-101018300D01*
X131500000Y-102120000D02*
X131500000Y-101018300D01*
%TD*%
%TA.AperFunction,Conductor*%
%TO.N,GND*%
G36*
X114879149Y-106634285D02*
G01*
X114924904Y-106687089D01*
X114934848Y-106756247D01*
X114930041Y-106776918D01*
X114891523Y-106895461D01*
X114891523Y-106895464D01*
X114859500Y-107097648D01*
X114859500Y-107302351D01*
X114891522Y-107504534D01*
X114954781Y-107699223D01*
X115014028Y-107815500D01*
X115046007Y-107878262D01*
X115047715Y-107881613D01*
X115168028Y-108047213D01*
X115312786Y-108191971D01*
X115467749Y-108304556D01*
X115478390Y-108312287D01*
X115550424Y-108348990D01*
X115571629Y-108359795D01*
X115622425Y-108407770D01*
X115639220Y-108475591D01*
X115616682Y-108541726D01*
X115571629Y-108580765D01*
X115478650Y-108628140D01*
X115313105Y-108748417D01*
X115313104Y-108748417D01*
X115168417Y-108893104D01*
X115168417Y-108893105D01*
X115048140Y-109058650D01*
X114955244Y-109240970D01*
X114892009Y-109435586D01*
X114883391Y-109490000D01*
X115926988Y-109490000D01*
X115894075Y-109547007D01*
X115860000Y-109674174D01*
X115860000Y-109805826D01*
X115894075Y-109932993D01*
X115926988Y-109990000D01*
X114883391Y-109990000D01*
X114892009Y-110044413D01*
X114927968Y-110155082D01*
X114929963Y-110224923D01*
X114893883Y-110284756D01*
X114831182Y-110315584D01*
X114810037Y-110317400D01*
X95050489Y-110317400D01*
X94983450Y-110297715D01*
X94937695Y-110244911D01*
X94927751Y-110175753D01*
X94932558Y-110155081D01*
X94968477Y-110044534D01*
X94986144Y-109932993D01*
X95000500Y-109842352D01*
X95000500Y-109637648D01*
X94968477Y-109435465D01*
X94921649Y-109291344D01*
X94905220Y-109240781D01*
X94905218Y-109240778D01*
X94905218Y-109240776D01*
X94866617Y-109165019D01*
X94812287Y-109058390D01*
X94779910Y-109013826D01*
X94691971Y-108892786D01*
X94547213Y-108748028D01*
X94381614Y-108627715D01*
X94375006Y-108624348D01*
X94288917Y-108580483D01*
X94238123Y-108532511D01*
X94221328Y-108464690D01*
X94243865Y-108398555D01*
X94288917Y-108359516D01*
X94381610Y-108312287D01*
X94462534Y-108253493D01*
X94547213Y-108191971D01*
X94547215Y-108191968D01*
X94547219Y-108191966D01*
X94691966Y-108047219D01*
X94691968Y-108047215D01*
X94691971Y-108047213D01*
X94804132Y-107892834D01*
X94812287Y-107881610D01*
X94905220Y-107699219D01*
X94968477Y-107504534D01*
X95000500Y-107302352D01*
X95000500Y-107097648D01*
X94968477Y-106895466D01*
X94968476Y-106895462D01*
X94968476Y-106895461D01*
X94929959Y-106776918D01*
X94927964Y-106707077D01*
X94964044Y-106647244D01*
X95026745Y-106616416D01*
X95047890Y-106614600D01*
X114812110Y-106614600D01*
X114879149Y-106634285D01*
G37*
%TD.AperFunction*%
%TA.AperFunction,Conductor*%
G36*
X120777948Y-107835185D02*
G01*
X120823292Y-107887097D01*
X120825965Y-107892830D01*
X120952059Y-108072911D01*
X120961501Y-108086395D01*
X120961506Y-108086402D01*
X121128597Y-108253493D01*
X121128603Y-108253498D01*
X121314594Y-108383730D01*
X121358219Y-108438307D01*
X121365413Y-108507805D01*
X121333890Y-108570160D01*
X121314595Y-108586880D01*
X121128922Y-108716890D01*
X121128920Y-108716891D01*
X120961891Y-108883920D01*
X120961886Y-108883926D01*
X120826400Y-109077420D01*
X120826399Y-109077422D01*
X120726570Y-109291507D01*
X120726567Y-109291513D01*
X120669364Y-109504999D01*
X120669364Y-109505000D01*
X121566988Y-109505000D01*
X121534075Y-109562007D01*
X121500000Y-109689174D01*
X121500000Y-109820826D01*
X121534075Y-109947993D01*
X121566988Y-110005000D01*
X120669364Y-110005000D01*
X120711246Y-110161306D01*
X120709583Y-110231156D01*
X120670421Y-110289019D01*
X120606192Y-110316523D01*
X120591471Y-110317400D01*
X117909963Y-110317400D01*
X117842924Y-110297715D01*
X117797169Y-110244911D01*
X117787225Y-110175753D01*
X117792032Y-110155082D01*
X117827990Y-110044413D01*
X117836609Y-109990000D01*
X116793012Y-109990000D01*
X116825925Y-109932993D01*
X116860000Y-109805826D01*
X116860000Y-109674174D01*
X116825925Y-109547007D01*
X116793012Y-109490000D01*
X117836609Y-109490000D01*
X117827990Y-109435586D01*
X117764755Y-109240970D01*
X117671859Y-109058650D01*
X117551582Y-108893105D01*
X117551582Y-108893104D01*
X117406895Y-108748417D01*
X117241349Y-108628140D01*
X117148370Y-108580765D01*
X117097574Y-108532790D01*
X117080779Y-108464969D01*
X117103316Y-108398835D01*
X117148370Y-108359795D01*
X117148920Y-108359515D01*
X117241610Y-108312287D01*
X117322534Y-108253493D01*
X117407213Y-108191971D01*
X117407215Y-108191968D01*
X117407219Y-108191966D01*
X117551966Y-108047219D01*
X117551968Y-108047215D01*
X117551971Y-108047213D01*
X117672287Y-107881610D01*
X117674832Y-107877458D01*
X117676144Y-107878262D01*
X117719444Y-107832412D01*
X117781959Y-107815500D01*
X120710909Y-107815500D01*
X120777948Y-107835185D01*
G37*
%TD.AperFunction*%
%TA.AperFunction,Conductor*%
G36*
X123149513Y-108077895D02*
G01*
X123193861Y-108106396D01*
X123753539Y-108666074D01*
X123753549Y-108666085D01*
X123757879Y-108670415D01*
X123757880Y-108670416D01*
X123869684Y-108782220D01*
X123956495Y-108832339D01*
X123956497Y-108832341D01*
X123994551Y-108854311D01*
X124006615Y-108861277D01*
X124159343Y-108902201D01*
X124159346Y-108902201D01*
X124325053Y-108902201D01*
X124325069Y-108902200D01*
X130064946Y-108902200D01*
X130131985Y-108921885D01*
X130177740Y-108974689D01*
X130187684Y-109043847D01*
X130175431Y-109082495D01*
X130094781Y-109240776D01*
X130031522Y-109435465D01*
X129999500Y-109637648D01*
X129999500Y-109842351D01*
X130031522Y-110044534D01*
X130067442Y-110155081D01*
X130069437Y-110224923D01*
X130033357Y-110284756D01*
X129970656Y-110315584D01*
X129949511Y-110317400D01*
X123408529Y-110317400D01*
X123341490Y-110297715D01*
X123295735Y-110244911D01*
X123285791Y-110175753D01*
X123288754Y-110161306D01*
X123330636Y-110005000D01*
X122433012Y-110005000D01*
X122465925Y-109947993D01*
X122500000Y-109820826D01*
X122500000Y-109689174D01*
X122465925Y-109562007D01*
X122433012Y-109505000D01*
X123330636Y-109505000D01*
X123330635Y-109504999D01*
X123273432Y-109291513D01*
X123273429Y-109291507D01*
X123173600Y-109077422D01*
X123173599Y-109077420D01*
X123038113Y-108883926D01*
X123038108Y-108883920D01*
X122871078Y-108716890D01*
X122685405Y-108586879D01*
X122641780Y-108532302D01*
X122634588Y-108462804D01*
X122666110Y-108400449D01*
X122685406Y-108383730D01*
X122719589Y-108359795D01*
X122871401Y-108253495D01*
X123018502Y-108106393D01*
X123079822Y-108072911D01*
X123149513Y-108077895D01*
G37*
%TD.AperFunction*%
%TA.AperFunction,Conductor*%
G36*
X152992545Y-108921885D02*
G01*
X153038300Y-108974689D01*
X153048244Y-109043847D01*
X153035991Y-109082495D01*
X152955244Y-109240970D01*
X152892009Y-109435586D01*
X152883391Y-109490000D01*
X153926988Y-109490000D01*
X153894075Y-109547007D01*
X153860000Y-109674174D01*
X153860000Y-109805826D01*
X153894075Y-109932993D01*
X153926988Y-109990000D01*
X152883391Y-109990000D01*
X152892008Y-110044411D01*
X152903209Y-110078881D01*
X152905204Y-110148722D01*
X152869124Y-110208555D01*
X152806424Y-110239384D01*
X152785278Y-110241200D01*
X133075248Y-110241200D01*
X133008209Y-110221515D01*
X132962454Y-110168711D01*
X132952510Y-110099553D01*
X132957317Y-110078881D01*
X132968477Y-110044534D01*
X132986144Y-109932993D01*
X133000500Y-109842352D01*
X133000500Y-109637648D01*
X132968477Y-109435465D01*
X132921649Y-109291344D01*
X132905220Y-109240781D01*
X132905218Y-109240778D01*
X132905218Y-109240776D01*
X132824569Y-109082495D01*
X132811673Y-109013826D01*
X132837949Y-108949085D01*
X132895056Y-108908828D01*
X132935054Y-108902200D01*
X152925506Y-108902200D01*
X152992545Y-108921885D01*
G37*
%TD.AperFunction*%
%TA.AperFunction,Conductor*%
G36*
X114992545Y-68421885D02*
G01*
X115038300Y-68474689D01*
X115048244Y-68543847D01*
X115035991Y-68582495D01*
X114955244Y-68740970D01*
X114892009Y-68935586D01*
X114883391Y-68990000D01*
X115926988Y-68990000D01*
X115894075Y-69047007D01*
X115860000Y-69174174D01*
X115860000Y-69305826D01*
X115894075Y-69432993D01*
X115926988Y-69490000D01*
X114883391Y-69490000D01*
X114892009Y-69544413D01*
X114955244Y-69739029D01*
X115048140Y-69921350D01*
X115071695Y-69953769D01*
X115095176Y-70019575D01*
X115079351Y-70087629D01*
X115033456Y-70133998D01*
X115032626Y-70134478D01*
X115032548Y-70134523D01*
X114922987Y-70197777D01*
X114922982Y-70197781D01*
X114814750Y-70306014D01*
X114811180Y-70309584D01*
X114811178Y-70309586D01*
X114382408Y-70738357D01*
X113977584Y-71143181D01*
X113916261Y-71176666D01*
X113889903Y-71179500D01*
X94929602Y-71179500D01*
X94862563Y-71159815D01*
X94819117Y-71111795D01*
X94812284Y-71098385D01*
X94691971Y-70932786D01*
X94547213Y-70788028D01*
X94381614Y-70667715D01*
X94321334Y-70637001D01*
X94288917Y-70620483D01*
X94238123Y-70572511D01*
X94221328Y-70504690D01*
X94243865Y-70438555D01*
X94288917Y-70399516D01*
X94381610Y-70352287D01*
X94402770Y-70336913D01*
X94547213Y-70231971D01*
X94547215Y-70231968D01*
X94547219Y-70231966D01*
X94691966Y-70087219D01*
X94691968Y-70087215D01*
X94691971Y-70087213D01*
X94770034Y-69979767D01*
X94812287Y-69921610D01*
X94905220Y-69739219D01*
X94968477Y-69544534D01*
X95000500Y-69342352D01*
X95000500Y-69137648D01*
X94986144Y-69047007D01*
X94968477Y-68935465D01*
X94905218Y-68740776D01*
X94832049Y-68597175D01*
X94824568Y-68582494D01*
X94811673Y-68513826D01*
X94837949Y-68449085D01*
X94895056Y-68408828D01*
X94935054Y-68402200D01*
X114925506Y-68402200D01*
X114992545Y-68421885D01*
G37*
%TD.AperFunction*%
%TA.AperFunction,Conductor*%
G36*
X130137437Y-67320185D02*
G01*
X130180883Y-67368205D01*
X130187715Y-67381614D01*
X130308028Y-67547213D01*
X130452786Y-67691971D01*
X130607749Y-67804556D01*
X130618390Y-67812287D01*
X130709840Y-67858883D01*
X130711080Y-67859515D01*
X130761876Y-67907490D01*
X130778671Y-67975311D01*
X130756134Y-68041446D01*
X130711080Y-68080485D01*
X130618386Y-68127715D01*
X130452786Y-68248028D01*
X130308028Y-68392786D01*
X130187715Y-68558386D01*
X130094781Y-68740776D01*
X130031522Y-68935465D01*
X129999500Y-69137648D01*
X129999500Y-69342351D01*
X130031522Y-69544534D01*
X130094781Y-69739223D01*
X130175431Y-69897505D01*
X130188327Y-69966174D01*
X130162051Y-70030915D01*
X130104944Y-70071172D01*
X130064946Y-70077800D01*
X117794494Y-70077800D01*
X117727455Y-70058115D01*
X117681700Y-70005311D01*
X117671756Y-69936153D01*
X117684009Y-69897505D01*
X117764755Y-69739029D01*
X117827990Y-69544413D01*
X117836609Y-69490000D01*
X116793012Y-69490000D01*
X116825925Y-69432993D01*
X116860000Y-69305826D01*
X116860000Y-69174174D01*
X116825925Y-69047007D01*
X116793012Y-68990000D01*
X117836609Y-68990000D01*
X117827990Y-68935586D01*
X117764755Y-68740970D01*
X117671857Y-68558646D01*
X117642954Y-68518864D01*
X117619474Y-68453058D01*
X117635300Y-68385004D01*
X117681273Y-68338592D01*
X117692104Y-68332339D01*
X117778916Y-68282220D01*
X117890720Y-68170416D01*
X117890720Y-68170414D01*
X117900928Y-68160207D01*
X117900929Y-68160204D01*
X118724316Y-67336819D01*
X118785639Y-67303334D01*
X118811997Y-67300500D01*
X130070398Y-67300500D01*
X130137437Y-67320185D01*
G37*
%TD.AperFunction*%
%TA.AperFunction,Conductor*%
G36*
X152851791Y-63678485D02*
G01*
X152897546Y-63731289D01*
X152907490Y-63800447D01*
X152902683Y-63821119D01*
X152891522Y-63855465D01*
X152859500Y-64057648D01*
X152859500Y-64262351D01*
X152891522Y-64464534D01*
X152954781Y-64659223D01*
X153047715Y-64841613D01*
X153168028Y-65007213D01*
X153312786Y-65151971D01*
X153467749Y-65264556D01*
X153478390Y-65272287D01*
X153569840Y-65318883D01*
X153571080Y-65319515D01*
X153621876Y-65367490D01*
X153638671Y-65435311D01*
X153616134Y-65501446D01*
X153571080Y-65540485D01*
X153478386Y-65587715D01*
X153312786Y-65708028D01*
X153168028Y-65852786D01*
X153047715Y-66018386D01*
X152954781Y-66200776D01*
X152891522Y-66395465D01*
X152859500Y-66597648D01*
X152859500Y-66802351D01*
X152891522Y-67004534D01*
X152954781Y-67199223D01*
X153047715Y-67381613D01*
X153168028Y-67547213D01*
X153312786Y-67691971D01*
X153467749Y-67804556D01*
X153478390Y-67812287D01*
X153550424Y-67848990D01*
X153571629Y-67859795D01*
X153622425Y-67907770D01*
X153639220Y-67975591D01*
X153616682Y-68041726D01*
X153571629Y-68080765D01*
X153478650Y-68128140D01*
X153313105Y-68248417D01*
X153313104Y-68248417D01*
X153168417Y-68393104D01*
X153168417Y-68393105D01*
X153048140Y-68558650D01*
X152955244Y-68740970D01*
X152892009Y-68935586D01*
X152883391Y-68990000D01*
X153926988Y-68990000D01*
X153894075Y-69047007D01*
X153860000Y-69174174D01*
X153860000Y-69305826D01*
X153894075Y-69432993D01*
X153926988Y-69490000D01*
X152883391Y-69490000D01*
X152892009Y-69544413D01*
X152955244Y-69739029D01*
X153035991Y-69897505D01*
X153048887Y-69966175D01*
X153022610Y-70030915D01*
X152965504Y-70071172D01*
X152925506Y-70077800D01*
X132935054Y-70077800D01*
X132868015Y-70058115D01*
X132822260Y-70005311D01*
X132812316Y-69936153D01*
X132824569Y-69897505D01*
X132905218Y-69739223D01*
X132905218Y-69739222D01*
X132905220Y-69739219D01*
X132968477Y-69544534D01*
X133000500Y-69342352D01*
X133000500Y-69137648D01*
X132986144Y-69047007D01*
X132968477Y-68935465D01*
X132905218Y-68740776D01*
X132871503Y-68674607D01*
X132812287Y-68558390D01*
X132766668Y-68495600D01*
X132691971Y-68392786D01*
X132547213Y-68248028D01*
X132381614Y-68127715D01*
X132321334Y-68097001D01*
X132288917Y-68080483D01*
X132238123Y-68032511D01*
X132221328Y-67964690D01*
X132243865Y-67898555D01*
X132288917Y-67859516D01*
X132381610Y-67812287D01*
X132402770Y-67796913D01*
X132547213Y-67691971D01*
X132547215Y-67691968D01*
X132547219Y-67691966D01*
X132691966Y-67547219D01*
X132691968Y-67547215D01*
X132691971Y-67547213D01*
X132754605Y-67461003D01*
X132812287Y-67381610D01*
X132905220Y-67199219D01*
X132968477Y-67004534D01*
X133000500Y-66802352D01*
X133000500Y-66597648D01*
X132989884Y-66530620D01*
X132968477Y-66395465D01*
X132939127Y-66305137D01*
X132905220Y-66200781D01*
X132905218Y-66200778D01*
X132905218Y-66200776D01*
X132856507Y-66105177D01*
X132812287Y-66018390D01*
X132779910Y-65973826D01*
X132691971Y-65852786D01*
X132547213Y-65708028D01*
X132381614Y-65587715D01*
X132346012Y-65569575D01*
X132288917Y-65540483D01*
X132238123Y-65492511D01*
X132221328Y-65424690D01*
X132243865Y-65358555D01*
X132288917Y-65319516D01*
X132381610Y-65272287D01*
X132402770Y-65256913D01*
X132547213Y-65151971D01*
X132547215Y-65151968D01*
X132547219Y-65151966D01*
X132691966Y-65007219D01*
X132691968Y-65007215D01*
X132691971Y-65007213D01*
X132744732Y-64934590D01*
X132812287Y-64841610D01*
X132905220Y-64659219D01*
X132968477Y-64464534D01*
X133000500Y-64262352D01*
X133000500Y-64057648D01*
X132968477Y-63855466D01*
X132957317Y-63821119D01*
X132955322Y-63751278D01*
X132991402Y-63691445D01*
X133054102Y-63660616D01*
X133075248Y-63658800D01*
X152784752Y-63658800D01*
X152851791Y-63678485D01*
G37*
%TD.AperFunction*%
%TA.AperFunction,Conductor*%
G36*
X159161369Y-66670285D02*
G01*
X159207124Y-66723089D01*
X159217068Y-66792247D01*
X159214105Y-66806693D01*
X159164938Y-66990186D01*
X159164936Y-66990196D01*
X159146476Y-67201200D01*
X159144341Y-67225600D01*
X159149227Y-67281448D01*
X159164936Y-67461003D01*
X159164938Y-67461013D01*
X159226094Y-67689255D01*
X159226096Y-67689259D01*
X159226097Y-67689263D01*
X159227360Y-67691971D01*
X159325965Y-67903430D01*
X159325967Y-67903434D01*
X159416544Y-68032790D01*
X159450136Y-68080765D01*
X159461501Y-68096995D01*
X159461506Y-68097002D01*
X159628597Y-68264093D01*
X159628603Y-68264098D01*
X159814158Y-68394025D01*
X159857783Y-68448602D01*
X159864977Y-68518100D01*
X159833454Y-68580455D01*
X159814158Y-68597175D01*
X159628597Y-68727105D01*
X159461505Y-68894197D01*
X159325965Y-69087769D01*
X159325964Y-69087770D01*
X159317290Y-69106372D01*
X159271115Y-69158809D01*
X159237005Y-69173736D01*
X159116520Y-69206021D01*
X159116509Y-69206026D01*
X158979590Y-69285075D01*
X158979582Y-69285081D01*
X158223184Y-70041481D01*
X158161861Y-70074966D01*
X158135503Y-70077800D01*
X155794494Y-70077800D01*
X155727455Y-70058115D01*
X155681700Y-70005311D01*
X155671756Y-69936153D01*
X155684009Y-69897505D01*
X155764755Y-69739029D01*
X155827990Y-69544413D01*
X155836609Y-69490000D01*
X154793012Y-69490000D01*
X154825925Y-69432993D01*
X154860000Y-69305826D01*
X154860000Y-69174174D01*
X154825925Y-69047007D01*
X154793012Y-68990000D01*
X155836609Y-68990000D01*
X155827990Y-68935586D01*
X155764755Y-68740970D01*
X155671859Y-68558650D01*
X155551582Y-68393105D01*
X155551582Y-68393104D01*
X155406895Y-68248417D01*
X155241349Y-68128140D01*
X155148370Y-68080765D01*
X155097574Y-68032790D01*
X155080779Y-67964969D01*
X155103316Y-67898835D01*
X155148370Y-67859795D01*
X155148920Y-67859515D01*
X155241610Y-67812287D01*
X155262770Y-67796913D01*
X155407213Y-67691971D01*
X155407215Y-67691968D01*
X155407219Y-67691966D01*
X155551966Y-67547219D01*
X155551968Y-67547215D01*
X155551971Y-67547213D01*
X155672284Y-67381614D01*
X155672285Y-67381613D01*
X155672287Y-67381610D01*
X155684258Y-67358114D01*
X155732231Y-67307319D01*
X155762642Y-67294636D01*
X155893485Y-67259577D01*
X155952334Y-67225600D01*
X156030416Y-67180520D01*
X156142220Y-67068716D01*
X156142220Y-67068714D01*
X156152424Y-67058511D01*
X156152427Y-67058506D01*
X156524016Y-66686919D01*
X156585339Y-66653434D01*
X156611697Y-66650600D01*
X159094330Y-66650600D01*
X159161369Y-66670285D01*
G37*
%TD.AperFunction*%
%TA.AperFunction,Conductor*%
G36*
X160750000Y-57726988D02*
G01*
X160692993Y-57694075D01*
X160565826Y-57660000D01*
X160434174Y-57660000D01*
X160307007Y-57694075D01*
X160250000Y-57726988D01*
X160250000Y-56053012D01*
X160307007Y-56085925D01*
X160434174Y-56120000D01*
X160565826Y-56120000D01*
X160692993Y-56085925D01*
X160750000Y-56053012D01*
X160750000Y-57726988D01*
G37*
%TD.AperFunction*%
%TA.AperFunction,Conductor*%
G36*
X159091797Y-52759950D02*
G01*
X159146838Y-52800645D01*
X159169363Y-52830000D01*
X160066988Y-52830000D01*
X160034075Y-52887007D01*
X160000000Y-53014174D01*
X160000000Y-53145826D01*
X160034075Y-53272993D01*
X160066988Y-53330000D01*
X159169364Y-53330000D01*
X159226567Y-53543486D01*
X159226569Y-53543492D01*
X159240374Y-53573095D01*
X159250866Y-53642172D01*
X159222347Y-53705956D01*
X159163870Y-53744196D01*
X159127992Y-53749500D01*
X159010943Y-53749500D01*
X158858215Y-53790423D01*
X158858214Y-53790423D01*
X158858212Y-53790424D01*
X158858209Y-53790425D01*
X158808096Y-53819359D01*
X158808095Y-53819360D01*
X158764689Y-53844420D01*
X158721285Y-53869479D01*
X158721282Y-53869481D01*
X158609478Y-53981286D01*
X156072044Y-56518719D01*
X156010721Y-56552204D01*
X155941029Y-56547220D01*
X155885096Y-56505348D01*
X155861376Y-56442441D01*
X155861262Y-56442460D01*
X155861174Y-56441907D01*
X155860746Y-56440771D01*
X155860500Y-56437651D01*
X155828477Y-56235465D01*
X155813612Y-56189718D01*
X155773178Y-56065276D01*
X155771184Y-55995438D01*
X155807264Y-55935605D01*
X155829109Y-55919574D01*
X155830416Y-55918820D01*
X155942220Y-55807016D01*
X155942220Y-55807014D01*
X155952428Y-55796807D01*
X155952429Y-55796804D01*
X158960786Y-52788448D01*
X159022105Y-52754966D01*
X159091797Y-52759950D01*
G37*
%TD.AperFunction*%
%TA.AperFunction,Conductor*%
G36*
X160693039Y-54970185D02*
G01*
X160738794Y-55022989D01*
X160750000Y-55074500D01*
X160750000Y-55186988D01*
X160692993Y-55154075D01*
X160565826Y-55120000D01*
X160434174Y-55120000D01*
X160307007Y-55154075D01*
X160250000Y-55186988D01*
X160250000Y-55074500D01*
X160269685Y-55007461D01*
X160322489Y-54961706D01*
X160374000Y-54950500D01*
X160626000Y-54950500D01*
X160693039Y-54970185D01*
G37*
%TD.AperFunction*%
%TA.AperFunction,Conductor*%
G36*
X159195031Y-49890185D02*
G01*
X159240786Y-49942989D01*
X159250730Y-50012147D01*
X159240374Y-50046905D01*
X159226569Y-50076507D01*
X159226567Y-50076513D01*
X159169364Y-50289999D01*
X159169364Y-50290000D01*
X160066988Y-50290000D01*
X160034075Y-50347007D01*
X160000000Y-50474174D01*
X160000000Y-50605826D01*
X160034075Y-50732993D01*
X160066988Y-50790000D01*
X159169364Y-50790000D01*
X159226567Y-51003486D01*
X159226569Y-51003492D01*
X159240374Y-51033095D01*
X159250866Y-51102172D01*
X159222347Y-51165956D01*
X159163870Y-51204196D01*
X159127992Y-51209500D01*
X159010943Y-51209500D01*
X158858214Y-51250423D01*
X158827399Y-51268215D01*
X158827398Y-51268215D01*
X158721287Y-51329477D01*
X158721282Y-51329481D01*
X158609478Y-51441286D01*
X156072044Y-53978719D01*
X156010721Y-54012204D01*
X155941029Y-54007220D01*
X155885096Y-53965348D01*
X155861376Y-53902441D01*
X155861262Y-53902460D01*
X155861174Y-53901907D01*
X155860746Y-53900771D01*
X155860500Y-53897651D01*
X155856038Y-53869481D01*
X155831283Y-53713181D01*
X155828477Y-53695465D01*
X155779888Y-53545925D01*
X155765220Y-53500781D01*
X155765218Y-53500778D01*
X155765218Y-53500776D01*
X155707249Y-53387007D01*
X155672287Y-53318390D01*
X155664556Y-53307749D01*
X155551971Y-53152786D01*
X155407215Y-53008030D01*
X155346448Y-52963882D01*
X155303782Y-52908553D01*
X155297801Y-52838940D01*
X155330406Y-52777144D01*
X155331575Y-52775958D01*
X158200716Y-49906819D01*
X158262039Y-49873334D01*
X158288397Y-49870500D01*
X159127992Y-49870500D01*
X159195031Y-49890185D01*
G37*
%TD.AperFunction*%
%TA.AperFunction,Conductor*%
G36*
X160750000Y-53625500D02*
G01*
X160730315Y-53692539D01*
X160677511Y-53738294D01*
X160626000Y-53749500D01*
X160374000Y-53749500D01*
X160306961Y-53729815D01*
X160261206Y-53677011D01*
X160250000Y-53625500D01*
X160250000Y-53513012D01*
X160307007Y-53545925D01*
X160434174Y-53580000D01*
X160565826Y-53580000D01*
X160692993Y-53545925D01*
X160750000Y-53513012D01*
X160750000Y-53625500D01*
G37*
%TD.AperFunction*%
%TA.AperFunction,Conductor*%
G36*
X160693039Y-52430185D02*
G01*
X160738794Y-52482989D01*
X160750000Y-52534500D01*
X160750000Y-52646988D01*
X160692993Y-52614075D01*
X160565826Y-52580000D01*
X160434174Y-52580000D01*
X160307007Y-52614075D01*
X160250000Y-52646988D01*
X160250000Y-52534500D01*
X160269685Y-52467461D01*
X160322489Y-52421706D01*
X160374000Y-52410500D01*
X160626000Y-52410500D01*
X160693039Y-52430185D01*
G37*
%TD.AperFunction*%
%TA.AperFunction,Conductor*%
G36*
X160750000Y-51085500D02*
G01*
X160730315Y-51152539D01*
X160677511Y-51198294D01*
X160626000Y-51209500D01*
X160374000Y-51209500D01*
X160306961Y-51189815D01*
X160261206Y-51137011D01*
X160250000Y-51085500D01*
X160250000Y-50973012D01*
X160307007Y-51005925D01*
X160434174Y-51040000D01*
X160565826Y-51040000D01*
X160692993Y-51005925D01*
X160750000Y-50973012D01*
X160750000Y-51085500D01*
G37*
%TD.AperFunction*%
%TA.AperFunction,Conductor*%
G36*
X172294503Y-40708944D02*
G01*
X172350436Y-40750816D01*
X172374853Y-40816280D01*
X172366598Y-40870427D01*
X172322583Y-40982578D01*
X172322580Y-40982585D01*
X172322576Y-40982597D01*
X172264197Y-41238374D01*
X172264196Y-41238379D01*
X172244592Y-41499995D01*
X172244592Y-41500004D01*
X172264196Y-41761620D01*
X172264197Y-41761625D01*
X172322578Y-42017412D01*
X172380509Y-42165019D01*
X172386677Y-42234616D01*
X172354239Y-42296500D01*
X172352761Y-42298002D01*
X163477584Y-51173181D01*
X163416261Y-51206666D01*
X163389903Y-51209500D01*
X161872008Y-51209500D01*
X161804969Y-51189815D01*
X161759214Y-51137011D01*
X161749270Y-51067853D01*
X161759626Y-51033095D01*
X161773430Y-51003492D01*
X161773432Y-51003486D01*
X161830636Y-50790000D01*
X160933012Y-50790000D01*
X160965925Y-50732993D01*
X161000000Y-50605826D01*
X161000000Y-50474174D01*
X160965925Y-50347007D01*
X160933012Y-50290000D01*
X161830636Y-50290000D01*
X161830635Y-50289999D01*
X161773432Y-50076513D01*
X161773430Y-50076507D01*
X161759626Y-50046905D01*
X161749134Y-49977828D01*
X161777653Y-49914044D01*
X161836130Y-49875804D01*
X161872008Y-49870500D01*
X162695031Y-49870500D01*
X162695047Y-49870501D01*
X162702643Y-49870501D01*
X162860754Y-49870501D01*
X162860757Y-49870501D01*
X163013485Y-49829577D01*
X163084452Y-49788604D01*
X163150416Y-49750520D01*
X163262220Y-49638716D01*
X163262220Y-49638714D01*
X163272424Y-49628511D01*
X163272428Y-49628506D01*
X172163490Y-40737443D01*
X172224811Y-40703960D01*
X172294503Y-40708944D01*
G37*
%TD.AperFunction*%
%TA.AperFunction,Conductor*%
G36*
X160693039Y-49890185D02*
G01*
X160738794Y-49942989D01*
X160750000Y-49994500D01*
X160750000Y-50106988D01*
X160692993Y-50074075D01*
X160565826Y-50040000D01*
X160434174Y-50040000D01*
X160307007Y-50074075D01*
X160250000Y-50106988D01*
X160250000Y-49994500D01*
X160269685Y-49927461D01*
X160322489Y-49881706D01*
X160374000Y-49870500D01*
X160626000Y-49870500D01*
X160693039Y-49890185D01*
G37*
%TD.AperFunction*%
%TA.AperFunction,Conductor*%
G36*
X160750000Y-48545500D02*
G01*
X160730315Y-48612539D01*
X160677511Y-48658294D01*
X160626000Y-48669500D01*
X160374000Y-48669500D01*
X160306961Y-48649815D01*
X160261206Y-48597011D01*
X160250000Y-48545500D01*
X160250000Y-48433012D01*
X160307007Y-48465925D01*
X160434174Y-48500000D01*
X160565826Y-48500000D01*
X160692993Y-48465925D01*
X160750000Y-48433012D01*
X160750000Y-48545500D01*
G37*
%TD.AperFunction*%
%TA.AperFunction,Conductor*%
G36*
X178442539Y-26020185D02*
G01*
X178488294Y-26072989D01*
X178499500Y-26124500D01*
X178499500Y-122875500D01*
X178479815Y-122942539D01*
X178427011Y-122988294D01*
X178375500Y-122999500D01*
X80624500Y-122999500D01*
X80557461Y-122979815D01*
X80511706Y-122927011D01*
X80500500Y-122875500D01*
X80500500Y-97054999D01*
X86644341Y-97054999D01*
X86644341Y-97055000D01*
X86664936Y-97290403D01*
X86664938Y-97290413D01*
X86726094Y-97518655D01*
X86726096Y-97518659D01*
X86726097Y-97518663D01*
X86789906Y-97655501D01*
X86825965Y-97732830D01*
X86825967Y-97732834D01*
X86961501Y-97926395D01*
X86961506Y-97926402D01*
X87128597Y-98093493D01*
X87128603Y-98093498D01*
X87314158Y-98223425D01*
X87357783Y-98278002D01*
X87364977Y-98347500D01*
X87333454Y-98409855D01*
X87314158Y-98426575D01*
X87128597Y-98556505D01*
X86961505Y-98723597D01*
X86825965Y-98917169D01*
X86825964Y-98917171D01*
X86726098Y-99131335D01*
X86726094Y-99131344D01*
X86664938Y-99359586D01*
X86664936Y-99359596D01*
X86644341Y-99594999D01*
X86644341Y-99595000D01*
X86664936Y-99830403D01*
X86664938Y-99830413D01*
X86726094Y-100058655D01*
X86726096Y-100058659D01*
X86726097Y-100058663D01*
X86797317Y-100211394D01*
X86825965Y-100272830D01*
X86825967Y-100272834D01*
X86961501Y-100466395D01*
X86961506Y-100466402D01*
X87128597Y-100633493D01*
X87128603Y-100633498D01*
X87314158Y-100763425D01*
X87357783Y-100818002D01*
X87364977Y-100887500D01*
X87333454Y-100949855D01*
X87314158Y-100966575D01*
X87128597Y-101096505D01*
X86961505Y-101263597D01*
X86825965Y-101457169D01*
X86825964Y-101457171D01*
X86726098Y-101671335D01*
X86726094Y-101671344D01*
X86664938Y-101899586D01*
X86664936Y-101899596D01*
X86644341Y-102134999D01*
X86644341Y-102135000D01*
X86664936Y-102370403D01*
X86664938Y-102370413D01*
X86726094Y-102598655D01*
X86726096Y-102598659D01*
X86726097Y-102598663D01*
X86773727Y-102700805D01*
X86825965Y-102812830D01*
X86825967Y-102812834D01*
X86961501Y-103006395D01*
X86961506Y-103006402D01*
X87128597Y-103173493D01*
X87128603Y-103173498D01*
X87314158Y-103303425D01*
X87357783Y-103358002D01*
X87364977Y-103427500D01*
X87333454Y-103489855D01*
X87314158Y-103506575D01*
X87128597Y-103636505D01*
X86961505Y-103803597D01*
X86825965Y-103997169D01*
X86825964Y-103997171D01*
X86726098Y-104211335D01*
X86726094Y-104211344D01*
X86664938Y-104439586D01*
X86664936Y-104439596D01*
X86644341Y-104674999D01*
X86644341Y-104675000D01*
X86664936Y-104910403D01*
X86664938Y-104910413D01*
X86726094Y-105138655D01*
X86726096Y-105138659D01*
X86726097Y-105138663D01*
X86809493Y-105317505D01*
X86825965Y-105352830D01*
X86825967Y-105352834D01*
X86961501Y-105546395D01*
X86961506Y-105546402D01*
X87128597Y-105713493D01*
X87128603Y-105713498D01*
X87314158Y-105843425D01*
X87357783Y-105898002D01*
X87364977Y-105967500D01*
X87333454Y-106029855D01*
X87314158Y-106046575D01*
X87128597Y-106176505D01*
X86961505Y-106343597D01*
X86825965Y-106537169D01*
X86825964Y-106537171D01*
X86726098Y-106751335D01*
X86726094Y-106751344D01*
X86664938Y-106979586D01*
X86664936Y-106979596D01*
X86644341Y-107214999D01*
X86644341Y-107215000D01*
X86664936Y-107450403D01*
X86664938Y-107450413D01*
X86726094Y-107678655D01*
X86726096Y-107678659D01*
X86726097Y-107678663D01*
X86789906Y-107815501D01*
X86825965Y-107892830D01*
X86825967Y-107892834D01*
X86961501Y-108086395D01*
X86961506Y-108086402D01*
X87128597Y-108253493D01*
X87128603Y-108253498D01*
X87314158Y-108383425D01*
X87357783Y-108438002D01*
X87364977Y-108507500D01*
X87333454Y-108569855D01*
X87314158Y-108586575D01*
X87128597Y-108716505D01*
X86961505Y-108883597D01*
X86825965Y-109077169D01*
X86825964Y-109077171D01*
X86726098Y-109291335D01*
X86726094Y-109291344D01*
X86664938Y-109519586D01*
X86664936Y-109519596D01*
X86644341Y-109754999D01*
X86644341Y-109755000D01*
X86664936Y-109990403D01*
X86664938Y-109990413D01*
X86726094Y-110218655D01*
X86726096Y-110218659D01*
X86726097Y-110218663D01*
X86789906Y-110355501D01*
X86825965Y-110432830D01*
X86825967Y-110432834D01*
X86961501Y-110626395D01*
X86961506Y-110626402D01*
X87128597Y-110793493D01*
X87128603Y-110793498D01*
X87314158Y-110923425D01*
X87357783Y-110978002D01*
X87364977Y-111047500D01*
X87333454Y-111109855D01*
X87314158Y-111126575D01*
X87128597Y-111256505D01*
X86961505Y-111423597D01*
X86825965Y-111617169D01*
X86825964Y-111617171D01*
X86726098Y-111831335D01*
X86726094Y-111831344D01*
X86664938Y-112059586D01*
X86664936Y-112059596D01*
X86644341Y-112294999D01*
X86644341Y-112295000D01*
X86664936Y-112530403D01*
X86664938Y-112530413D01*
X86726094Y-112758655D01*
X86726096Y-112758659D01*
X86726097Y-112758663D01*
X86789906Y-112895501D01*
X86825965Y-112972830D01*
X86825967Y-112972834D01*
X86934069Y-113127219D01*
X86961505Y-113166401D01*
X87128599Y-113333495D01*
X87212558Y-113392284D01*
X87322165Y-113469032D01*
X87322167Y-113469033D01*
X87322170Y-113469035D01*
X87536337Y-113568903D01*
X87764592Y-113630063D01*
X87952918Y-113646539D01*
X87999999Y-113650659D01*
X88000000Y-113650659D01*
X88000001Y-113650659D01*
X88039234Y-113647226D01*
X88235408Y-113630063D01*
X88463663Y-113568903D01*
X88677830Y-113469035D01*
X88871401Y-113333495D01*
X89038495Y-113166401D01*
X89174035Y-112972830D01*
X89176707Y-112967097D01*
X89222878Y-112914658D01*
X89289091Y-112895500D01*
X92078041Y-112895500D01*
X92145080Y-112915185D01*
X92183984Y-112958181D01*
X92185168Y-112957457D01*
X92187706Y-112961600D01*
X92187712Y-112961608D01*
X92187713Y-112961610D01*
X92202961Y-112982597D01*
X92308034Y-113127219D01*
X92452786Y-113271971D01*
X92607749Y-113384556D01*
X92618390Y-113392287D01*
X92800781Y-113485220D01*
X92852061Y-113501881D01*
X92909736Y-113541318D01*
X92933518Y-113587718D01*
X92940421Y-113613482D01*
X92940422Y-113613483D01*
X92940423Y-113613485D01*
X92961886Y-113650659D01*
X93000282Y-113717163D01*
X93019479Y-113750415D01*
X93196284Y-113927220D01*
X93283095Y-113977339D01*
X93283097Y-113977341D01*
X93321151Y-113999311D01*
X93333215Y-114006277D01*
X93485943Y-114047201D01*
X93485946Y-114047201D01*
X93651653Y-114047201D01*
X93651669Y-114047200D01*
X131331970Y-114047200D01*
X131379420Y-114056638D01*
X131386511Y-114059574D01*
X131386516Y-114059577D01*
X131498319Y-114089534D01*
X131539242Y-114100500D01*
X131539243Y-114100500D01*
X172270647Y-114100500D01*
X172337686Y-114120185D01*
X172383441Y-114172989D01*
X172386058Y-114179157D01*
X172418432Y-114261643D01*
X172549614Y-114488857D01*
X172681736Y-114654533D01*
X172713198Y-114693985D01*
X172894753Y-114862441D01*
X172905521Y-114872433D01*
X173122296Y-115020228D01*
X173122301Y-115020230D01*
X173122302Y-115020231D01*
X173122303Y-115020232D01*
X173247843Y-115080688D01*
X173358673Y-115134061D01*
X173358674Y-115134061D01*
X173358677Y-115134063D01*
X173609385Y-115211396D01*
X173868818Y-115250500D01*
X174131182Y-115250500D01*
X174390615Y-115211396D01*
X174641323Y-115134063D01*
X174877704Y-115020228D01*
X175094479Y-114872433D01*
X175286805Y-114693981D01*
X175450386Y-114488857D01*
X175581568Y-114261643D01*
X175677420Y-114017416D01*
X175735802Y-113761630D01*
X175735803Y-113761620D01*
X175755408Y-113500004D01*
X175755408Y-113499995D01*
X175735803Y-113238379D01*
X175735802Y-113238374D01*
X175735802Y-113238370D01*
X175677420Y-112982584D01*
X175581568Y-112738357D01*
X175450386Y-112511143D01*
X175286805Y-112306019D01*
X175286804Y-112306018D01*
X175286801Y-112306014D01*
X175094479Y-112127567D01*
X174994769Y-112059586D01*
X174877704Y-111979772D01*
X174877700Y-111979770D01*
X174877697Y-111979768D01*
X174877696Y-111979767D01*
X174641325Y-111865938D01*
X174641327Y-111865938D01*
X174390623Y-111788606D01*
X174390619Y-111788605D01*
X174390615Y-111788604D01*
X174265823Y-111769794D01*
X174131187Y-111749500D01*
X174131182Y-111749500D01*
X173868818Y-111749500D01*
X173868812Y-111749500D01*
X173707247Y-111773853D01*
X173609385Y-111788604D01*
X173609382Y-111788605D01*
X173609376Y-111788606D01*
X173358673Y-111865938D01*
X173122303Y-111979767D01*
X173122302Y-111979768D01*
X172905520Y-112127567D01*
X172713198Y-112306014D01*
X172549614Y-112511143D01*
X172418435Y-112738350D01*
X172418432Y-112738355D01*
X172418432Y-112738357D01*
X172386073Y-112820805D01*
X172343260Y-112876016D01*
X172277390Y-112899317D01*
X172270647Y-112899500D01*
X155896810Y-112899500D01*
X155829771Y-112879815D01*
X155784016Y-112827011D01*
X155774072Y-112757853D01*
X155778879Y-112737182D01*
X155828476Y-112584538D01*
X155828476Y-112584537D01*
X155828477Y-112584534D01*
X155860500Y-112382352D01*
X155860500Y-112177648D01*
X155841802Y-112059596D01*
X155828477Y-111975465D01*
X155781649Y-111831344D01*
X155765220Y-111780781D01*
X155765218Y-111780778D01*
X155765218Y-111780776D01*
X155684569Y-111622495D01*
X155671673Y-111553826D01*
X155697949Y-111489085D01*
X155755056Y-111448828D01*
X155795054Y-111442200D01*
X171571631Y-111442200D01*
X171571647Y-111442201D01*
X171579243Y-111442201D01*
X171737354Y-111442201D01*
X171737357Y-111442201D01*
X171890085Y-111401277D01*
X171940204Y-111372339D01*
X172027016Y-111322220D01*
X172138820Y-111210416D01*
X172138820Y-111210414D01*
X172149028Y-111200207D01*
X172149030Y-111200204D01*
X173199605Y-110149628D01*
X173260926Y-110116145D01*
X173330618Y-110121129D01*
X173341079Y-110125588D01*
X173358677Y-110134063D01*
X173609385Y-110211396D01*
X173868818Y-110250500D01*
X174131182Y-110250500D01*
X174390615Y-110211396D01*
X174641323Y-110134063D01*
X174877704Y-110020228D01*
X175094479Y-109872433D01*
X175286805Y-109693981D01*
X175450386Y-109488857D01*
X175581568Y-109261643D01*
X175677420Y-109017416D01*
X175735802Y-108761630D01*
X175736821Y-108748034D01*
X175755408Y-108500004D01*
X175755408Y-108499995D01*
X175735803Y-108238379D01*
X175735802Y-108238374D01*
X175735802Y-108238370D01*
X175677420Y-107982584D01*
X175581568Y-107738357D01*
X175450386Y-107511143D01*
X175286805Y-107306019D01*
X175286804Y-107306018D01*
X175286801Y-107306014D01*
X175094479Y-107127567D01*
X175050596Y-107097648D01*
X174877704Y-106979772D01*
X174877700Y-106979770D01*
X174877697Y-106979768D01*
X174877696Y-106979767D01*
X174641325Y-106865938D01*
X174641327Y-106865938D01*
X174390623Y-106788606D01*
X174390619Y-106788605D01*
X174390615Y-106788604D01*
X174265823Y-106769794D01*
X174131187Y-106749500D01*
X174131182Y-106749500D01*
X173868818Y-106749500D01*
X173868812Y-106749500D01*
X173724260Y-106771289D01*
X173609385Y-106788604D01*
X173609382Y-106788605D01*
X173609376Y-106788606D01*
X173358673Y-106865938D01*
X173122303Y-106979767D01*
X173122302Y-106979768D01*
X172905520Y-107127567D01*
X172713198Y-107306014D01*
X172549614Y-107511143D01*
X172418432Y-107738356D01*
X172322582Y-107982578D01*
X172322576Y-107982597D01*
X172264197Y-108238374D01*
X172264196Y-108238379D01*
X172244592Y-108499995D01*
X172244592Y-108500004D01*
X172264196Y-108761620D01*
X172264197Y-108761625D01*
X172322578Y-109017412D01*
X172380509Y-109165019D01*
X172386677Y-109234616D01*
X172354239Y-109296500D01*
X172352761Y-109298002D01*
X171445884Y-110204881D01*
X171384561Y-110238366D01*
X171358203Y-110241200D01*
X155934722Y-110241200D01*
X155867683Y-110221515D01*
X155821928Y-110168711D01*
X155811984Y-110099553D01*
X155816791Y-110078881D01*
X155827991Y-110044411D01*
X155836609Y-109990000D01*
X154793012Y-109990000D01*
X154825925Y-109932993D01*
X154860000Y-109805826D01*
X154860000Y-109674174D01*
X154825925Y-109547007D01*
X154793012Y-109490000D01*
X155836609Y-109490000D01*
X155827990Y-109435586D01*
X155764755Y-109240970D01*
X155671859Y-109058650D01*
X155551582Y-108893105D01*
X155551582Y-108893104D01*
X155406895Y-108748417D01*
X155241349Y-108628140D01*
X155148370Y-108580765D01*
X155097574Y-108532790D01*
X155080779Y-108464969D01*
X155103316Y-108398835D01*
X155148370Y-108359795D01*
X155148920Y-108359515D01*
X155241610Y-108312287D01*
X155322534Y-108253493D01*
X155407213Y-108191971D01*
X155407215Y-108191968D01*
X155407219Y-108191966D01*
X155551966Y-108047219D01*
X155551968Y-108047215D01*
X155551971Y-108047213D01*
X155664132Y-107892834D01*
X155672287Y-107881610D01*
X155765220Y-107699219D01*
X155828477Y-107504534D01*
X155860500Y-107302352D01*
X155860500Y-107097648D01*
X155841802Y-106979596D01*
X155828477Y-106895465D01*
X155817317Y-106861119D01*
X155815322Y-106791278D01*
X155851402Y-106731445D01*
X155914102Y-106700616D01*
X155935248Y-106698800D01*
X171315031Y-106698800D01*
X171315047Y-106698801D01*
X171322643Y-106698801D01*
X171480754Y-106698801D01*
X171480757Y-106698801D01*
X171633485Y-106657877D01*
X171683604Y-106628939D01*
X171770416Y-106578820D01*
X171882220Y-106467016D01*
X171882220Y-106467014D01*
X171892428Y-106456807D01*
X171892430Y-106456804D01*
X173199605Y-105149628D01*
X173260926Y-105116145D01*
X173330618Y-105121129D01*
X173341079Y-105125588D01*
X173358677Y-105134063D01*
X173609385Y-105211396D01*
X173868818Y-105250500D01*
X174131182Y-105250500D01*
X174390615Y-105211396D01*
X174641323Y-105134063D01*
X174877704Y-105020228D01*
X175094479Y-104872433D01*
X175286805Y-104693981D01*
X175450386Y-104488857D01*
X175581568Y-104261643D01*
X175677420Y-104017416D01*
X175735802Y-103761630D01*
X175742816Y-103668034D01*
X175755408Y-103500004D01*
X175755408Y-103499995D01*
X175735803Y-103238379D01*
X175735802Y-103238374D01*
X175735802Y-103238370D01*
X175677420Y-102982584D01*
X175581568Y-102738357D01*
X175450386Y-102511143D01*
X175286805Y-102306019D01*
X175286804Y-102306018D01*
X175286801Y-102306014D01*
X175094479Y-102127567D01*
X174877704Y-101979772D01*
X174877700Y-101979770D01*
X174877697Y-101979768D01*
X174877696Y-101979767D01*
X174641325Y-101865938D01*
X174641327Y-101865938D01*
X174390623Y-101788606D01*
X174390619Y-101788605D01*
X174390615Y-101788604D01*
X174260905Y-101769053D01*
X174131187Y-101749500D01*
X174131182Y-101749500D01*
X173868818Y-101749500D01*
X173868812Y-101749500D01*
X173707247Y-101773853D01*
X173609385Y-101788604D01*
X173609382Y-101788605D01*
X173609376Y-101788606D01*
X173358673Y-101865938D01*
X173122303Y-101979767D01*
X173122302Y-101979768D01*
X172905520Y-102127567D01*
X172713198Y-102306014D01*
X172549614Y-102511143D01*
X172418432Y-102738356D01*
X172322582Y-102982578D01*
X172322576Y-102982597D01*
X172264197Y-103238374D01*
X172264196Y-103238379D01*
X172244592Y-103499995D01*
X172244592Y-103500004D01*
X172264196Y-103761620D01*
X172264197Y-103761625D01*
X172322578Y-104017412D01*
X172380509Y-104165019D01*
X172386677Y-104234616D01*
X172354239Y-104296500D01*
X172352761Y-104298002D01*
X171189284Y-105461481D01*
X171127961Y-105494966D01*
X171101603Y-105497800D01*
X155795054Y-105497800D01*
X155728015Y-105478115D01*
X155682260Y-105425311D01*
X155672316Y-105356153D01*
X155684569Y-105317505D01*
X155692483Y-105301974D01*
X155765220Y-105159219D01*
X155828477Y-104964534D01*
X155860500Y-104762352D01*
X155860500Y-104557648D01*
X155841802Y-104439596D01*
X155828477Y-104355465D01*
X155817317Y-104321119D01*
X155815322Y-104251278D01*
X155851402Y-104191445D01*
X155914102Y-104160616D01*
X155935248Y-104158800D01*
X168855031Y-104158800D01*
X168855047Y-104158801D01*
X168862643Y-104158801D01*
X169020754Y-104158801D01*
X169020757Y-104158801D01*
X169173485Y-104117877D01*
X169235452Y-104082100D01*
X169310416Y-104038820D01*
X169422220Y-103927016D01*
X169422220Y-103927014D01*
X169432424Y-103916811D01*
X169432428Y-103916806D01*
X173199605Y-100149628D01*
X173260926Y-100116145D01*
X173330618Y-100121129D01*
X173341079Y-100125588D01*
X173358677Y-100134063D01*
X173609385Y-100211396D01*
X173868818Y-100250500D01*
X174131182Y-100250500D01*
X174390615Y-100211396D01*
X174641323Y-100134063D01*
X174877704Y-100020228D01*
X175094479Y-99872433D01*
X175286805Y-99693981D01*
X175450386Y-99488857D01*
X175581568Y-99261643D01*
X175677420Y-99017416D01*
X175735802Y-98761630D01*
X175735803Y-98761620D01*
X175755408Y-98500004D01*
X175755408Y-98499995D01*
X175735803Y-98238379D01*
X175735802Y-98238374D01*
X175735802Y-98238370D01*
X175677420Y-97982584D01*
X175581568Y-97738357D01*
X175450386Y-97511143D01*
X175286805Y-97306019D01*
X175286804Y-97306018D01*
X175286801Y-97306014D01*
X175094479Y-97127567D01*
X175042948Y-97092434D01*
X174877704Y-96979772D01*
X174877700Y-96979770D01*
X174877697Y-96979768D01*
X174877696Y-96979767D01*
X174641325Y-96865938D01*
X174641327Y-96865938D01*
X174390623Y-96788606D01*
X174390619Y-96788605D01*
X174390615Y-96788604D01*
X174265823Y-96769794D01*
X174131187Y-96749500D01*
X174131182Y-96749500D01*
X173868818Y-96749500D01*
X173868812Y-96749500D01*
X173707247Y-96773853D01*
X173609385Y-96788604D01*
X173609382Y-96788605D01*
X173609376Y-96788606D01*
X173358673Y-96865938D01*
X173122303Y-96979767D01*
X173122302Y-96979768D01*
X172905520Y-97127567D01*
X172713198Y-97306014D01*
X172549614Y-97511143D01*
X172418432Y-97738356D01*
X172322582Y-97982578D01*
X172322576Y-97982597D01*
X172264197Y-98238374D01*
X172264196Y-98238379D01*
X172244592Y-98499995D01*
X172244592Y-98500004D01*
X172264196Y-98761620D01*
X172264197Y-98761625D01*
X172322578Y-99017412D01*
X172380509Y-99165019D01*
X172386677Y-99234616D01*
X172354239Y-99296500D01*
X172352761Y-99298002D01*
X168729284Y-102921481D01*
X168667961Y-102954966D01*
X168641603Y-102957800D01*
X155795054Y-102957800D01*
X155728015Y-102938115D01*
X155682260Y-102885311D01*
X155672316Y-102816153D01*
X155684569Y-102777505D01*
X155704517Y-102738356D01*
X155765220Y-102619219D01*
X155828477Y-102424534D01*
X155860500Y-102222352D01*
X155860500Y-102017648D01*
X155840567Y-101891798D01*
X155849522Y-101822505D01*
X155894518Y-101769053D01*
X155961269Y-101748413D01*
X155963040Y-101748400D01*
X166265431Y-101748400D01*
X166265447Y-101748401D01*
X166273043Y-101748401D01*
X166431154Y-101748401D01*
X166431157Y-101748401D01*
X166583885Y-101707477D01*
X166664236Y-101661086D01*
X166720816Y-101628420D01*
X166832620Y-101516616D01*
X166832620Y-101516614D01*
X166842824Y-101506411D01*
X166842828Y-101506406D01*
X173199605Y-95149628D01*
X173260926Y-95116145D01*
X173330618Y-95121129D01*
X173341079Y-95125588D01*
X173358677Y-95134063D01*
X173609385Y-95211396D01*
X173868818Y-95250500D01*
X174131182Y-95250500D01*
X174390615Y-95211396D01*
X174641323Y-95134063D01*
X174877704Y-95020228D01*
X175094479Y-94872433D01*
X175286805Y-94693981D01*
X175450386Y-94488857D01*
X175581568Y-94261643D01*
X175677420Y-94017416D01*
X175735802Y-93761630D01*
X175754806Y-93508034D01*
X175755408Y-93500004D01*
X175755408Y-93499995D01*
X175735803Y-93238379D01*
X175735802Y-93238374D01*
X175735802Y-93238370D01*
X175677420Y-92982584D01*
X175581568Y-92738357D01*
X175450386Y-92511143D01*
X175286805Y-92306019D01*
X175286804Y-92306018D01*
X175286801Y-92306014D01*
X175094479Y-92127567D01*
X174877704Y-91979772D01*
X174877700Y-91979770D01*
X174877697Y-91979768D01*
X174877696Y-91979767D01*
X174641325Y-91865938D01*
X174641327Y-91865938D01*
X174390623Y-91788606D01*
X174390619Y-91788605D01*
X174390615Y-91788604D01*
X174265823Y-91769794D01*
X174131187Y-91749500D01*
X174131182Y-91749500D01*
X173868818Y-91749500D01*
X173868812Y-91749500D01*
X173707247Y-91773853D01*
X173609385Y-91788604D01*
X173609382Y-91788605D01*
X173609376Y-91788606D01*
X173358673Y-91865938D01*
X173122303Y-91979767D01*
X173122302Y-91979768D01*
X172905520Y-92127567D01*
X172713198Y-92306014D01*
X172549614Y-92511143D01*
X172418432Y-92738356D01*
X172322582Y-92982578D01*
X172322576Y-92982597D01*
X172264197Y-93238374D01*
X172264196Y-93238379D01*
X172244592Y-93499995D01*
X172244592Y-93500004D01*
X172264196Y-93761620D01*
X172264197Y-93761625D01*
X172322578Y-94017412D01*
X172380509Y-94165019D01*
X172386677Y-94234616D01*
X172354239Y-94296500D01*
X172352761Y-94298002D01*
X166139684Y-100511081D01*
X166078361Y-100544566D01*
X166052003Y-100547400D01*
X163101197Y-100547400D01*
X163034158Y-100527715D01*
X162988403Y-100474911D01*
X162978459Y-100405753D01*
X163007484Y-100342197D01*
X163013516Y-100335719D01*
X165554763Y-97794472D01*
X173199605Y-90149628D01*
X173260926Y-90116145D01*
X173330618Y-90121129D01*
X173341079Y-90125588D01*
X173358677Y-90134063D01*
X173609385Y-90211396D01*
X173868818Y-90250500D01*
X174131182Y-90250500D01*
X174390615Y-90211396D01*
X174641323Y-90134063D01*
X174828111Y-90044110D01*
X174877696Y-90020232D01*
X174877696Y-90020231D01*
X174877704Y-90020228D01*
X175094479Y-89872433D01*
X175286805Y-89693981D01*
X175450386Y-89488857D01*
X175581568Y-89261643D01*
X175677420Y-89017416D01*
X175735802Y-88761630D01*
X175736239Y-88755796D01*
X175755408Y-88500004D01*
X175755408Y-88499995D01*
X175735803Y-88238379D01*
X175735802Y-88238374D01*
X175735802Y-88238370D01*
X175677420Y-87982584D01*
X175581568Y-87738357D01*
X175450386Y-87511143D01*
X175286805Y-87306019D01*
X175286804Y-87306018D01*
X175286801Y-87306014D01*
X175094479Y-87127567D01*
X174877704Y-86979772D01*
X174877700Y-86979770D01*
X174877697Y-86979768D01*
X174877696Y-86979767D01*
X174641325Y-86865938D01*
X174641327Y-86865938D01*
X174390623Y-86788606D01*
X174390619Y-86788605D01*
X174390615Y-86788604D01*
X174265823Y-86769794D01*
X174131187Y-86749500D01*
X174131182Y-86749500D01*
X173868818Y-86749500D01*
X173868812Y-86749500D01*
X173707247Y-86773853D01*
X173609385Y-86788604D01*
X173609382Y-86788605D01*
X173609376Y-86788606D01*
X173358673Y-86865938D01*
X173122303Y-86979767D01*
X173122302Y-86979768D01*
X172905520Y-87127567D01*
X172713198Y-87306014D01*
X172549614Y-87511143D01*
X172418432Y-87738356D01*
X172322582Y-87982578D01*
X172322576Y-87982597D01*
X172264197Y-88238374D01*
X172264196Y-88238379D01*
X172244592Y-88499995D01*
X172244592Y-88500004D01*
X172264196Y-88761620D01*
X172264197Y-88761625D01*
X172322578Y-89017412D01*
X172380509Y-89165019D01*
X172386677Y-89234616D01*
X172354239Y-89296500D01*
X172352761Y-89298002D01*
X161741384Y-99909381D01*
X161680061Y-99942866D01*
X161653703Y-99945700D01*
X156957012Y-99945700D01*
X156889973Y-99926015D01*
X156879697Y-99918645D01*
X156876863Y-99916385D01*
X156876862Y-99916384D01*
X156820096Y-99880715D01*
X156724123Y-99820411D01*
X156553854Y-99760831D01*
X156553849Y-99760830D01*
X156374604Y-99740635D01*
X156374596Y-99740635D01*
X156195350Y-99760830D01*
X156195342Y-99760832D01*
X156023587Y-99820932D01*
X155953809Y-99824493D01*
X155893181Y-99789764D01*
X155860954Y-99727771D01*
X155860212Y-99687210D01*
X155860118Y-99687203D01*
X155860194Y-99686235D01*
X155860162Y-99684484D01*
X155860500Y-99682352D01*
X155860500Y-99477648D01*
X155841802Y-99359596D01*
X155828477Y-99275465D01*
X155781649Y-99131344D01*
X155765220Y-99080781D01*
X155765218Y-99080778D01*
X155765218Y-99080776D01*
X155725130Y-99002100D01*
X155672287Y-98898390D01*
X155639910Y-98853826D01*
X155551971Y-98732786D01*
X155407213Y-98588028D01*
X155241614Y-98467715D01*
X155235006Y-98464348D01*
X155148917Y-98420483D01*
X155098123Y-98372511D01*
X155081328Y-98304690D01*
X155103865Y-98238555D01*
X155148917Y-98199516D01*
X155241610Y-98152287D01*
X155322534Y-98093493D01*
X155407213Y-98031971D01*
X155407215Y-98031968D01*
X155407219Y-98031966D01*
X155551966Y-97887219D01*
X155551968Y-97887215D01*
X155551971Y-97887213D01*
X155604732Y-97814590D01*
X155672287Y-97721610D01*
X155765220Y-97539219D01*
X155828477Y-97344534D01*
X155860500Y-97142352D01*
X155860500Y-96937648D01*
X155841802Y-96819596D01*
X155828477Y-96735465D01*
X155806062Y-96666481D01*
X155772444Y-96563017D01*
X155770450Y-96493177D01*
X155806530Y-96433344D01*
X155869231Y-96402516D01*
X155890376Y-96400700D01*
X161613131Y-96400700D01*
X161613147Y-96400701D01*
X161620743Y-96400701D01*
X161778854Y-96400701D01*
X161778857Y-96400701D01*
X161931585Y-96359777D01*
X161981704Y-96330839D01*
X162068516Y-96280720D01*
X162180320Y-96168916D01*
X162180320Y-96168914D01*
X162190528Y-96158707D01*
X162190529Y-96158704D01*
X173199606Y-85149628D01*
X173260927Y-85116145D01*
X173330619Y-85121129D01*
X173341068Y-85125583D01*
X173358677Y-85134063D01*
X173609385Y-85211396D01*
X173868818Y-85250500D01*
X174131182Y-85250500D01*
X174390615Y-85211396D01*
X174641323Y-85134063D01*
X174877704Y-85020228D01*
X175094479Y-84872433D01*
X175286805Y-84693981D01*
X175450386Y-84488857D01*
X175581568Y-84261643D01*
X175677420Y-84017416D01*
X175735802Y-83761630D01*
X175755408Y-83500000D01*
X175751476Y-83447535D01*
X175735803Y-83238379D01*
X175735802Y-83238374D01*
X175735802Y-83238370D01*
X175677420Y-82982584D01*
X175581568Y-82738357D01*
X175450386Y-82511143D01*
X175286805Y-82306019D01*
X175286804Y-82306018D01*
X175286801Y-82306014D01*
X175094479Y-82127567D01*
X174877704Y-81979772D01*
X174877700Y-81979770D01*
X174877697Y-81979768D01*
X174877696Y-81979767D01*
X174641325Y-81865938D01*
X174641327Y-81865938D01*
X174390623Y-81788606D01*
X174390619Y-81788605D01*
X174390615Y-81788604D01*
X174265823Y-81769794D01*
X174131187Y-81749500D01*
X174131182Y-81749500D01*
X173868818Y-81749500D01*
X173868812Y-81749500D01*
X173707247Y-81773853D01*
X173609385Y-81788604D01*
X173609382Y-81788605D01*
X173609376Y-81788606D01*
X173358673Y-81865938D01*
X173122303Y-81979767D01*
X173122302Y-81979768D01*
X172905520Y-82127567D01*
X172713198Y-82306014D01*
X172549614Y-82511143D01*
X172418432Y-82738356D01*
X172322582Y-82982578D01*
X172322576Y-82982597D01*
X172264197Y-83238374D01*
X172264196Y-83238379D01*
X172244592Y-83499995D01*
X172244592Y-83500004D01*
X172264196Y-83761620D01*
X172264197Y-83761625D01*
X172322576Y-84017402D01*
X172322582Y-84017421D01*
X172380509Y-84165017D01*
X172386678Y-84234614D01*
X172354240Y-84296497D01*
X172352762Y-84298000D01*
X161487384Y-95163381D01*
X161426061Y-95196866D01*
X161399703Y-95199700D01*
X155865420Y-95199700D01*
X155798381Y-95180015D01*
X155752626Y-95127211D01*
X155742682Y-95058053D01*
X155754935Y-95019406D01*
X155765217Y-94999226D01*
X155765217Y-94999222D01*
X155765220Y-94999219D01*
X155828477Y-94804534D01*
X155860500Y-94602352D01*
X155860500Y-94397648D01*
X155844717Y-94298002D01*
X155828477Y-94195465D01*
X155771712Y-94020761D01*
X155765220Y-94000781D01*
X155765218Y-94000778D01*
X155765218Y-94000776D01*
X155731503Y-93934607D01*
X155672287Y-93818390D01*
X155631049Y-93761630D01*
X155551971Y-93652786D01*
X155407213Y-93508028D01*
X155241613Y-93387715D01*
X155241612Y-93387714D01*
X155241610Y-93387713D01*
X155184653Y-93358691D01*
X155059223Y-93294781D01*
X154864534Y-93231522D01*
X154689995Y-93203878D01*
X154662352Y-93199500D01*
X154057648Y-93199500D01*
X154033329Y-93203351D01*
X153855465Y-93231522D01*
X153660776Y-93294781D01*
X153478386Y-93387715D01*
X153312786Y-93508028D01*
X153168028Y-93652786D01*
X153047715Y-93818386D01*
X152954781Y-94000776D01*
X152891522Y-94195465D01*
X152859500Y-94397648D01*
X152859500Y-94602351D01*
X152891522Y-94804534D01*
X152954782Y-94999226D01*
X152965065Y-95019406D01*
X152977961Y-95088075D01*
X152951684Y-95152815D01*
X152894578Y-95193072D01*
X152854580Y-95199700D01*
X149150542Y-95199700D01*
X148997815Y-95240623D01*
X148980708Y-95250500D01*
X148980707Y-95250500D01*
X148860890Y-95319675D01*
X148860882Y-95319681D01*
X148843883Y-95336681D01*
X148782560Y-95370166D01*
X148756202Y-95373000D01*
X133124500Y-95373000D01*
X133057461Y-95353315D01*
X133011706Y-95300511D01*
X133000500Y-95249001D01*
X133000499Y-95150213D01*
X133020183Y-95083174D01*
X133062497Y-95042826D01*
X133101639Y-95020228D01*
X133170416Y-94980520D01*
X133282220Y-94868716D01*
X133282220Y-94868714D01*
X133292424Y-94858511D01*
X133292427Y-94858506D01*
X144239735Y-83911199D01*
X159144341Y-83911199D01*
X159144341Y-83911200D01*
X159164936Y-84146603D01*
X159164938Y-84146613D01*
X159226094Y-84374855D01*
X159226096Y-84374859D01*
X159226097Y-84374863D01*
X159319523Y-84575215D01*
X159325965Y-84589030D01*
X159325967Y-84589034D01*
X159461501Y-84782595D01*
X159461506Y-84782602D01*
X159628597Y-84949693D01*
X159628603Y-84949698D01*
X159814158Y-85079625D01*
X159857783Y-85134202D01*
X159864977Y-85203700D01*
X159833454Y-85266055D01*
X159814158Y-85282775D01*
X159628597Y-85412705D01*
X159461505Y-85579797D01*
X159325965Y-85773369D01*
X159325964Y-85773371D01*
X159226098Y-85987535D01*
X159226094Y-85987544D01*
X159164938Y-86215786D01*
X159164936Y-86215796D01*
X159144341Y-86451199D01*
X159144341Y-86451200D01*
X159164936Y-86686603D01*
X159164938Y-86686613D01*
X159226094Y-86914855D01*
X159226096Y-86914859D01*
X159226097Y-86914863D01*
X159325283Y-87127567D01*
X159325965Y-87129030D01*
X159325967Y-87129034D01*
X159461501Y-87322595D01*
X159461506Y-87322602D01*
X159628597Y-87489693D01*
X159628603Y-87489698D01*
X159814158Y-87619625D01*
X159857783Y-87674202D01*
X159864977Y-87743700D01*
X159833454Y-87806055D01*
X159814158Y-87822775D01*
X159628597Y-87952705D01*
X159461505Y-88119797D01*
X159325965Y-88313369D01*
X159325964Y-88313371D01*
X159226098Y-88527535D01*
X159226094Y-88527544D01*
X159164938Y-88755786D01*
X159164936Y-88755796D01*
X159144341Y-88991199D01*
X159144341Y-88991200D01*
X159164936Y-89226603D01*
X159164938Y-89226613D01*
X159226094Y-89454855D01*
X159226096Y-89454859D01*
X159226097Y-89454863D01*
X159241949Y-89488857D01*
X159325965Y-89669030D01*
X159325967Y-89669034D01*
X159461501Y-89862595D01*
X159461506Y-89862602D01*
X159628597Y-90029693D01*
X159628603Y-90029698D01*
X159814158Y-90159625D01*
X159857783Y-90214202D01*
X159864977Y-90283700D01*
X159833454Y-90346055D01*
X159814158Y-90362775D01*
X159628597Y-90492705D01*
X159461505Y-90659797D01*
X159325965Y-90853369D01*
X159325964Y-90853371D01*
X159226098Y-91067535D01*
X159226094Y-91067544D01*
X159164938Y-91295786D01*
X159164936Y-91295796D01*
X159144341Y-91531199D01*
X159144341Y-91531200D01*
X159164936Y-91766603D01*
X159164938Y-91766613D01*
X159226094Y-91994855D01*
X159226096Y-91994859D01*
X159226097Y-91994863D01*
X159287978Y-92127567D01*
X159325965Y-92209030D01*
X159325967Y-92209034D01*
X159393874Y-92306014D01*
X159461505Y-92402601D01*
X159628599Y-92569695D01*
X159725384Y-92637465D01*
X159822165Y-92705232D01*
X159822167Y-92705233D01*
X159822170Y-92705235D01*
X160036337Y-92805103D01*
X160264592Y-92866263D01*
X160452918Y-92882739D01*
X160499999Y-92886859D01*
X160500000Y-92886859D01*
X160500001Y-92886859D01*
X160546622Y-92882780D01*
X160735408Y-92866263D01*
X160963663Y-92805103D01*
X161177830Y-92705235D01*
X161371401Y-92569695D01*
X161538495Y-92402601D01*
X161674035Y-92209030D01*
X161773903Y-91994863D01*
X161835063Y-91766608D01*
X161855659Y-91531200D01*
X161835063Y-91295792D01*
X161773903Y-91067537D01*
X161674035Y-90853371D01*
X161538495Y-90659799D01*
X161538494Y-90659797D01*
X161371402Y-90492706D01*
X161371396Y-90492701D01*
X161185842Y-90362775D01*
X161142217Y-90308198D01*
X161135023Y-90238700D01*
X161166546Y-90176345D01*
X161185842Y-90159625D01*
X161247938Y-90116145D01*
X161371401Y-90029695D01*
X161538495Y-89862601D01*
X161674035Y-89669030D01*
X161773903Y-89454863D01*
X161835063Y-89226608D01*
X161855659Y-88991200D01*
X161835063Y-88755792D01*
X161773903Y-88527537D01*
X161674035Y-88313371D01*
X161621526Y-88238379D01*
X161538494Y-88119797D01*
X161371402Y-87952706D01*
X161371396Y-87952701D01*
X161185842Y-87822775D01*
X161142217Y-87768198D01*
X161135023Y-87698700D01*
X161166546Y-87636345D01*
X161185842Y-87619625D01*
X161340770Y-87511143D01*
X161371401Y-87489695D01*
X161538495Y-87322601D01*
X161674035Y-87129030D01*
X161773903Y-86914863D01*
X161835063Y-86686608D01*
X161855659Y-86451200D01*
X161835063Y-86215792D01*
X161773903Y-85987537D01*
X161674035Y-85773371D01*
X161656139Y-85747812D01*
X161538494Y-85579797D01*
X161371402Y-85412706D01*
X161371396Y-85412701D01*
X161185842Y-85282775D01*
X161142217Y-85228198D01*
X161135023Y-85158700D01*
X161166546Y-85096345D01*
X161185842Y-85079625D01*
X161270665Y-85020231D01*
X161371401Y-84949695D01*
X161538495Y-84782601D01*
X161674035Y-84589030D01*
X161773903Y-84374863D01*
X161835063Y-84146608D01*
X161855659Y-83911200D01*
X161835063Y-83675792D01*
X161773903Y-83447537D01*
X161674035Y-83233371D01*
X161538495Y-83039799D01*
X161416567Y-82917871D01*
X161383084Y-82856551D01*
X161388068Y-82786859D01*
X161429939Y-82730925D01*
X161460915Y-82714010D01*
X161592331Y-82664996D01*
X161707546Y-82578746D01*
X161793796Y-82463531D01*
X161844091Y-82328683D01*
X161850500Y-82269073D01*
X161850499Y-80473328D01*
X161844091Y-80413717D01*
X161831078Y-80378828D01*
X161793797Y-80278871D01*
X161793793Y-80278864D01*
X161707547Y-80163655D01*
X161707544Y-80163652D01*
X161592335Y-80077406D01*
X161592328Y-80077402D01*
X161457482Y-80027108D01*
X161457483Y-80027108D01*
X161397883Y-80020701D01*
X161397881Y-80020700D01*
X161397873Y-80020700D01*
X161397864Y-80020700D01*
X159602129Y-80020700D01*
X159602123Y-80020701D01*
X159542516Y-80027108D01*
X159407671Y-80077402D01*
X159407664Y-80077406D01*
X159292455Y-80163652D01*
X159292452Y-80163655D01*
X159206206Y-80278864D01*
X159206202Y-80278871D01*
X159155908Y-80413717D01*
X159151031Y-80459083D01*
X159149501Y-80473323D01*
X159149500Y-80473335D01*
X159149500Y-82269070D01*
X159149501Y-82269076D01*
X159155908Y-82328683D01*
X159206202Y-82463528D01*
X159206206Y-82463535D01*
X159292452Y-82578744D01*
X159292455Y-82578747D01*
X159407664Y-82664993D01*
X159407671Y-82664997D01*
X159539081Y-82714010D01*
X159595015Y-82755881D01*
X159619432Y-82821345D01*
X159604580Y-82889618D01*
X159583430Y-82917873D01*
X159461503Y-83039800D01*
X159325965Y-83233369D01*
X159325964Y-83233371D01*
X159226098Y-83447535D01*
X159226094Y-83447544D01*
X159164938Y-83675786D01*
X159164936Y-83675796D01*
X159144341Y-83911199D01*
X144239735Y-83911199D01*
X149014116Y-79136819D01*
X149075439Y-79103334D01*
X149101797Y-79100500D01*
X172125501Y-79100500D01*
X172192540Y-79120185D01*
X172238295Y-79172989D01*
X172249501Y-79224500D01*
X172249501Y-79797876D01*
X172255908Y-79857483D01*
X172306202Y-79992328D01*
X172306206Y-79992335D01*
X172392452Y-80107544D01*
X172392455Y-80107547D01*
X172507664Y-80193793D01*
X172507671Y-80193797D01*
X172642517Y-80244091D01*
X172642516Y-80244091D01*
X172649444Y-80244835D01*
X172702127Y-80250500D01*
X175297872Y-80250499D01*
X175357483Y-80244091D01*
X175492331Y-80193796D01*
X175607546Y-80107546D01*
X175693796Y-79992331D01*
X175744091Y-79857483D01*
X175750500Y-79797873D01*
X175750499Y-77202128D01*
X175744091Y-77142517D01*
X175693796Y-77007669D01*
X175693795Y-77007668D01*
X175693793Y-77007664D01*
X175607547Y-76892455D01*
X175607544Y-76892452D01*
X175492335Y-76806206D01*
X175492328Y-76806202D01*
X175357482Y-76755908D01*
X175357483Y-76755908D01*
X175297883Y-76749501D01*
X175297881Y-76749500D01*
X175297873Y-76749500D01*
X175297864Y-76749500D01*
X172702129Y-76749500D01*
X172702123Y-76749501D01*
X172642516Y-76755908D01*
X172507671Y-76806202D01*
X172507664Y-76806206D01*
X172392455Y-76892452D01*
X172392452Y-76892455D01*
X172306206Y-77007664D01*
X172306202Y-77007671D01*
X172255908Y-77142517D01*
X172249501Y-77202116D01*
X172249501Y-77202123D01*
X172249500Y-77202135D01*
X172249500Y-77775500D01*
X172229815Y-77842539D01*
X172177011Y-77888294D01*
X172125500Y-77899500D01*
X148888369Y-77899500D01*
X148888353Y-77899499D01*
X148880757Y-77899499D01*
X148722643Y-77899499D01*
X148615287Y-77928265D01*
X148569910Y-77940424D01*
X148569909Y-77940425D01*
X148519796Y-77969359D01*
X148519795Y-77969360D01*
X148476389Y-77994420D01*
X148432985Y-78019479D01*
X148432982Y-78019481D01*
X148321178Y-78131286D01*
X133148416Y-93304047D01*
X133087093Y-93337532D01*
X133017401Y-93332548D01*
X132961468Y-93290676D01*
X132944551Y-93259693D01*
X132944394Y-93259273D01*
X132943796Y-93257669D01*
X132943794Y-93257666D01*
X132943793Y-93257664D01*
X132857547Y-93142455D01*
X132857544Y-93142452D01*
X132742335Y-93056206D01*
X132742328Y-93056202D01*
X132607482Y-93005908D01*
X132607483Y-93005908D01*
X132547883Y-92999501D01*
X132547881Y-92999500D01*
X132547873Y-92999500D01*
X132547864Y-92999500D01*
X130452129Y-92999500D01*
X130452123Y-92999501D01*
X130392516Y-93005908D01*
X130257671Y-93056202D01*
X130257664Y-93056206D01*
X130142455Y-93142452D01*
X130142452Y-93142455D01*
X130056206Y-93257664D01*
X130056203Y-93257669D01*
X130055446Y-93259701D01*
X130054146Y-93261436D01*
X130051953Y-93265454D01*
X130051375Y-93265138D01*
X130013574Y-93315634D01*
X129948110Y-93340051D01*
X129879837Y-93325199D01*
X129851583Y-93304048D01*
X129549190Y-93001655D01*
X129549188Y-93001652D01*
X129430317Y-92882781D01*
X129430316Y-92882780D01*
X129343504Y-92832660D01*
X129343504Y-92832659D01*
X129343500Y-92832658D01*
X129293385Y-92803723D01*
X129140657Y-92762799D01*
X128982543Y-92762799D01*
X128974947Y-92762799D01*
X128974931Y-92762800D01*
X96025070Y-92762800D01*
X96025054Y-92762799D01*
X96017458Y-92762799D01*
X95859343Y-92762799D01*
X95782979Y-92783261D01*
X95706614Y-92803723D01*
X95706609Y-92803726D01*
X95569690Y-92882775D01*
X95569682Y-92882781D01*
X95148416Y-93304047D01*
X95087093Y-93337532D01*
X95017401Y-93332548D01*
X94961468Y-93290676D01*
X94944551Y-93259693D01*
X94944394Y-93259273D01*
X94943796Y-93257669D01*
X94943794Y-93257666D01*
X94943793Y-93257664D01*
X94857547Y-93142455D01*
X94857544Y-93142452D01*
X94742335Y-93056206D01*
X94742328Y-93056202D01*
X94607482Y-93005908D01*
X94607483Y-93005908D01*
X94547883Y-92999501D01*
X94547881Y-92999500D01*
X94547873Y-92999500D01*
X94547864Y-92999500D01*
X92452129Y-92999500D01*
X92452123Y-92999501D01*
X92392516Y-93005908D01*
X92257671Y-93056202D01*
X92257664Y-93056206D01*
X92142455Y-93142452D01*
X92142452Y-93142455D01*
X92056206Y-93257664D01*
X92056202Y-93257671D01*
X92005908Y-93392517D01*
X91999501Y-93452116D01*
X91999500Y-93452135D01*
X91999500Y-93790500D01*
X91979815Y-93857539D01*
X91927011Y-93903294D01*
X91875500Y-93914500D01*
X89474499Y-93914500D01*
X89407460Y-93894815D01*
X89361705Y-93842011D01*
X89350499Y-93790500D01*
X89350499Y-93617129D01*
X89350498Y-93617123D01*
X89350497Y-93617116D01*
X89344091Y-93557517D01*
X89304728Y-93451980D01*
X89293797Y-93422671D01*
X89293793Y-93422664D01*
X89207547Y-93307455D01*
X89207544Y-93307452D01*
X89092335Y-93221206D01*
X89092328Y-93221202D01*
X88957482Y-93170908D01*
X88957483Y-93170908D01*
X88897883Y-93164501D01*
X88897881Y-93164500D01*
X88897873Y-93164500D01*
X88897864Y-93164500D01*
X87102129Y-93164500D01*
X87102123Y-93164501D01*
X87042516Y-93170908D01*
X86907671Y-93221202D01*
X86907664Y-93221206D01*
X86792455Y-93307452D01*
X86792452Y-93307455D01*
X86706206Y-93422664D01*
X86706202Y-93422671D01*
X86655908Y-93557517D01*
X86649501Y-93617116D01*
X86649501Y-93617123D01*
X86649500Y-93617135D01*
X86649500Y-95412870D01*
X86649501Y-95412876D01*
X86655908Y-95472483D01*
X86706202Y-95607328D01*
X86706206Y-95607335D01*
X86792452Y-95722544D01*
X86792455Y-95722547D01*
X86907664Y-95808793D01*
X86907671Y-95808797D01*
X87039081Y-95857810D01*
X87095015Y-95899681D01*
X87119432Y-95965145D01*
X87104580Y-96033418D01*
X87083430Y-96061673D01*
X86961503Y-96183600D01*
X86825965Y-96377169D01*
X86825964Y-96377171D01*
X86726098Y-96591335D01*
X86726094Y-96591344D01*
X86664938Y-96819586D01*
X86664936Y-96819596D01*
X86644341Y-97054999D01*
X80500500Y-97054999D01*
X80500500Y-85499994D01*
X81494859Y-85499994D01*
X81494859Y-85500005D01*
X81515385Y-85747729D01*
X81515387Y-85747738D01*
X81576412Y-85988717D01*
X81676266Y-86216364D01*
X81776564Y-86369882D01*
X82476212Y-85670234D01*
X82487482Y-85712292D01*
X82559890Y-85837708D01*
X82662292Y-85940110D01*
X82787708Y-86012518D01*
X82829765Y-86023787D01*
X82129942Y-86723609D01*
X82176768Y-86760055D01*
X82176770Y-86760056D01*
X82395385Y-86878364D01*
X82395396Y-86878369D01*
X82630506Y-86959083D01*
X82875707Y-87000000D01*
X83124293Y-87000000D01*
X83369493Y-86959083D01*
X83604603Y-86878369D01*
X83604614Y-86878364D01*
X83823228Y-86760057D01*
X83823231Y-86760055D01*
X83870056Y-86723609D01*
X83170234Y-86023787D01*
X83212292Y-86012518D01*
X83337708Y-85940110D01*
X83440110Y-85837708D01*
X83512518Y-85712292D01*
X83523787Y-85670235D01*
X84223434Y-86369882D01*
X84323731Y-86216369D01*
X84423587Y-85988717D01*
X84484612Y-85747738D01*
X84484614Y-85747729D01*
X84505141Y-85500005D01*
X84505141Y-85499994D01*
X85994357Y-85499994D01*
X85994357Y-85500005D01*
X86014890Y-85747812D01*
X86014892Y-85747824D01*
X86075936Y-85988881D01*
X86175826Y-86216606D01*
X86311833Y-86424782D01*
X86311836Y-86424785D01*
X86480256Y-86607738D01*
X86676491Y-86760474D01*
X86676493Y-86760475D01*
X86894332Y-86878364D01*
X86895190Y-86878828D01*
X87114141Y-86953994D01*
X87128964Y-86959083D01*
X87130386Y-86959571D01*
X87375665Y-87000500D01*
X87624335Y-87000500D01*
X87869614Y-86959571D01*
X88104810Y-86878828D01*
X88323509Y-86760474D01*
X88519744Y-86607738D01*
X88688164Y-86424785D01*
X88824173Y-86216607D01*
X88924063Y-85988881D01*
X88985108Y-85747821D01*
X89005643Y-85500000D01*
X88998409Y-85412701D01*
X88985109Y-85252187D01*
X88985107Y-85252175D01*
X88924063Y-85011118D01*
X88824173Y-84783393D01*
X88688166Y-84575217D01*
X88666557Y-84551744D01*
X88519744Y-84392262D01*
X88323509Y-84239526D01*
X88323507Y-84239525D01*
X88323506Y-84239524D01*
X88104811Y-84121172D01*
X88104802Y-84121169D01*
X87869616Y-84040429D01*
X87624335Y-83999500D01*
X87375665Y-83999500D01*
X87130383Y-84040429D01*
X86895197Y-84121169D01*
X86895188Y-84121172D01*
X86676493Y-84239524D01*
X86480257Y-84392261D01*
X86311833Y-84575217D01*
X86175826Y-84783393D01*
X86075936Y-85011118D01*
X86014892Y-85252175D01*
X86014890Y-85252187D01*
X85994357Y-85499994D01*
X84505141Y-85499994D01*
X84484614Y-85252270D01*
X84484612Y-85252261D01*
X84423587Y-85011282D01*
X84323731Y-84783630D01*
X84223434Y-84630116D01*
X83523787Y-85329764D01*
X83512518Y-85287708D01*
X83440110Y-85162292D01*
X83337708Y-85059890D01*
X83212292Y-84987482D01*
X83170235Y-84976212D01*
X83870057Y-84276390D01*
X83870056Y-84276389D01*
X83823229Y-84239943D01*
X83604614Y-84121635D01*
X83604603Y-84121630D01*
X83369493Y-84040916D01*
X83124293Y-84000000D01*
X82875707Y-84000000D01*
X82630506Y-84040916D01*
X82395396Y-84121630D01*
X82395390Y-84121632D01*
X82176761Y-84239949D01*
X82129942Y-84276388D01*
X82129942Y-84276390D01*
X82829765Y-84976212D01*
X82787708Y-84987482D01*
X82662292Y-85059890D01*
X82559890Y-85162292D01*
X82487482Y-85287708D01*
X82476212Y-85329764D01*
X81776564Y-84630116D01*
X81676267Y-84783632D01*
X81576412Y-85011282D01*
X81515387Y-85252261D01*
X81515385Y-85252270D01*
X81494859Y-85499994D01*
X80500500Y-85499994D01*
X80500500Y-78999994D01*
X81494859Y-78999994D01*
X81494859Y-79000005D01*
X81515385Y-79247729D01*
X81515387Y-79247738D01*
X81576412Y-79488717D01*
X81676266Y-79716364D01*
X81776564Y-79869882D01*
X82476212Y-79170234D01*
X82487482Y-79212292D01*
X82559890Y-79337708D01*
X82662292Y-79440110D01*
X82787708Y-79512518D01*
X82829765Y-79523787D01*
X82129942Y-80223609D01*
X82176768Y-80260055D01*
X82176770Y-80260056D01*
X82395385Y-80378364D01*
X82395396Y-80378369D01*
X82630506Y-80459083D01*
X82875707Y-80500000D01*
X83124293Y-80500000D01*
X83369493Y-80459083D01*
X83604603Y-80378369D01*
X83604614Y-80378364D01*
X83823228Y-80260057D01*
X83823231Y-80260055D01*
X83870056Y-80223609D01*
X83170234Y-79523787D01*
X83212292Y-79512518D01*
X83337708Y-79440110D01*
X83440110Y-79337708D01*
X83512518Y-79212292D01*
X83523787Y-79170235D01*
X84223434Y-79869882D01*
X84323731Y-79716369D01*
X84423587Y-79488717D01*
X84484612Y-79247738D01*
X84484614Y-79247729D01*
X84505141Y-79000005D01*
X84505141Y-78999994D01*
X85994357Y-78999994D01*
X85994357Y-79000005D01*
X86014890Y-79247812D01*
X86014892Y-79247824D01*
X86075936Y-79488881D01*
X86175826Y-79716606D01*
X86311833Y-79924782D01*
X86311836Y-79924785D01*
X86480256Y-80107738D01*
X86676491Y-80260474D01*
X86676493Y-80260475D01*
X86894332Y-80378364D01*
X86895190Y-80378828D01*
X87114141Y-80453994D01*
X87128964Y-80459083D01*
X87130386Y-80459571D01*
X87375665Y-80500500D01*
X87624335Y-80500500D01*
X87869614Y-80459571D01*
X88104810Y-80378828D01*
X88323509Y-80260474D01*
X88519744Y-80107738D01*
X88688164Y-79924785D01*
X88824173Y-79716607D01*
X88924063Y-79488881D01*
X88985108Y-79247821D01*
X88985116Y-79247729D01*
X89005643Y-79000005D01*
X89005643Y-78999994D01*
X88985109Y-78752187D01*
X88985107Y-78752175D01*
X88924063Y-78511118D01*
X88824173Y-78283393D01*
X88688166Y-78075217D01*
X88636855Y-78019479D01*
X88519744Y-77892262D01*
X88323509Y-77739526D01*
X88323507Y-77739525D01*
X88323506Y-77739524D01*
X88104811Y-77621172D01*
X88104802Y-77621169D01*
X87869616Y-77540429D01*
X87624335Y-77499500D01*
X87375665Y-77499500D01*
X87130383Y-77540429D01*
X86895197Y-77621169D01*
X86895188Y-77621172D01*
X86676493Y-77739524D01*
X86480257Y-77892261D01*
X86311833Y-78075217D01*
X86175826Y-78283393D01*
X86075936Y-78511118D01*
X86014892Y-78752175D01*
X86014890Y-78752187D01*
X85994357Y-78999994D01*
X84505141Y-78999994D01*
X84484614Y-78752270D01*
X84484612Y-78752261D01*
X84423587Y-78511282D01*
X84323731Y-78283630D01*
X84223434Y-78130116D01*
X83523787Y-78829764D01*
X83512518Y-78787708D01*
X83440110Y-78662292D01*
X83337708Y-78559890D01*
X83212292Y-78487482D01*
X83170235Y-78476212D01*
X83870057Y-77776390D01*
X83870056Y-77776389D01*
X83823229Y-77739943D01*
X83604614Y-77621635D01*
X83604603Y-77621630D01*
X83369493Y-77540916D01*
X83124293Y-77500000D01*
X82875707Y-77500000D01*
X82630506Y-77540916D01*
X82395396Y-77621630D01*
X82395390Y-77621632D01*
X82176761Y-77739949D01*
X82129942Y-77776388D01*
X82129942Y-77776390D01*
X82829765Y-78476212D01*
X82787708Y-78487482D01*
X82662292Y-78559890D01*
X82559890Y-78662292D01*
X82487482Y-78787708D01*
X82476212Y-78829764D01*
X81776564Y-78130116D01*
X81676267Y-78283632D01*
X81576412Y-78511282D01*
X81515387Y-78752261D01*
X81515385Y-78752270D01*
X81494859Y-78999994D01*
X80500500Y-78999994D01*
X80500500Y-52952135D01*
X91999500Y-52952135D01*
X91999500Y-55047870D01*
X91999501Y-55047876D01*
X92005908Y-55107483D01*
X92056202Y-55242328D01*
X92056206Y-55242335D01*
X92142452Y-55357544D01*
X92142455Y-55357547D01*
X92257664Y-55443793D01*
X92257673Y-55443798D01*
X92294914Y-55457688D01*
X92350848Y-55499559D01*
X92375266Y-55565023D01*
X92360415Y-55633296D01*
X92339265Y-55661550D01*
X92308027Y-55692787D01*
X92187715Y-55858386D01*
X92094781Y-56040776D01*
X92031522Y-56235465D01*
X91999500Y-56437648D01*
X91999500Y-56642351D01*
X92031522Y-56844534D01*
X92094781Y-57039223D01*
X92187715Y-57221613D01*
X92308028Y-57387213D01*
X92452786Y-57531971D01*
X92607749Y-57644556D01*
X92618390Y-57652287D01*
X92705177Y-57696507D01*
X92711080Y-57699515D01*
X92761876Y-57747490D01*
X92778671Y-57815311D01*
X92756134Y-57881446D01*
X92711080Y-57920485D01*
X92618386Y-57967715D01*
X92452786Y-58088028D01*
X92308028Y-58232786D01*
X92187715Y-58398386D01*
X92094781Y-58580776D01*
X92031522Y-58775465D01*
X91999500Y-58977648D01*
X91999500Y-59182351D01*
X92031522Y-59384534D01*
X92094781Y-59579223D01*
X92187715Y-59761613D01*
X92308028Y-59927213D01*
X92452786Y-60071971D01*
X92607749Y-60184556D01*
X92618390Y-60192287D01*
X92709840Y-60238883D01*
X92711080Y-60239515D01*
X92761876Y-60287490D01*
X92778671Y-60355311D01*
X92756134Y-60421446D01*
X92711080Y-60460485D01*
X92618386Y-60507715D01*
X92452786Y-60628028D01*
X92308028Y-60772786D01*
X92187715Y-60938386D01*
X92094781Y-61120776D01*
X92031522Y-61315465D01*
X91999500Y-61517648D01*
X91999500Y-61722351D01*
X92031522Y-61924534D01*
X92094781Y-62119223D01*
X92118116Y-62165019D01*
X92185109Y-62296500D01*
X92187715Y-62301613D01*
X92308028Y-62467213D01*
X92452786Y-62611971D01*
X92565671Y-62693985D01*
X92618390Y-62732287D01*
X92709840Y-62778883D01*
X92711080Y-62779515D01*
X92761876Y-62827490D01*
X92778671Y-62895311D01*
X92756134Y-62961446D01*
X92711080Y-63000485D01*
X92618386Y-63047715D01*
X92452786Y-63168028D01*
X92308028Y-63312786D01*
X92187715Y-63478386D01*
X92094781Y-63660776D01*
X92031522Y-63855465D01*
X91999500Y-64057648D01*
X91999500Y-64262351D01*
X92031522Y-64464534D01*
X92094781Y-64659223D01*
X92187715Y-64841613D01*
X92308028Y-65007213D01*
X92452786Y-65151971D01*
X92607749Y-65264556D01*
X92618390Y-65272287D01*
X92709840Y-65318883D01*
X92711080Y-65319515D01*
X92761876Y-65367490D01*
X92778671Y-65435311D01*
X92756134Y-65501446D01*
X92711080Y-65540485D01*
X92618386Y-65587715D01*
X92452786Y-65708028D01*
X92308028Y-65852786D01*
X92187715Y-66018386D01*
X92094781Y-66200776D01*
X92031522Y-66395465D01*
X91999500Y-66597648D01*
X91999500Y-66802351D01*
X92031522Y-67004534D01*
X92094781Y-67199223D01*
X92187715Y-67381613D01*
X92308028Y-67547213D01*
X92452786Y-67691971D01*
X92607749Y-67804556D01*
X92618390Y-67812287D01*
X92709840Y-67858883D01*
X92711080Y-67859515D01*
X92761876Y-67907490D01*
X92778671Y-67975311D01*
X92756134Y-68041446D01*
X92711080Y-68080485D01*
X92618386Y-68127715D01*
X92452786Y-68248028D01*
X92308028Y-68392786D01*
X92187715Y-68558386D01*
X92094781Y-68740776D01*
X92031522Y-68935465D01*
X91999500Y-69137648D01*
X91999500Y-69342351D01*
X92031522Y-69544534D01*
X92094781Y-69739223D01*
X92187715Y-69921613D01*
X92308028Y-70087213D01*
X92452786Y-70231971D01*
X92607749Y-70344556D01*
X92618390Y-70352287D01*
X92709840Y-70398883D01*
X92711080Y-70399515D01*
X92761876Y-70447490D01*
X92778671Y-70515311D01*
X92756134Y-70581446D01*
X92711080Y-70620485D01*
X92618386Y-70667715D01*
X92452786Y-70788028D01*
X92308028Y-70932786D01*
X92187715Y-71098386D01*
X92094781Y-71280776D01*
X92031522Y-71475465D01*
X91999500Y-71677648D01*
X91999500Y-71882351D01*
X92031522Y-72084534D01*
X92094781Y-72279223D01*
X92187715Y-72461613D01*
X92308028Y-72627213D01*
X92452786Y-72771971D01*
X92591062Y-72872432D01*
X92618390Y-72892287D01*
X92734607Y-72951503D01*
X92800776Y-72985218D01*
X92800778Y-72985218D01*
X92800781Y-72985220D01*
X92905137Y-73019127D01*
X92995465Y-73048477D01*
X93096557Y-73064488D01*
X93197648Y-73080500D01*
X93197649Y-73080500D01*
X93802351Y-73080500D01*
X93802352Y-73080500D01*
X94004534Y-73048477D01*
X94199219Y-72985220D01*
X94381610Y-72892287D01*
X94474590Y-72824732D01*
X94547213Y-72771971D01*
X94547215Y-72771968D01*
X94547219Y-72771966D01*
X94691966Y-72627219D01*
X94691968Y-72627215D01*
X94691971Y-72627213D01*
X94812284Y-72461614D01*
X94812285Y-72461613D01*
X94812287Y-72461610D01*
X94819117Y-72448204D01*
X94867091Y-72397409D01*
X94929602Y-72380500D01*
X114103331Y-72380500D01*
X114103347Y-72380501D01*
X114110943Y-72380501D01*
X114269054Y-72380501D01*
X114269057Y-72380501D01*
X114421785Y-72339577D01*
X114480634Y-72305600D01*
X114558716Y-72260520D01*
X114670520Y-72148716D01*
X114670520Y-72148714D01*
X114680724Y-72138511D01*
X114680728Y-72138506D01*
X114709983Y-72109250D01*
X114771304Y-72075767D01*
X114840996Y-72080751D01*
X114896929Y-72122623D01*
X114915593Y-72158614D01*
X114954781Y-72279223D01*
X115047715Y-72461613D01*
X115168028Y-72627213D01*
X115312786Y-72771971D01*
X115451062Y-72872432D01*
X115478390Y-72892287D01*
X115597620Y-72953037D01*
X115660780Y-72985220D01*
X115660786Y-72985222D01*
X115712061Y-73001882D01*
X115769737Y-73041319D01*
X115793518Y-73087716D01*
X115800422Y-73113482D01*
X115800426Y-73113490D01*
X115879475Y-73250409D01*
X115879479Y-73250414D01*
X115879480Y-73250416D01*
X115991284Y-73362220D01*
X115991286Y-73362221D01*
X115991290Y-73362224D01*
X116128209Y-73441273D01*
X116128216Y-73441277D01*
X116280943Y-73482200D01*
X116280945Y-73482200D01*
X154439055Y-73482200D01*
X154439057Y-73482200D01*
X154591784Y-73441277D01*
X154728716Y-73362220D01*
X154840520Y-73250416D01*
X154919577Y-73113484D01*
X154926480Y-73087720D01*
X154962843Y-73028061D01*
X155007936Y-73001882D01*
X155059219Y-72985220D01*
X155241610Y-72892287D01*
X155334590Y-72824732D01*
X155407213Y-72771971D01*
X155407215Y-72771968D01*
X155407219Y-72771966D01*
X155551966Y-72627219D01*
X155551968Y-72627215D01*
X155551971Y-72627213D01*
X155614605Y-72541003D01*
X155672287Y-72461610D01*
X155765220Y-72279219D01*
X155828477Y-72084534D01*
X155860500Y-71882352D01*
X155860500Y-71677648D01*
X155828477Y-71475466D01*
X155817317Y-71441119D01*
X155815322Y-71371278D01*
X155851402Y-71311445D01*
X155914102Y-71280616D01*
X155935248Y-71278800D01*
X158348931Y-71278800D01*
X158348947Y-71278801D01*
X158356543Y-71278801D01*
X158514654Y-71278801D01*
X158514657Y-71278801D01*
X158667385Y-71237877D01*
X158717504Y-71208939D01*
X158804316Y-71158820D01*
X158916120Y-71047016D01*
X158916120Y-71047014D01*
X158926328Y-71036807D01*
X158926329Y-71036804D01*
X159306139Y-70656995D01*
X159367461Y-70623511D01*
X159437153Y-70628495D01*
X159481500Y-70656996D01*
X159628597Y-70804093D01*
X159628603Y-70804098D01*
X159814158Y-70934025D01*
X159857783Y-70988602D01*
X159864977Y-71058100D01*
X159833454Y-71120455D01*
X159814158Y-71137175D01*
X159628597Y-71267105D01*
X159461505Y-71434197D01*
X159325965Y-71627769D01*
X159325964Y-71627771D01*
X159226098Y-71841935D01*
X159226094Y-71841944D01*
X159164938Y-72070186D01*
X159164936Y-72070196D01*
X159146476Y-72281200D01*
X159144341Y-72305600D01*
X159147314Y-72339576D01*
X159164936Y-72541003D01*
X159164938Y-72541013D01*
X159226094Y-72769255D01*
X159226096Y-72769259D01*
X159226097Y-72769263D01*
X159227360Y-72771971D01*
X159325965Y-72983430D01*
X159325967Y-72983434D01*
X159461501Y-73176995D01*
X159461506Y-73177002D01*
X159628597Y-73344093D01*
X159628603Y-73344098D01*
X159814158Y-73474025D01*
X159857783Y-73528602D01*
X159864977Y-73598100D01*
X159833454Y-73660455D01*
X159814158Y-73677175D01*
X159628597Y-73807105D01*
X159461505Y-73974197D01*
X159325965Y-74167769D01*
X159325964Y-74167771D01*
X159226098Y-74381935D01*
X159226094Y-74381944D01*
X159164938Y-74610186D01*
X159164936Y-74610196D01*
X159144341Y-74845599D01*
X159144341Y-74845600D01*
X159164936Y-75081003D01*
X159164938Y-75081013D01*
X159226094Y-75309255D01*
X159226096Y-75309259D01*
X159226097Y-75309263D01*
X159325965Y-75523430D01*
X159325967Y-75523434D01*
X159434281Y-75678121D01*
X159461505Y-75717001D01*
X159628599Y-75884095D01*
X159725384Y-75951865D01*
X159822165Y-76019632D01*
X159822167Y-76019633D01*
X159822170Y-76019635D01*
X160036337Y-76119503D01*
X160264592Y-76180663D01*
X160452918Y-76197139D01*
X160499999Y-76201259D01*
X160500000Y-76201259D01*
X160500001Y-76201259D01*
X160539234Y-76197826D01*
X160735408Y-76180663D01*
X160963663Y-76119503D01*
X161177830Y-76019635D01*
X161371401Y-75884095D01*
X161538495Y-75717001D01*
X161674035Y-75523430D01*
X161773903Y-75309263D01*
X161835063Y-75081008D01*
X161855659Y-74845600D01*
X161835063Y-74610192D01*
X161773903Y-74381937D01*
X161674035Y-74167771D01*
X161538495Y-73974199D01*
X161538494Y-73974197D01*
X161371402Y-73807106D01*
X161371396Y-73807101D01*
X161185842Y-73677175D01*
X161142217Y-73622598D01*
X161135023Y-73553100D01*
X161166546Y-73490745D01*
X161185842Y-73474025D01*
X161232612Y-73441276D01*
X161371401Y-73344095D01*
X161538495Y-73177001D01*
X161674035Y-72983430D01*
X161773903Y-72769263D01*
X161835063Y-72541008D01*
X161855659Y-72305600D01*
X161835063Y-72070192D01*
X161773903Y-71841937D01*
X161674035Y-71627771D01*
X161584570Y-71500000D01*
X161584566Y-71499995D01*
X172244592Y-71499995D01*
X172244592Y-71500004D01*
X172264196Y-71761620D01*
X172264197Y-71761625D01*
X172322576Y-72017402D01*
X172322578Y-72017411D01*
X172322580Y-72017416D01*
X172418432Y-72261643D01*
X172549614Y-72488857D01*
X172659949Y-72627213D01*
X172713198Y-72693985D01*
X172797248Y-72771971D01*
X172905521Y-72872433D01*
X173122296Y-73020228D01*
X173122301Y-73020230D01*
X173122302Y-73020231D01*
X173122303Y-73020232D01*
X173247452Y-73080500D01*
X173358673Y-73134061D01*
X173358674Y-73134061D01*
X173358677Y-73134063D01*
X173609385Y-73211396D01*
X173868818Y-73250500D01*
X174131182Y-73250500D01*
X174390615Y-73211396D01*
X174641323Y-73134063D01*
X174877704Y-73020228D01*
X175094479Y-72872433D01*
X175286805Y-72693981D01*
X175450386Y-72488857D01*
X175581568Y-72261643D01*
X175677420Y-72017416D01*
X175735802Y-71761630D01*
X175735803Y-71761620D01*
X175755408Y-71500004D01*
X175755408Y-71499995D01*
X175735803Y-71238379D01*
X175735802Y-71238374D01*
X175735802Y-71238370D01*
X175677420Y-70982584D01*
X175581568Y-70738357D01*
X175450386Y-70511143D01*
X175286805Y-70306019D01*
X175286804Y-70306018D01*
X175286801Y-70306014D01*
X175094479Y-70127567D01*
X175035299Y-70087219D01*
X174877704Y-69979772D01*
X174877700Y-69979770D01*
X174877697Y-69979768D01*
X174877696Y-69979767D01*
X174641325Y-69865938D01*
X174641327Y-69865938D01*
X174390623Y-69788606D01*
X174390619Y-69788605D01*
X174390615Y-69788604D01*
X174265823Y-69769794D01*
X174131187Y-69749500D01*
X174131182Y-69749500D01*
X173868818Y-69749500D01*
X173868812Y-69749500D01*
X173707247Y-69773853D01*
X173609385Y-69788604D01*
X173609382Y-69788605D01*
X173609376Y-69788606D01*
X173358673Y-69865938D01*
X173122303Y-69979767D01*
X173122302Y-69979768D01*
X172905520Y-70127567D01*
X172713198Y-70306014D01*
X172549614Y-70511143D01*
X172418432Y-70738356D01*
X172322582Y-70982578D01*
X172322576Y-70982597D01*
X172264197Y-71238374D01*
X172264196Y-71238379D01*
X172244592Y-71499995D01*
X161584566Y-71499995D01*
X161538494Y-71434197D01*
X161371402Y-71267106D01*
X161371396Y-71267101D01*
X161185842Y-71137175D01*
X161142217Y-71082598D01*
X161135023Y-71013100D01*
X161166546Y-70950745D01*
X161185842Y-70934025D01*
X161208026Y-70918491D01*
X161371401Y-70804095D01*
X161538495Y-70637001D01*
X161674035Y-70443430D01*
X161773903Y-70229263D01*
X161835063Y-70001008D01*
X161855659Y-69765600D01*
X161835063Y-69530192D01*
X161773903Y-69301937D01*
X161674035Y-69087771D01*
X161674034Y-69087769D01*
X161538494Y-68894197D01*
X161371402Y-68727106D01*
X161371396Y-68727101D01*
X161185842Y-68597175D01*
X161142217Y-68542598D01*
X161135023Y-68473100D01*
X161166546Y-68410745D01*
X161185842Y-68394025D01*
X161232611Y-68361277D01*
X161371401Y-68264095D01*
X161538495Y-68097001D01*
X161674035Y-67903430D01*
X161773903Y-67689263D01*
X161835063Y-67461008D01*
X161855659Y-67225600D01*
X161835063Y-66990192D01*
X161785895Y-66806692D01*
X161787558Y-66736843D01*
X161826721Y-66678981D01*
X161890949Y-66651477D01*
X161905670Y-66650600D01*
X169363231Y-66650600D01*
X169363247Y-66650601D01*
X169370843Y-66650601D01*
X169528954Y-66650601D01*
X169528957Y-66650601D01*
X169681685Y-66609677D01*
X169731804Y-66580739D01*
X169818616Y-66530620D01*
X169849241Y-66499995D01*
X172245093Y-66499995D01*
X172245093Y-66500004D01*
X172264692Y-66761545D01*
X172264693Y-66761550D01*
X172323058Y-67017270D01*
X172418883Y-67261426D01*
X172418882Y-67261426D01*
X172550027Y-67488573D01*
X172597874Y-67548571D01*
X173398958Y-66747488D01*
X173423978Y-66807890D01*
X173495112Y-66914351D01*
X173585649Y-67004888D01*
X173692110Y-67076022D01*
X173752510Y-67101041D01*
X172950830Y-67902720D01*
X173122546Y-68019793D01*
X173122550Y-68019795D01*
X173358854Y-68133594D01*
X173358858Y-68133595D01*
X173609494Y-68210907D01*
X173609500Y-68210909D01*
X173868848Y-68249999D01*
X173868857Y-68250000D01*
X174131143Y-68250000D01*
X174131151Y-68249999D01*
X174390499Y-68210909D01*
X174390505Y-68210907D01*
X174641143Y-68133595D01*
X174877445Y-68019798D01*
X174877447Y-68019797D01*
X175049168Y-67902720D01*
X174247488Y-67101041D01*
X174307890Y-67076022D01*
X174414351Y-67004888D01*
X174504888Y-66914351D01*
X174576022Y-66807890D01*
X174601041Y-66747488D01*
X175402125Y-67548572D01*
X175449971Y-67488573D01*
X175581116Y-67261426D01*
X175676941Y-67017270D01*
X175735306Y-66761550D01*
X175735307Y-66761545D01*
X175754907Y-66500004D01*
X175754907Y-66499995D01*
X175735307Y-66238454D01*
X175735306Y-66238449D01*
X175676941Y-65982729D01*
X175581116Y-65738573D01*
X175581117Y-65738573D01*
X175449972Y-65511426D01*
X175402124Y-65451427D01*
X174601041Y-66252510D01*
X174576022Y-66192110D01*
X174504888Y-66085649D01*
X174414351Y-65995112D01*
X174307890Y-65923978D01*
X174247488Y-65898958D01*
X175049168Y-65097278D01*
X174877454Y-64980206D01*
X174877445Y-64980201D01*
X174641142Y-64866404D01*
X174641144Y-64866404D01*
X174390505Y-64789092D01*
X174390499Y-64789090D01*
X174131151Y-64750000D01*
X173868848Y-64750000D01*
X173609500Y-64789090D01*
X173609494Y-64789092D01*
X173358858Y-64866404D01*
X173358854Y-64866405D01*
X173122547Y-64980205D01*
X173122539Y-64980210D01*
X172950830Y-65097277D01*
X173752511Y-65898958D01*
X173692110Y-65923978D01*
X173585649Y-65995112D01*
X173495112Y-66085649D01*
X173423978Y-66192110D01*
X173398958Y-66252510D01*
X172597874Y-65451427D01*
X172550028Y-65511425D01*
X172418883Y-65738573D01*
X172323058Y-65982729D01*
X172264693Y-66238449D01*
X172264692Y-66238454D01*
X172245093Y-66499995D01*
X169849241Y-66499995D01*
X169930420Y-66418816D01*
X169930420Y-66418814D01*
X169940628Y-66408607D01*
X169940630Y-66408604D01*
X173199605Y-63149628D01*
X173260926Y-63116145D01*
X173330618Y-63121129D01*
X173341079Y-63125588D01*
X173358677Y-63134063D01*
X173609385Y-63211396D01*
X173868818Y-63250500D01*
X174131182Y-63250500D01*
X174390615Y-63211396D01*
X174641323Y-63134063D01*
X174877704Y-63020228D01*
X175094479Y-62872433D01*
X175286805Y-62693981D01*
X175450386Y-62488857D01*
X175581568Y-62261643D01*
X175677420Y-62017416D01*
X175735802Y-61761630D01*
X175735803Y-61761620D01*
X175755408Y-61500004D01*
X175755408Y-61499995D01*
X175735803Y-61238379D01*
X175735802Y-61238374D01*
X175735802Y-61238370D01*
X175677420Y-60982584D01*
X175581568Y-60738357D01*
X175450386Y-60511143D01*
X175286805Y-60306019D01*
X175286804Y-60306018D01*
X175286801Y-60306014D01*
X175094479Y-60127567D01*
X174877704Y-59979772D01*
X174877700Y-59979770D01*
X174877697Y-59979768D01*
X174877696Y-59979767D01*
X174641325Y-59865938D01*
X174641327Y-59865938D01*
X174390623Y-59788606D01*
X174390619Y-59788605D01*
X174390615Y-59788604D01*
X174265823Y-59769794D01*
X174131187Y-59749500D01*
X174131182Y-59749500D01*
X173868818Y-59749500D01*
X173868812Y-59749500D01*
X173707247Y-59773853D01*
X173609385Y-59788604D01*
X173609382Y-59788605D01*
X173609376Y-59788606D01*
X173358673Y-59865938D01*
X173122303Y-59979767D01*
X173122302Y-59979768D01*
X172905520Y-60127567D01*
X172713198Y-60306014D01*
X172549614Y-60511143D01*
X172418432Y-60738356D01*
X172322582Y-60982578D01*
X172322576Y-60982597D01*
X172264197Y-61238374D01*
X172264196Y-61238379D01*
X172244592Y-61499995D01*
X172244592Y-61500004D01*
X172264196Y-61761620D01*
X172264197Y-61761625D01*
X172322578Y-62017412D01*
X172380509Y-62165019D01*
X172386677Y-62234616D01*
X172354239Y-62296500D01*
X172352761Y-62298002D01*
X169237484Y-65413281D01*
X169176161Y-65446766D01*
X169149803Y-65449600D01*
X161974500Y-65449600D01*
X161907461Y-65429915D01*
X161861706Y-65377111D01*
X161850500Y-65325600D01*
X161850499Y-63784407D01*
X161851776Y-63784407D01*
X161866664Y-63721431D01*
X161916947Y-63672920D01*
X161974413Y-63658800D01*
X167355031Y-63658800D01*
X167355047Y-63658801D01*
X167362643Y-63658801D01*
X167520754Y-63658801D01*
X167520757Y-63658801D01*
X167673485Y-63617877D01*
X167723604Y-63588939D01*
X167810416Y-63538820D01*
X167922220Y-63427016D01*
X167922220Y-63427014D01*
X167932428Y-63416807D01*
X167932429Y-63416804D01*
X173199606Y-58149628D01*
X173260927Y-58116145D01*
X173330619Y-58121129D01*
X173341068Y-58125583D01*
X173358677Y-58134063D01*
X173609385Y-58211396D01*
X173868818Y-58250500D01*
X174131182Y-58250500D01*
X174390615Y-58211396D01*
X174641323Y-58134063D01*
X174877704Y-58020228D01*
X175094479Y-57872433D01*
X175286805Y-57693981D01*
X175450386Y-57488857D01*
X175581568Y-57261643D01*
X175677420Y-57017416D01*
X175735802Y-56761630D01*
X175743560Y-56658105D01*
X175755408Y-56500004D01*
X175755408Y-56499995D01*
X175735803Y-56238379D01*
X175735802Y-56238374D01*
X175735802Y-56238370D01*
X175677420Y-55982584D01*
X175581568Y-55738357D01*
X175450386Y-55511143D01*
X175286805Y-55306019D01*
X175286804Y-55306018D01*
X175286801Y-55306014D01*
X175094479Y-55127567D01*
X175016644Y-55074500D01*
X174877704Y-54979772D01*
X174877700Y-54979770D01*
X174877697Y-54979768D01*
X174877696Y-54979767D01*
X174641326Y-54865938D01*
X174390623Y-54788606D01*
X174390619Y-54788605D01*
X174390615Y-54788604D01*
X174265823Y-54769794D01*
X174131187Y-54749500D01*
X174131182Y-54749500D01*
X173868818Y-54749500D01*
X173868812Y-54749500D01*
X173707247Y-54773853D01*
X173609385Y-54788604D01*
X173609382Y-54788605D01*
X173609376Y-54788606D01*
X173358673Y-54865938D01*
X173122303Y-54979767D01*
X173122302Y-54979768D01*
X172905520Y-55127567D01*
X172713198Y-55306014D01*
X172549614Y-55511143D01*
X172418432Y-55738356D01*
X172322582Y-55982578D01*
X172322576Y-55982597D01*
X172264197Y-56238374D01*
X172264196Y-56238379D01*
X172244592Y-56499995D01*
X172244592Y-56500004D01*
X172264196Y-56761620D01*
X172264197Y-56761625D01*
X172322576Y-57017402D01*
X172322578Y-57017411D01*
X172322580Y-57017416D01*
X172363584Y-57121894D01*
X172380509Y-57165017D01*
X172386678Y-57234614D01*
X172354240Y-57296497D01*
X172352762Y-57298000D01*
X167229284Y-62421481D01*
X167167961Y-62454966D01*
X167141603Y-62457800D01*
X155795054Y-62457800D01*
X155728015Y-62438115D01*
X155682260Y-62385311D01*
X155672316Y-62316153D01*
X155684569Y-62277505D01*
X155765218Y-62119223D01*
X155765218Y-62119222D01*
X155765220Y-62119219D01*
X155828477Y-61924534D01*
X155860500Y-61722352D01*
X155860500Y-61517648D01*
X155828477Y-61315466D01*
X155817317Y-61281119D01*
X155815322Y-61211278D01*
X155851402Y-61151445D01*
X155914102Y-61120616D01*
X155935248Y-61118800D01*
X164895031Y-61118800D01*
X164895047Y-61118801D01*
X164902643Y-61118801D01*
X165060754Y-61118801D01*
X165060757Y-61118801D01*
X165213485Y-61077877D01*
X165263604Y-61048939D01*
X165350416Y-60998820D01*
X165462220Y-60887016D01*
X165462220Y-60887014D01*
X165472428Y-60876807D01*
X165472430Y-60876804D01*
X173199605Y-53149628D01*
X173260926Y-53116145D01*
X173330618Y-53121129D01*
X173341079Y-53125588D01*
X173358677Y-53134063D01*
X173609385Y-53211396D01*
X173868818Y-53250500D01*
X174131182Y-53250500D01*
X174390615Y-53211396D01*
X174641323Y-53134063D01*
X174877704Y-53020228D01*
X175094479Y-52872433D01*
X175286805Y-52693981D01*
X175450386Y-52488857D01*
X175581568Y-52261643D01*
X175677420Y-52017416D01*
X175735802Y-51761630D01*
X175755408Y-51500000D01*
X175742629Y-51329477D01*
X175735803Y-51238379D01*
X175735802Y-51238374D01*
X175735802Y-51238370D01*
X175677420Y-50982584D01*
X175581568Y-50738357D01*
X175450386Y-50511143D01*
X175286805Y-50306019D01*
X175286804Y-50306018D01*
X175286801Y-50306014D01*
X175094479Y-50127567D01*
X174877704Y-49979772D01*
X174877700Y-49979770D01*
X174877697Y-49979768D01*
X174877696Y-49979767D01*
X174641325Y-49865938D01*
X174641327Y-49865938D01*
X174390623Y-49788606D01*
X174390619Y-49788605D01*
X174390615Y-49788604D01*
X174265823Y-49769794D01*
X174131187Y-49749500D01*
X174131182Y-49749500D01*
X173868818Y-49749500D01*
X173868812Y-49749500D01*
X173707247Y-49773853D01*
X173609385Y-49788604D01*
X173609382Y-49788605D01*
X173609376Y-49788606D01*
X173358673Y-49865938D01*
X173122303Y-49979767D01*
X173122302Y-49979768D01*
X172905520Y-50127567D01*
X172713198Y-50306014D01*
X172549614Y-50511143D01*
X172418432Y-50738356D01*
X172322582Y-50982578D01*
X172322576Y-50982597D01*
X172264197Y-51238374D01*
X172264196Y-51238379D01*
X172244592Y-51499995D01*
X172244592Y-51500004D01*
X172264196Y-51761620D01*
X172264197Y-51761625D01*
X172322578Y-52017412D01*
X172380509Y-52165019D01*
X172386677Y-52234616D01*
X172354239Y-52296500D01*
X172352761Y-52298002D01*
X164769284Y-59881481D01*
X164707961Y-59914966D01*
X164681603Y-59917800D01*
X155795054Y-59917800D01*
X155728015Y-59898115D01*
X155682260Y-59845311D01*
X155672316Y-59776153D01*
X155684569Y-59737505D01*
X155765218Y-59579223D01*
X155765218Y-59579222D01*
X155765220Y-59579219D01*
X155828477Y-59384534D01*
X155860500Y-59182352D01*
X155860500Y-58977648D01*
X155828477Y-58775466D01*
X155773178Y-58605276D01*
X155771184Y-58535438D01*
X155807264Y-58475605D01*
X155829109Y-58459574D01*
X155830416Y-58458820D01*
X155942220Y-58347016D01*
X155942220Y-58347014D01*
X155952428Y-58336807D01*
X155952429Y-58336804D01*
X158960786Y-55328448D01*
X159022105Y-55294966D01*
X159091797Y-55299950D01*
X159146838Y-55340645D01*
X159169363Y-55370000D01*
X160066988Y-55370000D01*
X160034075Y-55427007D01*
X160000000Y-55554174D01*
X160000000Y-55685826D01*
X160034075Y-55812993D01*
X160066988Y-55870000D01*
X159169364Y-55870000D01*
X159226567Y-56083486D01*
X159226570Y-56083492D01*
X159326399Y-56297578D01*
X159461894Y-56491082D01*
X159628917Y-56658105D01*
X159815031Y-56788425D01*
X159858656Y-56843003D01*
X159865848Y-56912501D01*
X159834326Y-56974856D01*
X159815031Y-56991575D01*
X159628922Y-57121890D01*
X159628920Y-57121891D01*
X159461891Y-57288920D01*
X159461886Y-57288926D01*
X159326400Y-57482420D01*
X159326399Y-57482422D01*
X159226570Y-57696507D01*
X159226567Y-57696513D01*
X159169364Y-57909999D01*
X159169364Y-57910000D01*
X160066988Y-57910000D01*
X160034075Y-57967007D01*
X160000000Y-58094174D01*
X160000000Y-58225826D01*
X160034075Y-58352993D01*
X160066988Y-58410000D01*
X159169364Y-58410000D01*
X159226567Y-58623486D01*
X159226570Y-58623492D01*
X159326399Y-58837578D01*
X159461894Y-59031082D01*
X159628917Y-59198105D01*
X159822421Y-59333600D01*
X160036507Y-59433429D01*
X160036516Y-59433433D01*
X160250000Y-59490634D01*
X160250000Y-58593012D01*
X160307007Y-58625925D01*
X160434174Y-58660000D01*
X160565826Y-58660000D01*
X160692993Y-58625925D01*
X160750000Y-58593012D01*
X160750000Y-59490633D01*
X160963483Y-59433433D01*
X160963492Y-59433429D01*
X161177578Y-59333600D01*
X161371082Y-59198105D01*
X161538105Y-59031082D01*
X161673600Y-58837578D01*
X161773429Y-58623492D01*
X161773432Y-58623486D01*
X161830636Y-58410000D01*
X160933012Y-58410000D01*
X160965925Y-58352993D01*
X161000000Y-58225826D01*
X161000000Y-58094174D01*
X160965925Y-57967007D01*
X160933012Y-57910000D01*
X161830636Y-57910000D01*
X161830635Y-57909999D01*
X161773432Y-57696513D01*
X161773429Y-57696507D01*
X161673600Y-57482422D01*
X161673599Y-57482420D01*
X161538113Y-57288926D01*
X161538108Y-57288920D01*
X161371082Y-57121894D01*
X161184968Y-56991575D01*
X161141344Y-56936998D01*
X161134151Y-56867499D01*
X161165673Y-56805145D01*
X161184968Y-56788425D01*
X161371082Y-56658105D01*
X161538105Y-56491082D01*
X161673600Y-56297578D01*
X161773429Y-56083492D01*
X161773432Y-56083486D01*
X161830636Y-55870000D01*
X160933012Y-55870000D01*
X160965925Y-55812993D01*
X161000000Y-55685826D01*
X161000000Y-55554174D01*
X160965925Y-55427007D01*
X160933012Y-55370000D01*
X161830636Y-55370000D01*
X161830635Y-55369999D01*
X161773432Y-55156513D01*
X161773430Y-55156507D01*
X161759626Y-55126905D01*
X161749134Y-55057828D01*
X161777653Y-54994044D01*
X161836130Y-54955804D01*
X161872008Y-54950500D01*
X166063331Y-54950500D01*
X166063347Y-54950501D01*
X166070943Y-54950501D01*
X166229054Y-54950501D01*
X166229057Y-54950501D01*
X166381785Y-54909577D01*
X166457371Y-54865937D01*
X166518716Y-54830520D01*
X166630520Y-54718716D01*
X166630520Y-54718714D01*
X166640724Y-54708511D01*
X166640728Y-54708506D01*
X173199605Y-48149628D01*
X173260926Y-48116145D01*
X173330618Y-48121129D01*
X173341079Y-48125588D01*
X173358677Y-48134063D01*
X173609385Y-48211396D01*
X173868818Y-48250500D01*
X174131182Y-48250500D01*
X174390615Y-48211396D01*
X174641323Y-48134063D01*
X174877704Y-48020228D01*
X175094479Y-47872433D01*
X175286805Y-47693981D01*
X175450386Y-47488857D01*
X175581568Y-47261643D01*
X175677420Y-47017416D01*
X175735802Y-46761630D01*
X175739922Y-46706649D01*
X175755408Y-46500004D01*
X175755408Y-46499995D01*
X175735803Y-46238379D01*
X175735802Y-46238374D01*
X175735802Y-46238370D01*
X175677420Y-45982584D01*
X175581568Y-45738357D01*
X175450386Y-45511143D01*
X175286805Y-45306019D01*
X175286804Y-45306018D01*
X175286801Y-45306014D01*
X175094479Y-45127567D01*
X174877704Y-44979772D01*
X174877700Y-44979770D01*
X174877697Y-44979768D01*
X174877696Y-44979767D01*
X174641325Y-44865938D01*
X174641327Y-44865938D01*
X174390623Y-44788606D01*
X174390619Y-44788605D01*
X174390615Y-44788604D01*
X174265823Y-44769794D01*
X174131187Y-44749500D01*
X174131182Y-44749500D01*
X173868818Y-44749500D01*
X173868812Y-44749500D01*
X173707247Y-44773853D01*
X173609385Y-44788604D01*
X173609382Y-44788605D01*
X173609376Y-44788606D01*
X173358673Y-44865938D01*
X173122303Y-44979767D01*
X173122302Y-44979768D01*
X172905520Y-45127567D01*
X172713198Y-45306014D01*
X172549614Y-45511143D01*
X172418432Y-45738356D01*
X172322582Y-45982578D01*
X172322576Y-45982597D01*
X172264197Y-46238374D01*
X172264196Y-46238379D01*
X172244592Y-46499995D01*
X172244592Y-46500004D01*
X172264196Y-46761620D01*
X172264197Y-46761625D01*
X172322578Y-47017412D01*
X172380509Y-47165019D01*
X172386677Y-47234616D01*
X172354239Y-47296500D01*
X172352761Y-47298002D01*
X165937584Y-53713181D01*
X165876261Y-53746666D01*
X165849903Y-53749500D01*
X161872008Y-53749500D01*
X161804969Y-53729815D01*
X161759214Y-53677011D01*
X161749270Y-53607853D01*
X161759626Y-53573095D01*
X161773430Y-53543492D01*
X161773432Y-53543486D01*
X161830636Y-53330000D01*
X160933012Y-53330000D01*
X160965925Y-53272993D01*
X161000000Y-53145826D01*
X161000000Y-53014174D01*
X160965925Y-52887007D01*
X160933012Y-52830000D01*
X161830636Y-52830000D01*
X161830635Y-52829999D01*
X161773432Y-52616513D01*
X161773430Y-52616507D01*
X161759626Y-52586905D01*
X161749134Y-52517828D01*
X161777653Y-52454044D01*
X161836130Y-52415804D01*
X161872008Y-52410500D01*
X163603331Y-52410500D01*
X163603347Y-52410501D01*
X163610943Y-52410501D01*
X163769054Y-52410501D01*
X163769057Y-52410501D01*
X163921785Y-52369577D01*
X163975225Y-52338723D01*
X164058716Y-52290520D01*
X164170520Y-52178716D01*
X164170520Y-52178714D01*
X164180724Y-52168511D01*
X164180728Y-52168506D01*
X173199605Y-43149628D01*
X173260926Y-43116145D01*
X173330618Y-43121129D01*
X173341079Y-43125588D01*
X173358677Y-43134063D01*
X173609385Y-43211396D01*
X173868818Y-43250500D01*
X174131182Y-43250500D01*
X174390615Y-43211396D01*
X174641323Y-43134063D01*
X174877704Y-43020228D01*
X175094479Y-42872433D01*
X175286805Y-42693981D01*
X175450386Y-42488857D01*
X175581568Y-42261643D01*
X175677420Y-42017416D01*
X175735802Y-41761630D01*
X175753582Y-41524365D01*
X175755408Y-41500004D01*
X175755408Y-41499995D01*
X175735803Y-41238379D01*
X175735802Y-41238374D01*
X175735802Y-41238370D01*
X175677420Y-40982584D01*
X175581568Y-40738357D01*
X175450386Y-40511143D01*
X175286805Y-40306019D01*
X175286804Y-40306018D01*
X175286801Y-40306014D01*
X175094479Y-40127567D01*
X174877704Y-39979772D01*
X174877700Y-39979770D01*
X174877697Y-39979768D01*
X174877696Y-39979767D01*
X174641325Y-39865938D01*
X174641327Y-39865938D01*
X174390623Y-39788606D01*
X174390619Y-39788605D01*
X174390615Y-39788604D01*
X174265823Y-39769794D01*
X174131187Y-39749500D01*
X174131182Y-39749500D01*
X173868818Y-39749500D01*
X173868812Y-39749500D01*
X173707247Y-39773853D01*
X173609385Y-39788604D01*
X173609382Y-39788605D01*
X173609376Y-39788606D01*
X173420879Y-39846750D01*
X173368396Y-39862939D01*
X173298534Y-39863889D01*
X173239247Y-39826918D01*
X173209361Y-39763763D01*
X173218362Y-39694475D01*
X173244163Y-39656770D01*
X174368713Y-38532221D01*
X174368716Y-38532220D01*
X174480520Y-38420416D01*
X174530639Y-38333604D01*
X174542831Y-38312487D01*
X174593403Y-38264278D01*
X174650212Y-38250499D01*
X175297871Y-38250499D01*
X175297872Y-38250499D01*
X175357483Y-38244091D01*
X175492331Y-38193796D01*
X175607546Y-38107546D01*
X175693796Y-37992331D01*
X175744091Y-37857483D01*
X175750500Y-37797873D01*
X175750499Y-35202128D01*
X175744091Y-35142517D01*
X175693796Y-35007669D01*
X175693795Y-35007668D01*
X175693793Y-35007664D01*
X175607547Y-34892455D01*
X175607544Y-34892452D01*
X175492335Y-34806206D01*
X175492328Y-34806202D01*
X175357482Y-34755908D01*
X175357483Y-34755908D01*
X175297883Y-34749501D01*
X175297881Y-34749500D01*
X175297873Y-34749500D01*
X175297864Y-34749500D01*
X172702129Y-34749500D01*
X172702123Y-34749501D01*
X172642516Y-34755908D01*
X172507671Y-34806202D01*
X172507664Y-34806206D01*
X172392455Y-34892452D01*
X172392452Y-34892455D01*
X172306206Y-35007664D01*
X172306202Y-35007671D01*
X172255908Y-35142517D01*
X172249501Y-35202116D01*
X172249501Y-35202123D01*
X172249500Y-35202135D01*
X172249500Y-37797870D01*
X172249501Y-37797876D01*
X172255908Y-37857483D01*
X172306202Y-37992328D01*
X172306206Y-37992335D01*
X172392452Y-38107544D01*
X172392455Y-38107547D01*
X172507664Y-38193793D01*
X172507671Y-38193797D01*
X172552618Y-38210561D01*
X172642517Y-38244091D01*
X172670021Y-38247048D01*
X172734570Y-38273785D01*
X172774418Y-38331178D01*
X172776912Y-38401003D01*
X172744445Y-38458018D01*
X162569284Y-48633181D01*
X162507961Y-48666666D01*
X162481603Y-48669500D01*
X161974000Y-48669500D01*
X161906961Y-48649815D01*
X161861206Y-48597011D01*
X161850000Y-48545500D01*
X161850000Y-48250000D01*
X160933012Y-48250000D01*
X160965925Y-48192993D01*
X161000000Y-48065826D01*
X161000000Y-47934174D01*
X160965925Y-47807007D01*
X160933012Y-47750000D01*
X161850000Y-47750000D01*
X161850000Y-47102172D01*
X161849999Y-47102155D01*
X161843598Y-47042627D01*
X161843596Y-47042620D01*
X161793354Y-46907913D01*
X161793350Y-46907906D01*
X161707190Y-46792812D01*
X161707187Y-46792809D01*
X161592093Y-46706649D01*
X161592086Y-46706645D01*
X161457379Y-46656403D01*
X161457372Y-46656401D01*
X161397844Y-46650000D01*
X160750000Y-46650000D01*
X160750000Y-47566988D01*
X160692993Y-47534075D01*
X160565826Y-47500000D01*
X160434174Y-47500000D01*
X160307007Y-47534075D01*
X160250000Y-47566988D01*
X160250000Y-46650000D01*
X159602155Y-46650000D01*
X159542627Y-46656401D01*
X159542620Y-46656403D01*
X159407913Y-46706645D01*
X159407906Y-46706649D01*
X159292812Y-46792809D01*
X159292809Y-46792812D01*
X159206649Y-46907906D01*
X159206645Y-46907913D01*
X159156403Y-47042620D01*
X159156401Y-47042627D01*
X159150000Y-47102155D01*
X159150000Y-47750000D01*
X160066988Y-47750000D01*
X160034075Y-47807007D01*
X160000000Y-47934174D01*
X160000000Y-48065826D01*
X160034075Y-48192993D01*
X160066988Y-48250000D01*
X159150000Y-48250000D01*
X159150000Y-48545500D01*
X159130315Y-48612539D01*
X159077511Y-48658294D01*
X159026000Y-48669500D01*
X158067357Y-48669500D01*
X157909243Y-48669500D01*
X157756515Y-48710423D01*
X157756514Y-48710423D01*
X157756512Y-48710424D01*
X157756509Y-48710425D01*
X157706396Y-48739359D01*
X157706395Y-48739360D01*
X157662989Y-48764420D01*
X157619585Y-48789479D01*
X157619582Y-48789481D01*
X153879481Y-52529582D01*
X153879477Y-52529587D01*
X153864111Y-52556204D01*
X153858334Y-52566211D01*
X153850373Y-52580000D01*
X153800422Y-52666515D01*
X153800422Y-52666516D01*
X153793518Y-52692282D01*
X153757152Y-52751941D01*
X153712064Y-52778116D01*
X153660780Y-52794779D01*
X153478386Y-52887715D01*
X153312786Y-53008028D01*
X153168028Y-53152786D01*
X153047715Y-53318386D01*
X152954781Y-53500776D01*
X152891522Y-53695465D01*
X152859500Y-53897648D01*
X152859500Y-54102351D01*
X152891522Y-54304534D01*
X152954781Y-54499223D01*
X153047715Y-54681613D01*
X153168028Y-54847213D01*
X153312786Y-54991971D01*
X153426380Y-55074500D01*
X153478390Y-55112287D01*
X153565177Y-55156507D01*
X153571080Y-55159515D01*
X153621876Y-55207490D01*
X153638671Y-55275311D01*
X153616134Y-55341446D01*
X153571080Y-55380485D01*
X153478386Y-55427715D01*
X153312786Y-55548028D01*
X153168028Y-55692786D01*
X153047715Y-55858386D01*
X152954781Y-56040776D01*
X152891522Y-56235465D01*
X152859500Y-56437648D01*
X152859500Y-56642351D01*
X152891522Y-56844534D01*
X152954781Y-57039223D01*
X153035431Y-57197505D01*
X153048327Y-57266174D01*
X153022051Y-57330915D01*
X152964944Y-57371172D01*
X152924946Y-57377800D01*
X132935054Y-57377800D01*
X132868015Y-57358115D01*
X132822260Y-57305311D01*
X132812316Y-57236153D01*
X132824569Y-57197505D01*
X132905218Y-57039223D01*
X132905218Y-57039222D01*
X132905220Y-57039219D01*
X132968477Y-56844534D01*
X133000500Y-56642352D01*
X133000500Y-56437648D01*
X132978315Y-56297578D01*
X132968477Y-56235465D01*
X132919888Y-56085925D01*
X132905220Y-56040781D01*
X132905218Y-56040778D01*
X132905218Y-56040776D01*
X132847249Y-55927007D01*
X132812287Y-55858390D01*
X132786812Y-55823326D01*
X132691971Y-55692786D01*
X132660736Y-55661551D01*
X132627251Y-55600228D01*
X132632235Y-55530536D01*
X132674107Y-55474603D01*
X132705080Y-55457689D01*
X132742331Y-55443796D01*
X132857546Y-55357546D01*
X132943796Y-55242331D01*
X132994091Y-55107483D01*
X133000500Y-55047873D01*
X133000499Y-52952128D01*
X132994091Y-52892517D01*
X132992299Y-52887713D01*
X132943797Y-52757671D01*
X132943793Y-52757664D01*
X132857547Y-52642455D01*
X132857544Y-52642452D01*
X132742335Y-52556206D01*
X132742328Y-52556202D01*
X132607482Y-52505908D01*
X132607483Y-52505908D01*
X132547883Y-52499501D01*
X132547881Y-52499500D01*
X132547873Y-52499500D01*
X132547864Y-52499500D01*
X130452129Y-52499500D01*
X130452123Y-52499501D01*
X130392516Y-52505908D01*
X130257671Y-52556202D01*
X130257664Y-52556206D01*
X130142455Y-52642452D01*
X130142452Y-52642455D01*
X130056206Y-52757664D01*
X130056202Y-52757671D01*
X130005908Y-52892517D01*
X129999501Y-52952116D01*
X129999501Y-52952123D01*
X129999500Y-52952135D01*
X129999500Y-53349788D01*
X129979815Y-53416827D01*
X129937500Y-53457174D01*
X129916395Y-53469360D01*
X129872989Y-53494420D01*
X129829585Y-53519479D01*
X129829582Y-53519481D01*
X129717778Y-53631286D01*
X128874684Y-54474381D01*
X128813361Y-54507866D01*
X128787003Y-54510700D01*
X117932161Y-54510700D01*
X117865122Y-54491015D01*
X117819367Y-54438211D01*
X117809423Y-54369053D01*
X117814230Y-54348381D01*
X117828477Y-54304534D01*
X117860500Y-54102351D01*
X117860500Y-53897648D01*
X117828477Y-53695465D01*
X117779888Y-53545925D01*
X117765220Y-53500781D01*
X117765218Y-53500778D01*
X117765218Y-53500776D01*
X117707249Y-53387007D01*
X117672287Y-53318390D01*
X117664556Y-53307749D01*
X117551971Y-53152786D01*
X117407213Y-53008028D01*
X117241613Y-52887715D01*
X117241612Y-52887714D01*
X117241610Y-52887713D01*
X117145888Y-52838940D01*
X117059223Y-52794781D01*
X116864534Y-52731522D01*
X116689995Y-52703878D01*
X116662352Y-52699500D01*
X116057648Y-52699500D01*
X116033329Y-52703351D01*
X115855465Y-52731522D01*
X115660776Y-52794781D01*
X115478386Y-52887715D01*
X115312786Y-53008028D01*
X115168028Y-53152786D01*
X115047715Y-53318386D01*
X114954781Y-53500776D01*
X114891522Y-53695465D01*
X114859500Y-53897648D01*
X114859500Y-54102351D01*
X114891522Y-54304534D01*
X114905770Y-54348381D01*
X114907766Y-54418222D01*
X114871686Y-54478055D01*
X114808985Y-54508884D01*
X114787839Y-54510700D01*
X96212997Y-54510700D01*
X96145958Y-54491015D01*
X96125316Y-54474381D01*
X95289290Y-53638355D01*
X95289288Y-53638352D01*
X95170417Y-53519481D01*
X95170416Y-53519480D01*
X95083604Y-53469360D01*
X95083604Y-53469358D01*
X95083599Y-53469357D01*
X95062500Y-53457175D01*
X95062495Y-53457172D01*
X95014281Y-53406602D01*
X95000499Y-53349787D01*
X95000499Y-52952129D01*
X95000498Y-52952123D01*
X95000497Y-52952116D01*
X94994091Y-52892517D01*
X94992299Y-52887713D01*
X94943797Y-52757671D01*
X94943793Y-52757664D01*
X94857547Y-52642455D01*
X94857544Y-52642452D01*
X94742335Y-52556206D01*
X94742328Y-52556202D01*
X94607482Y-52505908D01*
X94607483Y-52505908D01*
X94547883Y-52499501D01*
X94547881Y-52499500D01*
X94547873Y-52499500D01*
X94547864Y-52499500D01*
X92452129Y-52499500D01*
X92452123Y-52499501D01*
X92392516Y-52505908D01*
X92257671Y-52556202D01*
X92257664Y-52556206D01*
X92142455Y-52642452D01*
X92142452Y-52642455D01*
X92056206Y-52757664D01*
X92056202Y-52757671D01*
X92005908Y-52892517D01*
X91999501Y-52952116D01*
X91999501Y-52952123D01*
X91999500Y-52952135D01*
X80500500Y-52952135D01*
X80500500Y-42809998D01*
X156694532Y-42809998D01*
X156694532Y-42810001D01*
X156714364Y-43036686D01*
X156714366Y-43036697D01*
X156773258Y-43256488D01*
X156773261Y-43256497D01*
X156869431Y-43462732D01*
X156869432Y-43462734D01*
X156999954Y-43649141D01*
X157160858Y-43810045D01*
X157160861Y-43810047D01*
X157347266Y-43940568D01*
X157553504Y-44036739D01*
X157773308Y-44095635D01*
X157935230Y-44109801D01*
X157999998Y-44115468D01*
X158000000Y-44115468D01*
X158000002Y-44115468D01*
X158056673Y-44110509D01*
X158226692Y-44095635D01*
X158446496Y-44036739D01*
X158652734Y-43940568D01*
X158839139Y-43810047D01*
X159000047Y-43649139D01*
X159130568Y-43462734D01*
X159226739Y-43256496D01*
X159285635Y-43036692D01*
X159305468Y-42810000D01*
X159285635Y-42583308D01*
X159226739Y-42363504D01*
X159130568Y-42157266D01*
X159000047Y-41970861D01*
X159000045Y-41970858D01*
X158839141Y-41809954D01*
X158652734Y-41679432D01*
X158652732Y-41679431D01*
X158446497Y-41583261D01*
X158446488Y-41583258D01*
X158226697Y-41524366D01*
X158226693Y-41524365D01*
X158226692Y-41524365D01*
X158226691Y-41524364D01*
X158226686Y-41524364D01*
X158000002Y-41504532D01*
X157999998Y-41504532D01*
X157773313Y-41524364D01*
X157773302Y-41524366D01*
X157553511Y-41583258D01*
X157553502Y-41583261D01*
X157347267Y-41679431D01*
X157347265Y-41679432D01*
X157160858Y-41809954D01*
X156999954Y-41970858D01*
X156869432Y-42157265D01*
X156869431Y-42157267D01*
X156773261Y-42363502D01*
X156773258Y-42363511D01*
X156714366Y-42583302D01*
X156714364Y-42583313D01*
X156694532Y-42809998D01*
X80500500Y-42809998D01*
X80500500Y-35189998D01*
X156694532Y-35189998D01*
X156694532Y-35190001D01*
X156714364Y-35416686D01*
X156714366Y-35416697D01*
X156773258Y-35636488D01*
X156773261Y-35636497D01*
X156869431Y-35842732D01*
X156869432Y-35842734D01*
X156999954Y-36029141D01*
X157160858Y-36190045D01*
X157160861Y-36190047D01*
X157347266Y-36320568D01*
X157553504Y-36416739D01*
X157773308Y-36475635D01*
X157935230Y-36489801D01*
X157999998Y-36495468D01*
X158000000Y-36495468D01*
X158000002Y-36495468D01*
X158056673Y-36490509D01*
X158226692Y-36475635D01*
X158446496Y-36416739D01*
X158652734Y-36320568D01*
X158839139Y-36190047D01*
X159000047Y-36029139D01*
X159130568Y-35842734D01*
X159226739Y-35636496D01*
X159285635Y-35416692D01*
X159305468Y-35190000D01*
X159285635Y-34963308D01*
X159226739Y-34743504D01*
X159130568Y-34537266D01*
X159000047Y-34350861D01*
X159000045Y-34350858D01*
X158839141Y-34189954D01*
X158652734Y-34059432D01*
X158652732Y-34059431D01*
X158446497Y-33963261D01*
X158446488Y-33963258D01*
X158226697Y-33904366D01*
X158226693Y-33904365D01*
X158226692Y-33904365D01*
X158226691Y-33904364D01*
X158226686Y-33904364D01*
X158000002Y-33884532D01*
X157999998Y-33884532D01*
X157773313Y-33904364D01*
X157773302Y-33904366D01*
X157553511Y-33963258D01*
X157553502Y-33963261D01*
X157347267Y-34059431D01*
X157347265Y-34059432D01*
X157160858Y-34189954D01*
X156999954Y-34350858D01*
X156869432Y-34537265D01*
X156869431Y-34537267D01*
X156773261Y-34743502D01*
X156773258Y-34743511D01*
X156714366Y-34963302D01*
X156714364Y-34963313D01*
X156694532Y-35189998D01*
X80500500Y-35189998D01*
X80500500Y-29052155D01*
X155325000Y-29052155D01*
X155325000Y-29750000D01*
X156349722Y-29750000D01*
X156305667Y-29826306D01*
X156275000Y-29940756D01*
X156275000Y-30059244D01*
X156305667Y-30173694D01*
X156349722Y-30250000D01*
X155325000Y-30250000D01*
X155325000Y-30947844D01*
X155331401Y-31007372D01*
X155331403Y-31007379D01*
X155381645Y-31142086D01*
X155381649Y-31142093D01*
X155467809Y-31257187D01*
X155467812Y-31257190D01*
X155582906Y-31343350D01*
X155582913Y-31343354D01*
X155717620Y-31393596D01*
X155717627Y-31393598D01*
X155777155Y-31399999D01*
X155777172Y-31400000D01*
X156475000Y-31400000D01*
X156475000Y-30375277D01*
X156551306Y-30419333D01*
X156665756Y-30450000D01*
X156784244Y-30450000D01*
X156898694Y-30419333D01*
X156975000Y-30375277D01*
X156975000Y-31400000D01*
X157672828Y-31400000D01*
X157672844Y-31399999D01*
X157732372Y-31393598D01*
X157732379Y-31393596D01*
X157867086Y-31343354D01*
X157867093Y-31343350D01*
X157982187Y-31257190D01*
X157982190Y-31257187D01*
X158068350Y-31142093D01*
X158068355Y-31142084D01*
X158097075Y-31065081D01*
X158138945Y-31009147D01*
X158204409Y-30984729D01*
X158272682Y-30999580D01*
X158304484Y-31024428D01*
X158313216Y-31033913D01*
X158313219Y-31033915D01*
X158313222Y-31033918D01*
X158496365Y-31176464D01*
X158496371Y-31176468D01*
X158496374Y-31176470D01*
X158700497Y-31286936D01*
X158814487Y-31326068D01*
X158920015Y-31362297D01*
X158920017Y-31362297D01*
X158920019Y-31362298D01*
X159148951Y-31400500D01*
X159148952Y-31400500D01*
X159381048Y-31400500D01*
X159381049Y-31400500D01*
X159609981Y-31362298D01*
X159829503Y-31286936D01*
X160033626Y-31176470D01*
X160216784Y-31033913D01*
X160373979Y-30863153D01*
X160500924Y-30668849D01*
X160594157Y-30456300D01*
X160651134Y-30231305D01*
X160670300Y-30000000D01*
X160670300Y-29999993D01*
X160651135Y-29768702D01*
X160651133Y-29768691D01*
X160594157Y-29543699D01*
X160500924Y-29331151D01*
X160373983Y-29136852D01*
X160373980Y-29136849D01*
X160373979Y-29136847D01*
X160216784Y-28966087D01*
X160216779Y-28966083D01*
X160216777Y-28966081D01*
X160033634Y-28823535D01*
X160033628Y-28823531D01*
X159829504Y-28713064D01*
X159829495Y-28713061D01*
X159609984Y-28637702D01*
X159422404Y-28606401D01*
X159381049Y-28599500D01*
X159148951Y-28599500D01*
X159107596Y-28606401D01*
X158920015Y-28637702D01*
X158700504Y-28713061D01*
X158700495Y-28713064D01*
X158496371Y-28823531D01*
X158496365Y-28823535D01*
X158313222Y-28966081D01*
X158313215Y-28966087D01*
X158304484Y-28975572D01*
X158244595Y-29011561D01*
X158174757Y-29009458D01*
X158117143Y-28969932D01*
X158097075Y-28934918D01*
X158068355Y-28857915D01*
X158068350Y-28857906D01*
X157982190Y-28742812D01*
X157982187Y-28742809D01*
X157867093Y-28656649D01*
X157867086Y-28656645D01*
X157732379Y-28606403D01*
X157732372Y-28606401D01*
X157672844Y-28600000D01*
X156975000Y-28600000D01*
X156975000Y-29624722D01*
X156898694Y-29580667D01*
X156784244Y-29550000D01*
X156665756Y-29550000D01*
X156551306Y-29580667D01*
X156475000Y-29624722D01*
X156475000Y-28600000D01*
X155777155Y-28600000D01*
X155717627Y-28606401D01*
X155717620Y-28606403D01*
X155582913Y-28656645D01*
X155582906Y-28656649D01*
X155467812Y-28742809D01*
X155467809Y-28742812D01*
X155381649Y-28857906D01*
X155381645Y-28857913D01*
X155331403Y-28992620D01*
X155331401Y-28992627D01*
X155325000Y-29052155D01*
X80500500Y-29052155D01*
X80500500Y-26124500D01*
X80520185Y-26057461D01*
X80572989Y-26011706D01*
X80624500Y-26000500D01*
X178375500Y-26000500D01*
X178442539Y-26020185D01*
G37*
%TD.AperFunction*%
%TD*%
M02*
