%TF.GenerationSoftware,KiCad,Pcbnew,8.0.3*%
%TF.CreationDate,2024-06-10T16:35:51-04:00*%
%TF.ProjectId,Kicad 8,4b696361-6420-4382-9e6b-696361645f70,rev?*%
%TF.SameCoordinates,Original*%
%TF.FileFunction,Copper,L2,Bot*%
%TF.FilePolarity,Positive*%
%FSLAX46Y46*%
G04 Gerber Fmt 4.6, Leading zero omitted, Abs format (unit mm)*
G04 Created by KiCad (PCBNEW 8.0.3) date 2024-06-10 16:35:51*
%MOMM*%
%LPD*%
G01*
G04 APERTURE LIST*
%TA.AperFunction,ComponentPad*%
%ADD10C,2.000000*%
%TD*%
%TA.AperFunction,ComponentPad*%
%ADD11R,2.000000X2.000000*%
%TD*%
%TA.AperFunction,ComponentPad*%
%ADD12O,2.000000X1.600000*%
%TD*%
%TA.AperFunction,ComponentPad*%
%ADD13R,1.700000X1.700000*%
%TD*%
%TA.AperFunction,ComponentPad*%
%ADD14O,1.700000X1.700000*%
%TD*%
%TA.AperFunction,ComponentPad*%
%ADD15C,1.600000*%
%TD*%
%TA.AperFunction,ComponentPad*%
%ADD16O,1.600000X1.600000*%
%TD*%
%TA.AperFunction,ComponentPad*%
%ADD17R,2.500000X2.500000*%
%TD*%
%TA.AperFunction,ComponentPad*%
%ADD18C,2.500000*%
%TD*%
%TA.AperFunction,ComponentPad*%
%ADD19R,1.800000X1.800000*%
%TD*%
%TA.AperFunction,ComponentPad*%
%ADD20C,1.800000*%
%TD*%
%TA.AperFunction,ViaPad*%
%ADD21C,0.600000*%
%TD*%
%TA.AperFunction,Conductor*%
%ADD22C,0.200000*%
%TD*%
G04 APERTURE END LIST*
D10*
%TO.P,SW1,1,1*%
%TO.N,GND*%
X83000000Y-85500000D03*
X83000000Y-79000000D03*
%TO.P,SW1,2,2*%
%TO.N,Net-(J2-Pin_1)*%
X87500000Y-85500000D03*
X87500000Y-79000000D03*
%TD*%
D11*
%TO.P,U4,1,~{RST}*%
%TO.N,Net-(J2-Pin_1)*%
X131500000Y-54000000D03*
D12*
%TO.P,U4,2,A0*%
%TO.N,Net-(J2-Pin_2)*%
X131500000Y-56540000D03*
%TO.P,U4,3,D0*%
%TO.N,Net-(J2-Pin_3)*%
X131500000Y-59080000D03*
%TO.P,U4,4,SCK/D5*%
%TO.N,Net-(J2-Pin_4)*%
X131500000Y-61620000D03*
%TO.P,U4,5,MISO/D6*%
%TO.N,Net-(J2-Pin_5)*%
X131500000Y-64160000D03*
%TO.P,U4,6,MOSI/D7*%
%TO.N,Net-(J2-Pin_6)*%
X131500000Y-66700000D03*
%TO.P,U4,7,CS/D8*%
%TO.N,Net-(J2-Pin_7)*%
X131500000Y-69240000D03*
%TO.P,U4,8,3V3*%
%TO.N,Net-(J2-Pin_8)*%
X131500000Y-71780000D03*
%TO.P,U4,9,5V*%
%TO.N,Net-(J1-Pin_8)*%
X154360000Y-71780000D03*
%TO.P,U4,10,GND*%
%TO.N,GND*%
X154360000Y-69240000D03*
%TO.P,U4,11,D4*%
%TO.N,Net-(J1-Pin_6)*%
X154360000Y-66700000D03*
%TO.P,U4,12,D3*%
%TO.N,Net-(J1-Pin_5)*%
X154360000Y-64160000D03*
%TO.P,U4,13,SDA/D2*%
%TO.N,Net-(J1-Pin_4)*%
X154360000Y-61620000D03*
%TO.P,U4,14,SCL/D1*%
%TO.N,Net-(J1-Pin_3)*%
X154360000Y-59080000D03*
%TO.P,U4,15,RX*%
%TO.N,Net-(J1-Pin_2)*%
X154360000Y-56540000D03*
%TO.P,U4,16,TX*%
%TO.N,Net-(J1-Pin_1)*%
X154360000Y-54000000D03*
%TD*%
D13*
%TO.P,J2,1,Pin_1*%
%TO.N,Net-(J2-Pin_1)*%
X88000000Y-94515000D03*
D14*
%TO.P,J2,2,Pin_2*%
%TO.N,Net-(J2-Pin_2)*%
X88000000Y-97055000D03*
%TO.P,J2,3,Pin_3*%
%TO.N,Net-(J2-Pin_3)*%
X88000000Y-99595000D03*
%TO.P,J2,4,Pin_4*%
%TO.N,Net-(J2-Pin_4)*%
X88000000Y-102135000D03*
%TO.P,J2,5,Pin_5*%
%TO.N,Net-(J2-Pin_5)*%
X88000000Y-104675000D03*
%TO.P,J2,6,Pin_6*%
%TO.N,Net-(J2-Pin_6)*%
X88000000Y-107215000D03*
%TO.P,J2,7,Pin_7*%
%TO.N,Net-(J2-Pin_7)*%
X88000000Y-109755000D03*
%TO.P,J2,8,Pin_8*%
%TO.N,Net-(J2-Pin_8)*%
X88000000Y-112295000D03*
%TD*%
D15*
%TO.P,R1,1*%
%TO.N,Net-(D1-A)*%
X158000000Y-35190000D03*
D16*
%TO.P,R1,2*%
%TO.N,Net-(J1-Pin_8)*%
X158000000Y-42810000D03*
%TD*%
D13*
%TO.P,J1,1,Pin_1*%
%TO.N,Net-(J1-Pin_1)*%
X122000000Y-94515000D03*
D14*
%TO.P,J1,2,Pin_2*%
%TO.N,Net-(J1-Pin_2)*%
X122000000Y-97055000D03*
%TO.P,J1,3,Pin_3*%
%TO.N,Net-(J1-Pin_3)*%
X122000000Y-99595000D03*
%TO.P,J1,4,Pin_4*%
%TO.N,Net-(J1-Pin_4)*%
X122000000Y-102135000D03*
%TO.P,J1,5,Pin_5*%
%TO.N,Net-(J1-Pin_5)*%
X122000000Y-104675000D03*
%TO.P,J1,6,Pin_6*%
%TO.N,Net-(J1-Pin_6)*%
X122000000Y-107215000D03*
%TO.P,J1,7,Pin_7*%
%TO.N,GND*%
X122000000Y-109755000D03*
%TO.P,J1,8,Pin_8*%
%TO.N,Net-(J1-Pin_8)*%
X122000000Y-112295000D03*
%TD*%
D11*
%TO.P,U3,1,~{RST}*%
%TO.N,Net-(J2-Pin_1)*%
X93500000Y-54000000D03*
D12*
%TO.P,U3,2,A0*%
%TO.N,Net-(J2-Pin_2)*%
X93500000Y-56540000D03*
%TO.P,U3,3,D0*%
%TO.N,Net-(J2-Pin_3)*%
X93500000Y-59080000D03*
%TO.P,U3,4,SCK/D5*%
%TO.N,Net-(J2-Pin_4)*%
X93500000Y-61620000D03*
%TO.P,U3,5,MISO/D6*%
%TO.N,Net-(J2-Pin_5)*%
X93500000Y-64160000D03*
%TO.P,U3,6,MOSI/D7*%
%TO.N,Net-(J2-Pin_6)*%
X93500000Y-66700000D03*
%TO.P,U3,7,CS/D8*%
%TO.N,Net-(J2-Pin_7)*%
X93500000Y-69240000D03*
%TO.P,U3,8,3V3*%
%TO.N,Net-(J2-Pin_8)*%
X93500000Y-71780000D03*
%TO.P,U3,9,5V*%
%TO.N,Net-(J1-Pin_8)*%
X116360000Y-71780000D03*
%TO.P,U3,10,GND*%
%TO.N,GND*%
X116360000Y-69240000D03*
%TO.P,U3,11,D4*%
%TO.N,Net-(J1-Pin_6)*%
X116360000Y-66700000D03*
%TO.P,U3,12,D3*%
%TO.N,Net-(J1-Pin_5)*%
X116360000Y-64160000D03*
%TO.P,U3,13,SDA/D2*%
%TO.N,Net-(J1-Pin_4)*%
X116360000Y-61620000D03*
%TO.P,U3,14,SCL/D1*%
%TO.N,Net-(J1-Pin_3)*%
X116360000Y-59080000D03*
%TO.P,U3,15,RX*%
%TO.N,Net-(J1-Pin_2)*%
X116360000Y-56540000D03*
%TO.P,U3,16,TX*%
%TO.N,Net-(J1-Pin_1)*%
X116360000Y-54000000D03*
%TD*%
D11*
%TO.P,U2,1,~{RST}*%
%TO.N,Net-(J2-Pin_1)*%
X131500000Y-94500000D03*
D12*
%TO.P,U2,2,A0*%
%TO.N,Net-(J2-Pin_2)*%
X131500000Y-97040000D03*
%TO.P,U2,3,D0*%
%TO.N,Net-(J2-Pin_3)*%
X131500000Y-99580000D03*
%TO.P,U2,4,SCK/D5*%
%TO.N,Net-(J2-Pin_4)*%
X131500000Y-102120000D03*
%TO.P,U2,5,MISO/D6*%
%TO.N,Net-(J2-Pin_5)*%
X131500000Y-104660000D03*
%TO.P,U2,6,MOSI/D7*%
%TO.N,Net-(J2-Pin_6)*%
X131500000Y-107200000D03*
%TO.P,U2,7,CS/D8*%
%TO.N,Net-(J2-Pin_7)*%
X131500000Y-109740000D03*
%TO.P,U2,8,3V3*%
%TO.N,Net-(J2-Pin_8)*%
X131500000Y-112280000D03*
%TO.P,U2,9,5V*%
%TO.N,Net-(J1-Pin_8)*%
X154360000Y-112280000D03*
%TO.P,U2,10,GND*%
%TO.N,GND*%
X154360000Y-109740000D03*
%TO.P,U2,11,D4*%
%TO.N,Net-(J1-Pin_6)*%
X154360000Y-107200000D03*
%TO.P,U2,12,D3*%
%TO.N,Net-(J1-Pin_5)*%
X154360000Y-104660000D03*
%TO.P,U2,13,SDA/D2*%
%TO.N,Net-(J1-Pin_4)*%
X154360000Y-102120000D03*
%TO.P,U2,14,SCL/D1*%
%TO.N,Net-(J1-Pin_3)*%
X154360000Y-99580000D03*
%TO.P,U2,15,RX*%
%TO.N,Net-(J1-Pin_2)*%
X154360000Y-97040000D03*
%TO.P,U2,16,TX*%
%TO.N,Net-(J1-Pin_1)*%
X154360000Y-94500000D03*
%TD*%
D13*
%TO.P,J5,1,Pin_1*%
%TO.N,Net-(J1-Pin_8)*%
X160500000Y-81371200D03*
D14*
%TO.P,J5,2,Pin_2*%
X160500000Y-83911200D03*
%TO.P,J5,3,Pin_3*%
X160500000Y-86451200D03*
%TO.P,J5,4,Pin_4*%
X160500000Y-88991200D03*
%TO.P,J5,5,Pin_5*%
X160500000Y-91531200D03*
%TD*%
D13*
%TO.P,J7,1,Pin_1*%
%TO.N,GND*%
X160500000Y-48000000D03*
D14*
%TO.P,J7,2,Pin_2*%
X160500000Y-50540000D03*
%TO.P,J7,3,Pin_3*%
X160500000Y-53080000D03*
%TO.P,J7,4,Pin_4*%
X160500000Y-55620000D03*
%TO.P,J7,5,Pin_5*%
X160500000Y-58160000D03*
%TD*%
D17*
%TO.P,J4,1,Pin_1*%
%TO.N,Net-(J1-Pin_1)*%
X174000000Y-36500000D03*
D18*
%TO.P,J4,2,Pin_2*%
%TO.N,Net-(J1-Pin_2)*%
X174000000Y-41500000D03*
%TO.P,J4,3,Pin_3*%
%TO.N,Net-(J1-Pin_3)*%
X174000000Y-46500000D03*
%TO.P,J4,4,Pin_4*%
%TO.N,Net-(J1-Pin_4)*%
X174000000Y-51500000D03*
%TO.P,J4,5,Pin_5*%
%TO.N,Net-(J1-Pin_5)*%
X174000000Y-56500000D03*
%TO.P,J4,6,Pin_6*%
%TO.N,Net-(J1-Pin_6)*%
X174000000Y-61500000D03*
%TO.P,J4,7,Pin_7*%
%TO.N,GND*%
X174000000Y-66500000D03*
%TO.P,J4,8,Pin_8*%
%TO.N,Net-(J1-Pin_8)*%
X174000000Y-71500000D03*
%TD*%
D13*
%TO.P,J6,1,Pin_1*%
%TO.N,Net-(J2-Pin_8)*%
X160500000Y-64685600D03*
D14*
%TO.P,J6,2,Pin_2*%
X160500000Y-67225600D03*
%TO.P,J6,3,Pin_3*%
X160500000Y-69765600D03*
%TO.P,J6,4,Pin_4*%
X160500000Y-72305600D03*
%TO.P,J6,5,Pin_5*%
X160500000Y-74845600D03*
%TD*%
D17*
%TO.P,J3,1,Pin_1*%
%TO.N,Net-(J2-Pin_1)*%
X174000000Y-78500000D03*
D18*
%TO.P,J3,2,Pin_2*%
%TO.N,Net-(J2-Pin_2)*%
X174000000Y-83500000D03*
%TO.P,J3,3,Pin_3*%
%TO.N,Net-(J2-Pin_3)*%
X174000000Y-88500000D03*
%TO.P,J3,4,Pin_4*%
%TO.N,Net-(J2-Pin_4)*%
X174000000Y-93500000D03*
%TO.P,J3,5,Pin_5*%
%TO.N,Net-(J2-Pin_5)*%
X174000000Y-98500000D03*
%TO.P,J3,6,Pin_6*%
%TO.N,Net-(J2-Pin_6)*%
X174000000Y-103500000D03*
%TO.P,J3,7,Pin_7*%
%TO.N,Net-(J2-Pin_7)*%
X174000000Y-108500000D03*
%TO.P,J3,8,Pin_8*%
%TO.N,Net-(J2-Pin_8)*%
X174000000Y-113500000D03*
%TD*%
D19*
%TO.P,D1,1,K*%
%TO.N,GND*%
X156725000Y-30000000D03*
D20*
%TO.P,D1,2,A*%
%TO.N,Net-(D1-A)*%
X159265000Y-30000000D03*
%TD*%
D11*
%TO.P,U1,1,~{RST}*%
%TO.N,Net-(J2-Pin_1)*%
X93500000Y-94500000D03*
D12*
%TO.P,U1,2,A0*%
%TO.N,Net-(J2-Pin_2)*%
X93500000Y-97040000D03*
%TO.P,U1,3,D0*%
%TO.N,Net-(J2-Pin_3)*%
X93500000Y-99580000D03*
%TO.P,U1,4,SCK/D5*%
%TO.N,Net-(J2-Pin_4)*%
X93500000Y-102120000D03*
%TO.P,U1,5,MISO/D6*%
%TO.N,Net-(J2-Pin_5)*%
X93500000Y-104660000D03*
%TO.P,U1,6,MOSI/D7*%
%TO.N,Net-(J2-Pin_6)*%
X93500000Y-107200000D03*
%TO.P,U1,7,CS/D8*%
%TO.N,Net-(J2-Pin_7)*%
X93500000Y-109740000D03*
%TO.P,U1,8,3V3*%
%TO.N,Net-(J2-Pin_8)*%
X93500000Y-112280000D03*
%TO.P,U1,9,5V*%
%TO.N,Net-(J1-Pin_8)*%
X116360000Y-112280000D03*
%TO.P,U1,10,GND*%
%TO.N,GND*%
X116360000Y-109740000D03*
%TO.P,U1,11,D4*%
%TO.N,Net-(J1-Pin_6)*%
X116360000Y-107200000D03*
%TO.P,U1,12,D3*%
%TO.N,Net-(J1-Pin_5)*%
X116360000Y-104660000D03*
%TO.P,U1,13,SDA/D2*%
%TO.N,Net-(J1-Pin_4)*%
X116360000Y-102120000D03*
%TO.P,U1,14,SCL/D1*%
%TO.N,Net-(J1-Pin_3)*%
X116360000Y-99580000D03*
%TO.P,U1,15,RX*%
%TO.N,Net-(J1-Pin_2)*%
X116360000Y-97040000D03*
%TO.P,U1,16,TX*%
%TO.N,Net-(J1-Pin_1)*%
X116360000Y-94500000D03*
%TD*%
D21*
%TO.N,Net-(J2-Pin_3)*%
X156374600Y-100546200D03*
%TD*%
D22*
%TO.N,GND*%
X116360000Y-70341700D02*
X115946900Y-70341700D01*
X115946900Y-70341700D02*
X114224300Y-72064300D01*
X114224300Y-72064300D02*
X114224300Y-106830900D01*
X114224300Y-106830900D02*
X116031700Y-108638300D01*
X116031700Y-108638300D02*
X116360000Y-108638300D01*
X160500000Y-58160000D02*
X160500000Y-59311700D01*
X160500000Y-59311700D02*
X155799800Y-64011900D01*
X155799800Y-64011900D02*
X155799800Y-67026800D01*
X155799800Y-67026800D02*
X154688300Y-68138300D01*
X154688300Y-68138300D02*
X154360000Y-68138300D01*
X160500000Y-55620000D02*
X160500000Y-58160000D01*
X154360000Y-69240000D02*
X154360000Y-68138300D01*
X122000000Y-109755000D02*
X123151700Y-109755000D01*
X123151700Y-109755000D02*
X127238500Y-113841800D01*
X127238500Y-113841800D02*
X150258200Y-113841800D01*
X150258200Y-113841800D02*
X154360000Y-109740000D01*
X116360000Y-109740000D02*
X116360000Y-108638300D01*
X116360000Y-69240000D02*
X116360000Y-70341700D01*
X83000000Y-79000000D02*
X83000000Y-85500000D01*
X160500000Y-50540000D02*
X160500000Y-48000000D01*
X160500000Y-53080000D02*
X160500000Y-50540000D01*
X160500000Y-55620000D02*
X160500000Y-53080000D01*
%TO.N,Net-(D1-A)*%
X159265000Y-30000000D02*
X159265000Y-33925000D01*
X159265000Y-33925000D02*
X158000000Y-35190000D01*
%TO.N,Net-(J1-Pin_3)*%
X154360000Y-99580000D02*
X154360000Y-98478300D01*
X154360000Y-59080000D02*
X154360000Y-60181700D01*
X154360000Y-60181700D02*
X153946900Y-60181700D01*
X153946900Y-60181700D02*
X152213400Y-61915200D01*
X152213400Y-61915200D02*
X152213400Y-88177500D01*
X152213400Y-88177500D02*
X156112700Y-92076800D01*
X156112700Y-92076800D02*
X156112700Y-97053900D01*
X156112700Y-97053900D02*
X154688300Y-98478300D01*
X154688300Y-98478300D02*
X154360000Y-98478300D01*
X116360000Y-60181700D02*
X116773100Y-60181700D01*
X116773100Y-60181700D02*
X118899100Y-62307700D01*
X118899100Y-62307700D02*
X118899100Y-95605300D01*
X118899100Y-95605300D02*
X121737100Y-98443300D01*
X121737100Y-98443300D02*
X122000000Y-98443300D01*
X122000000Y-99595000D02*
X122000000Y-98443300D01*
X116360000Y-59080000D02*
X116360000Y-60181700D01*
%TO.N,Net-(J1-Pin_4)*%
X154360000Y-101018300D02*
X154688300Y-101018300D01*
X154688300Y-101018300D02*
X156532800Y-99173800D01*
X156532800Y-99173800D02*
X156532800Y-81745800D01*
X156532800Y-81745800D02*
X152617300Y-77830300D01*
X152617300Y-77830300D02*
X152617300Y-64051300D01*
X152617300Y-64051300D02*
X153946900Y-62721700D01*
X153946900Y-62721700D02*
X154360000Y-62721700D01*
X118314800Y-99601500D02*
X116898000Y-101018300D01*
X116898000Y-101018300D02*
X116360000Y-101018300D01*
X116360000Y-62721700D02*
X116773100Y-62721700D01*
X116773100Y-62721700D02*
X118489200Y-64437800D01*
X118489200Y-64437800D02*
X118489200Y-99427100D01*
X118489200Y-99427100D02*
X118314800Y-99601500D01*
X120848300Y-102135000D02*
X118314800Y-99601500D01*
X122000000Y-102135000D02*
X120848300Y-102135000D01*
X116360000Y-102120000D02*
X116360000Y-101018300D01*
X116360000Y-61620000D02*
X116360000Y-62721700D01*
X154360000Y-102120000D02*
X154360000Y-101018300D01*
X154360000Y-61620000D02*
X154360000Y-62721700D01*
%TO.N,Net-(J1-Pin_1)*%
X151081200Y-57972700D02*
X151081200Y-90119500D01*
X151081200Y-90119500D02*
X154360000Y-93398300D01*
X154360000Y-55101700D02*
X153952200Y-55101700D01*
X153952200Y-55101700D02*
X151081200Y-57972700D01*
X151081200Y-57972700D02*
X124440700Y-57972700D01*
X124440700Y-57972700D02*
X122000000Y-60413400D01*
X154360000Y-94500000D02*
X154360000Y-93398300D01*
X154360000Y-54000000D02*
X154360000Y-55101700D01*
X122000000Y-60413400D02*
X116688300Y-55101700D01*
X116688300Y-55101700D02*
X116360000Y-55101700D01*
X122000000Y-94515000D02*
X122000000Y-60413400D01*
X116360000Y-54000000D02*
X116360000Y-55101700D01*
%TO.N,Net-(J1-Pin_5)*%
X116360000Y-103558300D02*
X116031700Y-103558300D01*
X116031700Y-103558300D02*
X115049700Y-102576300D01*
X115049700Y-102576300D02*
X115049700Y-92067900D01*
X115049700Y-92067900D02*
X118081000Y-89036600D01*
X118081000Y-89036600D02*
X118081000Y-66569600D01*
X118081000Y-66569600D02*
X116773100Y-65261700D01*
X116773100Y-65261700D02*
X116360000Y-65261700D01*
X116360000Y-104660000D02*
X116360000Y-103558300D01*
X116360000Y-64160000D02*
X116360000Y-65261700D01*
X122000000Y-104675000D02*
X123151700Y-104675000D01*
X123151700Y-104675000D02*
X123151700Y-105754700D01*
X123151700Y-105754700D02*
X130778700Y-113381700D01*
X130778700Y-113381700D02*
X145638300Y-113381700D01*
X145638300Y-113381700D02*
X154360000Y-104660000D01*
%TO.N,Net-(J1-Pin_2)*%
X154360000Y-57641700D02*
X153946900Y-57641700D01*
X153946900Y-57641700D02*
X151809400Y-59779200D01*
X151809400Y-59779200D02*
X151809400Y-88412100D01*
X151809400Y-88412100D02*
X155692600Y-92295300D01*
X155692600Y-92295300D02*
X155692600Y-94934000D01*
X155692600Y-94934000D02*
X154688300Y-95938300D01*
X154688300Y-95938300D02*
X154360000Y-95938300D01*
X116360000Y-56540000D02*
X116360000Y-57641700D01*
X122000000Y-97055000D02*
X122000000Y-95903300D01*
X122000000Y-95903300D02*
X121208200Y-95903300D01*
X121208200Y-95903300D02*
X120848300Y-95543400D01*
X120848300Y-95543400D02*
X120848300Y-61801700D01*
X120848300Y-61801700D02*
X116688300Y-57641700D01*
X116688300Y-57641700D02*
X116360000Y-57641700D01*
X154360000Y-97040000D02*
X154360000Y-95938300D01*
X154360000Y-56540000D02*
X154360000Y-57641700D01*
%TO.N,Net-(J1-Pin_6)*%
X116360000Y-66700000D02*
X116360000Y-67801700D01*
X116360000Y-107200000D02*
X116360000Y-106098300D01*
X116360000Y-106098300D02*
X115946900Y-106098300D01*
X115946900Y-106098300D02*
X114637000Y-104788400D01*
X114637000Y-104788400D02*
X114637000Y-77245300D01*
X114637000Y-77245300D02*
X117669800Y-74212500D01*
X117669800Y-74212500D02*
X117669800Y-68783200D01*
X117669800Y-68783200D02*
X116688300Y-67801700D01*
X116688300Y-67801700D02*
X116360000Y-67801700D01*
X154360000Y-106098300D02*
X154688300Y-106098300D01*
X154688300Y-106098300D02*
X156976300Y-103810300D01*
X156976300Y-103810300D02*
X156976300Y-81482100D01*
X156976300Y-81482100D02*
X153037900Y-77543700D01*
X153037900Y-77543700D02*
X153037900Y-68022100D01*
X153037900Y-68022100D02*
X154360000Y-66700000D01*
X154360000Y-107200000D02*
X154360000Y-106098300D01*
%TO.N,Net-(J1-Pin_8)*%
X160500000Y-91531200D02*
X160500000Y-105366600D01*
X160500000Y-105366600D02*
X154688300Y-111178300D01*
X154688300Y-111178300D02*
X154360000Y-111178300D01*
X160500000Y-88991200D02*
X160500000Y-91531200D01*
X154360000Y-112280000D02*
X154360000Y-111178300D01*
X154360000Y-71780000D02*
X154360000Y-70678300D01*
X158000000Y-42810000D02*
X158000000Y-43911700D01*
X158000000Y-43911700D02*
X158550800Y-43911700D01*
X158550800Y-43911700D02*
X161654800Y-47015700D01*
X161654800Y-47015700D02*
X161654800Y-61245800D01*
X161654800Y-61245800D02*
X158774000Y-64126600D01*
X158774000Y-64126600D02*
X158774000Y-66592600D01*
X158774000Y-66592600D02*
X154688300Y-70678300D01*
X154688300Y-70678300D02*
X154360000Y-70678300D01*
X160500000Y-80219500D02*
X160500000Y-79021700D01*
X160500000Y-79021700D02*
X154360000Y-72881700D01*
X154360000Y-71780000D02*
X154360000Y-72881700D01*
X174000000Y-71500000D02*
X165280500Y-80219500D01*
X165280500Y-80219500D02*
X160500000Y-80219500D01*
X160500000Y-81371200D02*
X160500000Y-80219500D01*
X123151700Y-112295000D02*
X125119200Y-114262500D01*
X125119200Y-114262500D02*
X153479200Y-114262500D01*
X153479200Y-114262500D02*
X154360000Y-113381700D01*
X154360000Y-112280000D02*
X154360000Y-113381700D01*
X122000000Y-112295000D02*
X123151700Y-112295000D01*
X160500000Y-83911200D02*
X160500000Y-81371200D01*
X160500000Y-86451200D02*
X160500000Y-83911200D01*
X160500000Y-88991200D02*
X160500000Y-86451200D01*
%TO.N,Net-(J2-Pin_1)*%
X87500000Y-79000000D02*
X87500000Y-60732200D01*
X87500000Y-60732200D02*
X92930500Y-55301700D01*
X92930500Y-55301700D02*
X93500000Y-55301700D01*
X87500000Y-85500000D02*
X87500000Y-79000000D01*
X93500000Y-54000000D02*
X93500000Y-55301700D01*
X88000000Y-94515000D02*
X88000000Y-93363300D01*
X88000000Y-93363300D02*
X87500000Y-92863300D01*
X87500000Y-92863300D02*
X87500000Y-85500000D01*
%TO.N,Net-(J2-Pin_3)*%
X156374600Y-100546200D02*
X156374600Y-101918600D01*
X156374600Y-101918600D02*
X155058300Y-103234900D01*
X155058300Y-103234900D02*
X130851800Y-103234900D01*
X130851800Y-103234900D02*
X130196000Y-102579100D01*
X130196000Y-102579100D02*
X130196000Y-100884000D01*
X130196000Y-100884000D02*
X131500000Y-99580000D01*
X131500000Y-98478300D02*
X131828300Y-98478300D01*
X131828300Y-98478300D02*
X133205700Y-97100900D01*
X133205700Y-97100900D02*
X133205700Y-66578600D01*
X133205700Y-66578600D02*
X132057100Y-65430000D01*
X132057100Y-65430000D02*
X130930300Y-65430000D01*
X130930300Y-65430000D02*
X130169000Y-64668700D01*
X130169000Y-64668700D02*
X130169000Y-61184400D01*
X130169000Y-61184400D02*
X131171700Y-60181700D01*
X131171700Y-60181700D02*
X131500000Y-60181700D01*
X93500000Y-60181700D02*
X93171700Y-60181700D01*
X93171700Y-60181700D02*
X90965900Y-62387500D01*
X90965900Y-62387500D02*
X90965900Y-95765300D01*
X90965900Y-95765300D02*
X88287900Y-98443300D01*
X88287900Y-98443300D02*
X88000000Y-98443300D01*
X131500000Y-59080000D02*
X131500000Y-60181700D01*
X131500000Y-99580000D02*
X131500000Y-98478300D01*
X93500000Y-59080000D02*
X93500000Y-60181700D01*
X88000000Y-99595000D02*
X88000000Y-98443300D01*
%TO.N,Net-(J2-Pin_2)*%
X88000000Y-95903300D02*
X88791800Y-95903300D01*
X88791800Y-95903300D02*
X89954900Y-94740200D01*
X89954900Y-94740200D02*
X89954900Y-60862500D01*
X89954900Y-60862500D02*
X93175700Y-57641700D01*
X93175700Y-57641700D02*
X93500000Y-57641700D01*
X131500000Y-56540000D02*
X131500000Y-55438300D01*
X93500000Y-57090800D02*
X97740900Y-52849900D01*
X97740900Y-52849900D02*
X127809900Y-52849900D01*
X127809900Y-52849900D02*
X130398300Y-55438300D01*
X130398300Y-55438300D02*
X131500000Y-55438300D01*
X93500000Y-57090800D02*
X93500000Y-57641700D01*
X93500000Y-56540000D02*
X93500000Y-57090800D01*
X88000000Y-97055000D02*
X88000000Y-95903300D01*
%TO.N,Net-(J2-Pin_5)*%
X93500000Y-64160000D02*
X93500000Y-65261700D01*
X93500000Y-104660000D02*
X93500000Y-103558300D01*
X93500000Y-103558300D02*
X93822400Y-103558300D01*
X93822400Y-103558300D02*
X94802600Y-102578100D01*
X94802600Y-102578100D02*
X94802600Y-77753600D01*
X94802600Y-77753600D02*
X91769300Y-74720300D01*
X91769300Y-74720300D02*
X91769300Y-66664100D01*
X91769300Y-66664100D02*
X93171700Y-65261700D01*
X93171700Y-65261700D02*
X93500000Y-65261700D01*
%TO.N,Net-(J2-Pin_7)*%
X131500000Y-70341700D02*
X131828300Y-70341700D01*
X131828300Y-70341700D02*
X132804000Y-71317400D01*
X132804000Y-71317400D02*
X132804000Y-73096700D01*
X132804000Y-73096700D02*
X129790500Y-76110200D01*
X129790500Y-76110200D02*
X129790500Y-107341900D01*
X129790500Y-107341900D02*
X131086900Y-108638300D01*
X131086900Y-108638300D02*
X131500000Y-108638300D01*
X131500000Y-69240000D02*
X131500000Y-70341700D01*
X131500000Y-109740000D02*
X131500000Y-108638300D01*
X93500000Y-108638300D02*
X93867900Y-108638300D01*
X93867900Y-108638300D02*
X95606000Y-106900200D01*
X95606000Y-106900200D02*
X95606000Y-72119400D01*
X95606000Y-72119400D02*
X93828300Y-70341700D01*
X93828300Y-70341700D02*
X93500000Y-70341700D01*
X93500000Y-69240000D02*
X93500000Y-70341700D01*
X93500000Y-109740000D02*
X93500000Y-108638300D01*
%TO.N,Net-(J2-Pin_6)*%
X93500000Y-106098300D02*
X93867900Y-106098300D01*
X93867900Y-106098300D02*
X95204300Y-104761900D01*
X95204300Y-104761900D02*
X95204300Y-76684800D01*
X95204300Y-76684800D02*
X92197100Y-73677600D01*
X92197100Y-73677600D02*
X92197100Y-68776300D01*
X92197100Y-68776300D02*
X93171700Y-67801700D01*
X93171700Y-67801700D02*
X93500000Y-67801700D01*
X93500000Y-66700000D02*
X93500000Y-67801700D01*
X93500000Y-107200000D02*
X93500000Y-106098300D01*
%TO.N,Net-(J2-Pin_8)*%
X131500000Y-72881700D02*
X129388800Y-74992900D01*
X129388800Y-74992900D02*
X129388800Y-109480200D01*
X129388800Y-109480200D02*
X131086900Y-111178300D01*
X131086900Y-111178300D02*
X131500000Y-111178300D01*
X131500000Y-71780000D02*
X131500000Y-72881700D01*
X131500000Y-112280000D02*
X131500000Y-111178300D01*
X160500000Y-67225600D02*
X160500000Y-64685600D01*
X160500000Y-69765600D02*
X160500000Y-67225600D01*
X160500000Y-72305600D02*
X160500000Y-69765600D01*
X160500000Y-74845600D02*
X160500000Y-72305600D01*
%TO.N,Net-(J2-Pin_4)*%
X131500000Y-101018300D02*
X131910300Y-101018300D01*
X131910300Y-101018300D02*
X133607400Y-99321200D01*
X133607400Y-99321200D02*
X133607400Y-64500800D01*
X133607400Y-64500800D02*
X131828300Y-62721700D01*
X131828300Y-62721700D02*
X131500000Y-62721700D01*
X91367600Y-100781600D02*
X90505100Y-100781600D01*
X90505100Y-100781600D02*
X89151700Y-102135000D01*
X93500000Y-101018300D02*
X93263300Y-100781600D01*
X93263300Y-100781600D02*
X91367600Y-100781600D01*
X93500000Y-62721700D02*
X93171700Y-62721700D01*
X93171700Y-62721700D02*
X91367600Y-64525800D01*
X91367600Y-64525800D02*
X91367600Y-100781600D01*
X88000000Y-102135000D02*
X89151700Y-102135000D01*
X93500000Y-61620000D02*
X93500000Y-62721700D01*
X93500000Y-102120000D02*
X93500000Y-101018300D01*
X131500000Y-61620000D02*
X131500000Y-62721700D01*
X131500000Y-102120000D02*
X131500000Y-101018300D01*
%TD*%
%TA.AperFunction,Conductor*%
%TO.N,GND*%
G36*
X123542572Y-106997010D02*
G01*
X123557528Y-107009763D01*
X129998084Y-113450319D01*
X130031569Y-113511642D01*
X130026585Y-113581334D01*
X129984713Y-113637267D01*
X129919249Y-113661684D01*
X129910403Y-113662000D01*
X125419297Y-113662000D01*
X125352258Y-113642315D01*
X125331616Y-113625681D01*
X123639290Y-111933355D01*
X123639288Y-111933352D01*
X123520417Y-111814481D01*
X123520416Y-111814480D01*
X123433604Y-111764360D01*
X123433604Y-111764359D01*
X123433600Y-111764358D01*
X123416112Y-111754260D01*
X123383486Y-111735423D01*
X123262994Y-111703137D01*
X123203334Y-111666771D01*
X123182708Y-111635768D01*
X123174038Y-111617176D01*
X123174034Y-111617169D01*
X123038494Y-111423597D01*
X122871402Y-111256506D01*
X122871401Y-111256505D01*
X122685405Y-111126269D01*
X122641781Y-111071692D01*
X122634588Y-111002193D01*
X122666110Y-110939839D01*
X122685405Y-110923119D01*
X122871082Y-110793105D01*
X123038105Y-110626082D01*
X123173600Y-110432578D01*
X123273429Y-110218492D01*
X123273432Y-110218486D01*
X123330636Y-110005000D01*
X122433012Y-110005000D01*
X122465925Y-109947993D01*
X122500000Y-109820826D01*
X122500000Y-109689174D01*
X122465925Y-109562007D01*
X122433012Y-109505000D01*
X123330636Y-109505000D01*
X123330635Y-109504999D01*
X123273432Y-109291513D01*
X123273429Y-109291507D01*
X123173600Y-109077422D01*
X123173599Y-109077420D01*
X123038113Y-108883926D01*
X123038108Y-108883920D01*
X122871078Y-108716890D01*
X122685405Y-108586879D01*
X122641780Y-108532302D01*
X122634588Y-108462804D01*
X122666110Y-108400449D01*
X122685406Y-108383730D01*
X122719589Y-108359795D01*
X122871401Y-108253495D01*
X123038495Y-108086401D01*
X123174035Y-107892830D01*
X123273903Y-107678663D01*
X123335063Y-107450408D01*
X123355659Y-107215000D01*
X123346319Y-107108250D01*
X123360085Y-107039752D01*
X123408700Y-106989569D01*
X123476729Y-106973635D01*
X123542572Y-106997010D01*
G37*
%TD.AperFunction*%
%TA.AperFunction,Conductor*%
G36*
X152778970Y-107192777D02*
G01*
X152834903Y-107234649D01*
X152858627Y-107297557D01*
X152858738Y-107297540D01*
X152858822Y-107298076D01*
X152859252Y-107299214D01*
X152859498Y-107302342D01*
X152891522Y-107504534D01*
X152954781Y-107699223D01*
X153047715Y-107881613D01*
X153168028Y-108047213D01*
X153312786Y-108191971D01*
X153467749Y-108304556D01*
X153478390Y-108312287D01*
X153550424Y-108348990D01*
X153571629Y-108359795D01*
X153622425Y-108407770D01*
X153639220Y-108475591D01*
X153616682Y-108541726D01*
X153571629Y-108580765D01*
X153478650Y-108628140D01*
X153313105Y-108748417D01*
X153313104Y-108748417D01*
X153168417Y-108893104D01*
X153168417Y-108893105D01*
X153048140Y-109058650D01*
X152955244Y-109240970D01*
X152892009Y-109435586D01*
X152883391Y-109490000D01*
X153926988Y-109490000D01*
X153894075Y-109547007D01*
X153860000Y-109674174D01*
X153860000Y-109805826D01*
X153894075Y-109932993D01*
X153926988Y-109990000D01*
X152883391Y-109990000D01*
X152892009Y-110044413D01*
X152955244Y-110239029D01*
X153048140Y-110421349D01*
X153168417Y-110586894D01*
X153168417Y-110586895D01*
X153313104Y-110731582D01*
X153478652Y-110851861D01*
X153571628Y-110899234D01*
X153622425Y-110947208D01*
X153639220Y-111015029D01*
X153616683Y-111081164D01*
X153571630Y-111120203D01*
X153478388Y-111167713D01*
X153312786Y-111288028D01*
X153168028Y-111432786D01*
X153047715Y-111598386D01*
X152954781Y-111780776D01*
X152891522Y-111975465D01*
X152859500Y-112177648D01*
X152859500Y-112382351D01*
X152891522Y-112584534D01*
X152954781Y-112779223D01*
X153047715Y-112961613D01*
X153168028Y-113127213D01*
X153312782Y-113271967D01*
X153312787Y-113271971D01*
X153373550Y-113316118D01*
X153416216Y-113371448D01*
X153422195Y-113441061D01*
X153389590Y-113502856D01*
X153388347Y-113504117D01*
X153266782Y-113625682D01*
X153205462Y-113659166D01*
X153179103Y-113662000D01*
X146506597Y-113662000D01*
X146439558Y-113642315D01*
X146393803Y-113589511D01*
X146383859Y-113520353D01*
X146412884Y-113456797D01*
X146418916Y-113450319D01*
X147942951Y-111926284D01*
X152647957Y-107221276D01*
X152709278Y-107187793D01*
X152778970Y-107192777D01*
G37*
%TD.AperFunction*%
%TA.AperFunction,Conductor*%
G36*
X160750000Y-57726988D02*
G01*
X160692993Y-57694075D01*
X160565826Y-57660000D01*
X160434174Y-57660000D01*
X160307007Y-57694075D01*
X160250000Y-57726988D01*
X160250000Y-56053012D01*
X160307007Y-56085925D01*
X160434174Y-56120000D01*
X160565826Y-56120000D01*
X160692993Y-56085925D01*
X160750000Y-56053012D01*
X160750000Y-57726988D01*
G37*
%TD.AperFunction*%
%TA.AperFunction,Conductor*%
G36*
X160750000Y-55186988D02*
G01*
X160692993Y-55154075D01*
X160565826Y-55120000D01*
X160434174Y-55120000D01*
X160307007Y-55154075D01*
X160250000Y-55186988D01*
X160250000Y-53513012D01*
X160307007Y-53545925D01*
X160434174Y-53580000D01*
X160565826Y-53580000D01*
X160692993Y-53545925D01*
X160750000Y-53513012D01*
X160750000Y-55186988D01*
G37*
%TD.AperFunction*%
%TA.AperFunction,Conductor*%
G36*
X160750000Y-52646988D02*
G01*
X160692993Y-52614075D01*
X160565826Y-52580000D01*
X160434174Y-52580000D01*
X160307007Y-52614075D01*
X160250000Y-52646988D01*
X160250000Y-50973012D01*
X160307007Y-51005925D01*
X160434174Y-51040000D01*
X160565826Y-51040000D01*
X160692993Y-51005925D01*
X160750000Y-50973012D01*
X160750000Y-52646988D01*
G37*
%TD.AperFunction*%
%TA.AperFunction,Conductor*%
G36*
X160750000Y-50106988D02*
G01*
X160692993Y-50074075D01*
X160565826Y-50040000D01*
X160434174Y-50040000D01*
X160307007Y-50074075D01*
X160250000Y-50106988D01*
X160250000Y-48433012D01*
X160307007Y-48465925D01*
X160434174Y-48500000D01*
X160565826Y-48500000D01*
X160692993Y-48465925D01*
X160750000Y-48433012D01*
X160750000Y-50106988D01*
G37*
%TD.AperFunction*%
%TA.AperFunction,Conductor*%
G36*
X178442539Y-26020185D02*
G01*
X178488294Y-26072989D01*
X178499500Y-26124500D01*
X178499500Y-122875500D01*
X178479815Y-122942539D01*
X178427011Y-122988294D01*
X178375500Y-122999500D01*
X80624500Y-122999500D01*
X80557461Y-122979815D01*
X80511706Y-122927011D01*
X80500500Y-122875500D01*
X80500500Y-85499994D01*
X81494859Y-85499994D01*
X81494859Y-85500005D01*
X81515385Y-85747729D01*
X81515387Y-85747738D01*
X81576412Y-85988717D01*
X81676266Y-86216364D01*
X81776564Y-86369882D01*
X82476212Y-85670234D01*
X82487482Y-85712292D01*
X82559890Y-85837708D01*
X82662292Y-85940110D01*
X82787708Y-86012518D01*
X82829765Y-86023787D01*
X82129942Y-86723609D01*
X82176768Y-86760055D01*
X82176770Y-86760056D01*
X82395385Y-86878364D01*
X82395396Y-86878369D01*
X82630506Y-86959083D01*
X82875707Y-87000000D01*
X83124293Y-87000000D01*
X83369493Y-86959083D01*
X83604603Y-86878369D01*
X83604614Y-86878364D01*
X83823228Y-86760057D01*
X83823231Y-86760055D01*
X83870056Y-86723609D01*
X83170234Y-86023787D01*
X83212292Y-86012518D01*
X83337708Y-85940110D01*
X83440110Y-85837708D01*
X83512518Y-85712292D01*
X83523787Y-85670235D01*
X84223434Y-86369882D01*
X84323731Y-86216369D01*
X84423587Y-85988717D01*
X84484612Y-85747738D01*
X84484614Y-85747729D01*
X84505141Y-85500005D01*
X84505141Y-85499994D01*
X84484614Y-85252270D01*
X84484612Y-85252261D01*
X84423587Y-85011282D01*
X84323731Y-84783630D01*
X84223434Y-84630116D01*
X83523787Y-85329764D01*
X83512518Y-85287708D01*
X83440110Y-85162292D01*
X83337708Y-85059890D01*
X83212292Y-84987482D01*
X83170235Y-84976212D01*
X83870057Y-84276390D01*
X83870056Y-84276389D01*
X83823229Y-84239943D01*
X83604614Y-84121635D01*
X83604603Y-84121630D01*
X83369493Y-84040916D01*
X83124293Y-84000000D01*
X82875707Y-84000000D01*
X82630506Y-84040916D01*
X82395396Y-84121630D01*
X82395390Y-84121632D01*
X82176761Y-84239949D01*
X82129942Y-84276388D01*
X82129942Y-84276390D01*
X82829765Y-84976212D01*
X82787708Y-84987482D01*
X82662292Y-85059890D01*
X82559890Y-85162292D01*
X82487482Y-85287708D01*
X82476212Y-85329764D01*
X81776564Y-84630116D01*
X81676267Y-84783632D01*
X81576412Y-85011282D01*
X81515387Y-85252261D01*
X81515385Y-85252270D01*
X81494859Y-85499994D01*
X80500500Y-85499994D01*
X80500500Y-78999994D01*
X81494859Y-78999994D01*
X81494859Y-79000005D01*
X81515385Y-79247729D01*
X81515387Y-79247738D01*
X81576412Y-79488717D01*
X81676266Y-79716364D01*
X81776564Y-79869882D01*
X82476212Y-79170234D01*
X82487482Y-79212292D01*
X82559890Y-79337708D01*
X82662292Y-79440110D01*
X82787708Y-79512518D01*
X82829765Y-79523787D01*
X82129942Y-80223609D01*
X82176768Y-80260055D01*
X82176770Y-80260056D01*
X82395385Y-80378364D01*
X82395396Y-80378369D01*
X82630506Y-80459083D01*
X82875707Y-80500000D01*
X83124293Y-80500000D01*
X83369493Y-80459083D01*
X83604603Y-80378369D01*
X83604614Y-80378364D01*
X83823228Y-80260057D01*
X83823231Y-80260055D01*
X83870056Y-80223609D01*
X83170234Y-79523787D01*
X83212292Y-79512518D01*
X83337708Y-79440110D01*
X83440110Y-79337708D01*
X83512518Y-79212292D01*
X83523787Y-79170235D01*
X84223434Y-79869882D01*
X84323731Y-79716369D01*
X84423587Y-79488717D01*
X84484612Y-79247738D01*
X84484614Y-79247729D01*
X84505141Y-79000005D01*
X84505141Y-78999994D01*
X85994357Y-78999994D01*
X85994357Y-79000005D01*
X86014890Y-79247812D01*
X86014892Y-79247824D01*
X86075936Y-79488881D01*
X86175826Y-79716606D01*
X86311833Y-79924782D01*
X86311836Y-79924785D01*
X86480256Y-80107738D01*
X86676491Y-80260474D01*
X86676494Y-80260476D01*
X86676496Y-80260477D01*
X86742609Y-80296255D01*
X86834517Y-80345993D01*
X86884108Y-80395212D01*
X86899500Y-80455048D01*
X86899500Y-84044951D01*
X86879815Y-84111990D01*
X86834518Y-84154006D01*
X86676493Y-84239524D01*
X86480257Y-84392261D01*
X86311833Y-84575217D01*
X86175826Y-84783393D01*
X86075936Y-85011118D01*
X86014892Y-85252175D01*
X86014890Y-85252187D01*
X85994357Y-85499994D01*
X85994357Y-85500005D01*
X86014890Y-85747812D01*
X86014892Y-85747824D01*
X86075936Y-85988881D01*
X86175826Y-86216606D01*
X86311833Y-86424782D01*
X86311836Y-86424785D01*
X86480256Y-86607738D01*
X86676491Y-86760474D01*
X86676494Y-86760476D01*
X86676496Y-86760477D01*
X86728474Y-86788606D01*
X86834517Y-86845993D01*
X86884108Y-86895212D01*
X86899500Y-86955048D01*
X86899500Y-92776630D01*
X86899499Y-92776648D01*
X86899499Y-92942354D01*
X86899498Y-92942354D01*
X86899499Y-92942357D01*
X86939599Y-93092011D01*
X86941377Y-93098644D01*
X86939714Y-93168494D01*
X86900552Y-93226357D01*
X86895924Y-93229995D01*
X86792454Y-93307454D01*
X86792453Y-93307455D01*
X86792452Y-93307456D01*
X86706206Y-93422664D01*
X86706202Y-93422671D01*
X86655908Y-93557517D01*
X86649501Y-93617116D01*
X86649501Y-93617123D01*
X86649500Y-93617135D01*
X86649500Y-95412870D01*
X86649501Y-95412876D01*
X86655908Y-95472483D01*
X86706202Y-95607328D01*
X86706206Y-95607335D01*
X86792452Y-95722544D01*
X86792455Y-95722547D01*
X86907664Y-95808793D01*
X86907671Y-95808797D01*
X87039081Y-95857810D01*
X87095015Y-95899681D01*
X87119432Y-95965145D01*
X87104580Y-96033418D01*
X87083430Y-96061673D01*
X86961503Y-96183600D01*
X86825965Y-96377169D01*
X86825964Y-96377171D01*
X86726098Y-96591335D01*
X86726094Y-96591344D01*
X86664938Y-96819586D01*
X86664936Y-96819596D01*
X86644341Y-97054999D01*
X86644341Y-97055000D01*
X86664936Y-97290403D01*
X86664938Y-97290413D01*
X86726094Y-97518655D01*
X86726096Y-97518659D01*
X86726097Y-97518663D01*
X86800506Y-97678233D01*
X86825965Y-97732830D01*
X86825967Y-97732834D01*
X86961501Y-97926395D01*
X86961506Y-97926402D01*
X87128597Y-98093493D01*
X87128603Y-98093498D01*
X87314158Y-98223425D01*
X87357783Y-98278002D01*
X87364977Y-98347500D01*
X87333454Y-98409855D01*
X87314158Y-98426575D01*
X87128597Y-98556505D01*
X86961505Y-98723597D01*
X86825965Y-98917169D01*
X86825964Y-98917171D01*
X86726098Y-99131335D01*
X86726094Y-99131344D01*
X86664938Y-99359586D01*
X86664936Y-99359596D01*
X86644341Y-99594995D01*
X86644341Y-99595000D01*
X86664936Y-99830403D01*
X86664938Y-99830413D01*
X86726094Y-100058655D01*
X86726096Y-100058659D01*
X86726097Y-100058663D01*
X86797317Y-100211394D01*
X86825965Y-100272830D01*
X86825967Y-100272834D01*
X86961501Y-100466395D01*
X86961506Y-100466402D01*
X87128597Y-100633493D01*
X87128603Y-100633498D01*
X87314158Y-100763425D01*
X87357783Y-100818002D01*
X87364977Y-100887500D01*
X87333454Y-100949855D01*
X87314158Y-100966575D01*
X87128597Y-101096505D01*
X86961505Y-101263597D01*
X86825965Y-101457169D01*
X86825964Y-101457171D01*
X86726098Y-101671335D01*
X86726094Y-101671344D01*
X86664938Y-101899586D01*
X86664936Y-101899596D01*
X86644341Y-102134999D01*
X86644341Y-102135000D01*
X86664936Y-102370403D01*
X86664938Y-102370413D01*
X86726094Y-102598655D01*
X86726096Y-102598659D01*
X86726097Y-102598663D01*
X86789906Y-102735501D01*
X86825965Y-102812830D01*
X86825967Y-102812834D01*
X86918392Y-102944830D01*
X86951201Y-102991686D01*
X86961501Y-103006395D01*
X86961506Y-103006402D01*
X87128597Y-103173493D01*
X87128603Y-103173498D01*
X87314158Y-103303425D01*
X87357783Y-103358002D01*
X87364977Y-103427500D01*
X87333454Y-103489855D01*
X87314158Y-103506575D01*
X87128597Y-103636505D01*
X86961505Y-103803597D01*
X86825965Y-103997169D01*
X86825964Y-103997171D01*
X86726098Y-104211335D01*
X86726094Y-104211344D01*
X86664938Y-104439586D01*
X86664936Y-104439596D01*
X86644341Y-104674999D01*
X86644341Y-104675000D01*
X86664936Y-104910403D01*
X86664938Y-104910413D01*
X86726094Y-105138655D01*
X86726096Y-105138659D01*
X86726097Y-105138663D01*
X86795519Y-105287539D01*
X86825965Y-105352830D01*
X86825967Y-105352834D01*
X86961501Y-105546395D01*
X86961506Y-105546402D01*
X87128597Y-105713493D01*
X87128603Y-105713498D01*
X87314158Y-105843425D01*
X87357783Y-105898002D01*
X87364977Y-105967500D01*
X87333454Y-106029855D01*
X87314158Y-106046575D01*
X87128597Y-106176505D01*
X86961505Y-106343597D01*
X86825965Y-106537169D01*
X86825964Y-106537171D01*
X86726098Y-106751335D01*
X86726094Y-106751344D01*
X86664938Y-106979586D01*
X86664936Y-106979596D01*
X86644341Y-107214999D01*
X86644341Y-107215000D01*
X86664936Y-107450403D01*
X86664938Y-107450413D01*
X86726094Y-107678655D01*
X86726096Y-107678659D01*
X86726097Y-107678663D01*
X86753933Y-107738357D01*
X86825965Y-107892830D01*
X86825967Y-107892834D01*
X86961501Y-108086395D01*
X86961506Y-108086402D01*
X87128597Y-108253493D01*
X87128603Y-108253498D01*
X87314158Y-108383425D01*
X87357783Y-108438002D01*
X87364977Y-108507500D01*
X87333454Y-108569855D01*
X87314158Y-108586575D01*
X87128597Y-108716505D01*
X86961505Y-108883597D01*
X86825965Y-109077169D01*
X86825964Y-109077171D01*
X86726098Y-109291335D01*
X86726094Y-109291344D01*
X86664938Y-109519586D01*
X86664936Y-109519596D01*
X86644341Y-109754999D01*
X86644341Y-109755000D01*
X86664936Y-109990403D01*
X86664938Y-109990413D01*
X86726094Y-110218655D01*
X86726096Y-110218659D01*
X86726097Y-110218663D01*
X86820611Y-110421349D01*
X86825965Y-110432830D01*
X86825967Y-110432834D01*
X86961501Y-110626395D01*
X86961506Y-110626402D01*
X87128597Y-110793493D01*
X87128603Y-110793498D01*
X87314158Y-110923425D01*
X87357783Y-110978002D01*
X87364977Y-111047500D01*
X87333454Y-111109855D01*
X87314158Y-111126575D01*
X87128597Y-111256505D01*
X86961505Y-111423597D01*
X86825965Y-111617169D01*
X86825964Y-111617171D01*
X86726098Y-111831335D01*
X86726094Y-111831344D01*
X86664938Y-112059586D01*
X86664936Y-112059596D01*
X86644341Y-112294999D01*
X86644341Y-112295000D01*
X86664936Y-112530403D01*
X86664938Y-112530413D01*
X86726094Y-112758655D01*
X86726096Y-112758659D01*
X86726097Y-112758663D01*
X86820733Y-112961610D01*
X86825965Y-112972830D01*
X86825967Y-112972834D01*
X86905754Y-113086780D01*
X86961505Y-113166401D01*
X87128599Y-113333495D01*
X87212558Y-113392284D01*
X87322165Y-113469032D01*
X87322167Y-113469033D01*
X87322170Y-113469035D01*
X87536337Y-113568903D01*
X87764592Y-113630063D01*
X87952918Y-113646539D01*
X87999999Y-113650659D01*
X88000000Y-113650659D01*
X88000001Y-113650659D01*
X88039234Y-113647226D01*
X88235408Y-113630063D01*
X88463663Y-113568903D01*
X88677830Y-113469035D01*
X88871401Y-113333495D01*
X89038495Y-113166401D01*
X89174035Y-112972830D01*
X89273903Y-112758663D01*
X89335063Y-112530408D01*
X89355659Y-112295000D01*
X89335063Y-112059592D01*
X89273903Y-111831337D01*
X89174035Y-111617171D01*
X89160885Y-111598390D01*
X89038494Y-111423597D01*
X88871402Y-111256506D01*
X88871396Y-111256501D01*
X88685842Y-111126575D01*
X88642217Y-111071998D01*
X88635023Y-111002500D01*
X88666546Y-110940145D01*
X88685842Y-110923425D01*
X88787437Y-110852287D01*
X88871401Y-110793495D01*
X89038495Y-110626401D01*
X89174035Y-110432830D01*
X89273903Y-110218663D01*
X89335063Y-109990408D01*
X89355659Y-109755000D01*
X89335063Y-109519592D01*
X89273903Y-109291337D01*
X89174035Y-109077171D01*
X89165793Y-109065399D01*
X89038494Y-108883597D01*
X88871402Y-108716506D01*
X88871396Y-108716501D01*
X88685842Y-108586575D01*
X88642217Y-108531998D01*
X88635023Y-108462500D01*
X88666546Y-108400145D01*
X88685842Y-108383425D01*
X88787437Y-108312287D01*
X88871401Y-108253495D01*
X89038495Y-108086401D01*
X89174035Y-107892830D01*
X89273903Y-107678663D01*
X89335063Y-107450408D01*
X89355659Y-107215000D01*
X89335063Y-106979592D01*
X89273903Y-106751337D01*
X89174035Y-106537171D01*
X89165814Y-106525429D01*
X89038494Y-106343597D01*
X88871402Y-106176506D01*
X88871396Y-106176501D01*
X88685842Y-106046575D01*
X88642217Y-105991998D01*
X88635023Y-105922500D01*
X88666546Y-105860145D01*
X88685842Y-105843425D01*
X88719989Y-105819515D01*
X88871401Y-105713495D01*
X89038495Y-105546401D01*
X89174035Y-105352830D01*
X89273903Y-105138663D01*
X89335063Y-104910408D01*
X89355659Y-104675000D01*
X89335063Y-104439592D01*
X89273903Y-104211337D01*
X89174035Y-103997171D01*
X89174034Y-103997169D01*
X89038494Y-103803597D01*
X88871402Y-103636506D01*
X88871396Y-103636501D01*
X88685842Y-103506575D01*
X88642217Y-103451998D01*
X88635023Y-103382500D01*
X88666546Y-103320145D01*
X88685842Y-103303425D01*
X88787437Y-103232287D01*
X88871401Y-103173495D01*
X89038495Y-103006401D01*
X89174035Y-102812830D01*
X89182707Y-102794233D01*
X89228879Y-102741793D01*
X89262990Y-102726863D01*
X89383485Y-102694577D01*
X89448298Y-102657157D01*
X89520416Y-102615520D01*
X89632220Y-102503716D01*
X89632220Y-102503714D01*
X89642424Y-102493511D01*
X89642427Y-102493506D01*
X90717517Y-101418419D01*
X90778840Y-101384934D01*
X90805198Y-101382100D01*
X91288543Y-101382100D01*
X91446657Y-101382100D01*
X92014044Y-101382100D01*
X92081083Y-101401785D01*
X92126838Y-101454589D01*
X92136782Y-101523747D01*
X92124529Y-101562395D01*
X92094781Y-101620776D01*
X92031522Y-101815465D01*
X91999500Y-102017648D01*
X91999500Y-102222351D01*
X92031522Y-102424534D01*
X92094781Y-102619223D01*
X92149626Y-102726860D01*
X92183954Y-102794233D01*
X92187715Y-102801613D01*
X92308028Y-102967213D01*
X92452786Y-103111971D01*
X92607749Y-103224556D01*
X92618390Y-103232287D01*
X92709840Y-103278883D01*
X92711080Y-103279515D01*
X92761876Y-103327490D01*
X92778671Y-103395311D01*
X92756134Y-103461446D01*
X92711080Y-103500485D01*
X92618386Y-103547715D01*
X92452786Y-103668028D01*
X92308028Y-103812786D01*
X92187715Y-103978386D01*
X92094781Y-104160776D01*
X92031522Y-104355465D01*
X91999500Y-104557648D01*
X91999500Y-104762351D01*
X92031522Y-104964534D01*
X92094781Y-105159223D01*
X92187715Y-105341613D01*
X92308028Y-105507213D01*
X92452786Y-105651971D01*
X92607749Y-105764556D01*
X92618390Y-105772287D01*
X92709840Y-105818883D01*
X92711080Y-105819515D01*
X92761876Y-105867490D01*
X92778671Y-105935311D01*
X92756134Y-106001446D01*
X92711080Y-106040485D01*
X92618386Y-106087715D01*
X92452786Y-106208028D01*
X92308028Y-106352786D01*
X92187715Y-106518386D01*
X92094781Y-106700776D01*
X92031522Y-106895465D01*
X91999500Y-107097648D01*
X91999500Y-107302351D01*
X92031522Y-107504534D01*
X92094781Y-107699223D01*
X92187715Y-107881613D01*
X92308028Y-108047213D01*
X92452786Y-108191971D01*
X92607749Y-108304556D01*
X92618390Y-108312287D01*
X92709840Y-108358883D01*
X92711080Y-108359515D01*
X92761876Y-108407490D01*
X92778671Y-108475311D01*
X92756134Y-108541446D01*
X92711080Y-108580485D01*
X92618386Y-108627715D01*
X92452786Y-108748028D01*
X92308028Y-108892786D01*
X92187715Y-109058386D01*
X92094781Y-109240776D01*
X92031522Y-109435465D01*
X91999500Y-109637648D01*
X91999500Y-109842351D01*
X92031522Y-110044534D01*
X92094781Y-110239223D01*
X92187715Y-110421613D01*
X92308028Y-110587213D01*
X92452786Y-110731971D01*
X92607749Y-110844556D01*
X92618390Y-110852287D01*
X92709840Y-110898883D01*
X92711080Y-110899515D01*
X92761876Y-110947490D01*
X92778671Y-111015311D01*
X92756134Y-111081446D01*
X92711080Y-111120485D01*
X92618386Y-111167715D01*
X92452786Y-111288028D01*
X92308028Y-111432786D01*
X92187715Y-111598386D01*
X92094781Y-111780776D01*
X92031522Y-111975465D01*
X91999500Y-112177648D01*
X91999500Y-112382351D01*
X92031522Y-112584534D01*
X92094781Y-112779223D01*
X92187715Y-112961613D01*
X92308028Y-113127213D01*
X92452786Y-113271971D01*
X92589707Y-113371448D01*
X92618390Y-113392287D01*
X92732284Y-113450319D01*
X92800776Y-113485218D01*
X92800778Y-113485218D01*
X92800781Y-113485220D01*
X92858940Y-113504117D01*
X92995465Y-113548477D01*
X93096557Y-113564488D01*
X93197648Y-113580500D01*
X93197649Y-113580500D01*
X93802351Y-113580500D01*
X93802352Y-113580500D01*
X94004534Y-113548477D01*
X94199219Y-113485220D01*
X94381610Y-113392287D01*
X94474590Y-113324732D01*
X94547213Y-113271971D01*
X94547215Y-113271968D01*
X94547219Y-113271966D01*
X94691966Y-113127219D01*
X94691968Y-113127215D01*
X94691971Y-113127213D01*
X94797039Y-112982597D01*
X94812287Y-112961610D01*
X94905220Y-112779219D01*
X94968477Y-112584534D01*
X95000500Y-112382352D01*
X95000500Y-112177648D01*
X94981802Y-112059596D01*
X94968477Y-111975465D01*
X94921649Y-111831344D01*
X94905220Y-111780781D01*
X94905218Y-111780778D01*
X94905218Y-111780776D01*
X94847129Y-111666771D01*
X94812287Y-111598390D01*
X94804556Y-111587749D01*
X94691971Y-111432786D01*
X94547213Y-111288028D01*
X94381614Y-111167715D01*
X94375006Y-111164348D01*
X94288917Y-111120483D01*
X94238123Y-111072511D01*
X94221328Y-111004690D01*
X94243865Y-110938555D01*
X94288917Y-110899516D01*
X94381610Y-110852287D01*
X94463068Y-110793105D01*
X94547213Y-110731971D01*
X94547215Y-110731968D01*
X94547219Y-110731966D01*
X94691966Y-110587219D01*
X94691968Y-110587215D01*
X94691971Y-110587213D01*
X94804318Y-110432578D01*
X94812287Y-110421610D01*
X94905220Y-110239219D01*
X94968477Y-110044534D01*
X95000500Y-109842352D01*
X95000500Y-109637648D01*
X94988596Y-109562489D01*
X94968477Y-109435465D01*
X94921649Y-109291344D01*
X94905220Y-109240781D01*
X94905218Y-109240778D01*
X94905218Y-109240776D01*
X94871503Y-109174607D01*
X94812287Y-109058390D01*
X94753833Y-108977934D01*
X94691971Y-108892786D01*
X94664991Y-108865806D01*
X94631506Y-108804483D01*
X94636490Y-108734791D01*
X94664991Y-108690444D01*
X95308222Y-108047213D01*
X96086520Y-107268916D01*
X96165577Y-107131984D01*
X96206501Y-106979257D01*
X96206501Y-106821142D01*
X96206501Y-106813547D01*
X96206500Y-106813529D01*
X96206500Y-72040343D01*
X96199378Y-72013765D01*
X96178778Y-71936884D01*
X96165577Y-71887616D01*
X96165576Y-71887613D01*
X96086524Y-71750690D01*
X96086521Y-71750686D01*
X96086520Y-71750684D01*
X95974716Y-71638880D01*
X95974715Y-71638879D01*
X95970385Y-71634549D01*
X95970374Y-71634539D01*
X94645191Y-70309356D01*
X94611706Y-70248033D01*
X94616690Y-70178341D01*
X94645191Y-70133994D01*
X94660462Y-70118723D01*
X94691966Y-70087219D01*
X94691968Y-70087215D01*
X94691971Y-70087213D01*
X94770034Y-69979767D01*
X94812287Y-69921610D01*
X94905220Y-69739219D01*
X94968477Y-69544534D01*
X95000500Y-69342352D01*
X95000500Y-69137648D01*
X94986144Y-69047007D01*
X94968477Y-68935465D01*
X94905218Y-68740776D01*
X94871503Y-68674607D01*
X94812287Y-68558390D01*
X94750321Y-68473100D01*
X94691971Y-68392786D01*
X94547213Y-68248028D01*
X94381614Y-68127715D01*
X94321334Y-68097001D01*
X94288917Y-68080483D01*
X94238123Y-68032511D01*
X94221328Y-67964690D01*
X94243865Y-67898555D01*
X94288917Y-67859516D01*
X94381610Y-67812287D01*
X94474686Y-67744664D01*
X94547213Y-67691971D01*
X94547215Y-67691968D01*
X94547219Y-67691966D01*
X94691966Y-67547219D01*
X94691968Y-67547215D01*
X94691971Y-67547213D01*
X94754605Y-67461003D01*
X94812287Y-67381610D01*
X94905220Y-67199219D01*
X94968477Y-67004534D01*
X95000500Y-66802352D01*
X95000500Y-66597648D01*
X94992600Y-66547769D01*
X94968477Y-66395465D01*
X94935022Y-66292502D01*
X94905220Y-66200781D01*
X94905218Y-66200778D01*
X94905218Y-66200776D01*
X94846557Y-66085649D01*
X94812287Y-66018390D01*
X94783957Y-65979397D01*
X94691971Y-65852786D01*
X94547213Y-65708028D01*
X94381614Y-65587715D01*
X94373271Y-65583464D01*
X94288917Y-65540483D01*
X94238123Y-65492511D01*
X94221328Y-65424690D01*
X94243865Y-65358555D01*
X94288917Y-65319516D01*
X94381610Y-65272287D01*
X94441599Y-65228703D01*
X94547213Y-65151971D01*
X94547215Y-65151968D01*
X94547219Y-65151966D01*
X94691966Y-65007219D01*
X94691968Y-65007215D01*
X94691971Y-65007213D01*
X94771833Y-64897290D01*
X94812287Y-64841610D01*
X94905220Y-64659219D01*
X94968477Y-64464534D01*
X95000500Y-64262352D01*
X95000500Y-64057648D01*
X94998900Y-64047545D01*
X94968477Y-63855465D01*
X94905218Y-63660776D01*
X94870818Y-63593264D01*
X94812287Y-63478390D01*
X94804556Y-63467749D01*
X94691971Y-63312786D01*
X94547213Y-63168028D01*
X94381614Y-63047715D01*
X94375006Y-63044348D01*
X94288917Y-63000483D01*
X94238123Y-62952511D01*
X94221328Y-62884690D01*
X94243865Y-62818555D01*
X94288917Y-62779516D01*
X94381610Y-62732287D01*
X94405474Y-62714949D01*
X94547213Y-62611971D01*
X94547215Y-62611968D01*
X94547219Y-62611966D01*
X94691966Y-62467219D01*
X94691968Y-62467215D01*
X94691971Y-62467213D01*
X94770429Y-62359223D01*
X94812287Y-62301610D01*
X94905220Y-62119219D01*
X94968477Y-61924534D01*
X95000500Y-61722352D01*
X95000500Y-61517648D01*
X94970310Y-61327041D01*
X94968477Y-61315465D01*
X94932358Y-61204303D01*
X94905220Y-61120781D01*
X94905218Y-61120778D01*
X94905218Y-61120776D01*
X94860135Y-61032297D01*
X94812287Y-60938390D01*
X94782220Y-60897006D01*
X94691971Y-60772786D01*
X94547213Y-60628028D01*
X94381614Y-60507715D01*
X94354269Y-60493782D01*
X94288917Y-60460483D01*
X94238123Y-60412511D01*
X94221328Y-60344690D01*
X94243865Y-60278555D01*
X94288917Y-60239516D01*
X94381610Y-60192287D01*
X94402770Y-60176913D01*
X94547213Y-60071971D01*
X94547215Y-60071968D01*
X94547219Y-60071966D01*
X94691966Y-59927219D01*
X94691968Y-59927215D01*
X94691971Y-59927213D01*
X94792674Y-59788605D01*
X94812287Y-59761610D01*
X94905220Y-59579219D01*
X94968477Y-59384534D01*
X95000500Y-59182352D01*
X95000500Y-58977648D01*
X94968477Y-58775466D01*
X94968476Y-58775464D01*
X94919888Y-58625925D01*
X94905220Y-58580781D01*
X94905218Y-58580778D01*
X94905218Y-58580776D01*
X94847249Y-58467007D01*
X94812287Y-58398390D01*
X94804556Y-58387749D01*
X94691971Y-58232786D01*
X94547213Y-58088028D01*
X94381614Y-57967715D01*
X94375006Y-57964348D01*
X94288917Y-57920483D01*
X94238123Y-57872511D01*
X94221328Y-57804690D01*
X94243865Y-57738555D01*
X94288917Y-57699516D01*
X94381610Y-57652287D01*
X94448094Y-57603984D01*
X94547213Y-57531971D01*
X94547215Y-57531968D01*
X94547219Y-57531966D01*
X94691966Y-57387219D01*
X94691968Y-57387215D01*
X94691971Y-57387213D01*
X94763384Y-57288920D01*
X94812287Y-57221610D01*
X94905220Y-57039219D01*
X94968477Y-56844534D01*
X95000500Y-56642352D01*
X95000500Y-56490897D01*
X95020185Y-56423858D01*
X95036819Y-56403216D01*
X97953316Y-53486719D01*
X98014639Y-53453234D01*
X98040997Y-53450400D01*
X114800478Y-53450400D01*
X114867517Y-53470085D01*
X114913272Y-53522889D01*
X114923216Y-53592047D01*
X114918409Y-53612718D01*
X114891523Y-53695461D01*
X114891523Y-53695464D01*
X114859500Y-53897648D01*
X114859500Y-54102351D01*
X114891522Y-54304534D01*
X114954781Y-54499223D01*
X115047715Y-54681613D01*
X115168028Y-54847213D01*
X115312786Y-54991971D01*
X115467749Y-55104556D01*
X115478390Y-55112287D01*
X115565177Y-55156507D01*
X115571080Y-55159515D01*
X115621876Y-55207490D01*
X115638671Y-55275311D01*
X115616134Y-55341446D01*
X115571080Y-55380485D01*
X115478386Y-55427715D01*
X115312786Y-55548028D01*
X115168028Y-55692786D01*
X115047715Y-55858386D01*
X114954781Y-56040776D01*
X114891522Y-56235465D01*
X114859500Y-56437648D01*
X114859500Y-56642351D01*
X114891522Y-56844534D01*
X114954781Y-57039223D01*
X115047715Y-57221613D01*
X115168028Y-57387213D01*
X115312786Y-57531971D01*
X115422051Y-57611355D01*
X115478390Y-57652287D01*
X115565177Y-57696507D01*
X115571080Y-57699515D01*
X115621876Y-57747490D01*
X115638671Y-57815311D01*
X115616134Y-57881446D01*
X115571080Y-57920485D01*
X115478386Y-57967715D01*
X115312786Y-58088028D01*
X115168028Y-58232786D01*
X115047715Y-58398386D01*
X114954781Y-58580776D01*
X114891522Y-58775465D01*
X114859500Y-58977648D01*
X114859500Y-59182351D01*
X114891522Y-59384534D01*
X114954781Y-59579223D01*
X115047715Y-59761613D01*
X115168028Y-59927213D01*
X115312786Y-60071971D01*
X115467749Y-60184556D01*
X115478390Y-60192287D01*
X115569840Y-60238883D01*
X115571080Y-60239515D01*
X115621876Y-60287490D01*
X115638671Y-60355311D01*
X115616134Y-60421446D01*
X115571080Y-60460485D01*
X115478386Y-60507715D01*
X115312786Y-60628028D01*
X115168028Y-60772786D01*
X115047715Y-60938386D01*
X114954781Y-61120776D01*
X114891522Y-61315465D01*
X114859500Y-61517648D01*
X114859500Y-61722352D01*
X114860129Y-61726321D01*
X114891522Y-61924534D01*
X114954781Y-62119223D01*
X114983811Y-62176196D01*
X115047712Y-62301609D01*
X115047715Y-62301613D01*
X115168028Y-62467213D01*
X115312786Y-62611971D01*
X115454526Y-62714949D01*
X115478390Y-62732287D01*
X115569840Y-62778883D01*
X115571080Y-62779515D01*
X115621876Y-62827490D01*
X115638671Y-62895311D01*
X115616134Y-62961446D01*
X115571080Y-63000485D01*
X115478386Y-63047715D01*
X115312786Y-63168028D01*
X115168028Y-63312786D01*
X115047715Y-63478386D01*
X114954781Y-63660776D01*
X114891522Y-63855465D01*
X114861100Y-64047545D01*
X114859500Y-64057648D01*
X114859500Y-64262352D01*
X114863878Y-64289995D01*
X114891522Y-64464534D01*
X114954781Y-64659223D01*
X115018691Y-64784653D01*
X115045084Y-64836451D01*
X115047715Y-64841613D01*
X115168028Y-65007213D01*
X115312786Y-65151971D01*
X115467749Y-65264556D01*
X115478390Y-65272287D01*
X115529328Y-65298241D01*
X115571080Y-65319515D01*
X115621876Y-65367490D01*
X115638671Y-65435311D01*
X115616134Y-65501446D01*
X115571080Y-65540485D01*
X115478386Y-65587715D01*
X115312786Y-65708028D01*
X115168028Y-65852786D01*
X115047715Y-66018386D01*
X114954781Y-66200776D01*
X114891522Y-66395465D01*
X114859500Y-66597648D01*
X114859500Y-66802351D01*
X114891522Y-67004534D01*
X114954781Y-67199223D01*
X114998637Y-67285294D01*
X115030993Y-67348796D01*
X115047715Y-67381613D01*
X115168028Y-67547213D01*
X115312786Y-67691971D01*
X115467749Y-67804556D01*
X115478390Y-67812287D01*
X115550424Y-67848990D01*
X115571629Y-67859795D01*
X115622425Y-67907770D01*
X115639220Y-67975591D01*
X115616682Y-68041726D01*
X115571629Y-68080765D01*
X115478650Y-68128140D01*
X115313105Y-68248417D01*
X115313104Y-68248417D01*
X115168417Y-68393104D01*
X115168417Y-68393105D01*
X115048140Y-68558650D01*
X114955244Y-68740970D01*
X114892009Y-68935586D01*
X114883391Y-68990000D01*
X115926988Y-68990000D01*
X115894075Y-69047007D01*
X115860000Y-69174174D01*
X115860000Y-69305826D01*
X115894075Y-69432993D01*
X115926988Y-69490000D01*
X114883391Y-69490000D01*
X114892009Y-69544413D01*
X114955244Y-69739029D01*
X115048140Y-69921349D01*
X115168417Y-70086894D01*
X115168417Y-70086895D01*
X115313104Y-70231582D01*
X115478652Y-70351861D01*
X115571628Y-70399234D01*
X115622425Y-70447208D01*
X115639220Y-70515029D01*
X115616683Y-70581164D01*
X115571630Y-70620203D01*
X115478388Y-70667713D01*
X115312786Y-70788028D01*
X115168028Y-70932786D01*
X115047715Y-71098386D01*
X114954781Y-71280776D01*
X114891522Y-71475465D01*
X114859500Y-71677648D01*
X114859500Y-71882351D01*
X114891522Y-72084534D01*
X114954781Y-72279223D01*
X115000085Y-72368135D01*
X115044741Y-72455778D01*
X115047715Y-72461613D01*
X115168028Y-72627213D01*
X115312786Y-72771971D01*
X115449707Y-72871448D01*
X115478390Y-72892287D01*
X115594607Y-72951503D01*
X115660776Y-72985218D01*
X115660778Y-72985218D01*
X115660781Y-72985220D01*
X115718940Y-73004117D01*
X115855465Y-73048477D01*
X115956557Y-73064488D01*
X116057648Y-73080500D01*
X116057649Y-73080500D01*
X116662351Y-73080500D01*
X116662352Y-73080500D01*
X116864534Y-73048477D01*
X116906981Y-73034684D01*
X116976822Y-73032690D01*
X117036655Y-73068770D01*
X117067484Y-73131470D01*
X117069300Y-73152616D01*
X117069300Y-73912402D01*
X117049615Y-73979441D01*
X117032981Y-74000083D01*
X115628622Y-75404442D01*
X114268286Y-76764778D01*
X114268284Y-76764780D01*
X114226862Y-76806202D01*
X114156479Y-76876584D01*
X114148253Y-76890832D01*
X114147318Y-76892454D01*
X114077423Y-77013515D01*
X114036499Y-77166243D01*
X114036499Y-77166245D01*
X114036499Y-77334346D01*
X114036500Y-77334359D01*
X114036500Y-104701730D01*
X114036499Y-104701748D01*
X114036499Y-104867454D01*
X114036498Y-104867454D01*
X114077423Y-105020186D01*
X114091007Y-105043712D01*
X114091008Y-105043717D01*
X114091010Y-105043717D01*
X114145822Y-105138655D01*
X114156479Y-105157114D01*
X114156481Y-105157117D01*
X114275349Y-105275985D01*
X114275355Y-105275990D01*
X115172409Y-106173044D01*
X115205894Y-106234367D01*
X115200910Y-106304059D01*
X115172409Y-106348406D01*
X115168032Y-106352782D01*
X115168028Y-106352786D01*
X115047715Y-106518386D01*
X114954781Y-106700776D01*
X114891522Y-106895465D01*
X114859500Y-107097648D01*
X114859500Y-107302351D01*
X114891522Y-107504534D01*
X114954781Y-107699223D01*
X115047715Y-107881613D01*
X115168028Y-108047213D01*
X115312786Y-108191971D01*
X115467749Y-108304556D01*
X115478390Y-108312287D01*
X115550424Y-108348990D01*
X115571629Y-108359795D01*
X115622425Y-108407770D01*
X115639220Y-108475591D01*
X115616682Y-108541726D01*
X115571629Y-108580765D01*
X115478650Y-108628140D01*
X115313105Y-108748417D01*
X115313104Y-108748417D01*
X115168417Y-108893104D01*
X115168417Y-108893105D01*
X115048140Y-109058650D01*
X114955244Y-109240970D01*
X114892009Y-109435586D01*
X114883391Y-109490000D01*
X115926988Y-109490000D01*
X115894075Y-109547007D01*
X115860000Y-109674174D01*
X115860000Y-109805826D01*
X115894075Y-109932993D01*
X115926988Y-109990000D01*
X114883391Y-109990000D01*
X114892009Y-110044413D01*
X114955244Y-110239029D01*
X115048140Y-110421349D01*
X115168417Y-110586894D01*
X115168417Y-110586895D01*
X115313104Y-110731582D01*
X115478652Y-110851861D01*
X115571628Y-110899234D01*
X115622425Y-110947208D01*
X115639220Y-111015029D01*
X115616683Y-111081164D01*
X115571630Y-111120203D01*
X115478388Y-111167713D01*
X115312786Y-111288028D01*
X115168028Y-111432786D01*
X115047715Y-111598386D01*
X114954781Y-111780776D01*
X114891522Y-111975465D01*
X114859500Y-112177648D01*
X114859500Y-112382351D01*
X114891522Y-112584534D01*
X114954781Y-112779223D01*
X115047715Y-112961613D01*
X115168028Y-113127213D01*
X115312786Y-113271971D01*
X115449707Y-113371448D01*
X115478390Y-113392287D01*
X115592284Y-113450319D01*
X115660776Y-113485218D01*
X115660778Y-113485218D01*
X115660781Y-113485220D01*
X115718940Y-113504117D01*
X115855465Y-113548477D01*
X115956557Y-113564488D01*
X116057648Y-113580500D01*
X116057649Y-113580500D01*
X116662351Y-113580500D01*
X116662352Y-113580500D01*
X116864534Y-113548477D01*
X117059219Y-113485220D01*
X117241610Y-113392287D01*
X117334590Y-113324732D01*
X117407213Y-113271971D01*
X117407215Y-113271968D01*
X117407219Y-113271966D01*
X117551966Y-113127219D01*
X117551968Y-113127215D01*
X117551971Y-113127213D01*
X117657039Y-112982597D01*
X117672287Y-112961610D01*
X117765220Y-112779219D01*
X117828477Y-112584534D01*
X117860500Y-112382352D01*
X117860500Y-112177648D01*
X117841802Y-112059596D01*
X117828477Y-111975465D01*
X117781649Y-111831344D01*
X117765220Y-111780781D01*
X117765218Y-111780778D01*
X117765218Y-111780776D01*
X117707129Y-111666771D01*
X117672287Y-111598390D01*
X117664556Y-111587749D01*
X117551971Y-111432786D01*
X117407213Y-111288028D01*
X117241611Y-111167713D01*
X117148369Y-111120203D01*
X117097574Y-111072229D01*
X117080779Y-111004407D01*
X117103317Y-110938273D01*
X117148371Y-110899234D01*
X117241347Y-110851861D01*
X117406894Y-110731582D01*
X117406895Y-110731582D01*
X117551582Y-110586895D01*
X117551582Y-110586894D01*
X117671859Y-110421349D01*
X117764755Y-110239029D01*
X117827990Y-110044413D01*
X117836609Y-109990000D01*
X116793012Y-109990000D01*
X116825925Y-109932993D01*
X116860000Y-109805826D01*
X116860000Y-109674174D01*
X116825925Y-109547007D01*
X116793012Y-109490000D01*
X117836609Y-109490000D01*
X117827990Y-109435586D01*
X117764755Y-109240970D01*
X117671859Y-109058650D01*
X117551582Y-108893105D01*
X117551582Y-108893104D01*
X117406895Y-108748417D01*
X117241349Y-108628140D01*
X117148370Y-108580765D01*
X117097574Y-108532790D01*
X117080779Y-108464969D01*
X117103316Y-108398835D01*
X117148370Y-108359795D01*
X117148920Y-108359515D01*
X117241610Y-108312287D01*
X117322534Y-108253493D01*
X117407213Y-108191971D01*
X117407215Y-108191968D01*
X117407219Y-108191966D01*
X117551966Y-108047219D01*
X117551968Y-108047215D01*
X117551971Y-108047213D01*
X117664135Y-107892830D01*
X117672287Y-107881610D01*
X117765220Y-107699219D01*
X117828477Y-107504534D01*
X117860500Y-107302352D01*
X117860500Y-107097648D01*
X117841802Y-106979596D01*
X117828477Y-106895465D01*
X117781649Y-106751344D01*
X117765220Y-106700781D01*
X117765218Y-106700778D01*
X117765218Y-106700776D01*
X117681855Y-106537169D01*
X117672287Y-106518390D01*
X117636934Y-106469730D01*
X117551971Y-106352786D01*
X117407213Y-106208028D01*
X117241614Y-106087715D01*
X117235006Y-106084348D01*
X117148917Y-106040483D01*
X117098123Y-105992511D01*
X117081328Y-105924690D01*
X117103865Y-105858555D01*
X117148917Y-105819516D01*
X117241610Y-105772287D01*
X117322534Y-105713493D01*
X117407213Y-105651971D01*
X117407215Y-105651968D01*
X117407219Y-105651966D01*
X117551966Y-105507219D01*
X117551968Y-105507215D01*
X117551971Y-105507213D01*
X117664135Y-105352830D01*
X117672287Y-105341610D01*
X117765220Y-105159219D01*
X117828477Y-104964534D01*
X117860500Y-104762352D01*
X117860500Y-104557648D01*
X117849604Y-104488856D01*
X117828477Y-104355465D01*
X117781649Y-104211344D01*
X117765220Y-104160781D01*
X117765218Y-104160778D01*
X117765218Y-104160776D01*
X117725659Y-104083138D01*
X117672287Y-103978390D01*
X117649500Y-103947026D01*
X117551971Y-103812786D01*
X117407213Y-103668028D01*
X117241614Y-103547715D01*
X117235006Y-103544348D01*
X117148917Y-103500483D01*
X117098123Y-103452511D01*
X117081328Y-103384690D01*
X117103865Y-103318555D01*
X117148917Y-103279516D01*
X117241610Y-103232287D01*
X117322534Y-103173493D01*
X117407213Y-103111971D01*
X117407215Y-103111968D01*
X117407219Y-103111966D01*
X117551966Y-102967219D01*
X117551968Y-102967215D01*
X117551971Y-102967213D01*
X117664132Y-102812834D01*
X117672287Y-102801610D01*
X117765220Y-102619219D01*
X117828477Y-102424534D01*
X117860500Y-102222352D01*
X117860500Y-102017648D01*
X117841802Y-101899596D01*
X117828477Y-101815465D01*
X117781649Y-101671344D01*
X117765220Y-101620781D01*
X117765218Y-101620778D01*
X117765218Y-101620776D01*
X117672287Y-101438390D01*
X117589298Y-101324164D01*
X117565819Y-101258357D01*
X117581645Y-101190303D01*
X117601932Y-101163602D01*
X118227119Y-100538416D01*
X118288442Y-100504931D01*
X118358134Y-100509915D01*
X118402481Y-100538416D01*
X120363439Y-102499374D01*
X120363449Y-102499385D01*
X120367779Y-102503715D01*
X120367780Y-102503716D01*
X120479584Y-102615520D01*
X120551702Y-102657157D01*
X120602816Y-102686668D01*
X120616511Y-102694575D01*
X120616515Y-102694577D01*
X120737005Y-102726862D01*
X120796662Y-102763224D01*
X120817290Y-102794228D01*
X120825963Y-102812828D01*
X120825965Y-102812831D01*
X120918392Y-102944830D01*
X120951201Y-102991686D01*
X120961501Y-103006395D01*
X120961506Y-103006402D01*
X121128597Y-103173493D01*
X121128603Y-103173498D01*
X121314158Y-103303425D01*
X121357783Y-103358002D01*
X121364977Y-103427500D01*
X121333454Y-103489855D01*
X121314158Y-103506575D01*
X121128597Y-103636505D01*
X120961505Y-103803597D01*
X120825965Y-103997169D01*
X120825964Y-103997171D01*
X120726098Y-104211335D01*
X120726094Y-104211344D01*
X120664938Y-104439586D01*
X120664936Y-104439596D01*
X120644341Y-104674999D01*
X120644341Y-104675000D01*
X120664936Y-104910403D01*
X120664938Y-104910413D01*
X120726094Y-105138655D01*
X120726096Y-105138659D01*
X120726097Y-105138663D01*
X120795519Y-105287539D01*
X120825965Y-105352830D01*
X120825967Y-105352834D01*
X120961501Y-105546395D01*
X120961506Y-105546402D01*
X121128597Y-105713493D01*
X121128603Y-105713498D01*
X121314158Y-105843425D01*
X121357783Y-105898002D01*
X121364977Y-105967500D01*
X121333454Y-106029855D01*
X121314158Y-106046575D01*
X121128597Y-106176505D01*
X120961505Y-106343597D01*
X120825965Y-106537169D01*
X120825964Y-106537171D01*
X120726098Y-106751335D01*
X120726094Y-106751344D01*
X120664938Y-106979586D01*
X120664936Y-106979596D01*
X120644341Y-107214999D01*
X120644341Y-107215000D01*
X120664936Y-107450403D01*
X120664938Y-107450413D01*
X120726094Y-107678655D01*
X120726096Y-107678659D01*
X120726097Y-107678663D01*
X120753933Y-107738357D01*
X120825965Y-107892830D01*
X120825967Y-107892834D01*
X120961501Y-108086395D01*
X120961506Y-108086402D01*
X121128597Y-108253493D01*
X121128603Y-108253498D01*
X121314594Y-108383730D01*
X121358219Y-108438307D01*
X121365413Y-108507805D01*
X121333890Y-108570160D01*
X121314595Y-108586880D01*
X121128922Y-108716890D01*
X121128920Y-108716891D01*
X120961891Y-108883920D01*
X120961886Y-108883926D01*
X120826400Y-109077420D01*
X120826399Y-109077422D01*
X120726570Y-109291507D01*
X120726567Y-109291513D01*
X120669364Y-109504999D01*
X120669364Y-109505000D01*
X121566988Y-109505000D01*
X121534075Y-109562007D01*
X121500000Y-109689174D01*
X121500000Y-109820826D01*
X121534075Y-109947993D01*
X121566988Y-110005000D01*
X120669364Y-110005000D01*
X120726567Y-110218486D01*
X120726570Y-110218492D01*
X120826399Y-110432578D01*
X120961894Y-110626082D01*
X121128917Y-110793105D01*
X121314595Y-110923119D01*
X121358219Y-110977696D01*
X121365412Y-111047195D01*
X121333890Y-111109549D01*
X121314595Y-111126269D01*
X121128594Y-111256508D01*
X120961505Y-111423597D01*
X120825965Y-111617169D01*
X120825964Y-111617171D01*
X120726098Y-111831335D01*
X120726094Y-111831344D01*
X120664938Y-112059586D01*
X120664936Y-112059596D01*
X120644341Y-112294999D01*
X120644341Y-112295000D01*
X120664936Y-112530403D01*
X120664938Y-112530413D01*
X120726094Y-112758655D01*
X120726096Y-112758659D01*
X120726097Y-112758663D01*
X120820733Y-112961610D01*
X120825965Y-112972830D01*
X120825967Y-112972834D01*
X120905754Y-113086780D01*
X120961505Y-113166401D01*
X121128599Y-113333495D01*
X121212558Y-113392284D01*
X121322165Y-113469032D01*
X121322167Y-113469033D01*
X121322170Y-113469035D01*
X121536337Y-113568903D01*
X121764592Y-113630063D01*
X121952918Y-113646539D01*
X121999999Y-113650659D01*
X122000000Y-113650659D01*
X122000001Y-113650659D01*
X122039234Y-113647226D01*
X122235408Y-113630063D01*
X122463663Y-113568903D01*
X122677830Y-113469035D01*
X122871401Y-113333495D01*
X123018502Y-113186393D01*
X123079822Y-113152911D01*
X123149513Y-113157895D01*
X123193861Y-113186396D01*
X124634339Y-114626874D01*
X124634349Y-114626885D01*
X124638679Y-114631215D01*
X124638680Y-114631216D01*
X124750484Y-114743020D01*
X124837295Y-114793139D01*
X124837297Y-114793141D01*
X124875351Y-114815111D01*
X124887415Y-114822077D01*
X125040143Y-114863000D01*
X153392531Y-114863000D01*
X153392547Y-114863001D01*
X153400143Y-114863001D01*
X153558254Y-114863001D01*
X153558257Y-114863001D01*
X153710985Y-114822077D01*
X153761104Y-114793139D01*
X153847916Y-114743020D01*
X153959720Y-114631216D01*
X153959720Y-114631214D01*
X153969928Y-114621007D01*
X153969930Y-114621004D01*
X154718506Y-113872428D01*
X154718511Y-113872424D01*
X154728714Y-113862220D01*
X154728716Y-113862220D01*
X154840520Y-113750416D01*
X154898114Y-113650659D01*
X154919577Y-113613485D01*
X154926480Y-113587719D01*
X154962844Y-113528060D01*
X155007936Y-113501882D01*
X155013744Y-113499995D01*
X172244592Y-113499995D01*
X172244592Y-113500004D01*
X172264196Y-113761620D01*
X172264197Y-113761625D01*
X172322576Y-114017402D01*
X172322578Y-114017411D01*
X172322580Y-114017416D01*
X172418432Y-114261643D01*
X172549614Y-114488857D01*
X172655000Y-114621007D01*
X172713198Y-114693985D01*
X172820062Y-114793139D01*
X172905521Y-114872433D01*
X173122296Y-115020228D01*
X173122301Y-115020230D01*
X173122302Y-115020231D01*
X173122303Y-115020232D01*
X173247843Y-115080688D01*
X173358673Y-115134061D01*
X173358674Y-115134061D01*
X173358677Y-115134063D01*
X173609385Y-115211396D01*
X173868818Y-115250500D01*
X174131182Y-115250500D01*
X174390615Y-115211396D01*
X174641323Y-115134063D01*
X174877704Y-115020228D01*
X175094479Y-114872433D01*
X175286805Y-114693981D01*
X175450386Y-114488857D01*
X175581568Y-114261643D01*
X175677420Y-114017416D01*
X175735802Y-113761630D01*
X175735803Y-113761620D01*
X175755408Y-113500004D01*
X175755408Y-113499995D01*
X175735803Y-113238379D01*
X175735802Y-113238374D01*
X175735802Y-113238370D01*
X175677420Y-112982584D01*
X175581568Y-112738357D01*
X175450386Y-112511143D01*
X175286805Y-112306019D01*
X175286804Y-112306018D01*
X175286801Y-112306014D01*
X175094479Y-112127567D01*
X174994769Y-112059586D01*
X174877704Y-111979772D01*
X174877700Y-111979770D01*
X174877697Y-111979768D01*
X174877696Y-111979767D01*
X174641325Y-111865938D01*
X174641327Y-111865938D01*
X174390623Y-111788606D01*
X174390619Y-111788605D01*
X174390615Y-111788604D01*
X174265823Y-111769794D01*
X174131187Y-111749500D01*
X174131182Y-111749500D01*
X173868818Y-111749500D01*
X173868812Y-111749500D01*
X173707247Y-111773853D01*
X173609385Y-111788604D01*
X173609382Y-111788605D01*
X173609376Y-111788606D01*
X173358673Y-111865938D01*
X173122303Y-111979767D01*
X173122302Y-111979768D01*
X172905520Y-112127567D01*
X172713198Y-112306014D01*
X172549614Y-112511143D01*
X172418432Y-112738356D01*
X172322582Y-112982578D01*
X172322576Y-112982597D01*
X172264197Y-113238374D01*
X172264196Y-113238379D01*
X172244592Y-113499995D01*
X155013744Y-113499995D01*
X155059219Y-113485220D01*
X155241610Y-113392287D01*
X155334590Y-113324732D01*
X155407213Y-113271971D01*
X155407215Y-113271968D01*
X155407219Y-113271966D01*
X155551966Y-113127219D01*
X155551968Y-113127215D01*
X155551971Y-113127213D01*
X155657039Y-112982597D01*
X155672287Y-112961610D01*
X155765220Y-112779219D01*
X155828477Y-112584534D01*
X155860500Y-112382352D01*
X155860500Y-112177648D01*
X155841802Y-112059596D01*
X155828477Y-111975465D01*
X155781649Y-111831344D01*
X155765220Y-111780781D01*
X155765218Y-111780778D01*
X155765218Y-111780776D01*
X155707129Y-111666771D01*
X155672287Y-111598390D01*
X155664556Y-111587749D01*
X155551971Y-111432786D01*
X155505190Y-111386005D01*
X155471705Y-111324682D01*
X155476689Y-111254990D01*
X155505186Y-111210648D01*
X158215838Y-108499995D01*
X172244592Y-108499995D01*
X172244592Y-108500004D01*
X172264196Y-108761620D01*
X172264197Y-108761625D01*
X172322576Y-109017402D01*
X172322578Y-109017411D01*
X172322580Y-109017416D01*
X172418432Y-109261643D01*
X172549614Y-109488857D01*
X172608334Y-109562489D01*
X172713198Y-109693985D01*
X172873100Y-109842351D01*
X172905521Y-109872433D01*
X173122296Y-110020228D01*
X173122301Y-110020230D01*
X173122302Y-110020231D01*
X173122303Y-110020232D01*
X173209051Y-110062007D01*
X173358673Y-110134061D01*
X173358674Y-110134061D01*
X173358677Y-110134063D01*
X173609385Y-110211396D01*
X173868818Y-110250500D01*
X174131182Y-110250500D01*
X174390615Y-110211396D01*
X174641323Y-110134063D01*
X174877704Y-110020228D01*
X175094479Y-109872433D01*
X175286805Y-109693981D01*
X175450386Y-109488857D01*
X175581568Y-109261643D01*
X175677420Y-109017416D01*
X175735802Y-108761630D01*
X175736821Y-108748034D01*
X175755408Y-108500004D01*
X175755408Y-108499995D01*
X175735803Y-108238379D01*
X175735802Y-108238374D01*
X175735802Y-108238370D01*
X175677420Y-107982584D01*
X175581568Y-107738357D01*
X175450386Y-107511143D01*
X175286805Y-107306019D01*
X175286804Y-107306018D01*
X175286801Y-107306014D01*
X175094479Y-107127567D01*
X174965678Y-107039752D01*
X174877704Y-106979772D01*
X174877700Y-106979770D01*
X174877697Y-106979768D01*
X174877696Y-106979767D01*
X174641325Y-106865938D01*
X174641327Y-106865938D01*
X174390623Y-106788606D01*
X174390619Y-106788605D01*
X174390615Y-106788604D01*
X174265823Y-106769794D01*
X174131187Y-106749500D01*
X174131182Y-106749500D01*
X173868818Y-106749500D01*
X173868812Y-106749500D01*
X173707247Y-106773853D01*
X173609385Y-106788604D01*
X173609382Y-106788605D01*
X173609376Y-106788606D01*
X173358673Y-106865938D01*
X173122303Y-106979767D01*
X173122302Y-106979768D01*
X173122296Y-106979771D01*
X173122296Y-106979772D01*
X173102615Y-106993190D01*
X172905520Y-107127567D01*
X172713198Y-107306014D01*
X172549614Y-107511143D01*
X172418432Y-107738356D01*
X172322582Y-107982578D01*
X172322576Y-107982597D01*
X172264197Y-108238374D01*
X172264196Y-108238379D01*
X172244592Y-108499995D01*
X158215838Y-108499995D01*
X160858506Y-105857327D01*
X160858511Y-105857324D01*
X160868714Y-105847120D01*
X160868716Y-105847120D01*
X160980520Y-105735316D01*
X161048379Y-105617780D01*
X161059577Y-105598385D01*
X161100501Y-105445657D01*
X161100501Y-105287543D01*
X161100501Y-105279948D01*
X161100500Y-105279930D01*
X161100500Y-103499995D01*
X172244592Y-103499995D01*
X172244592Y-103500004D01*
X172264196Y-103761620D01*
X172264197Y-103761625D01*
X172322576Y-104017402D01*
X172322578Y-104017411D01*
X172322580Y-104017416D01*
X172418432Y-104261643D01*
X172549614Y-104488857D01*
X172635014Y-104595945D01*
X172713198Y-104693985D01*
X172894753Y-104862441D01*
X172905521Y-104872433D01*
X173122296Y-105020228D01*
X173122301Y-105020230D01*
X173122302Y-105020231D01*
X173122303Y-105020232D01*
X173171069Y-105043716D01*
X173358673Y-105134061D01*
X173358674Y-105134061D01*
X173358677Y-105134063D01*
X173609385Y-105211396D01*
X173868818Y-105250500D01*
X174131182Y-105250500D01*
X174390615Y-105211396D01*
X174641323Y-105134063D01*
X174877704Y-105020228D01*
X175094479Y-104872433D01*
X175286805Y-104693981D01*
X175450386Y-104488857D01*
X175581568Y-104261643D01*
X175677420Y-104017416D01*
X175735802Y-103761630D01*
X175735803Y-103761620D01*
X175755408Y-103500004D01*
X175755408Y-103499995D01*
X175735803Y-103238379D01*
X175735802Y-103238374D01*
X175735802Y-103238370D01*
X175677420Y-102982584D01*
X175581568Y-102738357D01*
X175450386Y-102511143D01*
X175286805Y-102306019D01*
X175286804Y-102306018D01*
X175286801Y-102306014D01*
X175094479Y-102127567D01*
X174877704Y-101979772D01*
X174877700Y-101979770D01*
X174877697Y-101979768D01*
X174877696Y-101979767D01*
X174641325Y-101865938D01*
X174641327Y-101865938D01*
X174390623Y-101788606D01*
X174390619Y-101788605D01*
X174390615Y-101788604D01*
X174265823Y-101769794D01*
X174131187Y-101749500D01*
X174131182Y-101749500D01*
X173868818Y-101749500D01*
X173868812Y-101749500D01*
X173707247Y-101773853D01*
X173609385Y-101788604D01*
X173609382Y-101788605D01*
X173609376Y-101788606D01*
X173358673Y-101865938D01*
X173122303Y-101979767D01*
X173122302Y-101979768D01*
X172905520Y-102127567D01*
X172713198Y-102306014D01*
X172549614Y-102511143D01*
X172418432Y-102738356D01*
X172322582Y-102982578D01*
X172322576Y-102982597D01*
X172264197Y-103238374D01*
X172264196Y-103238379D01*
X172244592Y-103499995D01*
X161100500Y-103499995D01*
X161100500Y-98499995D01*
X172244592Y-98499995D01*
X172244592Y-98500004D01*
X172264196Y-98761620D01*
X172264197Y-98761625D01*
X172322576Y-99017402D01*
X172322578Y-99017411D01*
X172322580Y-99017416D01*
X172418432Y-99261643D01*
X172549614Y-99488857D01*
X172634270Y-99595012D01*
X172713198Y-99693985D01*
X172860234Y-99830413D01*
X172905521Y-99872433D01*
X173122296Y-100020228D01*
X173122301Y-100020230D01*
X173122302Y-100020231D01*
X173122303Y-100020232D01*
X173202107Y-100058663D01*
X173358673Y-100134061D01*
X173358674Y-100134061D01*
X173358677Y-100134063D01*
X173609385Y-100211396D01*
X173868818Y-100250500D01*
X174131182Y-100250500D01*
X174390615Y-100211396D01*
X174641323Y-100134063D01*
X174877704Y-100020228D01*
X175094479Y-99872433D01*
X175286805Y-99693981D01*
X175450386Y-99488857D01*
X175581568Y-99261643D01*
X175677420Y-99017416D01*
X175735802Y-98761630D01*
X175735803Y-98761620D01*
X175755408Y-98500004D01*
X175755408Y-98499995D01*
X175735803Y-98238379D01*
X175735802Y-98238374D01*
X175735802Y-98238370D01*
X175677420Y-97982584D01*
X175581568Y-97738357D01*
X175450386Y-97511143D01*
X175286805Y-97306019D01*
X175286804Y-97306018D01*
X175286801Y-97306014D01*
X175094479Y-97127567D01*
X175072667Y-97112696D01*
X174877704Y-96979772D01*
X174877700Y-96979770D01*
X174877697Y-96979768D01*
X174877696Y-96979767D01*
X174641325Y-96865938D01*
X174641327Y-96865938D01*
X174390623Y-96788606D01*
X174390619Y-96788605D01*
X174390615Y-96788604D01*
X174265823Y-96769794D01*
X174131187Y-96749500D01*
X174131182Y-96749500D01*
X173868818Y-96749500D01*
X173868812Y-96749500D01*
X173707247Y-96773853D01*
X173609385Y-96788604D01*
X173609382Y-96788605D01*
X173609376Y-96788606D01*
X173358673Y-96865938D01*
X173122303Y-96979767D01*
X173122302Y-96979768D01*
X172905520Y-97127567D01*
X172713198Y-97306014D01*
X172549614Y-97511143D01*
X172418432Y-97738356D01*
X172322582Y-97982578D01*
X172322576Y-97982597D01*
X172264197Y-98238374D01*
X172264196Y-98238379D01*
X172244592Y-98499995D01*
X161100500Y-98499995D01*
X161100500Y-93499995D01*
X172244592Y-93499995D01*
X172244592Y-93500004D01*
X172264196Y-93761620D01*
X172264197Y-93761625D01*
X172322576Y-94017402D01*
X172322578Y-94017411D01*
X172322580Y-94017416D01*
X172418432Y-94261643D01*
X172549614Y-94488857D01*
X172681736Y-94654533D01*
X172713198Y-94693985D01*
X172832343Y-94804534D01*
X172905521Y-94872433D01*
X173122296Y-95020228D01*
X173122301Y-95020230D01*
X173122302Y-95020231D01*
X173122303Y-95020232D01*
X173247843Y-95080688D01*
X173358673Y-95134061D01*
X173358674Y-95134061D01*
X173358677Y-95134063D01*
X173609385Y-95211396D01*
X173868818Y-95250500D01*
X174131182Y-95250500D01*
X174390615Y-95211396D01*
X174641323Y-95134063D01*
X174877704Y-95020228D01*
X175094479Y-94872433D01*
X175286805Y-94693981D01*
X175450386Y-94488857D01*
X175581568Y-94261643D01*
X175677420Y-94017416D01*
X175735802Y-93761630D01*
X175737826Y-93734623D01*
X175755408Y-93500004D01*
X175755408Y-93499995D01*
X175735803Y-93238379D01*
X175735802Y-93238374D01*
X175735802Y-93238370D01*
X175677420Y-92982584D01*
X175581568Y-92738357D01*
X175450386Y-92511143D01*
X175286805Y-92306019D01*
X175286804Y-92306018D01*
X175286801Y-92306014D01*
X175094479Y-92127567D01*
X174877704Y-91979772D01*
X174877700Y-91979770D01*
X174877697Y-91979768D01*
X174877696Y-91979767D01*
X174641325Y-91865938D01*
X174641327Y-91865938D01*
X174390623Y-91788606D01*
X174390619Y-91788605D01*
X174390615Y-91788604D01*
X174265823Y-91769794D01*
X174131187Y-91749500D01*
X174131182Y-91749500D01*
X173868818Y-91749500D01*
X173868812Y-91749500D01*
X173707247Y-91773853D01*
X173609385Y-91788604D01*
X173609382Y-91788605D01*
X173609376Y-91788606D01*
X173358673Y-91865938D01*
X173122303Y-91979767D01*
X173122302Y-91979768D01*
X172905520Y-92127567D01*
X172713198Y-92306014D01*
X172549614Y-92511143D01*
X172418432Y-92738356D01*
X172322582Y-92982578D01*
X172322576Y-92982597D01*
X172264197Y-93238374D01*
X172264196Y-93238379D01*
X172244592Y-93499995D01*
X161100500Y-93499995D01*
X161100500Y-92820290D01*
X161120185Y-92753251D01*
X161172101Y-92707906D01*
X161177830Y-92705235D01*
X161371401Y-92569695D01*
X161538495Y-92402601D01*
X161674035Y-92209030D01*
X161773903Y-91994863D01*
X161835063Y-91766608D01*
X161855659Y-91531200D01*
X161835063Y-91295792D01*
X161773903Y-91067537D01*
X161674035Y-90853371D01*
X161661511Y-90835484D01*
X161538494Y-90659797D01*
X161371402Y-90492706D01*
X161371396Y-90492701D01*
X161185842Y-90362775D01*
X161142217Y-90308198D01*
X161135023Y-90238700D01*
X161166546Y-90176345D01*
X161185842Y-90159625D01*
X161222351Y-90134061D01*
X161371401Y-90029695D01*
X161538495Y-89862601D01*
X161674035Y-89669030D01*
X161773903Y-89454863D01*
X161835063Y-89226608D01*
X161855659Y-88991200D01*
X161835063Y-88755792D01*
X161773903Y-88527537D01*
X161761060Y-88499995D01*
X172244592Y-88499995D01*
X172244592Y-88500004D01*
X172264196Y-88761620D01*
X172264197Y-88761625D01*
X172322576Y-89017402D01*
X172322578Y-89017411D01*
X172322580Y-89017416D01*
X172418432Y-89261643D01*
X172549614Y-89488857D01*
X172681736Y-89654533D01*
X172713198Y-89693985D01*
X172848368Y-89819403D01*
X172905521Y-89872433D01*
X173122296Y-90020228D01*
X173122301Y-90020230D01*
X173122302Y-90020231D01*
X173122303Y-90020232D01*
X173242541Y-90078135D01*
X173358673Y-90134061D01*
X173358674Y-90134061D01*
X173358677Y-90134063D01*
X173609385Y-90211396D01*
X173868818Y-90250500D01*
X174131182Y-90250500D01*
X174390615Y-90211396D01*
X174641323Y-90134063D01*
X174851536Y-90032830D01*
X174877696Y-90020232D01*
X174877696Y-90020231D01*
X174877704Y-90020228D01*
X175094479Y-89872433D01*
X175286805Y-89693981D01*
X175450386Y-89488857D01*
X175581568Y-89261643D01*
X175677420Y-89017416D01*
X175735802Y-88761630D01*
X175736239Y-88755796D01*
X175755408Y-88500004D01*
X175755408Y-88499995D01*
X175735803Y-88238379D01*
X175735802Y-88238374D01*
X175735802Y-88238370D01*
X175677420Y-87982584D01*
X175581568Y-87738357D01*
X175450386Y-87511143D01*
X175286805Y-87306019D01*
X175286804Y-87306018D01*
X175286801Y-87306014D01*
X175094479Y-87127567D01*
X174877704Y-86979772D01*
X174877700Y-86979770D01*
X174877697Y-86979768D01*
X174877696Y-86979767D01*
X174641325Y-86865938D01*
X174641327Y-86865938D01*
X174390623Y-86788606D01*
X174390619Y-86788605D01*
X174390615Y-86788604D01*
X174265823Y-86769794D01*
X174131187Y-86749500D01*
X174131182Y-86749500D01*
X173868818Y-86749500D01*
X173868812Y-86749500D01*
X173707247Y-86773853D01*
X173609385Y-86788604D01*
X173609382Y-86788605D01*
X173609376Y-86788606D01*
X173358673Y-86865938D01*
X173122303Y-86979767D01*
X173122302Y-86979768D01*
X172905520Y-87127567D01*
X172713198Y-87306014D01*
X172549614Y-87511143D01*
X172418432Y-87738356D01*
X172322582Y-87982578D01*
X172322576Y-87982597D01*
X172264197Y-88238374D01*
X172264196Y-88238379D01*
X172244592Y-88499995D01*
X161761060Y-88499995D01*
X161674035Y-88313371D01*
X161621526Y-88238379D01*
X161538494Y-88119797D01*
X161371402Y-87952706D01*
X161371396Y-87952701D01*
X161185842Y-87822775D01*
X161142217Y-87768198D01*
X161135023Y-87698700D01*
X161166546Y-87636345D01*
X161185842Y-87619625D01*
X161340770Y-87511143D01*
X161371401Y-87489695D01*
X161538495Y-87322601D01*
X161674035Y-87129030D01*
X161773903Y-86914863D01*
X161835063Y-86686608D01*
X161855659Y-86451200D01*
X161835063Y-86215792D01*
X161773903Y-85987537D01*
X161674035Y-85773371D01*
X161656139Y-85747812D01*
X161538494Y-85579797D01*
X161371402Y-85412706D01*
X161371396Y-85412701D01*
X161185842Y-85282775D01*
X161142217Y-85228198D01*
X161135023Y-85158700D01*
X161166546Y-85096345D01*
X161185842Y-85079625D01*
X161270665Y-85020231D01*
X161371401Y-84949695D01*
X161538495Y-84782601D01*
X161674035Y-84589030D01*
X161773903Y-84374863D01*
X161835063Y-84146608D01*
X161855659Y-83911200D01*
X161835063Y-83675792D01*
X161787959Y-83499995D01*
X172244592Y-83499995D01*
X172244592Y-83500004D01*
X172264196Y-83761620D01*
X172264197Y-83761625D01*
X172322576Y-84017402D01*
X172322578Y-84017411D01*
X172322580Y-84017416D01*
X172418432Y-84261643D01*
X172549614Y-84488857D01*
X172629503Y-84589034D01*
X172713198Y-84693985D01*
X172894753Y-84862441D01*
X172905521Y-84872433D01*
X173122296Y-85020228D01*
X173122301Y-85020230D01*
X173122302Y-85020231D01*
X173122303Y-85020232D01*
X173204655Y-85059890D01*
X173358673Y-85134061D01*
X173358674Y-85134061D01*
X173358677Y-85134063D01*
X173609385Y-85211396D01*
X173868818Y-85250500D01*
X174131182Y-85250500D01*
X174390615Y-85211396D01*
X174641323Y-85134063D01*
X174877704Y-85020228D01*
X175094479Y-84872433D01*
X175286805Y-84693981D01*
X175450386Y-84488857D01*
X175581568Y-84261643D01*
X175677420Y-84017416D01*
X175735802Y-83761630D01*
X175755408Y-83500000D01*
X175751476Y-83447535D01*
X175735803Y-83238379D01*
X175735802Y-83238374D01*
X175735802Y-83238370D01*
X175677420Y-82982584D01*
X175581568Y-82738357D01*
X175450386Y-82511143D01*
X175286805Y-82306019D01*
X175286804Y-82306018D01*
X175286801Y-82306014D01*
X175094479Y-82127567D01*
X174936031Y-82019539D01*
X174877704Y-81979772D01*
X174877700Y-81979770D01*
X174877697Y-81979768D01*
X174877696Y-81979767D01*
X174641325Y-81865938D01*
X174641327Y-81865938D01*
X174390623Y-81788606D01*
X174390619Y-81788605D01*
X174390615Y-81788604D01*
X174265823Y-81769794D01*
X174131187Y-81749500D01*
X174131182Y-81749500D01*
X173868818Y-81749500D01*
X173868812Y-81749500D01*
X173707247Y-81773853D01*
X173609385Y-81788604D01*
X173609382Y-81788605D01*
X173609376Y-81788606D01*
X173358673Y-81865938D01*
X173122303Y-81979767D01*
X173122302Y-81979768D01*
X172905520Y-82127567D01*
X172713198Y-82306014D01*
X172549614Y-82511143D01*
X172418432Y-82738356D01*
X172322582Y-82982578D01*
X172322576Y-82982597D01*
X172264197Y-83238374D01*
X172264196Y-83238379D01*
X172244592Y-83499995D01*
X161787959Y-83499995D01*
X161773903Y-83447537D01*
X161674035Y-83233371D01*
X161538495Y-83039799D01*
X161416567Y-82917871D01*
X161383084Y-82856551D01*
X161388068Y-82786859D01*
X161429939Y-82730925D01*
X161460915Y-82714010D01*
X161592331Y-82664996D01*
X161707546Y-82578746D01*
X161793796Y-82463531D01*
X161844091Y-82328683D01*
X161850500Y-82269073D01*
X161850499Y-80943999D01*
X161870184Y-80876961D01*
X161922987Y-80831206D01*
X161974499Y-80820000D01*
X165193831Y-80820000D01*
X165193847Y-80820001D01*
X165201443Y-80820001D01*
X165359554Y-80820001D01*
X165359557Y-80820001D01*
X165512285Y-80779077D01*
X165591368Y-80733418D01*
X165649216Y-80700020D01*
X165761020Y-80588216D01*
X165761020Y-80588214D01*
X165771224Y-80578011D01*
X165771228Y-80578006D01*
X169147099Y-77202135D01*
X172249500Y-77202135D01*
X172249500Y-79797870D01*
X172249501Y-79797876D01*
X172255908Y-79857483D01*
X172306202Y-79992328D01*
X172306206Y-79992335D01*
X172392452Y-80107544D01*
X172392455Y-80107547D01*
X172507664Y-80193793D01*
X172507671Y-80193797D01*
X172642517Y-80244091D01*
X172642516Y-80244091D01*
X172649444Y-80244835D01*
X172702127Y-80250500D01*
X175297872Y-80250499D01*
X175357483Y-80244091D01*
X175492331Y-80193796D01*
X175607546Y-80107546D01*
X175693796Y-79992331D01*
X175744091Y-79857483D01*
X175750500Y-79797873D01*
X175750499Y-77202128D01*
X175744091Y-77142517D01*
X175695976Y-77013515D01*
X175693797Y-77007671D01*
X175693793Y-77007664D01*
X175607547Y-76892455D01*
X175607544Y-76892452D01*
X175492335Y-76806206D01*
X175492328Y-76806202D01*
X175357482Y-76755908D01*
X175357483Y-76755908D01*
X175297883Y-76749501D01*
X175297881Y-76749500D01*
X175297873Y-76749500D01*
X175297864Y-76749500D01*
X172702129Y-76749500D01*
X172702123Y-76749501D01*
X172642516Y-76755908D01*
X172507671Y-76806202D01*
X172507664Y-76806206D01*
X172392455Y-76892452D01*
X172392452Y-76892455D01*
X172306206Y-77007664D01*
X172306202Y-77007671D01*
X172255908Y-77142517D01*
X172249501Y-77202116D01*
X172249501Y-77202123D01*
X172249500Y-77202135D01*
X169147099Y-77202135D01*
X173199605Y-73149628D01*
X173260926Y-73116145D01*
X173330618Y-73121129D01*
X173341079Y-73125588D01*
X173358677Y-73134063D01*
X173609385Y-73211396D01*
X173868818Y-73250500D01*
X174131182Y-73250500D01*
X174390615Y-73211396D01*
X174641323Y-73134063D01*
X174847684Y-73034685D01*
X174877696Y-73020232D01*
X174877696Y-73020231D01*
X174877704Y-73020228D01*
X175094479Y-72872433D01*
X175286805Y-72693981D01*
X175450386Y-72488857D01*
X175581568Y-72261643D01*
X175677420Y-72017416D01*
X175735802Y-71761630D01*
X175736622Y-71750686D01*
X175755408Y-71500004D01*
X175755408Y-71499995D01*
X175735803Y-71238379D01*
X175735802Y-71238374D01*
X175735802Y-71238370D01*
X175677420Y-70982584D01*
X175581568Y-70738357D01*
X175450386Y-70511143D01*
X175286805Y-70306019D01*
X175286804Y-70306018D01*
X175286801Y-70306014D01*
X175094479Y-70127567D01*
X175035299Y-70087219D01*
X174877704Y-69979772D01*
X174877700Y-69979770D01*
X174877697Y-69979768D01*
X174877696Y-69979767D01*
X174641325Y-69865938D01*
X174641327Y-69865938D01*
X174390623Y-69788606D01*
X174390619Y-69788605D01*
X174390615Y-69788604D01*
X174265823Y-69769794D01*
X174131187Y-69749500D01*
X174131182Y-69749500D01*
X173868818Y-69749500D01*
X173868812Y-69749500D01*
X173707247Y-69773853D01*
X173609385Y-69788604D01*
X173609382Y-69788605D01*
X173609376Y-69788606D01*
X173358673Y-69865938D01*
X173122303Y-69979767D01*
X173122302Y-69979768D01*
X172905520Y-70127567D01*
X172713198Y-70306014D01*
X172549614Y-70511143D01*
X172418432Y-70738356D01*
X172322582Y-70982578D01*
X172322576Y-70982597D01*
X172264197Y-71238374D01*
X172264196Y-71238379D01*
X172244592Y-71499995D01*
X172244592Y-71500004D01*
X172264196Y-71761620D01*
X172264197Y-71761625D01*
X172322578Y-72017412D01*
X172380509Y-72165019D01*
X172386677Y-72234616D01*
X172354239Y-72296500D01*
X172352761Y-72298002D01*
X165068084Y-79582681D01*
X165006761Y-79616166D01*
X164980403Y-79619000D01*
X161224500Y-79619000D01*
X161157461Y-79599315D01*
X161111706Y-79546511D01*
X161100500Y-79495000D01*
X161100500Y-78942643D01*
X161100499Y-78942639D01*
X161088146Y-78896536D01*
X161088146Y-78896535D01*
X161059577Y-78789915D01*
X161030639Y-78739795D01*
X160980520Y-78652984D01*
X160868716Y-78541180D01*
X160868715Y-78541179D01*
X160864385Y-78536849D01*
X160864374Y-78536839D01*
X155331652Y-73004117D01*
X155298167Y-72942794D01*
X155303151Y-72873102D01*
X155345023Y-72817169D01*
X155346448Y-72816118D01*
X155407219Y-72771966D01*
X155551966Y-72627219D01*
X155551968Y-72627215D01*
X155551971Y-72627213D01*
X155614605Y-72541003D01*
X155672287Y-72461610D01*
X155765220Y-72279219D01*
X155828477Y-72084534D01*
X155860500Y-71882352D01*
X155860500Y-71677648D01*
X155828477Y-71475466D01*
X155765220Y-71280781D01*
X155765218Y-71280778D01*
X155765218Y-71280776D01*
X155731503Y-71214607D01*
X155672287Y-71098390D01*
X155610321Y-71013100D01*
X155551971Y-70932786D01*
X155505190Y-70886005D01*
X155471705Y-70824682D01*
X155476689Y-70754990D01*
X155505186Y-70710648D01*
X158943912Y-67271921D01*
X159005233Y-67238438D01*
X159074925Y-67243422D01*
X159130858Y-67285294D01*
X159155119Y-67348796D01*
X159164936Y-67461003D01*
X159164938Y-67461013D01*
X159226094Y-67689255D01*
X159226096Y-67689259D01*
X159226097Y-67689263D01*
X159283463Y-67812284D01*
X159325965Y-67903430D01*
X159325967Y-67903434D01*
X159416544Y-68032790D01*
X159450136Y-68080765D01*
X159461501Y-68096995D01*
X159461506Y-68097002D01*
X159628597Y-68264093D01*
X159628603Y-68264098D01*
X159814158Y-68394025D01*
X159857783Y-68448602D01*
X159864977Y-68518100D01*
X159833454Y-68580455D01*
X159814158Y-68597175D01*
X159628597Y-68727105D01*
X159461505Y-68894197D01*
X159325965Y-69087769D01*
X159325964Y-69087771D01*
X159226098Y-69301935D01*
X159226094Y-69301944D01*
X159164938Y-69530186D01*
X159164936Y-69530196D01*
X159144341Y-69765599D01*
X159144341Y-69765600D01*
X159164936Y-70001003D01*
X159164938Y-70001013D01*
X159226094Y-70229255D01*
X159226096Y-70229259D01*
X159226097Y-70229263D01*
X159283266Y-70351861D01*
X159325965Y-70443430D01*
X159325967Y-70443434D01*
X159461501Y-70636995D01*
X159461506Y-70637002D01*
X159628597Y-70804093D01*
X159628603Y-70804098D01*
X159814158Y-70934025D01*
X159857783Y-70988602D01*
X159864977Y-71058100D01*
X159833454Y-71120455D01*
X159814158Y-71137175D01*
X159628597Y-71267105D01*
X159461505Y-71434197D01*
X159325965Y-71627769D01*
X159325964Y-71627771D01*
X159226098Y-71841935D01*
X159226094Y-71841944D01*
X159164938Y-72070186D01*
X159164936Y-72070196D01*
X159144341Y-72305599D01*
X159144341Y-72305600D01*
X159164936Y-72541003D01*
X159164938Y-72541013D01*
X159226094Y-72769255D01*
X159226096Y-72769259D01*
X159226097Y-72769263D01*
X159306208Y-72941061D01*
X159325965Y-72983430D01*
X159325967Y-72983434D01*
X159461501Y-73176995D01*
X159461506Y-73177002D01*
X159628597Y-73344093D01*
X159628603Y-73344098D01*
X159814158Y-73474025D01*
X159857783Y-73528602D01*
X159864977Y-73598100D01*
X159833454Y-73660455D01*
X159814158Y-73677175D01*
X159628597Y-73807105D01*
X159461505Y-73974197D01*
X159325965Y-74167769D01*
X159325964Y-74167771D01*
X159226098Y-74381935D01*
X159226094Y-74381944D01*
X159164938Y-74610186D01*
X159164936Y-74610196D01*
X159144341Y-74845599D01*
X159144341Y-74845600D01*
X159164936Y-75081003D01*
X159164938Y-75081013D01*
X159226094Y-75309255D01*
X159226096Y-75309259D01*
X159226097Y-75309263D01*
X159282039Y-75429231D01*
X159325965Y-75523430D01*
X159325967Y-75523434D01*
X159405323Y-75636765D01*
X159461505Y-75717001D01*
X159628599Y-75884095D01*
X159715522Y-75944959D01*
X159822165Y-76019632D01*
X159822167Y-76019633D01*
X159822170Y-76019635D01*
X160036337Y-76119503D01*
X160264592Y-76180663D01*
X160452918Y-76197139D01*
X160499999Y-76201259D01*
X160500000Y-76201259D01*
X160500001Y-76201259D01*
X160539234Y-76197826D01*
X160735408Y-76180663D01*
X160963663Y-76119503D01*
X161177830Y-76019635D01*
X161371401Y-75884095D01*
X161538495Y-75717001D01*
X161674035Y-75523430D01*
X161773903Y-75309263D01*
X161835063Y-75081008D01*
X161855659Y-74845600D01*
X161835063Y-74610192D01*
X161773903Y-74381937D01*
X161674035Y-74167771D01*
X161542166Y-73979441D01*
X161538494Y-73974197D01*
X161371402Y-73807106D01*
X161371396Y-73807101D01*
X161185842Y-73677175D01*
X161142217Y-73622598D01*
X161135023Y-73553100D01*
X161166546Y-73490745D01*
X161185842Y-73474025D01*
X161323689Y-73377503D01*
X161371401Y-73344095D01*
X161538495Y-73177001D01*
X161674035Y-72983430D01*
X161773903Y-72769263D01*
X161835063Y-72541008D01*
X161855659Y-72305600D01*
X161835063Y-72070192D01*
X161773903Y-71841937D01*
X161674035Y-71627771D01*
X161584570Y-71500000D01*
X161538494Y-71434197D01*
X161371402Y-71267106D01*
X161371396Y-71267101D01*
X161185842Y-71137175D01*
X161142217Y-71082598D01*
X161135023Y-71013100D01*
X161166546Y-70950745D01*
X161185842Y-70934025D01*
X161208026Y-70918491D01*
X161371401Y-70804095D01*
X161538495Y-70637001D01*
X161674035Y-70443430D01*
X161773903Y-70229263D01*
X161835063Y-70001008D01*
X161855659Y-69765600D01*
X161835063Y-69530192D01*
X161773903Y-69301937D01*
X161674035Y-69087771D01*
X161656333Y-69062489D01*
X161538494Y-68894197D01*
X161371402Y-68727106D01*
X161371396Y-68727101D01*
X161185842Y-68597175D01*
X161142217Y-68542598D01*
X161135023Y-68473100D01*
X161166546Y-68410745D01*
X161185842Y-68394025D01*
X161311533Y-68306015D01*
X161371401Y-68264095D01*
X161538495Y-68097001D01*
X161674035Y-67903430D01*
X161773903Y-67689263D01*
X161835063Y-67461008D01*
X161855659Y-67225600D01*
X161835063Y-66990192D01*
X161773903Y-66761937D01*
X161674035Y-66547771D01*
X161640588Y-66500004D01*
X161640582Y-66499995D01*
X172245093Y-66499995D01*
X172245093Y-66500004D01*
X172264692Y-66761545D01*
X172264693Y-66761550D01*
X172323058Y-67017270D01*
X172418883Y-67261426D01*
X172418882Y-67261426D01*
X172550027Y-67488573D01*
X172597874Y-67548571D01*
X173398958Y-66747488D01*
X173423978Y-66807890D01*
X173495112Y-66914351D01*
X173585649Y-67004888D01*
X173692110Y-67076022D01*
X173752510Y-67101041D01*
X172950830Y-67902720D01*
X173122546Y-68019793D01*
X173122550Y-68019795D01*
X173358854Y-68133594D01*
X173358858Y-68133595D01*
X173609494Y-68210907D01*
X173609500Y-68210909D01*
X173868848Y-68249999D01*
X173868857Y-68250000D01*
X174131143Y-68250000D01*
X174131151Y-68249999D01*
X174390499Y-68210909D01*
X174390505Y-68210907D01*
X174641143Y-68133595D01*
X174877445Y-68019798D01*
X174877447Y-68019797D01*
X175049168Y-67902720D01*
X174247488Y-67101041D01*
X174307890Y-67076022D01*
X174414351Y-67004888D01*
X174504888Y-66914351D01*
X174576022Y-66807890D01*
X174601041Y-66747488D01*
X175402125Y-67548572D01*
X175449971Y-67488573D01*
X175581116Y-67261426D01*
X175676941Y-67017270D01*
X175735306Y-66761550D01*
X175735307Y-66761545D01*
X175754907Y-66500004D01*
X175754907Y-66499995D01*
X175735307Y-66238454D01*
X175735306Y-66238449D01*
X175676941Y-65982729D01*
X175581116Y-65738573D01*
X175581117Y-65738573D01*
X175449972Y-65511426D01*
X175402124Y-65451427D01*
X174601041Y-66252510D01*
X174576022Y-66192110D01*
X174504888Y-66085649D01*
X174414351Y-65995112D01*
X174307890Y-65923978D01*
X174247488Y-65898958D01*
X175049168Y-65097278D01*
X174877454Y-64980206D01*
X174877445Y-64980201D01*
X174641142Y-64866404D01*
X174641144Y-64866404D01*
X174390505Y-64789092D01*
X174390499Y-64789090D01*
X174131151Y-64750000D01*
X173868848Y-64750000D01*
X173609500Y-64789090D01*
X173609494Y-64789092D01*
X173358858Y-64866404D01*
X173358854Y-64866405D01*
X173122547Y-64980205D01*
X173122539Y-64980210D01*
X172950830Y-65097277D01*
X173752511Y-65898958D01*
X173692110Y-65923978D01*
X173585649Y-65995112D01*
X173495112Y-66085649D01*
X173423978Y-66192110D01*
X173398958Y-66252510D01*
X172597874Y-65451427D01*
X172550028Y-65511425D01*
X172418883Y-65738573D01*
X172323058Y-65982729D01*
X172264693Y-66238449D01*
X172264692Y-66238454D01*
X172245093Y-66499995D01*
X161640582Y-66499995D01*
X161538496Y-66354200D01*
X161494698Y-66310402D01*
X161416567Y-66232271D01*
X161383084Y-66170951D01*
X161388068Y-66101259D01*
X161429939Y-66045325D01*
X161460915Y-66028410D01*
X161592331Y-65979396D01*
X161707546Y-65893146D01*
X161793796Y-65777931D01*
X161844091Y-65643083D01*
X161850500Y-65583473D01*
X161850499Y-63787728D01*
X161844091Y-63728117D01*
X161818976Y-63660781D01*
X161793797Y-63593271D01*
X161793793Y-63593264D01*
X161707547Y-63478055D01*
X161707544Y-63478052D01*
X161592335Y-63391806D01*
X161592328Y-63391802D01*
X161457482Y-63341508D01*
X161457483Y-63341508D01*
X161397883Y-63335101D01*
X161397881Y-63335100D01*
X161397873Y-63335100D01*
X161397865Y-63335100D01*
X160714096Y-63335100D01*
X160647057Y-63315415D01*
X160601302Y-63262611D01*
X160591358Y-63193453D01*
X160620383Y-63129897D01*
X160626415Y-63123419D01*
X161282621Y-62467213D01*
X162013306Y-61736528D01*
X162013311Y-61736524D01*
X162023514Y-61726320D01*
X162023516Y-61726320D01*
X162135320Y-61614516D01*
X162201438Y-61499995D01*
X172244592Y-61499995D01*
X172244592Y-61500004D01*
X172264196Y-61761620D01*
X172264197Y-61761625D01*
X172264197Y-61761629D01*
X172264198Y-61761630D01*
X172266238Y-61770568D01*
X172322576Y-62017402D01*
X172322579Y-62017412D01*
X172322580Y-62017416D01*
X172418432Y-62261643D01*
X172549614Y-62488857D01*
X172640328Y-62602609D01*
X172713198Y-62693985D01*
X172857084Y-62827490D01*
X172905521Y-62872433D01*
X173122296Y-63020228D01*
X173122301Y-63020230D01*
X173122302Y-63020231D01*
X173122303Y-63020232D01*
X173179369Y-63047713D01*
X173358673Y-63134061D01*
X173358674Y-63134061D01*
X173358677Y-63134063D01*
X173609385Y-63211396D01*
X173868818Y-63250500D01*
X174131182Y-63250500D01*
X174390615Y-63211396D01*
X174641323Y-63134063D01*
X174877704Y-63020228D01*
X175094479Y-62872433D01*
X175286805Y-62693981D01*
X175450386Y-62488857D01*
X175581568Y-62261643D01*
X175677420Y-62017416D01*
X175735802Y-61761630D01*
X175737683Y-61736532D01*
X175755408Y-61500004D01*
X175755408Y-61499995D01*
X175735803Y-61238379D01*
X175735802Y-61238374D01*
X175735802Y-61238370D01*
X175677420Y-60982584D01*
X175581568Y-60738357D01*
X175450386Y-60511143D01*
X175286805Y-60306019D01*
X175286804Y-60306018D01*
X175286801Y-60306014D01*
X175094479Y-60127567D01*
X175061391Y-60105008D01*
X174877704Y-59979772D01*
X174877700Y-59979770D01*
X174877697Y-59979768D01*
X174877696Y-59979767D01*
X174641325Y-59865938D01*
X174641327Y-59865938D01*
X174390623Y-59788606D01*
X174390619Y-59788605D01*
X174390615Y-59788604D01*
X174265823Y-59769794D01*
X174131187Y-59749500D01*
X174131182Y-59749500D01*
X173868818Y-59749500D01*
X173868812Y-59749500D01*
X173707247Y-59773853D01*
X173609385Y-59788604D01*
X173609382Y-59788605D01*
X173609376Y-59788606D01*
X173358673Y-59865938D01*
X173122303Y-59979767D01*
X173122302Y-59979768D01*
X172905520Y-60127567D01*
X172713198Y-60306014D01*
X172549614Y-60511143D01*
X172418432Y-60738356D01*
X172322582Y-60982578D01*
X172322576Y-60982597D01*
X172264197Y-61238374D01*
X172264196Y-61238379D01*
X172244592Y-61499995D01*
X162201438Y-61499995D01*
X162214377Y-61477584D01*
X162255300Y-61324857D01*
X162255300Y-56499995D01*
X172244592Y-56499995D01*
X172244592Y-56500004D01*
X172264196Y-56761620D01*
X172264197Y-56761625D01*
X172322576Y-57017402D01*
X172322578Y-57017411D01*
X172322580Y-57017416D01*
X172418432Y-57261643D01*
X172549614Y-57488857D01*
X172645709Y-57609356D01*
X172713198Y-57693985D01*
X172832511Y-57804690D01*
X172905521Y-57872433D01*
X173122296Y-58020228D01*
X173122301Y-58020230D01*
X173122302Y-58020231D01*
X173122303Y-58020232D01*
X173247843Y-58080688D01*
X173358673Y-58134061D01*
X173358674Y-58134061D01*
X173358677Y-58134063D01*
X173609385Y-58211396D01*
X173868818Y-58250500D01*
X174131182Y-58250500D01*
X174390615Y-58211396D01*
X174641323Y-58134063D01*
X174877704Y-58020228D01*
X175094479Y-57872433D01*
X175286805Y-57693981D01*
X175450386Y-57488857D01*
X175581568Y-57261643D01*
X175677420Y-57017416D01*
X175735802Y-56761630D01*
X175743560Y-56658105D01*
X175755408Y-56500004D01*
X175755408Y-56499995D01*
X175735803Y-56238379D01*
X175735802Y-56238374D01*
X175735802Y-56238370D01*
X175677420Y-55982584D01*
X175581568Y-55738357D01*
X175450386Y-55511143D01*
X175286805Y-55306019D01*
X175286804Y-55306018D01*
X175286801Y-55306014D01*
X175094479Y-55127567D01*
X174977604Y-55047883D01*
X174877704Y-54979772D01*
X174877700Y-54979770D01*
X174877697Y-54979768D01*
X174877696Y-54979767D01*
X174641325Y-54865938D01*
X174641327Y-54865938D01*
X174390623Y-54788606D01*
X174390619Y-54788605D01*
X174390615Y-54788604D01*
X174265823Y-54769794D01*
X174131187Y-54749500D01*
X174131182Y-54749500D01*
X173868818Y-54749500D01*
X173868812Y-54749500D01*
X173707247Y-54773853D01*
X173609385Y-54788604D01*
X173609382Y-54788605D01*
X173609376Y-54788606D01*
X173358673Y-54865938D01*
X173122303Y-54979767D01*
X173122302Y-54979768D01*
X172905520Y-55127567D01*
X172713198Y-55306014D01*
X172549614Y-55511143D01*
X172418432Y-55738356D01*
X172322582Y-55982578D01*
X172322576Y-55982597D01*
X172264197Y-56238374D01*
X172264196Y-56238379D01*
X172244592Y-56499995D01*
X162255300Y-56499995D01*
X162255300Y-51499995D01*
X172244592Y-51499995D01*
X172244592Y-51500004D01*
X172264196Y-51761620D01*
X172264197Y-51761625D01*
X172264197Y-51761629D01*
X172264198Y-51761630D01*
X172272914Y-51799818D01*
X172322576Y-52017402D01*
X172322578Y-52017411D01*
X172322580Y-52017416D01*
X172418432Y-52261643D01*
X172549614Y-52488857D01*
X172649472Y-52614075D01*
X172713198Y-52693985D01*
X172859788Y-52829999D01*
X172905521Y-52872433D01*
X173122296Y-53020228D01*
X173122301Y-53020230D01*
X173122302Y-53020231D01*
X173122303Y-53020232D01*
X173247843Y-53080688D01*
X173358673Y-53134061D01*
X173358674Y-53134061D01*
X173358677Y-53134063D01*
X173609385Y-53211396D01*
X173868818Y-53250500D01*
X174131182Y-53250500D01*
X174390615Y-53211396D01*
X174641323Y-53134063D01*
X174877704Y-53020228D01*
X175094479Y-52872433D01*
X175286805Y-52693981D01*
X175450386Y-52488857D01*
X175581568Y-52261643D01*
X175677420Y-52017416D01*
X175735802Y-51761630D01*
X175755408Y-51500000D01*
X175735802Y-51238370D01*
X175677420Y-50982584D01*
X175581568Y-50738357D01*
X175450386Y-50511143D01*
X175286805Y-50306019D01*
X175286804Y-50306018D01*
X175286801Y-50306014D01*
X175094479Y-50127567D01*
X174877704Y-49979772D01*
X174877700Y-49979770D01*
X174877697Y-49979768D01*
X174877696Y-49979767D01*
X174641325Y-49865938D01*
X174641327Y-49865938D01*
X174390623Y-49788606D01*
X174390619Y-49788605D01*
X174390615Y-49788604D01*
X174265823Y-49769794D01*
X174131187Y-49749500D01*
X174131182Y-49749500D01*
X173868818Y-49749500D01*
X173868812Y-49749500D01*
X173707247Y-49773853D01*
X173609385Y-49788604D01*
X173609382Y-49788605D01*
X173609376Y-49788606D01*
X173358673Y-49865938D01*
X173122303Y-49979767D01*
X173122302Y-49979768D01*
X172905520Y-50127567D01*
X172713198Y-50306014D01*
X172549614Y-50511143D01*
X172418432Y-50738356D01*
X172322582Y-50982578D01*
X172322576Y-50982597D01*
X172264197Y-51238374D01*
X172264196Y-51238379D01*
X172244592Y-51499995D01*
X162255300Y-51499995D01*
X162255300Y-47104759D01*
X162255301Y-47104746D01*
X162255301Y-46936645D01*
X162255301Y-46936643D01*
X162214377Y-46783915D01*
X162185439Y-46733795D01*
X162135320Y-46646984D01*
X162023516Y-46535180D01*
X162023515Y-46535179D01*
X162019185Y-46530849D01*
X162019174Y-46530839D01*
X161988330Y-46499995D01*
X172244592Y-46499995D01*
X172244592Y-46500004D01*
X172264196Y-46761620D01*
X172264197Y-46761625D01*
X172264197Y-46761629D01*
X172264198Y-46761630D01*
X172271314Y-46792809D01*
X172322576Y-47017402D01*
X172322578Y-47017411D01*
X172322580Y-47017416D01*
X172418432Y-47261643D01*
X172549614Y-47488857D01*
X172638169Y-47599901D01*
X172713198Y-47693985D01*
X172835008Y-47807007D01*
X172905521Y-47872433D01*
X173122296Y-48020228D01*
X173122301Y-48020230D01*
X173122302Y-48020231D01*
X173122303Y-48020232D01*
X173216981Y-48065826D01*
X173358673Y-48134061D01*
X173358674Y-48134061D01*
X173358677Y-48134063D01*
X173609385Y-48211396D01*
X173868818Y-48250500D01*
X174131182Y-48250500D01*
X174390615Y-48211396D01*
X174641323Y-48134063D01*
X174877704Y-48020228D01*
X175094479Y-47872433D01*
X175286805Y-47693981D01*
X175450386Y-47488857D01*
X175581568Y-47261643D01*
X175677420Y-47017416D01*
X175735802Y-46761630D01*
X175739922Y-46706649D01*
X175755408Y-46500004D01*
X175755408Y-46499995D01*
X175735803Y-46238379D01*
X175735802Y-46238374D01*
X175735802Y-46238370D01*
X175677420Y-45982584D01*
X175581568Y-45738357D01*
X175450386Y-45511143D01*
X175286805Y-45306019D01*
X175286804Y-45306018D01*
X175286801Y-45306014D01*
X175094479Y-45127567D01*
X174877704Y-44979772D01*
X174877700Y-44979770D01*
X174877697Y-44979768D01*
X174877696Y-44979767D01*
X174641325Y-44865938D01*
X174641327Y-44865938D01*
X174390623Y-44788606D01*
X174390619Y-44788605D01*
X174390615Y-44788604D01*
X174265823Y-44769794D01*
X174131187Y-44749500D01*
X174131182Y-44749500D01*
X173868818Y-44749500D01*
X173868812Y-44749500D01*
X173707247Y-44773853D01*
X173609385Y-44788604D01*
X173609382Y-44788605D01*
X173609376Y-44788606D01*
X173358673Y-44865938D01*
X173122303Y-44979767D01*
X173122302Y-44979768D01*
X172905520Y-45127567D01*
X172713198Y-45306014D01*
X172549614Y-45511143D01*
X172418432Y-45738356D01*
X172322582Y-45982578D01*
X172322576Y-45982597D01*
X172264197Y-46238374D01*
X172264196Y-46238379D01*
X172244592Y-46499995D01*
X161988330Y-46499995D01*
X159130216Y-43641881D01*
X159096731Y-43580558D01*
X159101715Y-43510866D01*
X159116320Y-43483081D01*
X159130568Y-43462734D01*
X159226739Y-43256496D01*
X159285635Y-43036692D01*
X159305468Y-42810000D01*
X159285635Y-42583308D01*
X159226739Y-42363504D01*
X159130568Y-42157266D01*
X159000047Y-41970861D01*
X159000045Y-41970858D01*
X158839141Y-41809954D01*
X158652734Y-41679432D01*
X158652732Y-41679431D01*
X158446497Y-41583261D01*
X158446488Y-41583258D01*
X158226697Y-41524366D01*
X158226693Y-41524365D01*
X158226692Y-41524365D01*
X158226691Y-41524364D01*
X158226686Y-41524364D01*
X158000002Y-41504532D01*
X157999998Y-41504532D01*
X157773313Y-41524364D01*
X157773302Y-41524366D01*
X157553511Y-41583258D01*
X157553502Y-41583261D01*
X157347267Y-41679431D01*
X157347265Y-41679432D01*
X157160858Y-41809954D01*
X156999954Y-41970858D01*
X156869432Y-42157265D01*
X156869431Y-42157267D01*
X156773261Y-42363502D01*
X156773258Y-42363511D01*
X156714366Y-42583302D01*
X156714364Y-42583313D01*
X156694532Y-42809998D01*
X156694532Y-42810001D01*
X156714364Y-43036686D01*
X156714366Y-43036697D01*
X156773258Y-43256488D01*
X156773261Y-43256497D01*
X156869431Y-43462732D01*
X156869432Y-43462734D01*
X156999954Y-43649141D01*
X157160858Y-43810045D01*
X157160861Y-43810047D01*
X157347266Y-43940568D01*
X157347278Y-43940573D01*
X157348661Y-43941372D01*
X157349155Y-43941890D01*
X157351701Y-43943673D01*
X157351342Y-43944184D01*
X157396880Y-43991935D01*
X157406444Y-44016671D01*
X157440423Y-44143483D01*
X157440426Y-44143490D01*
X157519475Y-44280409D01*
X157519479Y-44280414D01*
X157519480Y-44280416D01*
X157631284Y-44392220D01*
X157631286Y-44392221D01*
X157631290Y-44392224D01*
X157768209Y-44471273D01*
X157768216Y-44471277D01*
X157920943Y-44512200D01*
X158250703Y-44512200D01*
X158317742Y-44531885D01*
X158338384Y-44548519D01*
X160228184Y-46438319D01*
X160261669Y-46499642D01*
X160256685Y-46569334D01*
X160214813Y-46625267D01*
X160149349Y-46649684D01*
X160140503Y-46650000D01*
X159602155Y-46650000D01*
X159542627Y-46656401D01*
X159542620Y-46656403D01*
X159407913Y-46706645D01*
X159407906Y-46706649D01*
X159292812Y-46792809D01*
X159292809Y-46792812D01*
X159206649Y-46907906D01*
X159206645Y-46907913D01*
X159156403Y-47042620D01*
X159156401Y-47042627D01*
X159150000Y-47102155D01*
X159150000Y-47750000D01*
X160066988Y-47750000D01*
X160034075Y-47807007D01*
X160000000Y-47934174D01*
X160000000Y-48065826D01*
X160034075Y-48192993D01*
X160066988Y-48250000D01*
X159150000Y-48250000D01*
X159150000Y-48897844D01*
X159156401Y-48957372D01*
X159156403Y-48957379D01*
X159206645Y-49092086D01*
X159206649Y-49092093D01*
X159292809Y-49207187D01*
X159292812Y-49207190D01*
X159407906Y-49293350D01*
X159407913Y-49293354D01*
X159539986Y-49342614D01*
X159595920Y-49384485D01*
X159620337Y-49449949D01*
X159605486Y-49518222D01*
X159584335Y-49546477D01*
X159461886Y-49668926D01*
X159326400Y-49862420D01*
X159326399Y-49862422D01*
X159226570Y-50076507D01*
X159226567Y-50076513D01*
X159169364Y-50289999D01*
X159169364Y-50290000D01*
X160066988Y-50290000D01*
X160034075Y-50347007D01*
X160000000Y-50474174D01*
X160000000Y-50605826D01*
X160034075Y-50732993D01*
X160066988Y-50790000D01*
X159169364Y-50790000D01*
X159226567Y-51003486D01*
X159226570Y-51003492D01*
X159326399Y-51217578D01*
X159461894Y-51411082D01*
X159628917Y-51578105D01*
X159815031Y-51708425D01*
X159858656Y-51763003D01*
X159865848Y-51832501D01*
X159834326Y-51894856D01*
X159815031Y-51911575D01*
X159628922Y-52041890D01*
X159628920Y-52041891D01*
X159461891Y-52208920D01*
X159461886Y-52208926D01*
X159326400Y-52402420D01*
X159326399Y-52402422D01*
X159226570Y-52616507D01*
X159226567Y-52616513D01*
X159169364Y-52829999D01*
X159169364Y-52830000D01*
X160066988Y-52830000D01*
X160034075Y-52887007D01*
X160000000Y-53014174D01*
X160000000Y-53145826D01*
X160034075Y-53272993D01*
X160066988Y-53330000D01*
X159169364Y-53330000D01*
X159226567Y-53543486D01*
X159226570Y-53543492D01*
X159326399Y-53757578D01*
X159461894Y-53951082D01*
X159628917Y-54118105D01*
X159815031Y-54248425D01*
X159858656Y-54303003D01*
X159865848Y-54372501D01*
X159834326Y-54434856D01*
X159815031Y-54451575D01*
X159628922Y-54581890D01*
X159628920Y-54581891D01*
X159461891Y-54748920D01*
X159461886Y-54748926D01*
X159326400Y-54942420D01*
X159326399Y-54942422D01*
X159226570Y-55156507D01*
X159226567Y-55156513D01*
X159169364Y-55369999D01*
X159169364Y-55370000D01*
X160066988Y-55370000D01*
X160034075Y-55427007D01*
X160000000Y-55554174D01*
X160000000Y-55685826D01*
X160034075Y-55812993D01*
X160066988Y-55870000D01*
X159169364Y-55870000D01*
X159226567Y-56083486D01*
X159226570Y-56083492D01*
X159326399Y-56297578D01*
X159461894Y-56491082D01*
X159628917Y-56658105D01*
X159815031Y-56788425D01*
X159858656Y-56843003D01*
X159865848Y-56912501D01*
X159834326Y-56974856D01*
X159815031Y-56991575D01*
X159628922Y-57121890D01*
X159628920Y-57121891D01*
X159461891Y-57288920D01*
X159461886Y-57288926D01*
X159326400Y-57482420D01*
X159326399Y-57482422D01*
X159226570Y-57696507D01*
X159226567Y-57696513D01*
X159169364Y-57909999D01*
X159169364Y-57910000D01*
X160066988Y-57910000D01*
X160034075Y-57967007D01*
X160000000Y-58094174D01*
X160000000Y-58225826D01*
X160034075Y-58352993D01*
X160066988Y-58410000D01*
X159169364Y-58410000D01*
X159226567Y-58623486D01*
X159226570Y-58623492D01*
X159326399Y-58837578D01*
X159461894Y-59031082D01*
X159628917Y-59198105D01*
X159822421Y-59333600D01*
X160036507Y-59433429D01*
X160036516Y-59433433D01*
X160250000Y-59490634D01*
X160250000Y-58593012D01*
X160307007Y-58625925D01*
X160434174Y-58660000D01*
X160565826Y-58660000D01*
X160692993Y-58625925D01*
X160750000Y-58593012D01*
X160750000Y-59490633D01*
X160898207Y-59450923D01*
X160968057Y-59452586D01*
X161025919Y-59491749D01*
X161053423Y-59555977D01*
X161054300Y-59570698D01*
X161054300Y-60945702D01*
X161034615Y-61012741D01*
X161017981Y-61033383D01*
X158293481Y-63757882D01*
X158293475Y-63757890D01*
X158257898Y-63819513D01*
X158257898Y-63819515D01*
X158214423Y-63894814D01*
X158214423Y-63894815D01*
X158173499Y-64047543D01*
X158173499Y-64047545D01*
X158173499Y-64215646D01*
X158173500Y-64215659D01*
X158173500Y-66292502D01*
X158153815Y-66359541D01*
X158137181Y-66380183D01*
X155889367Y-68627996D01*
X155828044Y-68661481D01*
X155758352Y-68656497D01*
X155702419Y-68614625D01*
X155691201Y-68596610D01*
X155671859Y-68558650D01*
X155551582Y-68393105D01*
X155551582Y-68393104D01*
X155406895Y-68248417D01*
X155241349Y-68128140D01*
X155148370Y-68080765D01*
X155097574Y-68032790D01*
X155080779Y-67964969D01*
X155103316Y-67898835D01*
X155148370Y-67859795D01*
X155148920Y-67859515D01*
X155241610Y-67812287D01*
X155334686Y-67744664D01*
X155407213Y-67691971D01*
X155407215Y-67691968D01*
X155407219Y-67691966D01*
X155551966Y-67547219D01*
X155551968Y-67547215D01*
X155551971Y-67547213D01*
X155614605Y-67461003D01*
X155672287Y-67381610D01*
X155765220Y-67199219D01*
X155828477Y-67004534D01*
X155860500Y-66802352D01*
X155860500Y-66597648D01*
X155852600Y-66547769D01*
X155828477Y-66395465D01*
X155795022Y-66292502D01*
X155765220Y-66200781D01*
X155765218Y-66200778D01*
X155765218Y-66200776D01*
X155706557Y-66085649D01*
X155672287Y-66018390D01*
X155643957Y-65979397D01*
X155551971Y-65852786D01*
X155407213Y-65708028D01*
X155241614Y-65587715D01*
X155233271Y-65583464D01*
X155148917Y-65540483D01*
X155098123Y-65492511D01*
X155081328Y-65424690D01*
X155103865Y-65358555D01*
X155148917Y-65319516D01*
X155241610Y-65272287D01*
X155301599Y-65228703D01*
X155407213Y-65151971D01*
X155407215Y-65151968D01*
X155407219Y-65151966D01*
X155551966Y-65007219D01*
X155551968Y-65007215D01*
X155551971Y-65007213D01*
X155631833Y-64897290D01*
X155672287Y-64841610D01*
X155765220Y-64659219D01*
X155828477Y-64464534D01*
X155860500Y-64262352D01*
X155860500Y-64057648D01*
X155858900Y-64047545D01*
X155828477Y-63855465D01*
X155765218Y-63660776D01*
X155730818Y-63593264D01*
X155672287Y-63478390D01*
X155664556Y-63467749D01*
X155551971Y-63312786D01*
X155407213Y-63168028D01*
X155241614Y-63047715D01*
X155235006Y-63044348D01*
X155148917Y-63000483D01*
X155098123Y-62952511D01*
X155081328Y-62884690D01*
X155103865Y-62818555D01*
X155148917Y-62779516D01*
X155241610Y-62732287D01*
X155265474Y-62714949D01*
X155407213Y-62611971D01*
X155407215Y-62611968D01*
X155407219Y-62611966D01*
X155551966Y-62467219D01*
X155551968Y-62467215D01*
X155551971Y-62467213D01*
X155630429Y-62359223D01*
X155672287Y-62301610D01*
X155765220Y-62119219D01*
X155828477Y-61924534D01*
X155860500Y-61722352D01*
X155860500Y-61517648D01*
X155830310Y-61327041D01*
X155828477Y-61315465D01*
X155792358Y-61204303D01*
X155765220Y-61120781D01*
X155765218Y-61120778D01*
X155765218Y-61120776D01*
X155720135Y-61032297D01*
X155672287Y-60938390D01*
X155642220Y-60897006D01*
X155551971Y-60772786D01*
X155407213Y-60628028D01*
X155241614Y-60507715D01*
X155214269Y-60493782D01*
X155148917Y-60460483D01*
X155098123Y-60412511D01*
X155081328Y-60344690D01*
X155103865Y-60278555D01*
X155148917Y-60239516D01*
X155241610Y-60192287D01*
X155262770Y-60176913D01*
X155407213Y-60071971D01*
X155407215Y-60071968D01*
X155407219Y-60071966D01*
X155551966Y-59927219D01*
X155551968Y-59927215D01*
X155551971Y-59927213D01*
X155652674Y-59788605D01*
X155672287Y-59761610D01*
X155765220Y-59579219D01*
X155828477Y-59384534D01*
X155860500Y-59182352D01*
X155860500Y-58977648D01*
X155828477Y-58775466D01*
X155828476Y-58775464D01*
X155779888Y-58625925D01*
X155765220Y-58580781D01*
X155765218Y-58580778D01*
X155765218Y-58580776D01*
X155707249Y-58467007D01*
X155672287Y-58398390D01*
X155664556Y-58387749D01*
X155551971Y-58232786D01*
X155407213Y-58088028D01*
X155241614Y-57967715D01*
X155235006Y-57964348D01*
X155148917Y-57920483D01*
X155098123Y-57872511D01*
X155081328Y-57804690D01*
X155103865Y-57738555D01*
X155148917Y-57699516D01*
X155241610Y-57652287D01*
X155308094Y-57603984D01*
X155407213Y-57531971D01*
X155407215Y-57531968D01*
X155407219Y-57531966D01*
X155551966Y-57387219D01*
X155551968Y-57387215D01*
X155551971Y-57387213D01*
X155623384Y-57288920D01*
X155672287Y-57221610D01*
X155765220Y-57039219D01*
X155828477Y-56844534D01*
X155860500Y-56642352D01*
X155860500Y-56437648D01*
X155838315Y-56297578D01*
X155828477Y-56235465D01*
X155779888Y-56085925D01*
X155765220Y-56040781D01*
X155765218Y-56040778D01*
X155765218Y-56040776D01*
X155707249Y-55927007D01*
X155672287Y-55858390D01*
X155664556Y-55847749D01*
X155551971Y-55692786D01*
X155407213Y-55548028D01*
X155241614Y-55427715D01*
X155235006Y-55424348D01*
X155148917Y-55380483D01*
X155098123Y-55332511D01*
X155081328Y-55264690D01*
X155103865Y-55198555D01*
X155148917Y-55159516D01*
X155241610Y-55112287D01*
X155300700Y-55069356D01*
X155407213Y-54991971D01*
X155407215Y-54991968D01*
X155407219Y-54991966D01*
X155551966Y-54847219D01*
X155551968Y-54847215D01*
X155551971Y-54847213D01*
X155623384Y-54748920D01*
X155672287Y-54681610D01*
X155765220Y-54499219D01*
X155828477Y-54304534D01*
X155860500Y-54102352D01*
X155860500Y-53897648D01*
X155828477Y-53695466D01*
X155828476Y-53695464D01*
X155779888Y-53545925D01*
X155765220Y-53500781D01*
X155765218Y-53500778D01*
X155765218Y-53500776D01*
X155707249Y-53387007D01*
X155672287Y-53318390D01*
X155664556Y-53307749D01*
X155551971Y-53152786D01*
X155407213Y-53008028D01*
X155241613Y-52887715D01*
X155241612Y-52887714D01*
X155241610Y-52887713D01*
X155184653Y-52858691D01*
X155059223Y-52794781D01*
X154864534Y-52731522D01*
X154689995Y-52703878D01*
X154662352Y-52699500D01*
X154057648Y-52699500D01*
X154033329Y-52703351D01*
X153855465Y-52731522D01*
X153660776Y-52794781D01*
X153478386Y-52887715D01*
X153312786Y-53008028D01*
X153168028Y-53152786D01*
X153047715Y-53318386D01*
X152954781Y-53500776D01*
X152891522Y-53695465D01*
X152859500Y-53897648D01*
X152859500Y-54102351D01*
X152891522Y-54304534D01*
X152954781Y-54499223D01*
X153047715Y-54681613D01*
X153168028Y-54847213D01*
X153175059Y-54854244D01*
X153208544Y-54915567D01*
X153203560Y-54985259D01*
X153175059Y-55029606D01*
X150868784Y-57335881D01*
X150807461Y-57369366D01*
X150781103Y-57372200D01*
X132937907Y-57372200D01*
X132870868Y-57352515D01*
X132825113Y-57299711D01*
X132815169Y-57230553D01*
X132827422Y-57191905D01*
X132854530Y-57138704D01*
X132905220Y-57039219D01*
X132968477Y-56844534D01*
X133000500Y-56642352D01*
X133000500Y-56437648D01*
X132978315Y-56297578D01*
X132968477Y-56235465D01*
X132919888Y-56085925D01*
X132905220Y-56040781D01*
X132905218Y-56040778D01*
X132905218Y-56040776D01*
X132847249Y-55927007D01*
X132812287Y-55858390D01*
X132804556Y-55847749D01*
X132691971Y-55692786D01*
X132660736Y-55661551D01*
X132627251Y-55600228D01*
X132632235Y-55530536D01*
X132674107Y-55474603D01*
X132705080Y-55457689D01*
X132742331Y-55443796D01*
X132857546Y-55357546D01*
X132943796Y-55242331D01*
X132994091Y-55107483D01*
X133000500Y-55047873D01*
X133000499Y-52952128D01*
X132994091Y-52892517D01*
X132992299Y-52887713D01*
X132943797Y-52757671D01*
X132943793Y-52757664D01*
X132857547Y-52642455D01*
X132857544Y-52642452D01*
X132742335Y-52556206D01*
X132742328Y-52556202D01*
X132607482Y-52505908D01*
X132607483Y-52505908D01*
X132547883Y-52499501D01*
X132547881Y-52499500D01*
X132547873Y-52499500D01*
X132547864Y-52499500D01*
X130452129Y-52499500D01*
X130452123Y-52499501D01*
X130392516Y-52505908D01*
X130257671Y-52556202D01*
X130257664Y-52556206D01*
X130142455Y-52642452D01*
X130142452Y-52642455D01*
X130056206Y-52757664D01*
X130056202Y-52757671D01*
X130005908Y-52892517D01*
X129999501Y-52952116D01*
X129999501Y-52952123D01*
X129999500Y-52952135D01*
X129999500Y-53890903D01*
X129979815Y-53957942D01*
X129927011Y-54003697D01*
X129857853Y-54013641D01*
X129794297Y-53984616D01*
X129787819Y-53978584D01*
X128297490Y-52488255D01*
X128297488Y-52488252D01*
X128178617Y-52369381D01*
X128178616Y-52369380D01*
X128091804Y-52319260D01*
X128091804Y-52319259D01*
X128091800Y-52319258D01*
X128041685Y-52290323D01*
X127888957Y-52249399D01*
X127730843Y-52249399D01*
X127723247Y-52249399D01*
X127723231Y-52249400D01*
X97819957Y-52249400D01*
X97661842Y-52249400D01*
X97509115Y-52290323D01*
X97509114Y-52290323D01*
X97509112Y-52290324D01*
X97509109Y-52290325D01*
X97458996Y-52319259D01*
X97458995Y-52319260D01*
X97415589Y-52344320D01*
X97372185Y-52369379D01*
X97372182Y-52369381D01*
X95212180Y-54529384D01*
X95150857Y-54562869D01*
X95081165Y-54557885D01*
X95025232Y-54516013D01*
X95000815Y-54450549D01*
X95000499Y-54441703D01*
X95000499Y-52952129D01*
X95000498Y-52952123D01*
X95000497Y-52952116D01*
X94994091Y-52892517D01*
X94992299Y-52887713D01*
X94943797Y-52757671D01*
X94943793Y-52757664D01*
X94857547Y-52642455D01*
X94857544Y-52642452D01*
X94742335Y-52556206D01*
X94742328Y-52556202D01*
X94607482Y-52505908D01*
X94607483Y-52505908D01*
X94547883Y-52499501D01*
X94547881Y-52499500D01*
X94547873Y-52499500D01*
X94547864Y-52499500D01*
X92452129Y-52499500D01*
X92452123Y-52499501D01*
X92392516Y-52505908D01*
X92257671Y-52556202D01*
X92257664Y-52556206D01*
X92142455Y-52642452D01*
X92142452Y-52642455D01*
X92056206Y-52757664D01*
X92056202Y-52757671D01*
X92005908Y-52892517D01*
X91999501Y-52952116D01*
X91999501Y-52952123D01*
X91999500Y-52952135D01*
X91999500Y-55047870D01*
X91999501Y-55047876D01*
X92005909Y-55107484D01*
X92051290Y-55229160D01*
X92056274Y-55298851D01*
X92022789Y-55360173D01*
X87131286Y-60251678D01*
X87019481Y-60363482D01*
X87019479Y-60363485D01*
X86989866Y-60414778D01*
X86989865Y-60414780D01*
X86940423Y-60500414D01*
X86940423Y-60500415D01*
X86899499Y-60653143D01*
X86899499Y-60653145D01*
X86899499Y-60821246D01*
X86899500Y-60821259D01*
X86899500Y-77544951D01*
X86879815Y-77611990D01*
X86834518Y-77654006D01*
X86676493Y-77739524D01*
X86480257Y-77892261D01*
X86311833Y-78075217D01*
X86175826Y-78283393D01*
X86075936Y-78511118D01*
X86014892Y-78752175D01*
X86014890Y-78752187D01*
X85994357Y-78999994D01*
X84505141Y-78999994D01*
X84484614Y-78752270D01*
X84484612Y-78752261D01*
X84423587Y-78511282D01*
X84323731Y-78283630D01*
X84223434Y-78130116D01*
X83523787Y-78829764D01*
X83512518Y-78787708D01*
X83440110Y-78662292D01*
X83337708Y-78559890D01*
X83212292Y-78487482D01*
X83170235Y-78476212D01*
X83870057Y-77776390D01*
X83870056Y-77776389D01*
X83823229Y-77739943D01*
X83604614Y-77621635D01*
X83604603Y-77621630D01*
X83369493Y-77540916D01*
X83124293Y-77500000D01*
X82875707Y-77500000D01*
X82630506Y-77540916D01*
X82395396Y-77621630D01*
X82395390Y-77621632D01*
X82176761Y-77739949D01*
X82129942Y-77776388D01*
X82129942Y-77776390D01*
X82829765Y-78476212D01*
X82787708Y-78487482D01*
X82662292Y-78559890D01*
X82559890Y-78662292D01*
X82487482Y-78787708D01*
X82476212Y-78829764D01*
X81776564Y-78130116D01*
X81676267Y-78283632D01*
X81576412Y-78511282D01*
X81515387Y-78752261D01*
X81515385Y-78752270D01*
X81494859Y-78999994D01*
X80500500Y-78999994D01*
X80500500Y-41499995D01*
X172244592Y-41499995D01*
X172244592Y-41500004D01*
X172264196Y-41761620D01*
X172264197Y-41761625D01*
X172322576Y-42017402D01*
X172322578Y-42017411D01*
X172322580Y-42017416D01*
X172418432Y-42261643D01*
X172549614Y-42488857D01*
X172681736Y-42654533D01*
X172713198Y-42693985D01*
X172838234Y-42810000D01*
X172905521Y-42872433D01*
X173122296Y-43020228D01*
X173122301Y-43020230D01*
X173122302Y-43020231D01*
X173122303Y-43020232D01*
X173247843Y-43080688D01*
X173358673Y-43134061D01*
X173358674Y-43134061D01*
X173358677Y-43134063D01*
X173609385Y-43211396D01*
X173868818Y-43250500D01*
X174131182Y-43250500D01*
X174390615Y-43211396D01*
X174641323Y-43134063D01*
X174877704Y-43020228D01*
X175094479Y-42872433D01*
X175286805Y-42693981D01*
X175450386Y-42488857D01*
X175581568Y-42261643D01*
X175677420Y-42017416D01*
X175735802Y-41761630D01*
X175753582Y-41524365D01*
X175755408Y-41500004D01*
X175755408Y-41499995D01*
X175735803Y-41238379D01*
X175735802Y-41238374D01*
X175735802Y-41238370D01*
X175677420Y-40982584D01*
X175581568Y-40738357D01*
X175450386Y-40511143D01*
X175286805Y-40306019D01*
X175286804Y-40306018D01*
X175286801Y-40306014D01*
X175094479Y-40127567D01*
X174877704Y-39979772D01*
X174877700Y-39979770D01*
X174877697Y-39979768D01*
X174877696Y-39979767D01*
X174641325Y-39865938D01*
X174641327Y-39865938D01*
X174390623Y-39788606D01*
X174390619Y-39788605D01*
X174390615Y-39788604D01*
X174265823Y-39769794D01*
X174131187Y-39749500D01*
X174131182Y-39749500D01*
X173868818Y-39749500D01*
X173868812Y-39749500D01*
X173707247Y-39773853D01*
X173609385Y-39788604D01*
X173609382Y-39788605D01*
X173609376Y-39788606D01*
X173358673Y-39865938D01*
X173122303Y-39979767D01*
X173122302Y-39979768D01*
X172905520Y-40127567D01*
X172713198Y-40306014D01*
X172549614Y-40511143D01*
X172418432Y-40738356D01*
X172322582Y-40982578D01*
X172322576Y-40982597D01*
X172264197Y-41238374D01*
X172264196Y-41238379D01*
X172244592Y-41499995D01*
X80500500Y-41499995D01*
X80500500Y-29052155D01*
X155325000Y-29052155D01*
X155325000Y-29750000D01*
X156349722Y-29750000D01*
X156305667Y-29826306D01*
X156275000Y-29940756D01*
X156275000Y-30059244D01*
X156305667Y-30173694D01*
X156349722Y-30250000D01*
X155325000Y-30250000D01*
X155325000Y-30947844D01*
X155331401Y-31007372D01*
X155331403Y-31007379D01*
X155381645Y-31142086D01*
X155381649Y-31142093D01*
X155467809Y-31257187D01*
X155467812Y-31257190D01*
X155582906Y-31343350D01*
X155582913Y-31343354D01*
X155717620Y-31393596D01*
X155717627Y-31393598D01*
X155777155Y-31399999D01*
X155777172Y-31400000D01*
X156475000Y-31400000D01*
X156475000Y-30375277D01*
X156551306Y-30419333D01*
X156665756Y-30450000D01*
X156784244Y-30450000D01*
X156898694Y-30419333D01*
X156975000Y-30375277D01*
X156975000Y-31400000D01*
X157672828Y-31400000D01*
X157672844Y-31399999D01*
X157732372Y-31393598D01*
X157732379Y-31393596D01*
X157867086Y-31343354D01*
X157867093Y-31343350D01*
X157982187Y-31257190D01*
X157982190Y-31257187D01*
X158068350Y-31142093D01*
X158068355Y-31142084D01*
X158097075Y-31065081D01*
X158138945Y-31009147D01*
X158204409Y-30984729D01*
X158272682Y-30999580D01*
X158304484Y-31024428D01*
X158313216Y-31033913D01*
X158313219Y-31033915D01*
X158313222Y-31033918D01*
X158496365Y-31176464D01*
X158496376Y-31176471D01*
X158599517Y-31232288D01*
X158649108Y-31281507D01*
X158664500Y-31341343D01*
X158664500Y-33624902D01*
X158644815Y-33691941D01*
X158628181Y-33712583D01*
X158442705Y-33898058D01*
X158381382Y-33931543D01*
X158322931Y-33930152D01*
X158226697Y-33904366D01*
X158226693Y-33904365D01*
X158226692Y-33904365D01*
X158226691Y-33904364D01*
X158226686Y-33904364D01*
X158000002Y-33884532D01*
X157999998Y-33884532D01*
X157773313Y-33904364D01*
X157773302Y-33904366D01*
X157553511Y-33963258D01*
X157553502Y-33963261D01*
X157347267Y-34059431D01*
X157347265Y-34059432D01*
X157160858Y-34189954D01*
X156999954Y-34350858D01*
X156869432Y-34537265D01*
X156869431Y-34537267D01*
X156773261Y-34743502D01*
X156773258Y-34743511D01*
X156714366Y-34963302D01*
X156714364Y-34963313D01*
X156694532Y-35189998D01*
X156694532Y-35190001D01*
X156714364Y-35416686D01*
X156714366Y-35416697D01*
X156773258Y-35636488D01*
X156773261Y-35636497D01*
X156869431Y-35842732D01*
X156869432Y-35842734D01*
X156999954Y-36029141D01*
X157160858Y-36190045D01*
X157160861Y-36190047D01*
X157347266Y-36320568D01*
X157553504Y-36416739D01*
X157773308Y-36475635D01*
X157935230Y-36489801D01*
X157999998Y-36495468D01*
X158000000Y-36495468D01*
X158000002Y-36495468D01*
X158056673Y-36490509D01*
X158226692Y-36475635D01*
X158446496Y-36416739D01*
X158652734Y-36320568D01*
X158839139Y-36190047D01*
X159000047Y-36029139D01*
X159130568Y-35842734D01*
X159226739Y-35636496D01*
X159285635Y-35416692D01*
X159304406Y-35202135D01*
X172249500Y-35202135D01*
X172249500Y-37797870D01*
X172249501Y-37797876D01*
X172255908Y-37857483D01*
X172306202Y-37992328D01*
X172306206Y-37992335D01*
X172392452Y-38107544D01*
X172392455Y-38107547D01*
X172507664Y-38193793D01*
X172507671Y-38193797D01*
X172642517Y-38244091D01*
X172642516Y-38244091D01*
X172649444Y-38244835D01*
X172702127Y-38250500D01*
X175297872Y-38250499D01*
X175357483Y-38244091D01*
X175492331Y-38193796D01*
X175607546Y-38107546D01*
X175693796Y-37992331D01*
X175744091Y-37857483D01*
X175750500Y-37797873D01*
X175750499Y-35202128D01*
X175744091Y-35142517D01*
X175693796Y-35007669D01*
X175693795Y-35007668D01*
X175693793Y-35007664D01*
X175607547Y-34892455D01*
X175607544Y-34892452D01*
X175492335Y-34806206D01*
X175492328Y-34806202D01*
X175357482Y-34755908D01*
X175357483Y-34755908D01*
X175297883Y-34749501D01*
X175297881Y-34749500D01*
X175297873Y-34749500D01*
X175297864Y-34749500D01*
X172702129Y-34749500D01*
X172702123Y-34749501D01*
X172642516Y-34755908D01*
X172507671Y-34806202D01*
X172507664Y-34806206D01*
X172392455Y-34892452D01*
X172392452Y-34892455D01*
X172306206Y-35007664D01*
X172306202Y-35007671D01*
X172255908Y-35142517D01*
X172249501Y-35202116D01*
X172249501Y-35202123D01*
X172249500Y-35202135D01*
X159304406Y-35202135D01*
X159305468Y-35190000D01*
X159285635Y-34963308D01*
X159259847Y-34867066D01*
X159261510Y-34797217D01*
X159291939Y-34747294D01*
X159623506Y-34415728D01*
X159623511Y-34415724D01*
X159633714Y-34405520D01*
X159633716Y-34405520D01*
X159745520Y-34293716D01*
X159805427Y-34189953D01*
X159824577Y-34156785D01*
X159865500Y-34004057D01*
X159865500Y-33845943D01*
X159865500Y-31341343D01*
X159885185Y-31274304D01*
X159930483Y-31232288D01*
X160033626Y-31176470D01*
X160216784Y-31033913D01*
X160373979Y-30863153D01*
X160500924Y-30668849D01*
X160594157Y-30456300D01*
X160651134Y-30231305D01*
X160670300Y-30000000D01*
X160670300Y-29999993D01*
X160651135Y-29768702D01*
X160651133Y-29768691D01*
X160594157Y-29543699D01*
X160500924Y-29331151D01*
X160373983Y-29136852D01*
X160373980Y-29136849D01*
X160373979Y-29136847D01*
X160216784Y-28966087D01*
X160216779Y-28966083D01*
X160216777Y-28966081D01*
X160033634Y-28823535D01*
X160033628Y-28823531D01*
X159829504Y-28713064D01*
X159829495Y-28713061D01*
X159609984Y-28637702D01*
X159422404Y-28606401D01*
X159381049Y-28599500D01*
X159148951Y-28599500D01*
X159107596Y-28606401D01*
X158920015Y-28637702D01*
X158700504Y-28713061D01*
X158700495Y-28713064D01*
X158496371Y-28823531D01*
X158496365Y-28823535D01*
X158313222Y-28966081D01*
X158313215Y-28966087D01*
X158304484Y-28975572D01*
X158244595Y-29011561D01*
X158174757Y-29009458D01*
X158117143Y-28969932D01*
X158097075Y-28934918D01*
X158068355Y-28857915D01*
X158068350Y-28857906D01*
X157982190Y-28742812D01*
X157982187Y-28742809D01*
X157867093Y-28656649D01*
X157867086Y-28656645D01*
X157732379Y-28606403D01*
X157732372Y-28606401D01*
X157672844Y-28600000D01*
X156975000Y-28600000D01*
X156975000Y-29624722D01*
X156898694Y-29580667D01*
X156784244Y-29550000D01*
X156665756Y-29550000D01*
X156551306Y-29580667D01*
X156475000Y-29624722D01*
X156475000Y-28600000D01*
X155777155Y-28600000D01*
X155717627Y-28606401D01*
X155717620Y-28606403D01*
X155582913Y-28656645D01*
X155582906Y-28656649D01*
X155467812Y-28742809D01*
X155467809Y-28742812D01*
X155381649Y-28857906D01*
X155381645Y-28857913D01*
X155331403Y-28992620D01*
X155331401Y-28992627D01*
X155325000Y-29052155D01*
X80500500Y-29052155D01*
X80500500Y-26124500D01*
X80520185Y-26057461D01*
X80572989Y-26011706D01*
X80624500Y-26000500D01*
X178375500Y-26000500D01*
X178442539Y-26020185D01*
G37*
%TD.AperFunction*%
%TD*%
M02*
